<svg width="101" height="101" viewBox="0 0 101 101" fill="none" xmlns="http://www.w3.org/2000/svg">
<rect x="1" y="1.41309" width="99" height="99" rx="15.5" fill="url(#paint0_linear_423_10960)"/>
<rect x="1" y="1.41309" width="99" height="99" rx="15.5" stroke="url(#paint1_linear_423_10960)"/>
<path d="M42.7412 33.2349C41.6818 32.9768 40.6342 33.5111 39.9162 34.3317L35.6403 39.2184V39.2711C37.8107 38.6525 40.2815 38.1046 42.9737 37.7232C44.573 37.4967 46.2504 37.3288 47.9894 37.2398C47.1965 35.7986 45.2589 33.8484 42.7412 33.2349Z" fill="#F8FAFC"/>
<path d="M50.307 37.17C50.7977 35.3987 53.3703 31.955 57.088 31.7052C57.2702 31.693 57.352 31.4582 57.2066 31.3478C51.7417 27.1983 45.5442 29.4484 43.3078 31.3772C43.1779 31.4891 43.2655 31.692 43.4367 31.701C47.2025 31.9009 49.8124 35.3845 50.307 37.17Z" fill="#F8FAFC"/>
<path d="M64.9116 39.1474L60.6979 34.3318C59.9798 33.5111 58.9322 32.9768 57.8727 33.235C55.3791 33.8427 53.4546 35.7617 52.6477 37.1996C54.2816 37.256 55.9489 37.3894 57.6403 37.6139C60.0246 37.9305 62.457 38.4283 64.9116 39.1474Z" fill="#F8FAFC"/>
<path fill-rule="evenodd" clip-rule="evenodd" d="M76.989 61.0686C76.7259 60.5778 76.1886 60.2988 75.6358 60.3658L68.1804 61.2695C67.8091 61.3145 67.5972 60.858 67.8713 60.6035L73.631 55.2551C73.7097 55.1821 73.7409 55.083 73.6962 54.9854C73.3 54.1207 70.9735 50.0211 69.5693 47.5732C68.0348 46.9408 66.5003 46.4033 64.9737 45.9512C62.498 45.2181 60.0427 44.7095 57.6403 44.3848C55.1254 44.0449 52.6685 43.9064 50.307 43.9227C47.7331 43.9404 45.2725 44.1419 42.9737 44.4666C40.2815 44.847 37.8112 45.3964 35.6403 46.0177C33.9585 46.499 32.4564 47.0234 31.1703 47.5458L27.1932 54.8814C27.1102 55.0344 27.1399 55.2241 27.2658 55.3444L32.7735 60.6091C33.042 60.8658 32.8286 61.3164 32.4599 61.2712L25.0999 60.37C24.5347 60.3008 23.9867 60.5935 23.73 61.1018L20.4199 67.6543C19.966 68.5528 20.619 69.6143 21.6257 69.6143H79.3132C80.3343 69.6143 80.9863 68.5251 80.5038 67.6252L76.989 61.0686ZM38.5351 47.1318C36.5088 47.1318 36.2193 49.1903 36.2193 50.2196V52.8248L36.2224 52.8466C36.3205 53.5349 36.5493 55.1406 38.5351 55.1406C40.5421 55.1406 41.0438 53.4681 41.0438 52.8248V50.2196C40.9795 49.1903 40.7544 47.1318 38.5351 47.1318ZM61.886 47.1318C59.8596 47.1318 59.5702 49.1903 59.5702 50.2196V51.3848C59.5702 52.3436 59.488 53.3727 59.9847 54.1928C60.2958 54.7064 60.8534 55.1406 61.886 55.1406C63.893 55.1406 64.3947 53.4681 64.3947 52.8248V50.2196C64.3304 49.1903 64.1053 47.1318 61.886 47.1318ZM46.2544 55.4068C46.2544 55.2379 46.3282 55.0773 46.4565 54.9673L49.9302 51.9889C50.147 51.8029 50.467 51.8029 50.6839 51.9889L54.1575 54.9673C54.2858 55.0773 54.3596 55.2379 54.3596 55.4068V61.151C54.3596 61.3173 54.2881 61.4755 54.1633 61.5854L50.6896 64.6446C50.4709 64.8372 50.1431 64.8372 49.9244 64.6446L46.4507 61.5854C46.3259 61.4755 46.2544 61.3173 46.2544 61.151V55.4068Z" fill="#F8FAFC"/>
<path d="M36.2193 52.8248V50.2196C36.2193 49.1903 36.5088 47.1318 38.5351 47.1318C40.7544 47.1318 40.9795 49.1903 41.0438 50.2196V52.8248C41.0438 53.4681 40.5421 55.1406 38.5351 55.1406C36.5493 55.1406 36.3205 53.5349 36.2224 52.8466M36.2193 52.8248L36.2224 52.8466M36.2193 52.8248C36.2203 52.832 36.2213 52.8393 36.2224 52.8466M50.307 37.17C50.7977 35.3987 53.3703 31.955 57.088 31.7052C57.2702 31.693 57.352 31.4582 57.2066 31.3478C51.7417 27.1983 45.5442 29.4484 43.3078 31.3772C43.1779 31.4891 43.2655 31.692 43.4367 31.701C47.2025 31.9009 49.8124 35.3845 50.307 37.17ZM50.307 37.17C49.5236 37.177 48.7506 37.2009 47.9894 37.2398M50.307 37.17C51.0788 37.163 51.8594 37.1723 52.6477 37.1996M50.307 37.17V43.9227M47.9894 37.2398C47.1965 35.7986 45.2589 33.8484 42.7412 33.2349C41.6818 32.9768 40.6342 33.5111 39.9162 34.3317L35.6403 39.2184V39.2711M47.9894 37.2398C46.2504 37.3288 44.573 37.4967 42.9737 37.7232M52.6477 37.1996C53.4546 35.7617 55.3791 33.8427 57.8727 33.235C58.9322 32.9768 59.9798 33.5111 60.6979 34.3318L64.9116 39.1474M52.6477 37.1996C54.2816 37.256 55.9489 37.3894 57.6403 37.6139M50.307 43.9227C52.6685 43.9064 55.1254 44.0449 57.6403 44.3848M50.307 43.9227C47.7331 43.9404 45.2725 44.1419 42.9737 44.4666M57.6403 37.6139V44.3848M57.6403 37.6139C60.0246 37.9305 62.457 38.4283 64.9116 39.1474M57.6403 44.3848C60.0427 44.7095 62.498 45.2181 64.9737 45.9512M42.9737 37.6139V37.7232M42.9737 44.4666C40.2815 44.847 37.8112 45.3964 35.6403 46.0177M42.9737 44.4666V37.7232M35.6403 46.0177C33.9585 46.499 32.4564 47.0234 31.1703 47.5458M35.6403 46.0177V39.2711M64.9737 45.9512V39.2184L64.9116 39.1474M64.9737 45.9512C66.5003 46.4033 68.0348 46.9408 69.5693 47.5732M31.1703 47.5458C30.6197 47.7694 30.1087 47.9927 29.6402 48.212C29.3806 48.3335 29.0789 48.1461 29.0789 47.8595V41.9674C29.0789 41.8209 29.1613 41.687 29.2931 41.6231C30.8925 40.8467 33.0529 40.0086 35.6403 39.2711M31.1703 47.5458L27.1932 54.8814C27.1102 55.0344 27.1399 55.2241 27.2658 55.3444L32.7735 60.6091C33.042 60.8658 32.8286 61.3164 32.4599 61.2712L25.0999 60.37C24.5347 60.3008 23.9867 60.5935 23.73 61.1018L20.4199 67.6543C19.966 68.5528 20.619 69.6143 21.6257 69.6143H79.3132C80.3343 69.6143 80.9863 68.5251 80.5038 67.6252L76.989 61.0686C76.7259 60.5778 76.1886 60.2988 75.6358 60.3658L68.1804 61.2695C67.8091 61.3145 67.5972 60.858 67.8713 60.6035L73.631 55.2551C73.7097 55.1821 73.7409 55.083 73.6962 54.9854C73.3 54.1207 70.9735 50.0211 69.5693 47.5732M69.5693 47.5732C70.0758 47.782 70.5823 48.0011 71.0886 48.2309C71.3439 48.3468 71.6361 48.1639 71.6401 47.8836L71.7245 41.9774C71.7267 41.8258 71.6399 41.6868 71.5023 41.6231C69.2999 40.6035 67.0969 39.7877 64.9116 39.1474M35.6403 39.2711C37.8107 38.6525 40.2815 38.1046 42.9737 37.7232M59.5702 50.2196C59.5702 49.1903 59.8596 47.1318 61.886 47.1318C64.1053 47.1318 64.3304 49.1903 64.3947 50.2196V52.8248C64.3947 53.4681 63.893 55.1406 61.886 55.1406C60.8534 55.1406 60.2958 54.7064 59.9847 54.1928C59.488 53.3727 59.5702 52.3436 59.5702 51.3848V50.2196ZM49.9302 51.9889L46.4565 54.9673C46.3282 55.0773 46.2544 55.2379 46.2544 55.4068V61.151C46.2544 61.3173 46.3259 61.4755 46.4507 61.5854L49.9244 64.6446C50.1431 64.8372 50.4709 64.8372 50.6896 64.6446L54.1633 61.5854C54.2881 61.4755 54.3596 61.3173 54.3596 61.151V55.4068C54.3596 55.2379 54.2858 55.0773 54.1575 54.9673L50.6839 51.9889C50.467 51.8029 50.147 51.8029 49.9302 51.9889Z" stroke="#F8FAFC" stroke-width="0.77193"/>
<path d="M21.9455 62.0918C22.0847 62.2281 22.3305 62.0916 22.3033 61.8987C21.6776 57.4711 25.6213 52.7518 28.0939 50.5671C28.2295 50.4473 28.1442 50.2197 27.9633 50.2197H26.6397C26.5948 50.2197 26.5524 50.2344 26.5179 50.2631C24.2209 52.1771 20.5415 56.3705 20.6972 60.797C20.6989 60.8458 20.7197 60.8922 20.7546 60.9264L21.9455 62.0918Z" fill="#F8FAFC" stroke="#F8FAFC" stroke-width="0.385965"/>
<path d="M78.9661 62.0918C78.8269 62.2281 78.5811 62.0916 78.6083 61.8987C79.234 57.4711 75.2903 52.7518 72.8177 50.5671C72.6821 50.4473 72.7674 50.2197 72.9483 50.2197H74.2719C74.3168 50.2197 74.3592 50.2344 74.3937 50.2631C76.6907 52.1771 80.3701 56.3705 80.2144 60.797C80.2127 60.8458 80.1919 60.8922 80.157 60.9264L78.9661 62.0918Z" fill="#F8FAFC" stroke="#F8FAFC" stroke-width="0.385965"/>
<path d="M56.4902 70.0967C56.7549 70.0967 57.0149 70.1694 57.2412 70.3066L59.0234 71.3887L59.0801 71.4287C59.3264 71.6298 59.3101 72.0173 59.0479 72.1973L58.9883 72.2324L57.1973 73.1279C56.9964 73.2284 56.7744 73.2812 56.5498 73.2812H44.0645C43.8958 73.2812 43.729 73.2515 43.5713 73.1943L43.417 73.1279L41.626 72.2324C41.2866 72.0627 41.2667 71.5858 41.5908 71.3887L43.3721 70.3066L43.5479 70.2158C43.7289 70.1373 43.9253 70.0967 44.124 70.0967H56.4902Z" fill="#F8FAFC" stroke="#121926" stroke-width="0.192982"/>
<path d="M27.5 4.91309L16.5 4.91309C9.87258 4.91309 4.5 10.2857 4.5 16.9131L4.5 27.9131" stroke="url(#paint2_linear_423_10960)" stroke-linecap="round"/>
<defs>
<linearGradient id="paint0_linear_423_10960" x1="50.5" y1="0.913086" x2="50.5" y2="100.913" gradientUnits="userSpaceOnUse">
<stop stop-color="#53389E"/>
<stop offset="1" stop-color="#2D2055"/>
</linearGradient>
<linearGradient id="paint1_linear_423_10960" x1="50.5" y1="0.913086" x2="50.5" y2="100.913" gradientUnits="userSpaceOnUse">
<stop stop-color="#2D2055"/>
<stop offset="1" stop-color="#42307D"/>
</linearGradient>
<linearGradient id="paint2_linear_423_10960" x1="-0.321092" y1="1.18981" x2="23.1699" y2="23.5829" gradientUnits="userSpaceOnUse">
<stop stop-color="white"/>
<stop offset="0.517259" stop-color="white" stop-opacity="0.01"/>
<stop offset="1" stop-color="white" stop-opacity="0"/>
</linearGradient>
</defs>
</svg>
