<svg width="24" height="21" viewBox="0 0 24 21" fill="none" xmlns="http://www.w3.org/2000/svg">
<g clip-path="url(#clip0_678_8283)">
<path d="M16 16.7057C20.4183 16.7057 24 13.124 24 8.70569C24 4.28741 20.4183 0.705688 16 0.705688C11.5817 0.705688 8 4.28741 8 8.70569C8 13.124 11.5817 16.7057 16 16.7057Z" fill="#F0F0F0"/>
<path d="M15.6519 8.70562H23.9997C23.9997 7.98356 23.9034 7.28406 23.7241 6.61865H15.6519V8.70562Z" fill="#D80027"/>
<path d="M15.6519 4.5313H22.8255C22.3358 3.73218 21.7096 3.02584 20.9795 2.44434H15.6519V4.5313Z" fill="#D80027"/>
<path d="M15.9997 16.7057C17.8824 16.7057 19.613 16.0549 20.9795 14.9666H11.0198C12.3863 16.0549 14.1169 16.7057 15.9997 16.7057Z" fill="#D80027"/>
<path d="M9.17398 12.879H22.8256C23.2188 12.2374 23.5237 11.5362 23.7242 10.792H8.27539C8.47592 11.5362 8.78083 12.2374 9.17398 12.879Z" fill="#D80027"/>
<path d="M11.7057 1.955H12.4348L11.7567 2.44766L12.0157 3.24481L11.3376 2.75216L10.6595 3.24481L10.8832 2.55616C10.2862 3.0535 9.76287 3.63619 9.33162 4.28544H9.56522L9.13356 4.59903C9.06631 4.71122 9.00181 4.82519 8.94 4.94084L9.14612 5.57525L8.76156 5.29584C8.66597 5.49838 8.57853 5.70547 8.49994 5.91688L8.72703 6.61588H9.56522L8.88709 7.10853L9.14612 7.90569L8.46803 7.41303L8.06184 7.70816C8.02119 8.03497 8 8.36784 8 8.70569H16C16 4.28744 16 3.76656 16 0.705688C14.4196 0.705688 12.9464 1.16413 11.7057 1.955ZM12.0157 7.90569L11.3376 7.41303L10.6595 7.90569L10.9185 7.10853L10.2404 6.61588H11.0786L11.3376 5.81872L11.5966 6.61588H12.4348L11.7567 7.10853L12.0157 7.90569ZM11.7567 4.77809L12.0157 5.57525L11.3376 5.08259L10.6595 5.57525L10.9185 4.77809L10.2404 4.28544H11.0786L11.3376 3.48828L11.5966 4.28544H12.4348L11.7567 4.77809ZM14.8853 7.90569L14.2072 7.41303L13.5291 7.90569L13.7881 7.10853L13.11 6.61588H13.9482L14.2072 5.81872L14.4662 6.61588H15.3043L14.6262 7.10853L14.8853 7.90569ZM14.6262 4.77809L14.8853 5.57525L14.2072 5.08259L13.5291 5.57525L13.7881 4.77809L13.11 4.28544H13.9482L14.2072 3.48828L14.4662 4.28544H15.3043L14.6262 4.77809ZM14.6262 2.44766L14.8853 3.24481L14.2072 2.75216L13.5291 3.24481L13.7881 2.44766L13.11 1.955H13.9482L14.2072 1.15784L14.4662 1.955H15.3043L14.6262 2.44766Z" fill="#0052B4"/>
</g>
<rect x="8.25" y="0.955688" width="15.5" height="15.5" rx="7.75" stroke="white" stroke-width="0.5"/>
<g clip-path="url(#clip1_678_8283)">
<path d="M16 11.7057C16 16.1239 12.4183 19.7057 8 19.7057C3.58175 19.7057 0 16.1239 0 11.7057C0 11.7076 8 3.70659 8 3.70569C12.4183 3.70569 16 7.28744 16 11.7057Z" fill="#0052B4"/>
<path d="M7.97852 11.706H7.99996C7.99996 11.6988 7.99996 11.6918 7.99996 11.6846C7.99283 11.6917 7.98569 11.6989 7.97852 11.706Z" fill="#F0F0F0"/>
<path d="M7.99975 7.88045C7.99975 6.47279 7.99975 5.55039 7.99975 3.70654H7.99841C3.58075 3.70726 -0.000244141 7.28867 -0.000244141 11.7065H4.17366V9.35614L6.52403 11.7065H7.97838C7.98553 11.6994 7.99266 11.6923 7.99978 11.6851C7.99978 11.1461 7.99978 10.6652 7.99978 10.2309L5.64938 7.88045H7.99975Z" fill="#F0F0F0"/>
<path d="M4.04758 4.74951C2.79636 5.46198 1.75617 6.50217 1.0437 7.75339V11.706H3.13067V6.83651V6.83648H8.00023C8.00023 6.17826 8.00023 5.5512 8.00023 4.74951H4.04758Z" fill="#D80027"/>
<path d="M8.00037 10.7223L5.1581 7.88002H4.17432C4.17432 7.87999 4.17432 7.88002 4.17432 7.88002L8.00034 11.7061H8.00037C8.00037 11.7061 8.00037 11.0278 8.00037 10.7223Z" fill="#D80027"/>
<path d="M4.8251 13.0967L5.26417 14.0147L6.25563 13.7856L5.81164 14.7013L6.60895 15.3336L5.61623 15.5573L5.61901 16.5749L4.8251 15.9383L4.03123 16.5749L4.03401 15.5573L3.04126 15.3336L3.8386 14.7013L3.39454 13.7856L4.38607 14.0147L4.8251 13.0967Z" fill="#F0F0F0"/>
<path d="M11.9781 14.8359L12.1976 15.295L12.6934 15.1804L12.4713 15.6382L12.87 15.9544L12.3736 16.0663L12.375 16.5751L11.9781 16.2567L11.5811 16.5751L11.5825 16.0663L11.0862 15.9544L11.4848 15.6382L11.2628 15.1804L11.7586 15.295L11.9781 14.8359Z" fill="#F0F0F0"/>
<path d="M9.93564 9.96667L10.1551 10.4257L10.6509 10.3111L10.4289 10.769L10.8275 11.0851L10.3312 11.197L10.3325 11.7058L9.93564 11.3875L9.5387 11.7058L9.54004 11.197L9.0437 11.0851L9.44236 10.769L9.22036 10.3111L9.71611 10.4257L9.93564 9.96667Z" fill="#F0F0F0"/>
<path d="M11.9781 7.18408L12.1976 7.64314L12.6934 7.52855L12.4714 7.9864L12.87 8.30252L12.3736 8.41443L12.375 8.92324L11.9781 8.6049L11.5811 8.92324L11.5825 8.41443L11.0862 8.30252L11.4848 7.9864L11.2628 7.52855L11.7586 7.64314L11.9781 7.18408Z" fill="#F0F0F0"/>
<path d="M13.7613 9.27087L13.9808 9.72994L14.4766 9.61531L14.2546 10.0732L14.6532 10.3893L14.1569 10.5012L14.1582 11.01L13.7613 10.6917L13.3644 11.01L13.3657 10.5012L12.8694 10.3893L13.268 10.0732L13.046 9.61531L13.5418 9.72994L13.7613 9.27087Z" fill="#F0F0F0"/>
<path d="M12.4861 11.7059L12.6588 12.2374H13.2176L12.7655 12.5658L12.9382 13.0972L12.4861 12.7688L12.034 13.0972L12.2067 12.5658L11.7546 12.2374H12.3134L12.4861 11.7059Z" fill="#F0F0F0"/>
</g>
<rect x="0.25" y="3.95569" width="15.5" height="15.5" rx="7.75" stroke="white" stroke-width="0.5"/>
<defs>
<clipPath id="clip0_678_8283">
<rect x="8" y="0.705688" width="16" height="16" rx="8" fill="white"/>
</clipPath>
<clipPath id="clip1_678_8283">
<rect y="3.70569" width="16" height="16" rx="8" fill="white"/>
</clipPath>
</defs>
</svg>
