<svg width="65" height="65" viewBox="0 0 65 65" fill="none" xmlns="http://www.w3.org/2000/svg">
<g clip-path="url(#clip0_525_30180)">
<rect x="0.124023" y="0.25" width="64" height="64" rx="12" fill="#E0E0E0"/>
<g clip-path="url(#clip1_525_30180)">
<rect width="64" height="64" transform="translate(0.124023 0.25)" fill="#FEDEE2"/>
<path d="M38.3775 28.9233C38.6097 28.9233 38.8203 29.0155 38.9751 29.1644C40.4515 29.0691 41.6206 27.7534 41.6206 26.1445C41.6206 25.9286 41.5998 25.7188 41.5596 25.5156C41.2902 24.1463 40.1583 23.1186 38.8032 23.1186C38.4266 23.1186 38.0672 23.1982 37.739 23.3426C37.5604 23.4207 37.3922 23.5182 37.2344 23.6313C37.8439 27.4513 34.5472 29.2537 34.5472 29.2537C34.731 29.0081 34.8553 28.633 34.9386 28.2111C35.1924 26.9192 34.8672 25.5945 34.123 24.508C33.1749 23.1246 33.5098 21.1152 33.5098 21.1152C27.9641 20.1575 27.0666 14.9058 27.0666 14.9058C27.0666 14.9058 25.8424 18.1698 23.1016 19.4847C22.6186 19.7169 22.088 19.8888 21.5083 19.9707C21.416 20.2952 21.3356 20.6219 21.2672 20.9508C20.4746 24.7707 19.7676 32.7953 24.1241 34.9073C24.6331 35.1551 25.2113 35.321 25.8662 35.3902C26.2078 35.4259 26.5397 35.4475 26.862 35.4572V40.8161L33.0231 48.8898L39.1834 40.8161L39.1894 40.8265L39.0882 38.0834L39.0778 37.8014L39.0264 36.3934C38.6685 36.1575 38.3641 35.8613 38.1632 35.4788C37.9109 34.9995 37.8603 34.4459 37.9496 33.9078C38.0009 33.596 38.0992 33.2886 38.2324 33.0044C38.4028 32.6412 38.6194 32.3019 38.8649 31.9811L38.8113 30.5352C38.6841 30.6096 38.536 30.6527 38.3775 30.6527C37.8997 30.6527 37.5127 30.2658 37.5127 29.788C37.5127 29.3102 37.8997 28.9233 38.3775 28.9233ZM38.3946 27.6247C38.6432 27.6247 38.8448 27.8263 38.8448 28.0756C38.8448 28.3249 38.6432 28.5259 38.3946 28.5259C38.146 28.5259 37.9444 28.3242 37.9444 28.0756C37.9444 27.8271 38.146 27.6247 38.3946 27.6247Z" fill="#DB9476"/>
<path d="M29.897 22.4071C29.9263 22.0054 29.785 21.6677 29.5813 21.6528C29.3775 21.6379 29.1886 21.9515 29.1592 22.3532C29.1299 22.7549 29.2712 23.0926 29.475 23.1075C29.6787 23.1224 29.8676 22.8088 29.897 22.4071Z" fill="#231F20"/>
<path d="M23.7855 22.6083C23.8149 22.2066 23.6735 21.8689 23.4698 21.854C23.2661 21.8391 23.0771 22.1527 23.0478 22.5544C23.0184 22.9561 23.1598 23.2938 23.3635 23.3087C23.5672 23.3236 23.7562 23.01 23.7855 22.6083Z" fill="#231F20"/>
<path d="M38.3946 28.5255C38.6432 28.5255 38.8448 28.3239 38.8448 28.0752C38.8448 27.8266 38.6432 27.625 38.3946 27.625C38.1459 27.625 37.9443 27.8266 37.9443 28.0752C37.9443 28.3239 38.1459 28.5255 38.3946 28.5255Z" fill="#231F20"/>
<path d="M38.3774 30.6528C38.855 30.6528 39.2422 30.2657 39.2422 29.7881C39.2422 29.3105 38.855 28.9233 38.3774 28.9233C37.8999 28.9233 37.5127 29.3105 37.5127 29.7881C37.5127 30.2657 37.8999 30.6528 38.3774 30.6528Z" fill="#231F20"/>
<path d="M39.0881 38.0826C40.0496 37.6614 40.6837 37.0832 40.6837 37.0832C40.1099 36.9314 39.5183 36.7163 39.0264 36.3926L39.0881 38.0826Z" fill="#601D0E"/>
<path d="M39.2422 29.7881C39.2422 30.0537 39.1224 30.2904 38.9334 30.4489C38.8954 30.4809 38.8545 30.5099 38.8113 30.5352C38.684 30.6097 38.536 30.6528 38.3774 30.6528C37.8997 30.6528 37.5127 30.2658 37.5127 29.7881C37.5127 29.6951 37.5276 29.6058 37.5544 29.5217C37.6667 29.1741 37.9927 28.9233 38.3774 28.9233C38.6096 28.9233 38.8202 29.0156 38.975 29.1645C39.1395 29.3222 39.2422 29.5425 39.2422 29.7881Z" fill="#FFCE8D"/>
<path d="M38.975 30.1841C38.975 30.2764 38.9601 30.3657 38.9334 30.449C38.8954 30.481 38.8545 30.51 38.8113 30.5353C38.684 30.6097 38.536 30.6529 38.3774 30.6529C37.8997 30.6529 37.5127 30.2659 37.5127 29.7882C37.5127 29.6951 37.5276 29.6058 37.5544 29.5218C37.7047 29.3952 37.8989 29.3193 38.1103 29.3193C38.3432 29.3193 38.5531 29.4109 38.7086 29.5605C38.8731 29.7175 38.975 29.9385 38.975 30.1841Z" fill="#FFBE58"/>
<path d="M47.4588 34.0464C47.4588 34.0464 47.4529 34.0806 47.4372 34.1416C47.2765 34.7794 46.12 38.3627 40.6838 37.0841C40.11 36.9323 39.5184 36.7173 39.0264 36.3935C38.6685 36.1576 38.3641 35.8614 38.1632 35.4789C37.765 34.7221 37.8692 33.7792 38.2324 33.0045C38.4028 32.6413 38.6194 32.302 38.865 31.9813L38.8211 30.7906L38.8114 30.5353C39.0689 30.385 39.2423 30.1074 39.2423 29.7881C39.2423 29.5426 39.1396 29.3223 38.9751 29.1645C40.4516 29.0693 41.6207 27.7535 41.6207 26.1446C41.6207 24.5357 40.3593 23.1187 38.8032 23.1187C38.2227 23.1187 37.6832 23.3085 37.2344 23.6315C37.6542 26.2637 36.2194 27.9381 35.2869 28.7247C34.8791 29.0685 34.5673 29.2427 34.5479 29.2531C34.731 29.0075 34.8553 28.6324 34.9386 28.2112C35.1924 26.9193 34.8672 25.5947 34.123 24.5081C33.355 23.3874 33.4287 21.8559 33.4845 21.3148V21.3111C33.4979 21.1861 33.5098 21.1154 33.5098 21.1154C27.9641 20.1576 27.0666 14.9059 27.0666 14.9059C27.0666 14.9059 26.1051 17.4696 23.9783 18.9684C23.9783 18.9684 23.9778 18.9684 23.9768 18.9684C23.281 19.4588 22.4609 19.8354 21.5083 19.9701C21.416 20.2946 21.3356 20.6213 21.2672 20.9502C20.4478 24.9026 19.7185 33.3543 24.5945 35.1046C24.9822 35.2438 25.4049 35.3405 25.8663 35.3896C26.0821 35.412 26.2934 35.4291 26.501 35.4402C26.6231 35.4477 26.7429 35.4529 26.862 35.4566V38.2875C26.0136 38.2004 23.4134 37.8023 22.6357 36.1487C22.6357 36.1487 22.6268 36.1532 22.6104 36.1606C22.2227 36.3444 17.5076 38.4557 16.7745 33.0789C16.7716 33.0588 16.7492 33.0343 16.7105 33.006C16.4002 32.785 15.0704 32.3653 14.8776 32.2388C14.1409 31.7528 13.5827 30.9855 13.384 30.1223C13.0365 28.616 13.8209 27.5295 14.6789 26.4095C15.5779 25.236 16.3109 24.1033 16.3898 22.5807C16.4464 21.4979 16.3943 20.3913 16.7113 19.3546C17.2151 17.7078 18.9863 16.0579 20.7351 15.8123C20.7351 15.8123 19.2616 11.4566 25.0841 10.9521C25.2032 10.9416 25.3252 10.9327 25.4503 10.926C25.4503 10.926 25.5314 10.8382 25.6884 10.6946C25.7107 10.6737 25.7345 10.6521 25.7598 10.6291L25.7643 10.6246C25.9652 10.443 26.2599 10.196 26.6365 9.92656C27.051 9.62963 27.5652 9.30665 28.1651 9.01642C28.1933 9.00303 28.2209 8.98963 28.2491 8.97623C28.3995 8.90554 28.5491 8.83931 28.6986 8.77829C28.7366 8.76266 28.7738 8.74777 28.811 8.73288C31.464 7.67837 35.4291 7.49233 39.7505 12.0899C39.9016 12.2499 40.0527 12.4166 40.2038 12.5885H40.2045C40.2179 12.6041 40.2313 12.619 40.2447 12.6346C40.2551 12.6458 40.2648 12.6577 40.2752 12.6689C40.2752 12.6689 40.3444 12.6659 40.4687 12.6681C41.579 12.686 47.0793 13.1057 46.8166 19.6188C46.8166 19.6188 50.7883 21.8387 49.4451 26.219C49.4451 26.219 49.5158 26.2801 49.6304 26.3932C50.5442 27.2899 54.2562 31.4514 47.4588 34.0456V34.0464Z" fill="#601D0E"/>
<path d="M49.6869 45.974C49.6847 45.9867 49.6817 46.0001 49.6795 46.0127C49.6765 46.0246 49.6735 46.0395 49.6698 46.0566C49.6683 46.0663 49.6661 46.076 49.6638 46.0856C49.6601 46.102 49.6564 46.1206 49.6519 46.14C49.5284 46.7048 49.0603 48.6613 47.9939 51.2659C47.9753 51.3113 47.9567 51.3567 47.9381 51.4021C47.9016 51.4892 47.8652 51.5763 47.8287 51.6633C47.8064 51.7169 47.7833 51.7697 47.7602 51.8233C47.7252 51.9059 47.6895 51.9893 47.6531 52.0734C47.4737 52.4841 47.2877 52.892 47.0942 53.2968C47.0436 53.4017 46.993 53.5067 46.9416 53.6109C46.9037 53.689 46.865 53.7671 46.8263 53.8445C46.8017 53.8944 46.7764 53.945 46.7511 53.9949C46.7146 54.0685 46.6767 54.1415 46.6395 54.2151C46.4676 54.553 46.2897 54.8886 46.1066 55.2205C46.0583 55.3091 46.0091 55.3977 45.9593 55.4862C45.9511 55.5011 45.9422 55.5167 45.9333 55.5323C45.8856 55.6179 45.8365 55.7042 45.7874 55.7898C45.6267 56.0704 45.4622 56.3494 45.294 56.6255C45.2612 56.6806 45.2277 56.7357 45.1935 56.79C45.16 56.8451 45.1258 56.9002 45.0916 56.9552C44.8214 57.3898 44.5357 57.8282 44.235 58.268C44.2305 58.2747 44.2261 58.2814 44.2216 58.2881C43.6508 59.1193 43.0265 59.9543 42.3418 60.7803C41.9496 61.2536 41.5388 61.7232 41.1057 62.1876C40.9956 62.3059 40.8847 62.4235 40.7716 62.5411C40.4724 62.8544 40.1628 63.1647 39.8436 63.4713C39.665 63.6425 39.4834 63.8129 39.2988 63.9818C37.4919 65.6361 35.3881 67.1677 32.9435 68.4484V68.4447C32.9435 68.4447 32.9435 68.4447 32.9442 68.4432C33.0916 68.2363 37.448 62.0246 39.3279 52.4231C39.9173 49.4129 40.2625 46.0707 40.1591 42.4756L45.8201 43.2815L47.0458 43.4579L47.1359 43.4706L47.8488 43.5733L48.0095 43.5963L48.2246 43.6276L48.1755 43.702L45.8596 47.1699L49.6877 45.974H49.6869Z" fill="#BA5952"/>
<path d="M38.5055 51.8508L33.023 48.9649L32.9955 48.9798C31.6969 54.1608 33.0506 61.4784 32.9442 68.4447C33.1153 68.2036 40.5951 57.5639 40.1598 42.4756L40.0593 42.4614L40.0638 42.4704L38.5062 51.8516L38.5055 51.8508Z" fill="#FCD2E6"/>
<path d="M32.9397 68.45C32.8184 68.3868 32.6985 68.3228 32.5787 68.2573C32.5051 68.2179 32.4321 68.1784 32.3592 68.1375C32.2297 68.0661 32.101 67.9939 31.9737 67.9209C31.874 67.8644 31.775 67.8071 31.6768 67.749C31.5897 67.6977 31.5026 67.6463 31.4163 67.5942C31.3702 67.5667 31.324 67.5384 31.2786 67.5101C31.2094 67.4692 31.141 67.4268 31.0725 67.3844C31.0085 67.3449 30.9445 67.3047 30.882 67.2653C30.8269 67.2303 30.7711 67.1953 30.7168 67.1604C30.3737 66.9416 30.0388 66.7168 29.7121 66.4876C29.6534 66.4474 29.5953 66.4065 29.538 66.3656C29.378 66.2525 29.2202 66.1378 29.0647 66.0225C28.9754 65.9563 28.8861 65.89 28.7975 65.8223C28.7931 65.8193 28.7886 65.8164 28.7841 65.8127C28.7097 65.7561 28.636 65.6996 28.5624 65.643C28.4492 65.5559 28.3376 65.4681 28.2275 65.3803C28.1516 65.32 28.0764 65.2597 28.002 65.1987C27.8204 65.0521 27.6426 64.904 27.4669 64.7544C27.397 64.6941 27.327 64.6346 27.2578 64.5743C27.17 64.4984 27.0837 64.4225 26.9973 64.3459C26.9162 64.2737 26.8351 64.2015 26.7555 64.1286C26.6833 64.0638 26.6126 63.9991 26.5419 63.9336C26.4541 63.8525 26.367 63.7713 26.2814 63.6902C26.1259 63.5429 25.9726 63.3948 25.8215 63.2459C25.7464 63.1715 25.6712 63.0971 25.5968 63.022C25.5224 62.9475 25.4487 62.8724 25.3758 62.7972C25.2411 62.6595 25.1086 62.5219 24.9791 62.3827C24.8243 62.2182 24.6725 62.053 24.5237 61.8871C24.4582 61.8149 24.3942 61.7427 24.3302 61.6705C24.258 61.5894 24.1873 61.5083 24.1173 61.4272C24.0511 61.3505 23.9849 61.2731 23.9194 61.1957C23.8539 61.1191 23.7884 61.0417 23.7244 60.9643C23.6545 60.8809 23.5853 60.7976 23.5168 60.7135C23.4587 60.642 23.4014 60.5706 23.3441 60.4992C23.2816 60.4218 23.2199 60.3444 23.1581 60.2663C23.0971 60.1889 23.036 60.1107 22.9758 60.0326C22.9155 59.9552 22.8559 59.877 22.7964 59.7989C22.7905 59.7907 22.7838 59.7825 22.7771 59.7736C22.6818 59.6478 22.588 59.522 22.495 59.3963C22.4213 59.2965 22.3492 59.1968 22.2777 59.0971C22.2212 59.019 22.1653 58.9408 22.1103 58.8627C22.0552 58.7845 22.0001 58.7072 21.9466 58.629C21.8922 58.5509 21.8387 58.4727 21.7851 58.3946C21.7322 58.3172 21.6794 58.2391 21.6266 58.1609C21.5745 58.0835 21.5231 58.0054 21.4718 57.928C21.4628 57.9146 21.4546 57.9012 21.4457 57.8886C21.4033 57.8238 21.3609 57.7591 21.3192 57.6943C21.2686 57.6169 21.2187 57.5395 21.1696 57.4614C21.1205 57.384 21.0714 57.3066 21.023 57.2292C20.962 57.1332 20.9025 57.0365 20.8437 56.9397C20.7603 56.805 20.6792 56.6703 20.5996 56.5356C20.5542 56.459 20.5088 56.3823 20.4641 56.3064C20.4195 56.2298 20.3748 56.1531 20.3309 56.0772C20.3213 56.0601 20.3116 56.043 20.3012 56.0259C20.2238 55.8904 20.1479 55.7557 20.0734 55.6218C20.031 55.5459 19.9901 55.4707 19.9484 55.3955C19.9075 55.3204 19.8666 55.2452 19.8264 55.1701C19.746 55.0205 19.6671 54.8716 19.5897 54.7236C19.551 54.6499 19.5123 54.5754 19.4751 54.5018C19.4372 54.4281 19.4 54.3544 19.3627 54.2815C19.3226 54.2018 19.2831 54.123 19.2437 54.0434C19.1752 53.9042 19.1075 53.7665 19.042 53.6296C19.0078 53.5581 18.9735 53.4867 18.9401 53.4153C18.9066 53.3438 18.8731 53.2731 18.8403 53.2024C18.7413 52.9911 18.6468 52.782 18.5553 52.5751C18.5248 52.5066 18.495 52.4381 18.4653 52.3697C18.4288 52.2871 18.3931 52.2052 18.3588 52.1233C18.3358 52.0705 18.3134 52.0177 18.2911 51.9648C18.1505 51.6314 18.0187 51.307 17.896 50.9922C17.8714 50.9289 17.8468 50.8664 17.823 50.8039C17.7218 50.5412 17.6273 50.286 17.5387 50.0389C17.5045 49.9451 17.4718 49.8521 17.4398 49.7605C17.3557 49.5194 17.2768 49.2865 17.2039 49.064C17.1882 49.0164 17.1726 48.9687 17.1577 48.9218C17.1205 48.8065 17.0848 48.6942 17.0506 48.584C17.0282 48.5118 17.0059 48.4411 16.9851 48.3719C16.8697 47.9931 16.7737 47.6515 16.6933 47.3531C16.6807 47.3047 16.668 47.2579 16.6561 47.2117C16.6174 47.0644 16.5832 46.9282 16.5534 46.8054C16.5423 46.7608 16.5319 46.7168 16.5214 46.6752C16.5043 46.6022 16.4879 46.5345 16.4738 46.472C16.4671 46.443 16.4612 46.4154 16.4552 46.3887C16.3957 46.123 16.3696 45.9794 16.3696 45.9794L20.1977 47.176L19.0271 45.4234L17.8319 43.6337L18.6498 43.5153L23.9678 42.7578L25.8974 42.4824C25.2671 55.7155 32.6866 68.034 32.933 68.4396C32.9359 68.4433 32.9374 68.4463 32.9382 68.4478C32.9382 68.4493 32.9397 68.45 32.9397 68.45Z" fill="#BA5952"/>
<path d="M32.9434 68.4488C32.9159 70.2498 32.7901 72.0269 32.4962 73.7378H-5.30774V65.1774L8.549 46.5556C9.37728 45.4423 10.6052 44.6944 11.973 44.4682C11.9849 44.466 11.9976 44.4645 12.0095 44.4622L18.6498 43.5156L17.832 43.634L19.0271 45.4237L20.1977 47.1763L16.3697 45.9796C16.3697 45.9796 16.3957 46.1233 16.4552 46.3889C16.4612 46.4157 16.4671 46.4433 16.4738 46.4723C16.488 46.5348 16.5044 46.6025 16.5215 46.6755C16.5311 46.7171 16.5416 46.7603 16.5535 46.8057C16.5832 46.9285 16.6175 47.0647 16.6562 47.212C16.6681 47.2581 16.6807 47.305 16.6934 47.3534C16.7737 47.6518 16.8698 47.9934 16.9851 48.3722C17.0059 48.4414 17.0283 48.5121 17.0506 48.5843C17.0848 48.6944 17.1205 48.8068 17.1577 48.9221C17.1726 48.969 17.1883 49.0167 17.2039 49.0643C17.2768 49.2868 17.3557 49.5197 17.4398 49.7608C17.4718 49.8524 17.5045 49.9454 17.5388 50.0392C17.6273 50.2862 17.7218 50.5415 17.8231 50.8042C17.8469 50.8667 17.8714 50.9292 17.896 50.9925C18.0188 51.3073 18.1505 51.6317 18.2911 51.9651C18.3135 52.018 18.3358 52.0708 18.3589 52.1236C18.3931 52.2055 18.4288 52.2873 18.4653 52.37C18.495 52.4384 18.5248 52.5069 18.5553 52.5754C18.6469 52.7822 18.7414 52.9913 18.8404 53.2027C18.8731 53.2734 18.9066 53.3441 18.9401 53.4156C18.9736 53.487 19.0078 53.5584 19.042 53.6299C19.1075 53.7668 19.1752 53.9045 19.2437 54.0436C19.2831 54.1233 19.3226 54.2021 19.3628 54.2818C19.4 54.3547 19.4372 54.4284 19.4751 54.502C19.5124 54.5757 19.5511 54.6502 19.5898 54.7238C19.6671 54.8719 19.746 55.0208 19.8264 55.1704C19.8666 55.2455 19.9075 55.3207 19.9484 55.3958C19.9901 55.471 20.0311 55.5462 20.0735 55.6221C20.1479 55.756 20.2238 55.8907 20.3012 56.0262C20.3116 56.0433 20.3213 56.0604 20.331 56.0775C20.3749 56.1534 20.4195 56.23 20.4642 56.3067C20.5088 56.3826 20.5542 56.4593 20.5996 56.5359C20.6792 56.6706 20.7603 56.8053 20.8437 56.94C20.9025 57.0368 20.962 57.1335 21.0231 57.2295C21.0714 57.3069 21.1205 57.3843 21.1697 57.4617C21.2188 57.5398 21.2686 57.6172 21.3192 57.6946C21.3609 57.7594 21.4033 57.8241 21.4457 57.8888C21.4547 57.9015 21.4629 57.9149 21.4718 57.9283C21.5231 58.0057 21.5745 58.0838 21.6266 58.1612C21.6794 58.2394 21.7323 58.3175 21.7851 58.3949C21.8387 58.473 21.8923 58.5512 21.9466 58.6293C22.0002 58.7075 22.0552 58.7848 22.1103 58.863C22.1654 58.9411 22.2212 59.0192 22.2777 59.0974C22.3492 59.1971 22.4214 59.2968 22.495 59.3965C22.5881 59.5223 22.6818 59.6481 22.7771 59.7739C22.7838 59.7828 22.7905 59.791 22.7964 59.7992C22.856 59.8773 22.9155 59.9555 22.9758 60.0329C23.0361 60.111 23.0971 60.1891 23.1581 60.2665C23.2199 60.3447 23.2817 60.4221 23.3442 60.4995C23.4015 60.5709 23.4588 60.6423 23.5168 60.7138C23.5853 60.7979 23.6545 60.8812 23.7244 60.9646C23.7884 61.042 23.8539 61.1194 23.9194 61.196C23.9849 61.2734 24.0511 61.3508 24.1174 61.4274C24.1873 61.5086 24.258 61.5897 24.3302 61.6708C24.3942 61.743 24.4582 61.8152 24.5237 61.8874C24.6725 62.0533 24.8243 62.2185 24.9791 62.383C25.1094 62.5222 25.2411 62.6598 25.3758 62.7975C25.4487 62.8727 25.5224 62.9478 25.5968 63.0222C25.6712 63.0974 25.7464 63.1718 25.8216 63.2462C25.9726 63.3951 26.1259 63.5432 26.2815 63.6905C26.367 63.7716 26.4541 63.8528 26.5419 63.9339C26.6126 63.9994 26.6833 64.0641 26.7555 64.1289C26.8351 64.2018 26.9162 64.274 26.9974 64.3461C27.0837 64.4228 27.17 64.4987 27.2578 64.5746C27.327 64.6349 27.397 64.6944 27.4669 64.7547C27.6426 64.9043 27.8204 65.0524 28.002 65.199C28.0764 65.26 28.1516 65.3203 28.2275 65.3806C28.3376 65.4684 28.4493 65.5562 28.5624 65.6433C28.6361 65.6998 28.7097 65.7564 28.7842 65.8129C28.7886 65.8167 28.7931 65.8196 28.7976 65.8226C28.8861 65.8903 28.9754 65.9566 29.0647 66.0228C29.2202 66.1381 29.378 66.2528 29.538 66.3659C29.5953 66.4068 29.6541 66.4477 29.7122 66.4879C30.0389 66.7171 30.3738 66.9419 30.7168 67.1606C30.7719 67.1956 30.8262 67.2306 30.882 67.2656C30.9445 67.305 31.0085 67.3452 31.0725 67.3847C31.141 67.4271 31.2095 67.4695 31.2787 67.5104C31.3241 67.5387 31.3702 67.567 31.4163 67.5945C31.5027 67.6466 31.5897 67.698 31.6768 67.7493C31.775 67.8074 31.874 67.8647 31.9737 67.9212C32.101 67.9942 32.2297 68.0664 32.3592 68.1378C32.4322 68.1787 32.5051 68.2182 32.5788 68.2576C32.6986 68.3231 32.8184 68.3871 32.9397 68.4503C32.9397 68.4503 32.9419 68.4503 32.9434 68.4488Z" fill="#CA6754"/>
<path d="M57.5582 46.7167C56.7262 45.4955 55.4276 44.6724 53.9682 44.441L45.8201 43.2808L48.2246 43.6268L45.8588 47.1691L49.6869 45.9725C49.6869 45.9725 46.7518 61.2127 32.9435 68.4469C32.9159 70.2478 32.7902 72.0249 32.4962 73.7366H67.4015L67.3948 61.1554L57.5582 46.7159V46.7167Z" fill="#CA6754"/>
<g style="mix-blend-mode:multiply">
<path d="M33.2263 49.251L37.5321 52.6951C37.7092 52.8372 37.9719 52.7866 38.0843 52.5894L38.2793 52.2471L38.4728 51.9085C38.4944 51.8705 38.5092 51.8288 38.5167 51.7857L39.8897 43.5185C39.947 43.1725 39.5362 42.9485 39.2765 43.1844L33.2099 48.6884C33.041 48.8409 33.0499 49.1089 33.227 49.251H33.2263Z" fill="#D38CB4"/>
</g>
<path d="M32.9397 68.45C32.9397 68.45 32.9419 68.447 32.9434 68.444C33.0498 61.4777 31.6962 54.1609 32.9948 48.9791L27.5399 51.8502L25.9823 42.4697L25.8967 42.4816C25.256 55.9373 32.9389 68.4493 32.9389 68.4493L32.9397 68.45Z" fill="#FCD2E6"/>
<path d="M38.3946 28.5255C38.6432 28.5255 38.8448 28.3239 38.8448 28.0752C38.8448 27.8266 38.6432 27.625 38.3946 27.625C38.1459 27.625 37.9443 27.8266 37.9443 28.0752C37.9443 28.3239 38.1459 28.5255 38.3946 28.5255Z" fill="#FFBE58"/>
<path d="M27.4297 28.1093C25.6928 27.8124 25.311 28.8565 25.311 28.8565C25.311 28.8565 27.3002 29.038 29.89 27.6405C28.0147 27.0831 27.429 28.1093 27.429 28.1093H27.4297Z" fill="#D3201C"/>
<path d="M25.5759 28.8647C25.5759 28.8647 27.8792 30.6746 29.5819 27.8013C29.5819 27.8013 27.8628 28.7762 25.5759 28.8647Z" fill="#D3201C"/>
<g style="mix-blend-mode:screen">
<path d="M24.1241 34.9074C19.7676 32.7954 20.4746 24.7708 21.2672 20.9509C21.3356 20.622 21.416 20.2953 21.5083 19.9708C22.088 19.889 22.6186 19.717 23.1016 19.4849L23.202 19.56C23.202 19.56 20.2141 26.76 24.1241 34.9074Z" fill="#C4816A"/>
</g>
<g style="mix-blend-mode:multiply">
<path d="M35.039 31.8977C35.039 31.8977 33.2307 39.353 26.824 40.4023L26.8627 35.4564C26.8627 35.4564 31.1477 36.1716 35.0398 31.897L35.039 31.8977Z" fill="#CC8E75"/>
</g>
<path d="M33.0231 48.8891L33.064 48.9434L33.0231 48.965L38.5055 51.851L40.0631 42.4698L40.0578 42.4608L39.1894 40.8266L39.1834 40.8154L33.0231 48.8891Z" fill="#FFBE58"/>
<g style="mix-blend-mode:screen">
<path d="M39.1894 40.8267L39.4461 41.3104L35.4186 50.1989L33.064 48.9435L39.1894 40.8267Z" fill="#EAB26E"/>
</g>
<g style="mix-blend-mode:multiply">
<path d="M33.0639 48.9433L27.8078 53.1882C27.6225 53.3377 27.3456 53.2239 27.3181 52.988L26.3782 44.8525L33.0639 48.9433Z" fill="#D38CB4"/>
</g>
<path d="M32.9948 48.9799L33.0231 48.965L33.064 48.9434L33.0231 48.8891L26.8619 40.8154V40.8162L25.9823 42.4698L25.983 42.4705L27.5406 51.851L32.9948 48.9799Z" fill="#FFBE58"/>
<g style="mix-blend-mode:screen">
<path d="M26.862 40.8164L33.064 48.9436L30.6789 50.1991L26.7816 40.9667L26.862 40.8164Z" fill="#EAB26E"/>
</g>
<g style="mix-blend-mode:multiply">
<path d="M26.9728 53.1719C29.5774 63.4282 32.7834 68.2461 32.9434 68.444C32.924 68.3964 33.4368 67.8881 33.4368 67.487C33.4368 66.12 31.8941 63.5696 30.8731 61.631C29.5201 59.0628 26.9735 53.1719 26.9735 53.1719H26.9728Z" fill="#D38CB4"/>
</g>
<g style="mix-blend-mode:screen" opacity="0.8">
<path d="M32.9434 68.4487H32.9382L32.9344 68.4472C21.8066 62.6173 17.8565 51.5929 16.7417 47.5319L16.8496 47.4917C16.8496 47.4917 22.3767 60.5529 32.9329 68.4398C32.9367 68.4428 32.9396 68.4457 32.9434 68.4487Z" fill="#CA6754"/>
</g>
<g style="mix-blend-mode:screen" opacity="0.8">
<path d="M39.8436 63.4717C39.665 63.6428 39.4834 63.8133 39.2988 63.9822C39.3472 63.9011 39.5206 63.7351 39.8436 63.4717Z" fill="#CA6754"/>
</g>
<g style="mix-blend-mode:screen" opacity="0.8">
<path d="M49.6868 45.9741C49.6846 45.9868 49.6816 46.0002 49.6794 46.0128C49.6764 46.0247 49.6734 46.0396 49.6697 46.0567C49.6682 46.0664 49.666 46.0761 49.6638 46.0858C49.66 46.1021 49.6563 46.1207 49.6519 46.1401C49.5283 46.7049 49.0602 48.6614 47.9938 51.266C47.9752 51.3114 47.9566 51.3568 47.938 51.4022C47.9015 51.4893 47.8651 51.5764 47.8286 51.6635C47.8063 51.717 47.7832 51.7699 47.7601 51.8234C47.7252 51.9061 47.6894 51.9894 47.653 52.0735C47.4736 52.4843 47.2876 52.8921 47.0941 53.2969C47.0435 53.4018 46.9929 53.5068 46.9415 53.611C46.9036 53.6891 46.8649 53.7673 46.8262 53.8447C46.8016 53.8945 46.7763 53.9451 46.751 53.995C46.7146 54.0687 46.6766 54.1416 46.6394 54.2153C46.4675 54.5531 46.2896 54.8887 46.1065 55.2206C46.0582 55.3092 46.0091 55.3978 45.9592 55.4863C45.951 55.5012 45.9421 55.5168 45.9332 55.5325C45.8855 55.618 45.8364 55.7044 45.7873 55.7899C45.6266 56.0705 45.4621 56.3496 45.2939 56.6257C45.2612 56.6807 45.2277 56.7358 45.1934 56.7901C45.1599 56.8452 45.1257 56.9003 45.0915 56.9553C44.8213 57.39 44.5356 57.8283 44.2349 58.2681C44.2305 58.2748 44.226 58.2815 44.2215 58.2882C43.6507 59.1195 43.0264 59.9544 42.3417 60.7805C41.9495 61.2538 41.5387 61.7234 41.1056 62.1877C40.9955 62.3061 40.8846 62.4236 40.7715 62.5412C44.2171 58.4824 47.7311 48.0772 47.7311 48.0772C47.7311 48.0772 43.3583 49.3714 43.2042 48.8899C43.0517 48.4128 46.9944 43.4893 46.9944 43.4893L47.1358 43.4707L47.8487 43.5734L48.0094 43.5965L48.2245 43.6277L48.1754 43.7021L45.8595 47.17L49.6876 45.9741H49.6868Z" fill="#CA6754"/>
</g>
<g style="mix-blend-mode:multiply" opacity="0.7">
<path d="M23.9678 42.7578C23.7282 42.9312 23.4647 43.0823 23.2512 43.2668C21.9607 44.3794 20.7098 45.1764 19.0272 45.4235C18.9036 45.4421 18.7779 45.4577 18.6499 45.4696C16.4084 45.6817 14.1788 45.0775 12.0087 44.4784C11.9968 44.4754 11.9849 44.4717 11.973 44.468C11.9849 44.4657 11.9976 44.4642 12.0095 44.462L18.6499 43.5154L23.9678 42.7578Z" fill="#BA5952"/>
</g>
<g style="mix-blend-mode:screen" opacity="0.7">
<path d="M40.6837 37.084C40.1099 36.9322 39.5183 36.7172 39.0264 36.3934C38.6684 36.1575 38.364 35.8613 38.1631 35.4788C37.765 34.722 37.8692 33.7791 38.2323 33.0044C38.4027 32.6412 38.6193 32.3019 38.8649 31.9812L39.8956 30.856C39.8956 30.856 39.8956 30.8567 39.8941 30.8582C39.8457 30.9668 37.9748 35.2072 40.6837 37.084Z" fill="#992F29"/>
</g>
<path d="M16.7105 33.0067C16.4002 32.7856 15.0704 32.3659 14.8776 32.2394C14.1409 31.7535 13.5827 30.9862 13.384 30.1229C13.0365 28.6167 13.8209 27.5302 14.6789 26.4102C15.5779 25.2366 16.3109 24.104 16.3898 22.5814C16.4464 21.4986 16.3943 20.392 16.7113 19.3553C17.2151 17.7084 18.9863 16.0586 20.7351 15.813C20.1055 15.9015 19.2043 17.3133 18.8895 17.768C18.0932 18.9177 18.1669 20.0295 18.1431 21.3765C18.1126 23.109 17.5217 24.8266 16.4806 26.2123C15.8547 27.0443 15.0465 27.8108 14.8337 28.8303C14.5457 30.2093 15.5786 32.2007 16.7105 33.0067Z" fill="#992F29"/>
<g style="mix-blend-mode:multiply" opacity="0.32">
<path d="M47.4588 34.0466C47.4588 34.0466 47.4528 34.0808 47.4372 34.1418C47.3263 34.0116 47.24 33.8627 47.1856 33.6983C47.0398 33.2562 47.1395 32.7703 47.2995 32.3327C47.4655 31.8758 47.6969 31.4434 47.9827 31.0505C48.3622 30.5303 48.8422 30.0748 49.119 29.4936C49.6042 28.4726 49.2976 27.4538 49.2575 26.3986C49.3847 26.3844 49.509 26.3829 49.6303 26.3941C50.5442 27.2908 54.2562 31.4523 47.4588 34.0466Z" fill="#601D0E"/>
</g>
<path d="M35.6143 28.3415C35.5102 28.4725 35.4023 28.602 35.2869 28.7248C34.8657 29.0798 34.5472 29.2539 34.5472 29.2539C34.731 29.0083 34.8553 28.6333 34.9386 28.2113C35.1924 26.9194 34.8672 25.5947 34.123 24.5082C33.355 23.3875 33.4287 21.856 33.4845 21.3149C33.5463 21.3291 33.5887 21.3849 33.6229 21.4392C33.646 21.4772 33.6676 21.5159 33.6877 21.5553C33.8581 21.8865 33.9243 22.2653 34.0449 22.621C34.5613 24.1436 36.0728 25.0708 36.2916 26.7386C36.3719 27.351 35.9827 27.8794 35.6143 28.3415Z" fill="#992F29"/>
<g style="mix-blend-mode:screen" opacity="0.8">
<path d="M41.0818 24.6904C41.0126 24.7313 40.9076 24.7432 40.7863 24.7179C40.4061 24.6383 40.1419 24.2922 39.7906 24.1263C39.3605 23.9224 38.8589 24.0079 38.3834 24.0228C38.2293 24.028 38.0715 24.0243 37.9279 23.9693C37.7843 23.9142 37.6555 23.7996 37.6213 23.6492C37.503 23.1231 38.4965 23.1187 38.8031 23.1187C39.4022 23.1187 39.9893 23.3471 40.4649 23.7051C40.7075 23.8874 40.9196 24.1054 41.0989 24.351C41.212 24.5058 41.186 24.6301 41.0818 24.6911V24.6904Z" fill="#CC8E75"/>
</g>
<path d="M38.728 27.9818C38.7607 27.9155 38.6799 27.8088 38.5475 27.7435C38.4152 27.6783 38.2814 27.6792 38.2487 27.7456C38.216 27.8119 38.2967 27.9186 38.4291 27.9838C38.5614 28.0491 38.6952 28.0482 38.728 27.9818Z" fill="#FFCE8D"/>
<g style="mix-blend-mode:multiply">
<path d="M33.5098 21.1155C33.5098 21.1155 33.4979 21.1862 33.4852 21.3112V21.315L33.4622 21.4593C33.4622 21.4593 28.2119 21.1401 26.9401 16.7099C26.9401 16.7099 26.2651 18.4781 23.4625 19.2952C25.5894 17.7964 27.0659 14.9053 27.0659 14.9053C27.0659 14.9053 27.9634 20.157 33.509 21.1148L33.5098 21.1155Z" fill="#CC8E75"/>
</g>
<g style="mix-blend-mode:multiply" opacity="0.32">
<path d="M26.8716 36.2418C26.8664 36.3043 26.8619 36.3683 26.8619 36.4323V38.1581C26.8619 38.1648 26.8597 38.2876 26.8619 38.2876C26.0135 38.2005 23.4134 37.8023 22.6357 36.1488C22.6357 36.1488 22.6267 36.1532 22.6104 36.1607C22.4809 35.7 22.725 35.3726 23.1574 35.2282C23.3955 35.1486 23.65 35.1181 23.9001 35.1039C24.168 35.0883 24.4842 35.0585 24.7402 35.1352C25.2299 35.2833 25.7389 35.4187 26.2561 35.3748C26.431 35.3599 26.6327 35.3339 26.7577 35.4567C26.812 35.5103 26.8403 35.5839 26.8604 35.6569C26.9155 35.8563 26.888 36.0461 26.8716 36.2403V36.2418Z" fill="#601D0E"/>
</g>
<path d="M40.101 12.7566C40.1122 12.7991 40.1182 12.8422 40.1167 12.8861C40.1144 12.9888 40.0735 13.0878 40.0229 13.1778C39.7676 13.6348 39.2393 13.9243 38.7169 13.8938C38.0426 13.8543 37.2828 13.3646 36.677 13.0885C35.9775 12.77 35.3271 12.2 34.6945 11.7572C33.4934 10.917 32.229 10.0768 30.7593 9.81263C29.8067 9.64147 28.8251 9.72332 27.8741 9.90118C27.4685 9.97635 27.0071 10.0545 26.6357 9.92649C27.0503 9.62956 27.5645 9.30659 28.1643 9.01636C28.1926 9.00296 28.2201 8.98956 28.2484 8.97617C28.3987 8.90547 28.5483 8.83924 28.6979 8.77822C28.7358 8.76259 28.773 8.7477 28.8103 8.73282C29.064 8.63161 29.3222 8.5423 29.5842 8.46416C31.4908 7.88369 33.5634 8.11068 35.3874 8.86379C37.0797 9.56258 39.1046 10.8396 39.9857 12.4924C40.0303 12.5765 40.0765 12.6644 40.0995 12.7559L40.101 12.7566Z" fill="#992F29"/>
<g style="mix-blend-mode:multiply">
<path d="M39.1195 37.66C38.6164 37.6146 38.1952 37.4285 37.8082 37.0989C36.7887 36.2274 36.8333 34.6825 37.6415 33.6801C37.7732 33.5164 37.9221 33.3668 38.0359 33.1904C38.0523 33.1651 38.0739 33.1361 38.1044 33.1383C38.1416 33.1413 38.1558 33.1889 38.1565 33.2261C38.1632 33.5685 37.9637 33.9137 37.9124 34.2516C37.8521 34.6497 37.9801 35.129 38.1639 35.4788C38.3649 35.8613 38.6692 36.1575 39.0272 36.3934C39.0823 36.4298 39.0763 36.9739 39.0845 37.0579C39.1031 37.2581 39.1135 37.4643 39.1262 37.6607C39.1239 37.6607 39.1217 37.6607 39.1195 37.6607V37.66Z" fill="#CC8E75"/>
</g>
<path d="M38.591 26.8717C38.5464 26.8717 38.504 26.8441 38.4869 26.8002C38.3834 26.5308 38.4199 26.2793 38.5918 26.0732C38.9683 25.6214 39.5012 26.0337 39.7289 26.2093C39.7482 26.2242 39.7735 26.2451 39.8026 26.2689C40.1635 26.5658 40.2714 26.5874 40.3034 26.5732C40.3034 26.5732 40.328 26.5465 40.3205 26.4259C40.2982 26.0784 40.1903 25.7375 40.0072 25.4406C39.8591 25.1995 39.6842 25.0261 39.4878 24.9264C39.0636 24.7113 38.5174 24.8133 38.0396 24.942C37.9801 24.9584 37.919 24.9226 37.9027 24.8631C37.8863 24.8036 37.922 24.7425 37.9815 24.7262C38.5002 24.587 39.0971 24.4776 39.5882 24.7269C39.8219 24.8452 40.0266 25.0462 40.197 25.323C40.3987 25.6505 40.5177 26.027 40.5423 26.411C40.5542 26.5971 40.5081 26.7184 40.4046 26.7712C40.2096 26.8709 39.9306 26.6625 39.6604 26.44C39.6336 26.4177 39.6098 26.3984 39.592 26.385C39.2377 26.1111 38.9609 25.9771 38.7629 26.2145C38.6424 26.3589 38.6208 26.5241 38.6952 26.7191C38.7176 26.7764 38.6885 26.8412 38.6312 26.8635C38.6178 26.8687 38.6044 26.8709 38.591 26.8709V26.8717Z" fill="#231F20"/>
<path d="M25.5431 26.6338C25.4888 26.6338 25.4352 26.6279 25.3831 26.6152C25.206 26.5728 25.0616 26.4575 24.9545 26.2729C24.6687 25.7802 24.6866 25.0301 25.0073 24.0433C25.2685 23.2389 25.692 22.514 26.0306 21.973C26.0633 21.9209 26.1325 21.9053 26.1846 21.938C26.2367 21.9708 26.2523 22.04 26.2196 22.0921C25.8869 22.6227 25.4732 23.3319 25.2194 24.1133C24.9232 25.0242 24.8987 25.7326 25.1472 26.162C25.2239 26.2937 25.3176 26.3711 25.4345 26.3994C25.7374 26.4716 26.1593 26.1955 26.3863 26.0474C26.4376 26.0139 26.5069 26.0281 26.5411 26.0802C26.5746 26.1315 26.5604 26.2007 26.5084 26.2349C26.2062 26.4322 25.8646 26.6353 25.5431 26.6353V26.6338Z" fill="#231F20"/>
<path d="M27.2109 35.5737C27.0948 35.5737 26.978 35.5723 26.8589 35.5685C26.7972 35.567 26.7488 35.5157 26.7503 35.4539C26.7518 35.3922 26.8031 35.3423 26.8649 35.3453C31.2318 35.4681 33.8081 33.2162 34.9534 31.8617C34.9936 31.8149 35.0636 31.8089 35.1105 31.8483C35.1573 31.8885 35.1633 31.9585 35.1239 32.0054C33.9838 33.3538 31.4602 35.573 27.2102 35.573L27.2109 35.5737Z" fill="#231F20"/>
<path d="M38.8649 32.0929C38.8053 32.0929 38.7555 32.0453 38.7532 31.985L38.7004 30.5383C38.6982 30.4766 38.7465 30.4252 38.8076 30.423C38.8678 30.42 38.9207 30.4691 38.9229 30.5301L38.9758 31.9769C38.978 32.0386 38.9296 32.09 38.8686 32.0922C38.8671 32.0922 38.8656 32.0922 38.8641 32.0922L38.8649 32.0929Z" fill="#231F20"/>
<path d="M39.0881 38.1947C39.0286 38.1947 38.9788 38.1471 38.9765 38.0868L38.9147 36.3967C38.9125 36.335 38.9609 36.2836 39.0219 36.2814C39.0829 36.2784 39.135 36.3275 39.1373 36.3886L39.199 38.0786C39.2013 38.1404 39.1529 38.1917 39.0919 38.194C39.0904 38.194 39.0889 38.194 39.0874 38.194L39.0881 38.1947Z" fill="#231F20"/>
<path d="M39.1893 40.9385C39.1298 40.9385 39.0799 40.8909 39.0777 40.8306L38.9772 38.0868C38.975 38.0251 39.0234 37.9737 39.0844 37.9715C39.1447 37.967 39.1975 38.0176 39.1998 38.0786L39.3002 40.8224C39.3024 40.8842 39.2541 40.9356 39.1931 40.9378C39.1916 40.9378 39.1901 40.9378 39.1886 40.9378L39.1893 40.9385Z" fill="#231F20"/>
<path d="M25.8975 42.5943C25.8431 42.5943 25.7948 42.5541 25.7873 42.4983C25.7784 42.4373 25.8208 42.3807 25.8818 42.3718L25.9667 42.3599C26.0277 42.3517 26.0842 42.3934 26.0932 42.4544C26.1021 42.5155 26.0597 42.572 25.9987 42.5809L25.9138 42.5928C25.9086 42.5928 25.9034 42.5936 25.8982 42.5936L25.8975 42.5943Z" fill="#231F20"/>
<path d="M45.82 43.3927C45.8148 43.3927 45.8095 43.3927 45.8043 43.3919L40.1433 42.586C40.0823 42.577 40.0399 42.5205 40.0488 42.4595C40.0577 42.3984 40.1135 42.356 40.1753 42.365L45.8363 43.1709C45.8974 43.1798 45.9398 43.2364 45.9308 43.2974C45.9227 43.3532 45.875 43.3934 45.8207 43.3934L45.82 43.3927Z" fill="#231F20"/>
<path d="M40.1589 42.5867C40.1537 42.5867 40.1485 42.5867 40.1433 42.586L40.0428 42.5718C39.9818 42.5629 39.9394 42.5063 39.9483 42.4453C39.9573 42.3843 40.0138 42.3419 40.0749 42.3508L40.1753 42.3649C40.2363 42.3739 40.2788 42.4304 40.2698 42.4915C40.2616 42.5473 40.214 42.5874 40.1597 42.5874L40.1589 42.5867Z" fill="#231F20"/>
<path d="M67.4014 73.8495H32.4961C32.4344 73.8495 32.3845 73.7997 32.3845 73.7379C32.3845 73.6761 32.4344 73.6263 32.4961 73.6263H67.2898L67.2831 61.1916L57.4658 46.7805C56.6547 45.5898 55.3732 44.7779 53.9503 44.5524L45.8037 43.3929C45.7427 43.384 45.7002 43.3275 45.7092 43.2664C45.7181 43.2054 45.7747 43.1637 45.8357 43.1719L53.9838 44.3321C55.4692 44.5673 56.805 45.4142 57.6504 46.6555L67.487 61.0949C67.4997 61.1135 67.5064 61.1351 67.5064 61.1574L67.5131 73.7386C67.5131 73.7684 67.5012 73.7967 67.4803 73.8175C67.4595 73.8383 67.4312 73.8502 67.4014 73.8502V73.8495Z" fill="#231F20"/>
<path d="M18.6498 43.6272C18.5955 43.6272 18.5471 43.5871 18.5396 43.5312C18.5307 43.4702 18.5731 43.4136 18.6342 43.4047L25.8818 42.3718C25.9428 42.3629 25.9994 42.4053 26.0083 42.4663C26.0172 42.5273 25.9748 42.5839 25.9138 42.5928L18.6661 43.6258C18.6609 43.6258 18.6557 43.6265 18.6505 43.6265L18.6498 43.6272Z" fill="#231F20"/>
<path d="M32.4961 73.8492H-5.30781C-5.36957 73.8492 -5.41943 73.7993 -5.41943 73.7376V65.1772C-5.41943 65.1534 -5.41199 65.1295 -5.3971 65.1102L8.45889 46.4884C9.31694 45.3349 10.5716 44.5759 11.9915 44.3511L18.6334 43.4045C18.6952 43.3956 18.751 43.438 18.7599 43.499C18.7688 43.56 18.7264 43.6166 18.6654 43.6255L12.025 44.5721C10.6647 44.7872 9.4613 45.5158 8.63823 46.6216L-5.19543 65.2136V73.6252H32.4968C32.5586 73.6252 32.6085 73.675 32.6085 73.7368C32.6085 73.7986 32.5586 73.8484 32.4968 73.8484L32.4961 73.8492Z" fill="#231F20"/>
<path d="M26.8619 35.5682C26.8001 35.5682 26.7502 35.5184 26.7502 35.4566C26.7502 35.3948 26.8001 35.3442 26.8619 35.3442C26.9236 35.3442 26.9735 35.3934 26.9735 35.4551V35.4574C26.9735 35.5191 26.9236 35.569 26.8619 35.569V35.5682Z" fill="#231F20"/>
<path d="M26.8619 40.928C26.8001 40.928 26.7502 40.8782 26.7502 40.8164V38.2884C26.7502 38.2266 26.8001 38.1768 26.8619 38.1768C26.9236 38.1768 26.9735 38.2266 26.9735 38.2884V40.8164C26.9735 40.8782 26.9236 40.928 26.8619 40.928Z" fill="#231F20"/>
<path d="M26.8619 38.3993C26.8001 38.3993 26.7502 38.3495 26.7502 38.2877V35.4568C26.7502 35.3951 26.8001 35.3452 26.8619 35.3452C26.9236 35.3452 26.9735 35.3951 26.9735 35.4568V38.2877C26.9735 38.3495 26.9236 38.3993 26.8619 38.3993Z" fill="#231F20"/>
<path d="M26.8619 35.5685C26.8619 35.5685 26.8596 35.5685 26.8589 35.5685C26.5262 35.5588 26.1884 35.5365 25.8542 35.5008C24.3309 35.3393 23.1134 34.6479 22.236 33.4461C21.1979 32.0239 20.6375 29.9112 20.569 27.1681C20.5013 24.4258 20.9582 21.8903 21.1577 20.9281C21.2254 20.5999 21.3073 20.2673 21.4003 19.9406C21.4122 19.8982 21.4479 19.8669 21.4918 19.8602C25.247 19.3274 26.9452 14.9106 26.9616 14.866C26.9795 14.8191 27.0256 14.7901 27.0769 14.7938C27.1268 14.7982 27.1677 14.8362 27.1767 14.8861C27.1789 14.8987 27.4096 16.2003 28.3071 17.5979C29.1324 18.8831 30.7078 20.5173 33.5283 21.0047C33.5886 21.0152 33.6295 21.0725 33.6191 21.1328C33.6161 21.1521 33.3036 23.1153 34.2144 24.4444C35.0048 25.5979 35.3009 26.9426 35.0472 28.2315C34.9951 28.4957 34.9303 28.7249 34.8537 28.9169C35.6782 28.3179 37.5915 26.5817 37.1235 23.6481C37.1168 23.6064 37.1339 23.5648 37.1681 23.5402C37.6518 23.1912 38.2174 23.0066 38.8023 23.0066C40.4172 23.0066 41.7315 24.4139 41.7315 26.1441C41.7315 27.8743 40.5236 29.1752 38.9817 29.2756C38.9214 29.2801 38.8671 29.2332 38.8634 29.1714C38.8596 29.1097 38.9058 29.0569 38.9675 29.0531C40.3927 28.9609 41.5089 27.6831 41.5089 26.1448C41.5089 24.6066 40.2952 23.2306 38.8031 23.2306C38.2874 23.2306 37.788 23.3869 37.3549 23.6831C37.6481 25.6611 36.8943 27.0907 36.2059 27.945C35.4528 28.8797 34.6349 29.3329 34.5999 29.3516C34.5538 29.3769 34.4965 29.3664 34.4622 29.327C34.428 29.2875 34.4258 29.2288 34.457 29.1871C34.6148 28.9772 34.7391 28.6416 34.8284 28.1891C35.0703 26.9597 34.7867 25.6745 34.0299 24.5709C33.1837 23.3363 33.3266 21.6515 33.3832 21.2057C30.5456 20.6818 28.9523 19.0207 28.1136 17.711C27.4654 16.6996 27.1603 15.756 27.0338 15.2686C26.8425 15.692 26.4481 16.4756 25.8245 17.2995C24.9947 18.3956 23.5904 19.7597 21.5953 20.0701C21.5119 20.3692 21.4383 20.6728 21.3757 20.9728C21.1778 21.9275 20.7238 24.4429 20.7915 27.1621C20.8585 29.8591 21.4048 31.9287 22.4154 33.3143C23.2541 34.4634 24.4187 35.1242 25.8766 35.279C26.2048 35.314 26.5367 35.3363 26.8641 35.3452C26.9259 35.3467 26.9743 35.3981 26.9728 35.4598C26.9713 35.5201 26.9214 35.5685 26.8611 35.5685H26.8619Z" fill="#231F20"/>
<path d="M26.8626 38.3992C26.8589 38.3992 26.8552 38.3992 26.8515 38.3992C26.4117 38.3538 25.5447 38.2311 24.6844 37.9111C23.6537 37.5278 22.9482 36.9853 22.5851 36.2969C22.3864 36.3862 21.9116 36.5804 21.3058 36.7107C20.252 36.9362 19.3069 36.8506 18.5724 36.4621C17.5402 35.9159 16.8995 34.7899 16.6673 33.1148C16.5631 33.0106 15.9142 32.7687 15.5227 32.6221C15.1425 32.48 14.9043 32.3899 14.818 32.3326C14.0403 31.8206 13.4785 31.0244 13.2768 30.1485C12.9069 28.5425 13.8022 27.3741 14.5918 26.3427C15.4014 25.2852 16.1992 24.1235 16.2796 22.5756C16.2922 22.3315 16.2997 22.0807 16.3064 21.8389C16.3309 21.0032 16.3562 20.1391 16.6055 19.3228C17.1287 17.6134 18.8984 16.026 20.5936 15.7224C20.4805 15.3004 20.2029 13.9148 21.0215 12.7032C21.7806 11.5803 23.2541 10.9462 25.4018 10.8182C25.7151 10.5012 28.3049 8.00146 31.964 8.00146C32.0094 8.00146 32.0548 8.00147 32.101 8.00295C34.9542 8.05133 37.7218 9.58435 40.3265 12.5574C40.7402 12.5559 43.4096 12.6005 45.2165 14.4022C46.4318 15.6145 47.0085 17.3492 46.9326 19.5579C47.1626 19.6971 48.002 20.2441 48.7261 21.2108C49.4867 22.2273 50.2465 23.9114 49.5745 26.1842C49.9391 26.5168 51.9038 28.4197 51.5317 30.531C51.2727 32.0007 49.9354 33.2108 47.5585 34.1291C47.487 34.4394 47.1045 35.8005 45.7367 36.6936C44.4842 37.5122 42.7957 37.6841 40.7172 37.2056C40.5549 37.3447 39.97 37.8203 39.1358 38.1857C39.0792 38.211 39.0137 38.1849 38.9884 38.1284C38.9639 38.0718 38.9892 38.0063 39.0457 37.981C39.9774 37.5732 40.604 37.0069 40.6107 37.0017C40.6383 36.9771 40.6755 36.9667 40.7112 36.9756C42.751 37.4556 44.4001 37.2986 45.6109 36.5098C47.0494 35.5721 47.3486 34.042 47.3516 34.0271C47.359 33.9892 47.3851 33.9572 47.4215 33.9431C49.756 33.0523 51.0643 31.8913 51.3114 30.4937C51.5086 29.3752 50.9758 28.2999 50.4935 27.5944C49.9652 26.8212 49.3802 26.3107 49.3743 26.3055C49.3408 26.2765 49.3274 26.2303 49.3408 26.1886C49.887 24.4078 49.6199 22.778 48.5475 21.3455C47.746 20.2746 46.7741 19.7239 46.7644 19.7187C46.7279 19.6979 46.7056 19.6584 46.7071 19.6167C46.7949 17.4415 46.2405 15.741 45.0602 14.563C43.1782 12.6839 40.3101 12.7814 40.2818 12.7829C40.2476 12.7843 40.2156 12.7702 40.1932 12.7449C37.6228 9.79644 34.8999 8.27682 32.101 8.2277C32.0556 8.22696 32.0102 8.22621 31.9648 8.22621C28.1769 8.22621 25.5611 10.9767 25.5343 11.005C25.5149 11.0258 25.4874 11.0385 25.4591 11.04C23.362 11.1576 21.9324 11.7589 21.2091 12.8275C20.3123 14.1529 20.8385 15.7618 20.8437 15.7782C20.8541 15.8095 20.8504 15.8444 20.8333 15.8727C20.8161 15.901 20.7864 15.9203 20.7536 15.9248C19.0978 16.1577 17.3341 17.7116 16.8206 19.389C16.5802 20.1764 16.5549 21.0247 16.5311 21.8463C16.5237 22.0897 16.517 22.3412 16.5036 22.5883C16.4195 24.2009 15.6009 25.3946 14.7696 26.4796C13.82 27.7187 13.1726 28.7032 13.4948 30.0993C13.6838 30.9202 14.2115 31.6666 14.9415 32.1473C15.0115 32.1935 15.3114 32.3058 15.6016 32.4137C16.6383 32.8007 16.8667 32.9161 16.8868 33.0664C17.1064 34.6761 17.7084 35.7529 18.6766 36.2649C20.3428 37.1468 22.5657 36.0618 22.5873 36.0506C22.6141 36.0372 22.6453 36.035 22.6736 36.0454C22.7019 36.0551 22.725 36.0759 22.7384 36.1034C23.4959 37.7131 26.0961 38.0986 26.8753 38.1782C26.9363 38.1842 26.981 38.2392 26.975 38.301C26.9691 38.3583 26.9207 38.4015 26.8641 38.4015L26.8626 38.3992Z" fill="#231F20"/>
<path d="M38.8649 32.0928C38.8411 32.0928 38.8173 32.0854 38.7972 32.0698C38.7481 32.0326 38.7391 31.9619 38.7763 31.9135C39.298 31.2333 39.9522 30.6357 40.6338 30.0314C40.68 29.9905 40.7507 29.995 40.7916 30.0411C40.8325 30.0873 40.8281 30.158 40.7819 30.1989C40.0839 30.818 39.464 31.3844 38.9535 32.0497C38.9311 32.078 38.8984 32.0936 38.8649 32.0936V32.0928Z" fill="#231F20"/>
<path d="M40.6836 37.1951C40.674 37.1951 40.6643 37.1936 40.6553 37.1914C39.9603 37.0076 39.4073 36.7769 38.9653 36.4867C38.9139 36.4524 38.8998 36.3832 38.9333 36.3319C38.9675 36.2805 39.0368 36.2664 39.0881 36.2999C39.5093 36.5775 40.0406 36.7985 40.7126 36.9756C40.7722 36.9912 40.8079 37.0523 40.7923 37.1118C40.7789 37.1617 40.7335 37.1951 40.6844 37.1951H40.6836Z" fill="#231F20"/>
<path d="M39.0263 36.5053C39.0055 36.5053 38.9839 36.4993 38.9653 36.4867C38.5612 36.2202 38.2583 35.8988 38.0641 35.5304C37.6868 34.813 37.7121 33.8515 38.1311 32.957C38.2955 32.6065 38.5069 32.2649 38.7763 31.9129C38.8135 31.8638 38.8834 31.8548 38.9326 31.8921C38.9817 31.9293 38.9906 32 38.9534 32.0483C38.6937 32.3869 38.4905 32.7151 38.3335 33.0508C37.9435 33.882 37.9175 34.7691 38.262 35.4254C38.4406 35.7648 38.7108 36.0506 39.0881 36.2991C39.1394 36.3334 39.1536 36.4026 39.1201 36.4539C39.0985 36.4867 39.0628 36.5038 39.0271 36.5038L39.0263 36.5053Z" fill="#231F20"/>
<path d="M33.0222 49.0011C32.9984 49.0011 32.9746 48.9937 32.9545 48.978C32.9054 48.9408 32.8957 48.8709 32.9336 48.8218L39.094 40.7481C39.1171 40.7176 39.155 40.702 39.1915 40.7049C39.2294 40.7079 39.2629 40.7302 39.2808 40.7637L39.2868 40.7749C39.3158 40.8292 39.2949 40.8969 39.2406 40.926C39.2399 40.926 39.2391 40.9267 39.2384 40.9275L33.1108 48.9579C33.0892 48.987 33.0557 49.0019 33.0222 49.0019V49.0011Z" fill="#231F20"/>
<path d="M38.5054 51.963C38.4875 51.963 38.4697 51.9585 38.4533 51.9503L32.9709 49.0644C32.9165 49.0353 32.8957 48.9684 32.924 48.9133C32.953 48.859 33.02 48.8374 33.0751 48.8664L38.4205 51.6802L39.9484 42.4798C39.9402 42.4337 39.9625 42.3853 40.0057 42.3622C40.06 42.3332 40.1277 42.354 40.1567 42.4084L40.1612 42.4173C40.1731 42.4389 40.1768 42.4634 40.1731 42.488L38.6155 51.8692C38.6096 51.9042 38.5872 51.9347 38.5552 51.9511C38.5396 51.9585 38.5225 51.963 38.5054 51.963Z" fill="#231F20"/>
<path d="M40.0578 42.5728C40.0176 42.5728 39.9789 42.5512 39.9588 42.5132L39.0896 40.879C39.0606 40.8247 39.0815 40.757 39.1358 40.7279C39.1901 40.6989 39.2578 40.7198 39.2868 40.7741L40.1561 42.4083C40.1851 42.4627 40.1642 42.5304 40.1099 42.5594C40.0935 42.5683 40.0757 42.5728 40.0578 42.5728Z" fill="#231F20"/>
<path d="M33.023 49.0766C32.9828 49.0766 32.9441 49.055 32.9241 49.0171C32.9092 48.9881 32.9077 48.9561 32.9181 48.927C32.9017 48.8824 32.9159 48.831 32.9553 48.8005C33.0044 48.7633 33.0744 48.773 33.1116 48.8214L33.1525 48.8749C33.1726 48.901 33.1801 48.9345 33.1726 48.9665C33.1652 48.9985 33.1443 49.026 33.1153 49.0409L33.0744 49.0625C33.058 49.0714 33.0401 49.0751 33.0223 49.0751L33.023 49.0766Z" fill="#231F20"/>
<path d="M25.9823 42.5824C25.9339 42.5824 25.8893 42.5504 25.8751 42.502C25.8669 42.4745 25.8699 42.4439 25.884 42.4186L26.7637 40.7643C26.7927 40.71 26.8604 40.6892 26.9147 40.7182C26.9691 40.7472 26.9899 40.8149 26.9609 40.8693L26.0835 42.5199C26.0701 42.5474 26.0455 42.5697 26.0135 42.5787C26.0031 42.5816 25.9927 42.5831 25.9823 42.5831V42.5824Z" fill="#231F20"/>
<path d="M33.023 49.0009C32.9895 49.0009 32.956 48.986 32.9344 48.957L26.774 40.8833C26.7368 40.8342 26.7457 40.7642 26.7948 40.727C26.844 40.6898 26.9139 40.6987 26.9511 40.7479L33.1115 48.8215C33.1487 48.8707 33.1398 48.9406 33.0907 48.9778C33.0706 48.9934 33.0468 49.0009 33.023 49.0009Z" fill="#231F20"/>
<path d="M32.9948 49.0918C32.9546 49.0918 32.9159 49.0702 32.8958 49.0322C32.8668 48.9779 32.8876 48.9102 32.9427 48.8812L32.9702 48.8663C33.0245 48.838 33.0922 48.8581 33.1213 48.9132C33.1503 48.9675 33.1295 49.0352 33.0744 49.0642L33.0468 49.0791C33.0305 49.0881 33.0126 49.0918 32.9948 49.0918Z" fill="#231F20"/>
<path d="M27.5398 51.963C27.5227 51.963 27.5056 51.9592 27.4899 51.9511C27.4579 51.9354 27.4356 51.9049 27.4297 51.8692L25.8721 42.4887C25.8617 42.4277 25.9033 42.3704 25.9636 42.36C26.0246 42.3496 26.0819 42.3913 26.0924 42.4515L27.6246 51.6794L32.9426 48.8798C32.9969 48.8508 33.0646 48.8716 33.0937 48.9267C33.1227 48.981 33.1011 49.0487 33.0468 49.0778L27.5919 51.9488C27.5755 51.9578 27.5577 51.9615 27.5398 51.9615V51.963Z" fill="#231F20"/>
<path d="M32.9434 68.5595C32.9032 68.5595 32.8645 68.5378 32.8444 68.4999C32.8161 68.4456 32.837 68.3779 32.8913 68.3488C36.028 66.7057 38.8567 64.5066 41.2991 61.8127C43.2541 59.6567 44.9672 57.1801 46.3908 54.4527C47.6582 52.0251 48.4567 49.8432 48.9039 48.4404C49.2656 47.3062 49.4613 46.4847 49.538 46.1371L45.8915 47.2765C45.8468 47.2906 45.797 47.275 45.7687 47.237C45.7404 47.1991 45.7389 47.1477 45.765 47.1083L48.0325 43.7133L45.8029 43.3918C45.7419 43.3829 45.6995 43.3263 45.7084 43.2653C45.7173 43.2043 45.7739 43.1611 45.8349 43.1708L48.2394 43.5168C48.2773 43.522 48.3101 43.5466 48.3257 43.5816C48.3413 43.6166 48.3376 43.6575 48.3168 43.6887L46.1266 46.9684L49.6533 45.8662C49.6905 45.8543 49.7315 45.8633 49.7612 45.8893C49.791 45.9154 49.8037 45.9548 49.7962 45.9935C49.7888 46.0314 49.0312 49.8737 46.5925 54.5487C45.1599 57.294 43.4357 59.787 41.468 61.9585C39.007 64.6733 36.1568 66.8895 32.9955 68.546C32.9791 68.555 32.9612 68.5587 32.9434 68.5587V68.5595Z" fill="#231F20"/>
<path d="M32.9433 68.556C32.921 68.556 32.8987 68.5493 32.8786 68.5352C32.828 68.4995 32.8168 68.4295 32.8518 68.3797C32.9322 68.2666 34.8418 65.551 36.6747 60.9854C38.3372 56.8433 40.2721 50.2706 40.0473 42.4782C40.0459 42.4165 40.0942 42.3651 40.156 42.3636C40.217 42.3584 40.2691 42.4105 40.2706 42.4723C40.4968 50.3034 38.553 56.908 36.8823 61.0695C35.0397 65.6589 33.116 68.3953 33.0349 68.5099C33.0133 68.5404 32.9791 68.5568 32.9441 68.5568L32.9433 68.556Z" fill="#231F20"/>
<path d="M32.9396 68.5618C32.9024 68.5618 32.8652 68.5432 32.8444 68.509C32.825 68.4777 30.8968 65.3171 29.0736 60.5529C27.3902 56.1547 25.4539 49.4481 25.7858 42.4781C25.7887 42.4163 25.8386 42.3694 25.9026 42.3717C25.9644 42.3746 26.012 42.4267 26.009 42.4885C25.6786 49.4184 27.606 56.0907 29.2805 60.468C31.0963 65.2145 33.0155 68.3609 33.0341 68.3921C33.0661 68.445 33.0498 68.5134 32.9977 68.5454C32.9791 68.5566 32.959 68.5618 32.9396 68.5618Z" fill="#231F20"/>
<path d="M32.9397 68.5617C32.9226 68.5617 32.9047 68.558 32.8876 68.549C29.7255 66.8932 26.8835 64.677 24.4403 61.9622C22.4869 59.7914 20.7827 57.2985 19.3754 54.5532C16.9799 49.8789 16.2662 46.0374 16.2595 45.9995C16.2528 45.9608 16.2662 45.9221 16.2952 45.896C16.3243 45.87 16.3652 45.8611 16.4024 45.873L19.9291 46.9751L17.7389 43.6955C17.7174 43.6635 17.7144 43.6233 17.73 43.5883C17.7456 43.5533 17.7784 43.5288 17.8163 43.5236L18.6342 43.406C18.6945 43.397 18.7518 43.4395 18.7607 43.5005C18.7696 43.5615 18.7272 43.6181 18.6662 43.627L18.024 43.7193L20.2915 47.1143C20.3175 47.1537 20.3161 47.205 20.2878 47.243C20.2595 47.281 20.2104 47.2966 20.165 47.2824L16.5162 46.1423C16.6882 46.9565 17.4904 50.3879 19.5778 54.4579C20.9761 57.1846 22.6692 59.6605 24.6093 61.8164C27.0338 64.5096 29.8535 66.7087 32.991 68.3511C33.0454 68.3794 33.0669 68.4471 33.0379 68.5022C33.0178 68.5401 32.9791 68.5617 32.9389 68.5617H32.9397Z" fill="#231F20"/>
<path d="M32.9434 68.5559H32.9419C32.8802 68.5552 32.831 68.5046 32.8318 68.4428C32.8705 65.9178 32.7164 63.3377 32.5676 60.8432C32.3042 56.4339 32.0556 52.2694 32.8869 48.9526C32.9017 48.8931 32.962 48.8566 33.0223 48.8715C33.0818 48.8864 33.1183 48.9474 33.1034 49.0069C32.2803 52.2903 32.5282 56.4384 32.7901 60.8298C32.9397 63.3288 33.0937 65.9126 33.055 68.4466C33.0543 68.5076 33.0044 68.5567 32.9434 68.5567V68.5559Z" fill="#231F20"/>
<path d="M38.3945 28.6369C38.0849 28.6369 37.8326 28.3846 37.8326 28.075C37.8326 27.7654 38.0849 27.5132 38.3945 27.5132C38.7041 27.5132 38.9564 27.7654 38.9564 28.075C38.9564 28.3846 38.7041 28.6369 38.3945 28.6369ZM38.3945 27.7364C38.2077 27.7364 38.0559 27.8882 38.0559 28.075C38.0559 28.2618 38.2077 28.4136 38.3945 28.4136C38.5813 28.4136 38.7331 28.2618 38.7331 28.075C38.7331 27.8882 38.5813 27.7364 38.3945 27.7364Z" fill="#231F20"/>
<path d="M38.3774 30.7648C37.8386 30.7648 37.401 30.3264 37.401 29.7884C37.401 29.2503 37.8393 28.812 38.3774 28.812C38.6297 28.812 38.87 28.9087 39.0531 29.0844C39.0977 29.1268 39.0992 29.1975 39.0561 29.2422C39.0137 29.2868 38.943 29.2883 38.8983 29.2451C38.7569 29.1097 38.5724 29.0353 38.3774 29.0353C37.9621 29.0353 37.6243 29.3731 37.6243 29.7884C37.6243 30.2036 37.9621 30.5415 38.3774 30.5415C38.5098 30.5415 38.6408 30.5058 38.7554 30.4388C38.8083 30.4075 38.8767 30.4254 38.908 30.479C38.9392 30.5318 38.9214 30.6003 38.8678 30.6315C38.719 30.7186 38.5485 30.7648 38.3774 30.7648Z" fill="#231F20"/>
<path d="M38.812 30.6462C38.7733 30.6462 38.7361 30.6261 38.7153 30.5912C38.684 30.5376 38.7026 30.4699 38.7555 30.4386C38.9869 30.3039 39.1305 30.0546 39.1305 29.7882C39.1305 29.5813 39.0479 29.3886 38.8984 29.245C38.8537 29.2025 38.8522 29.1318 38.8954 29.0872C38.9385 29.0425 39.0085 29.041 39.0531 29.0842C39.2474 29.2702 39.3538 29.5203 39.3538 29.7882C39.3538 30.1335 39.1677 30.4572 38.8678 30.6314C38.85 30.6418 38.8306 30.6462 38.812 30.6462Z" fill="#231F20"/>
<path d="M25.5692 28.9772C25.4107 28.9772 25.3177 28.9698 25.3006 28.9683C25.2663 28.9653 25.2351 28.9459 25.2165 28.9169C25.1979 28.8879 25.1942 28.8514 25.2061 28.8187C25.2224 28.7733 25.6295 27.7188 27.3769 27.9882C27.5502 27.756 28.2446 27.0349 29.922 27.5342C29.9651 27.5469 29.9964 27.5848 30.0009 27.6295C30.0053 27.6741 29.9822 27.718 29.9428 27.7389C27.8732 28.8551 26.2003 28.9772 25.5692 28.9772ZM25.4948 28.7517C26.0105 28.7569 27.6046 28.6795 29.5841 27.6749C28.0429 27.3192 27.548 28.1288 27.5264 28.1653C27.5034 28.2055 27.458 28.2278 27.4111 28.2196C26.172 28.0083 25.6689 28.4957 25.4948 28.7517Z" fill="#231F20"/>
<path d="M30.3111 28.031C30.2992 28.031 30.2866 28.0288 30.2739 28.025C30.2471 28.0161 29.6243 27.7906 29.5007 27.1082C29.4896 27.0472 29.5305 26.9891 29.5908 26.9787C29.6518 26.9683 29.7099 27.0077 29.7203 27.0688C29.82 27.6239 30.3417 27.8122 30.3469 27.8144C30.4049 27.8345 30.4354 27.8985 30.4153 27.9566C30.399 28.0027 30.3558 28.031 30.3097 28.031H30.3111Z" fill="#231F20"/>
<path d="M27.2741 29.5441C26.719 29.5441 26.1303 29.3484 25.5164 28.9592C25.4643 28.9264 25.4487 28.8572 25.4821 28.8051C25.5156 28.753 25.5841 28.7374 25.6362 28.7709C26.4392 29.2807 27.1878 29.4369 27.8613 29.236C28.9441 28.913 29.4754 27.767 29.4807 27.7551C29.506 27.6993 29.5722 27.674 29.6287 27.6993C29.6846 27.7246 29.7099 27.7908 29.6846 27.8474C29.6615 27.898 29.1048 29.0984 27.9253 29.4496C27.714 29.5129 27.4974 29.5441 27.2749 29.5441H27.2741Z" fill="#231F20"/>
<path d="M19.3597 15.7121C19.3039 15.7121 19.2555 15.6704 19.2488 15.6131C19.1298 14.5958 19.5956 13.5897 20.5958 12.7026C21.3422 12.0403 22.111 11.6815 22.143 11.6667C22.1988 11.6406 22.265 11.6652 22.291 11.721C22.3171 11.7768 22.2925 11.843 22.2367 11.8691C22.2062 11.8832 19.2027 13.3017 19.4706 15.587C19.478 15.6481 19.4341 15.7039 19.3724 15.7113C19.3679 15.7113 19.3634 15.7113 19.359 15.7113L19.3597 15.7121Z" fill="#231F20"/>
<path d="M48.9761 34.2987C48.9329 34.2987 48.892 34.2734 48.8734 34.2318C48.8488 34.1752 48.8749 34.1097 48.9314 34.0852C50.7264 33.3075 51.347 30.1268 51.353 30.0948C51.3642 30.0346 51.423 29.9951 51.4832 30.0063C51.5435 30.0174 51.5837 30.0762 51.5718 30.1365C51.5651 30.17 51.411 30.9745 51.0226 31.8913C50.4957 33.1356 49.8222 33.9423 49.0192 34.2898C49.0051 34.2958 48.9895 34.2987 48.9753 34.2987H48.9761Z" fill="#231F20"/>
<path d="M24.8652 38.7409C24.8503 38.7409 24.8354 38.7379 24.8205 38.7312C23.3254 38.0771 22.5641 36.2687 22.5321 36.192C22.5083 36.1355 22.5359 36.07 22.5924 36.0462C22.6497 36.0224 22.7145 36.0499 22.7383 36.1065C22.7457 36.1243 23.4981 37.9096 24.9098 38.5266C24.9664 38.5511 24.9924 38.6173 24.9671 38.6732C24.9485 38.7148 24.9076 38.7401 24.8644 38.7401L24.8652 38.7409Z" fill="#231F20"/>
</g>
</g>
<defs>
<clipPath id="clip0_525_30180">
<rect x="0.124023" y="0.25" width="64" height="64" rx="12" fill="white"/>
</clipPath>
<clipPath id="clip1_525_30180">
<rect width="64" height="64" fill="white" transform="translate(0.124023 0.25)"/>
</clipPath>
</defs>
</svg>
