<svg width="65" height="65" viewBox="0 0 65 65" fill="none" xmlns="http://www.w3.org/2000/svg">
<g clip-path="url(#clip0_525_30040)">
<rect x="0.124023" y="0.25" width="64" height="64" rx="12" fill="#E0E0E0"/>
<g clip-path="url(#clip1_525_30040)">
<rect width="64" height="64" transform="translate(0.124023 0.25)" fill="#E8E5FA"/>
<path d="M67.6575 73.8126H-5.05176V65.2523L6.05745 50.3231L8.80499 46.6305C9.64071 45.5075 10.8828 44.7559 12.2655 44.5371L14.0269 44.2863L23.7415 42.9021L25.4011 42.6655L25.4889 42.6528C25.4852 42.6729 25.4822 42.6923 25.4815 42.7116C25.32 44.936 41.5961 44.3801 41.2388 42.6677L42.2569 42.8128L43.4811 42.987L46.9021 43.4744L48.6695 43.7259L54.2242 44.517C54.3611 44.5386 54.4965 44.5654 54.6297 44.5974C54.853 44.651 55.071 44.718 55.2839 44.7983C55.4535 44.8623 55.6202 44.9353 55.7817 45.0164C55.944 45.0975 56.1017 45.1868 56.2543 45.2835C56.5981 45.5016 56.9166 45.7583 57.2039 46.05C57.2359 46.082 57.2679 46.1155 57.2991 46.1483C57.3609 46.2152 57.4219 46.2837 57.4807 46.3529C57.5983 46.4928 57.7099 46.6394 57.8141 46.792L58.3388 47.5615L59.0413 48.5937L59.8294 49.7509L67.65 61.2314L67.6575 73.8126Z" fill="#FFB9DA"/>
<path d="M25.4889 42.6528C25.4971 42.6097 25.5112 42.5658 25.5313 42.5204C25.8565 41.8134 26.0083 41.2218 26.0522 40.7276C26.1869 39.2303 25.3363 38.6141 25.308 38.344C25.2835 38.1066 25.7002 37.8886 26.1601 37.7226C26.5151 37.5939 26.8954 37.4956 27.1179 37.4428V37.9287C26.5039 38.1036 25.788 38.3946 27.1179 38.5479C27.2786 38.5665 27.4692 38.5836 27.6939 38.597C30.3097 38.7615 36.9776 38.5427 38.5992 38.4854C38.853 38.4765 39.1053 38.4422 39.3523 38.3812C39.3843 38.3738 39.4156 38.3671 39.4468 38.3589C39.9559 38.2182 40.5259 37.9764 39.3307 37.7918L39.3151 37.355C39.8814 37.4666 41.1004 37.7405 41.0669 38.0166C41.0535 38.1341 40.9106 38.3991 40.7752 38.7898C40.5341 39.4826 40.316 40.5699 40.8809 41.925C40.9679 42.1334 41.0736 42.3477 41.2001 42.568C41.2195 42.6015 41.2321 42.635 41.2388 42.6677C41.599 44.395 25.0357 44.9457 25.4889 42.6528Z" fill="#FFB9DA"/>
<path d="M43.8301 12.6281C43.3702 13.0092 42.7667 12.9712 42.4973 12.9288C42.431 12.9191 42.3856 12.9087 42.3663 12.9042C42.3618 12.9027 42.3588 12.902 42.3574 12.902C42.3581 12.902 42.3596 12.9035 42.3611 12.905C42.4571 12.9839 44.0377 14.31 43.0956 15.2626C42.8411 15.5193 42.5077 15.6287 42.1661 15.657C41.7374 15.692 41.2961 15.5982 40.9769 15.5029C40.7105 15.424 40.5296 15.3437 40.514 15.337C40.5348 15.3906 41.4532 17.7615 37.9801 16.7152C37.9384 16.582 37.8945 16.451 37.8483 16.3245C37.8468 16.2099 37.8439 16.0975 37.8387 15.9881C37.5775 10.1426 32.133 10.4559 30.4764 11.7485C30.3373 11.8564 30.2249 11.9718 30.1445 12.0908C29.954 12.1057 29.7672 12.1266 29.5849 12.1526C29.2895 11.7381 29.3683 11.1227 29.7188 10.7119C29.8372 10.5735 30.0284 10.5273 30.207 10.4894C29.855 10.3495 29.4271 10.0986 29.3371 9.69753C29.2999 9.53232 29.3267 9.37977 29.4152 9.2354C29.4428 9.19149 29.7985 8.85586 29.8186 8.89604C29.8126 8.88339 28.9002 7.04675 30.5449 6.65159C30.5449 6.65159 28.936 3.9502 32.261 4.83354C32.3042 4.84471 32.3481 4.85661 32.3927 4.86926C32.3927 4.86926 33.3088 2.54516 34.6081 4.78069C34.6081 4.78069 34.6148 4.7152 34.6387 4.61474C34.719 4.2672 34.9921 3.50145 35.8353 3.56694C36.3711 3.60861 36.8191 3.98293 36.9858 4.486C37.0015 4.53288 37.0148 4.58052 37.0253 4.62889C37.0253 4.62964 37.026 4.63111 37.026 4.63185C37.0506 4.75018 37.0632 4.87148 37.0513 4.98832C37.0513 4.98832 37.9756 3.49028 39.359 3.69121C40.1092 3.80061 40.6509 4.454 40.6532 5.17586C40.6539 5.3046 40.6368 5.43558 40.6011 5.56581C40.5445 5.77046 40.4455 5.96842 40.2818 6.13214C40.2818 6.13214 40.936 5.82703 41.6861 5.72284C42.3164 5.63503 42.8664 5.92601 43.1834 6.37475C43.4349 6.72973 43.5406 7.18367 43.423 7.62795C43.3858 7.77083 43.3248 7.91224 43.2392 8.04917C43.1864 8.13401 43.1283 8.20618 43.0658 8.26125C43.0658 8.26125 45.7054 9.01139 43.4401 10.6471C43.4401 10.6471 44.7916 11.8334 43.8301 12.6281Z" fill="#45216A"/>
<path d="M40.6003 22.6435C40.4567 22.8936 40.2677 23.1444 40.0325 23.3803C39.8457 23.5686 39.6292 23.7472 39.3836 23.9094L39.3821 23.9109C39.2601 23.9913 39.1306 24.0679 38.9936 24.1394C38.504 24.3946 37.9488 24.5122 37.4003 24.4482C36.866 24.3857 36.3376 24.1594 36.6227 23.4614C36.7194 23.224 36.9099 22.933 37.2262 22.5751C37.3483 22.4367 37.4896 22.2886 37.6504 22.1301C37.6176 22.1472 37.5834 22.1643 37.5477 22.1821C36.8936 22.5081 35.8346 22.9025 36.0571 21.9016C36.1762 21.3665 36.421 20.7942 36.6815 20.2875C36.6971 20.2562 36.7135 20.2257 36.7291 20.1952C36.7633 20.1304 36.7976 20.0679 36.831 20.0061C36.8333 20.0009 36.8363 19.9957 36.8392 19.9905C36.8363 19.9935 36.8333 19.9965 36.8296 19.9994C36.8236 20.0054 36.8177 20.0106 36.811 20.0166C36.811 20.0166 35.6307 20.6067 34.914 20.2272C34.3894 19.9496 34.5643 19.221 34.9765 18.5862C35.013 18.5297 35.0517 18.4746 35.0911 18.4203C34.6774 18.6108 33.9481 18.8147 33.1131 18.4516C33.1131 18.4516 32.3287 17.8361 33.1049 16.7712C33.0193 16.8776 32.3034 17.7319 31.1403 17.7751C30.2688 17.8071 30.1951 16.9505 30.1951 16.9505C30.1951 16.9505 28.9032 17.8376 27.4253 17.6426C26.2361 17.4856 25.8677 16.4742 25.8677 16.4742C25.8677 16.4742 25.1763 17.4402 24.3964 17.2966C24.1858 17.2579 24.0169 17.1433 23.8889 16.9773C23.8844 17.2162 23.8204 18.2387 23.0487 18.3846C22.8456 18.4225 22.6216 18.3816 22.4221 18.27C22.2435 18.1695 22.0843 18.0125 21.9808 17.8041C21.9741 17.7907 21.9674 17.7766 21.9622 17.7624C21.867 17.5489 21.8275 17.2862 21.8781 16.9788C21.931 16.6536 22.0835 16.2793 22.376 15.8618C22.9966 14.9755 23.3836 15.32 23.6106 15.8447C23.6508 15.1191 24.002 14.2871 24.6971 13.7535C25.0126 13.5116 25.2828 13.5548 25.4911 13.6865C25.7203 13.5325 26.2011 13.2341 26.8776 12.9334C27.4178 12.6938 28.0824 12.4527 28.8437 12.286C29.0811 12.2331 29.3289 12.1885 29.5849 12.1527C29.7672 12.1267 29.954 12.1059 30.1445 12.091C30.2911 12.0791 30.44 12.0709 30.591 12.0672C31.426 12.0419 32.3287 12.1289 33.2731 12.3924C35.4394 12.9959 37.0431 14.1397 37.8483 16.3247C37.8945 16.4512 37.9384 16.5821 37.9801 16.7154C38.0054 16.7995 38.0307 16.885 38.0545 16.9714C38.1564 17.0004 38.2502 17.0435 38.3291 17.1068C38.5881 17.3137 38.6134 17.6262 38.4586 18.0102C38.4861 17.9946 38.5129 17.979 38.5404 17.9656C38.5523 17.9589 38.5635 17.9529 38.5754 17.947C38.9602 17.7542 39.3881 17.7178 39.7207 18.1613C40.1881 18.7849 40.517 19.3565 40.1218 20.0858C40.0147 20.283 39.8554 20.4914 39.6307 20.7161C40.9449 20.2465 41.2932 21.4409 40.6003 22.6435Z" fill="#45216A"/>
<path d="M30.1445 12.0909C31.1008 12.0157 32.1576 12.0812 33.2731 12.3922C35.4394 12.9958 37.0424 14.1403 37.8476 16.3245C37.7776 9.6209 31.199 10.5258 30.1445 12.0909Z" fill="#FFB9DA"/>
<path d="M21.9808 17.8032C21.8327 18.2884 21.6489 19.1383 21.7196 20.2032C21.8997 19.5402 22.1311 18.889 22.4221 18.2698C22.2428 18.1693 22.0842 18.0123 21.9808 17.8039V17.8032Z" fill="#45216A"/>
<path d="M24.0236 21.327C23.6374 21.0978 23.2006 20.9683 22.7392 20.9683C22.6 20.9683 22.4631 20.981 22.3291 21.0041C20.936 21.24 19.8644 22.6599 19.8644 24.3767C19.8644 24.859 19.9492 25.3181 20.1018 25.7334C19.6434 25.1596 19.3621 24.3857 19.3621 23.5328C19.3621 21.9187 20.3689 20.5844 21.6787 20.3618C21.8045 20.341 21.9332 20.3291 22.0642 20.3291C22.8352 20.3291 23.531 20.7124 24.0236 21.327Z" fill="#E1E1FF"/>
<path d="M31.9685 21.6008C31.4795 21.1104 30.8462 20.815 30.1549 20.815C28.604 20.815 27.3471 22.3003 27.3471 24.1318C27.3471 24.8045 27.516 25.4304 27.8077 25.9528C27.199 25.3448 26.8127 24.4354 26.8127 23.4204C26.8127 21.5882 28.0697 20.1035 29.6206 20.1035C30.6029 20.1035 31.4669 20.6989 31.9685 21.6008Z" fill="#E1E1FF"/>
<path d="M27.1179 38.5483V37.9292C26.5039 38.1041 25.7873 38.395 27.1179 38.5483Z" fill="#EA68AD"/>
<path d="M40.9516 31.1419C41.1116 32.7769 40.6629 33.6119 40.4709 33.6535C40.2662 33.623 39.656 32.8186 39.496 31.1836C39.4432 30.6463 39.4417 30.0941 39.5488 29.5627C39.5749 29.4332 39.6076 29.3038 39.6508 29.1787C39.6634 29.1408 39.6776 29.1036 39.6925 29.0671C39.7914 28.8238 40.1375 28.5224 39.8443 28.2716C39.7713 28.2091 39.6701 28.1815 39.5756 28.1972C39.1753 28.2641 38.9669 28.8394 38.8657 29.2383C38.8493 29.3023 38.8359 29.3626 38.8247 29.4154C38.7012 30.0003 38.6975 30.612 38.7555 31.2052C38.8136 31.8005 38.9483 32.4108 39.1529 32.928C39.4402 33.6521 39.8659 34.1908 40.4173 34.2392C40.453 34.2422 40.4895 34.2437 40.526 34.2422C40.8579 34.2325 41.3059 34.042 41.5559 33.1884C41.7196 32.6288 41.7687 31.895 41.6928 31.1218C41.5983 30.1566 41.3036 29.1505 40.8318 28.5722C40.6614 28.7203 40.4754 28.8483 40.2759 28.951C40.5312 29.3157 40.8437 30.0398 40.9516 31.1434V31.1419Z" fill="#FFBE58"/>
<path d="M40.5788 23.6719C40.4084 23.5543 40.2253 23.4561 40.0326 23.3802C39.752 23.6622 39.406 23.9242 38.9937 24.1392C38.7206 24.2814 38.4273 24.3811 38.126 24.4302C37.8871 24.4689 37.643 24.4763 37.4004 24.4481C36.866 24.3856 36.3377 24.1593 36.6227 23.4613C36.7567 23.1323 37.0707 22.7 37.6504 22.1299C37.0119 22.4611 35.8227 22.9567 36.0571 21.9015C36.2 21.2585 36.5252 20.5619 36.8393 19.9904C36.8303 19.9993 36.8207 20.0075 36.811 20.0165C36.811 20.0165 36.8087 20.0179 36.8043 20.0194C36.8043 20.0202 36.8035 20.0202 36.8035 20.0202C36.7001 20.07 35.5965 20.5887 34.914 20.227C34.3433 19.9249 34.6007 19.0892 35.0912 18.4202C34.6774 18.6107 33.9481 18.8146 33.1131 18.4514C33.1131 18.4514 32.3287 17.836 33.1049 16.7711C33.0193 16.8775 32.3034 17.7318 31.1403 17.775C30.2688 17.807 30.1952 16.9504 30.1952 16.9504C30.1952 16.9504 28.9033 17.8375 27.4253 17.6425C26.2361 17.4855 25.8677 16.4741 25.8677 16.4741C25.8677 16.4741 25.1764 17.4401 24.3965 17.2965C24.1859 17.2578 24.0169 17.1431 23.8889 16.9772C23.8874 17.0501 23.8807 17.1952 23.8495 17.3671C23.8048 17.6179 23.7088 17.9238 23.5042 18.1374C23.3896 18.2572 23.2407 18.348 23.0487 18.3844C22.8456 18.4224 22.6216 18.3815 22.4221 18.2698C22.1319 18.8897 21.8997 19.5402 21.7204 20.2032C21.7055 20.2561 21.6921 20.3089 21.6787 20.3617C21.8045 20.3409 21.9332 20.329 22.0642 20.329C22.382 20.329 22.6871 20.3938 22.9699 20.5136C24.0169 20.9549 24.7663 22.1404 24.7663 23.5327C24.7663 25.2153 23.6724 26.5951 22.2822 26.7268C22.2108 26.7335 22.1379 26.7372 22.0642 26.7372C21.6593 26.7372 21.2761 26.6308 20.9315 26.4417C20.8928 30.2363 21.7509 34.2587 25.1042 35.2633C25.4212 35.3593 25.7598 35.427 26.1222 35.4657C26.4638 35.5015 26.7957 35.5231 27.118 35.532V38.5482C27.2787 38.5668 27.4692 38.5839 27.694 38.5973C30.3098 38.7618 36.9777 38.543 38.5993 38.4857C38.853 38.4767 39.1053 38.4425 39.3524 38.3815L39.3308 37.7921L39.3152 37.3552L39.1879 33.8791L39.1529 32.9273C38.9475 32.4109 38.8136 31.7999 38.7548 31.2045C38.6967 30.6114 38.7012 29.9997 38.8247 29.4148C38.8352 29.3627 38.8493 29.3024 38.8657 29.2377C38.8828 29.1692 38.9036 29.0955 38.9274 29.0204C39.0443 28.6565 39.2437 28.2531 39.5756 28.1973C39.6701 28.1809 39.7713 28.2092 39.8443 28.271C40.1375 28.5218 39.7922 28.8231 39.6932 29.0665C39.6776 29.1037 39.6642 29.1409 39.6515 29.1781C39.8696 29.1283 40.0794 29.0516 40.2759 28.9504C40.4754 28.847 40.6614 28.7197 40.8318 28.5716C41.4688 28.0172 41.8766 27.1696 41.8766 26.22C41.8766 25.1506 41.3594 24.2099 40.5788 23.6719ZM32.4262 23.5186C32.3816 25.3046 31.1433 26.7372 29.6207 26.7372C28.098 26.7372 26.8128 25.2518 26.8128 23.4204C26.8128 21.5889 28.0698 20.1035 29.6207 20.1035C31.1715 20.1035 32.4285 21.5882 32.4285 23.4204C32.4285 23.4531 32.427 23.4858 32.4262 23.5186Z" fill="#C47451"/>
<path d="M39.4469 38.3591C39.9559 38.2184 40.526 37.9766 39.3308 37.792L39.3524 38.3814C39.3836 38.3739 39.4156 38.3673 39.4469 38.3583V38.3591Z" fill="#EA68AD"/>
<path d="M55.2839 44.798C54.9438 44.6692 54.5888 44.5747 54.2242 44.5167C54.5888 44.574 54.9438 44.6692 55.2839 44.798Z" fill="#8EB9F6"/>
<path d="M57.8141 46.7922C57.3981 46.1819 56.8653 45.6707 56.2543 45.2837C56.8653 45.6714 57.3981 46.1819 57.8141 46.7922Z" fill="#8EB9F6"/>
<path d="M43.4855 61.7639C43.9938 63.9451 43.0896 66.456 41.1644 67.5998C40.0131 68.2837 38.626 68.4549 37.2864 68.4326C36.9225 68.4266 36.5512 68.4058 36.2126 68.2718C35.8591 68.1319 35.5644 67.8789 35.26 67.6512C34.6156 67.1697 33.8952 66.7879 33.1309 66.5379C31.8189 66.1092 30.4116 66.0757 29.0706 65.7505C27.7296 65.4253 26.3581 64.699 25.8379 63.4212C25.5439 62.7001 25.5588 61.8875 25.6861 61.1195C25.9264 59.6683 26.556 58.2834 27.4922 57.1492C27.9685 56.5717 28.5363 56.0493 29.2232 55.7494C31.9789 54.5461 36.4768 56.0158 39.1194 57.0145C41.2142 57.8063 42.978 59.5842 43.4862 61.7654L43.4855 61.7639Z" fill="#8EB9F6"/>
<path d="M23.9648 45.9878C23.8212 46.4871 23.6567 46.9924 23.3449 47.4084C22.6186 48.3781 21.2724 48.643 20.0616 48.6013C17.8246 48.5247 13.9377 47.5468 13.9883 44.7003C13.9905 44.5582 14.0039 44.4197 14.027 44.2865L23.7416 42.9023C23.7929 42.9619 23.8406 43.0244 23.8845 43.0899C24.4374 43.9219 24.2409 45.0278 23.9648 45.9878Z" fill="#8EB9F6"/>
<path d="M58.3387 47.5615L59.0413 48.5937L58.3387 47.5615Z" fill="#8EB9F6"/>
<path d="M59.0413 48.5939C58.9393 48.6735 58.8344 48.7494 58.728 48.8223C58.3395 49.088 57.9227 49.3075 57.4777 49.4668C56.5601 49.7957 55.5659 49.853 54.5925 49.7987C52.6628 49.6893 50.7056 49.1163 49.2344 47.8616C48.6241 47.3407 47.7966 46.1425 47.3002 44.9064C47.106 44.4227 46.9624 43.9323 46.9021 43.4746L48.6695 43.7261L54.2241 44.5172C54.3611 44.5388 54.4965 44.5656 54.6297 44.5976C54.853 44.6512 55.071 44.7181 55.2839 44.7985C55.4535 44.8625 55.6202 44.9354 55.7817 45.0166C55.944 45.0977 56.1017 45.187 56.2543 45.2837C56.5981 45.5018 56.9166 45.7585 57.2039 46.0502C57.2359 46.0822 57.2679 46.1157 57.2991 46.1485C57.3609 46.2154 57.4219 46.2832 57.4807 46.3531C57.5983 46.493 57.7099 46.6396 57.8141 46.7922L58.3387 47.5617L59.0413 48.5939Z" fill="#FF4C3E"/>
<path d="M46.9021 43.4746L48.6695 43.7261L46.9021 43.4746Z" fill="#8EB9F6"/>
<path d="M40.7752 38.79C40.7752 38.79 40.7744 38.793 40.7737 38.7945C40.7737 38.793 40.7744 38.7915 40.7752 38.79Z" fill="#8EB9F6"/>
<path d="M40.7737 38.7939C40.7737 38.7939 40.7745 38.791 40.7752 38.7895C40.4388 38.7627 40.0868 38.82 39.714 38.9926C39.5451 39.0708 39.3821 39.1787 39.2876 39.3387C39.2161 39.4592 39.1894 39.6006 39.1633 39.739C39.1097 40.0278 39.0569 40.3337 39.1611 40.6083C39.2437 40.8248 39.4134 40.9945 39.5793 41.1567C39.9358 41.5065 40.3347 41.8771 40.8325 41.9217C40.8489 41.9232 40.8645 41.924 40.8809 41.9247C40.616 41.2892 40.5237 40.7132 40.5244 40.2086C40.5244 40.1751 40.5244 40.1417 40.5259 40.1089C40.5401 39.5835 40.6539 39.14 40.7737 38.7939Z" fill="#FF4C3E"/>
<path d="M29.2217 55.7484C28.5356 56.0483 27.9678 56.5707 27.4907 57.1482C26.5546 58.2824 25.925 59.6673 25.6846 61.1185C25.5573 61.8872 25.5425 62.6991 25.8364 63.4203C26.3566 64.6988 27.7281 65.4243 29.0692 65.7495C30.4102 66.0747 31.8182 66.1082 33.1294 66.5369C33.8945 66.7869 34.6141 67.1687 35.2586 67.6502C35.5629 67.8779 35.8576 68.1309 36.2111 68.2708C36.5497 68.4048 36.9211 68.4256 37.285 68.4316C38.6245 68.4539 40.0117 68.2828 41.1629 67.5988C43.0889 66.455 43.9931 63.9442 43.484 61.7629C42.975 59.5817 41.212 57.8039 39.1172 57.0121C36.4746 56.0134 31.9767 54.5436 29.221 55.747L29.2217 55.7484Z" fill="#FF4C3E"/>
<path d="M14.027 44.2865C14.0039 44.4197 13.9905 44.5582 13.9883 44.7003C13.9377 47.5468 17.8246 48.5247 20.0616 48.6013C21.2724 48.643 22.6186 48.3781 23.3449 47.4084C23.6567 46.9924 23.8212 46.4871 23.9648 45.9878C24.2409 45.0278 24.4374 43.9219 23.8845 43.0899C23.8406 43.0244 23.7929 42.9619 23.7416 42.9023L14.027 44.2865Z" fill="#FF4C3E"/>
<path d="M28.4983 42.7236C28.3986 42.984 28.2081 43.278 27.929 43.2571C27.6894 43.24 27.5301 42.9781 27.5272 42.7377C27.5242 42.4973 27.6306 42.2718 27.7154 42.0463C28.0213 41.2218 28.0228 40.2916 27.7318 39.4633C27.6916 39.3502 27.7273 39.2177 27.8308 39.1559C27.8494 39.1448 27.8687 39.1366 27.8888 39.1314C28.0548 39.0867 28.2274 39.1812 28.3473 39.304C28.569 39.5317 28.6673 39.8495 28.7268 40.1621C28.8905 41.0149 28.8094 41.9124 28.4976 42.7236H28.4983Z" fill="#FFD2EA"/>
<path d="M30.9088 39.7783C30.9691 40.0156 31.0763 40.2389 31.1433 40.4748C31.2125 40.7219 31.2363 40.9801 31.2534 41.2361C31.2928 41.8285 31.2958 42.4365 31.112 43.0013C31.0562 43.1725 30.9944 43.3891 31.1299 43.5081C31.173 43.5461 31.2303 43.5654 31.2876 43.5773C31.6404 43.6503 32.0303 43.4419 32.1658 43.1085C32.2268 42.9589 32.2395 42.7944 32.2469 42.6337C32.261 42.3427 32.2603 42.0503 32.2402 41.76C32.2179 41.4393 32.1725 41.1215 32.1487 40.8008C32.1219 40.4443 32.1189 40.0744 31.9708 39.7492C31.8488 39.4813 31.6024 39.2596 31.3055 39.2194C30.958 39.1717 30.8315 39.4716 30.9096 39.779L30.9088 39.7783Z" fill="#FFD2EA"/>
<path d="M37.681 39.4895C37.7844 39.6562 37.7956 39.8966 37.806 40.1042C37.8573 41.1 38.3009 42.0987 38.0464 43.0624C38.0277 43.1316 38.001 43.2067 37.9377 43.2402C37.9005 43.2603 37.8566 43.2626 37.8142 43.2611C37.6021 43.2551 37.2687 43.1487 37.1563 42.9478C37.0603 42.7774 37.0566 42.4901 37.0261 42.2966C36.9412 41.7563 36.9174 41.2086 36.9249 40.6624C36.9286 40.3997 36.9025 40.0529 36.9956 39.8051C37.0402 39.6853 37.3431 39.2432 37.5239 39.3392C37.5917 39.3749 37.6423 39.4263 37.6802 39.4881L37.681 39.4895Z" fill="#FFD2EA"/>
<path d="M35.5599 39.8356C35.6001 40.2643 35.4312 40.681 35.3374 41.1015C35.2191 41.6343 35.2213 42.1873 35.2608 42.732C35.2727 42.895 35.2875 43.0609 35.2503 43.2194C35.2131 43.3787 35.1149 43.5327 34.9616 43.5908C34.7413 43.6741 34.4883 43.5253 34.3737 43.3191C34.2598 43.113 34.2494 42.8674 34.2427 42.6323C34.2234 41.99 34.2033 41.3471 34.1839 40.7048C34.1713 40.2903 34.1832 39.66 34.5858 39.4033C34.9951 39.142 35.5138 39.3444 35.5592 39.8341L35.5599 39.8356Z" fill="#FFD2EA"/>
<g style="mix-blend-mode:screen">
<path d="M25.1042 35.2635C21.7509 34.2588 20.8928 30.2365 20.9315 26.4419C21.2761 26.6309 21.6593 26.7373 22.0642 26.7373C22.1379 26.7373 22.2108 26.7336 22.2822 26.7269C22.2934 29.825 22.9408 33.0919 25.1042 35.2635Z" fill="#C47451"/>
</g>
<g style="mix-blend-mode:screen">
<path d="M22.0642 20.3288C21.9332 20.3288 21.8045 20.3407 21.6787 20.3616C21.6921 20.3087 21.7055 20.2559 21.7204 20.2031C21.8997 19.54 22.1319 18.8896 22.4222 18.2697C22.6216 18.3813 22.8456 18.4222 23.0488 18.3843C23.2408 18.3478 23.3896 18.257 23.5042 18.1372L23.5615 18.1677C23.5615 18.1677 23.2728 19.0808 22.9699 20.5134C22.6871 20.3936 22.382 20.3288 22.0642 20.3288Z" fill="#C47451"/>
</g>
<g style="mix-blend-mode:multiply" opacity="0.7">
<path d="M35.9864 31.1406C35.9626 31.2381 34.5456 36.9036 29.0156 38.2699C28.4299 38.415 27.7989 38.5118 27.1179 38.5482V35.5321C27.1179 35.5321 32.5349 36.0113 35.9864 31.1406Z" fill="#C47451"/>
</g>
<g style="mix-blend-mode:multiply" opacity="0.7">
<path d="M39.3523 38.3812C39.3523 38.3812 28.9322 38.9832 27.1179 38.5479C27.7989 38.5114 28.4299 38.4147 29.0156 38.2696C29.5157 38.277 36.6919 38.3589 39.3151 37.355L39.3523 38.3812Z" fill="#C47451"/>
</g>
<g style="mix-blend-mode:multiply" opacity="0.7">
<path d="M39.1879 34.3643C38.9758 34.1455 38.7949 33.8567 38.6476 33.5293C38.4228 33.0285 38.2755 32.4368 38.2108 31.8593C38.1468 31.2848 38.152 30.6925 38.2867 30.1246C38.2986 30.074 38.3142 30.016 38.3328 29.9535C38.4236 29.6342 38.5962 29.1989 38.9014 29.0195C38.8753 29.1021 38.8522 29.1832 38.8336 29.2584C38.8158 29.3299 38.8001 29.3961 38.789 29.4534C38.6528 30.0971 38.6483 30.7699 38.7123 31.4218C38.7771 32.0766 39.0078 32.4964 39.2333 33.0642L39.1886 34.3635L39.1879 34.3643Z" fill="#C47451"/>
</g>
<g style="mix-blend-mode:multiply" opacity="0.7">
<path d="M40.5788 23.6721C39.2021 24.5845 38.2882 24.4617 38.126 24.4304C38.4274 24.3813 38.7206 24.2816 38.9937 24.1394C39.406 23.9244 39.752 23.6624 40.0326 23.3804C40.2253 23.4563 40.4084 23.5545 40.5788 23.6721Z" fill="#C47451"/>
</g>
<g style="mix-blend-mode:multiply" opacity="0.7">
<path d="M36.8035 20.0202C36.7663 20.0871 36.7224 20.1519 36.6763 20.2122C36.3853 20.5939 35.9641 20.8924 35.4893 20.9586C35.0138 21.0248 34.4921 20.8254 34.2435 20.4153C34.027 20.0589 34.0389 19.6138 34.0575 19.1971C33.6757 19.4345 33.1555 19.3258 32.7991 19.052C32.4426 18.7789 32.2156 18.3733 32.008 17.9744C31.4573 18.5206 30.4772 18.5497 29.8953 18.0369C29.8134 17.9655 29.7353 17.8821 29.6311 17.8538C29.5336 17.8271 29.4301 17.8516 29.3327 17.8762C28.7321 18.0272 28.1189 18.1604 27.4997 18.1441C26.8806 18.1284 26.2473 17.9521 25.7792 17.5465C25.4525 18.3443 24.4233 18.0369 23.9775 17.5457C23.9284 17.4914 23.886 17.4319 23.8495 17.3671C23.8807 17.1952 23.8874 17.0501 23.8889 16.9772C24.0169 17.1431 24.1859 17.2578 24.3965 17.2965C25.1764 17.4401 25.8677 16.4741 25.8677 16.4741C25.8677 16.4741 26.2361 17.4855 27.4253 17.6425C28.9033 17.8375 30.1952 16.9504 30.1952 16.9504C30.1952 16.9504 30.2688 17.807 31.1403 17.775C32.3034 17.7318 33.0193 16.8775 33.1049 16.7711C32.3287 17.836 33.1131 18.4514 33.1131 18.4514C33.9481 18.8146 34.6774 18.6107 35.0912 18.4202C34.6007 19.0892 34.3433 19.9249 34.914 20.227C35.5965 20.5887 36.7001 20.07 36.8035 20.0202Z" fill="#C47451"/>
</g>
<g style="mix-blend-mode:screen">
<path d="M30.1103 12.3898C29.5633 12.5728 29.032 12.8117 28.5073 13.0417C27.9053 13.3051 27.3017 13.5864 26.7563 13.9585C26.1937 14.3418 25.6906 14.8076 25.2426 15.3181C25.0223 15.5689 24.8177 15.8324 24.619 16.101C24.4738 16.2975 24.3079 16.6368 24.0355 16.6606C23.8056 16.6807 23.627 16.462 23.4037 16.4054C23.1365 16.3384 22.8649 16.5207 22.7049 16.7447C22.5449 16.9687 22.4571 17.2366 22.3038 17.4659C22.2204 17.5909 22.0976 17.707 21.9622 17.762C21.867 17.5485 21.8275 17.2858 21.8781 16.9784C21.931 16.6532 22.0835 16.2789 22.376 15.8614C22.9966 14.9751 23.3836 15.3196 23.6106 15.8443C23.6508 15.1187 24.002 14.2867 24.6971 13.7531C25.0126 13.5112 25.2828 13.5544 25.4911 13.6861C25.7203 13.5321 26.2011 13.2337 26.8776 12.933C27.4178 12.6934 28.0824 12.4523 28.8437 12.2856C29.3222 12.1806 29.7992 12.194 30.2785 12.11C30.3633 12.0951 30.4474 12.0765 30.5337 12.0757C30.7071 12.0742 30.8753 12.1472 31.0487 12.1449C30.7302 12.2015 30.4176 12.2871 30.111 12.3905L30.1103 12.3898Z" fill="#45216A"/>
</g>
<g style="mix-blend-mode:multiply" opacity="0.4">
<path d="M40.1219 20.0856C39.8354 20.0655 39.5258 19.9925 39.3829 19.7484C39.3196 19.6405 39.2988 19.5125 39.2385 19.4024C39.1098 19.1665 38.8292 19.0578 38.6558 18.8517C38.4638 18.6247 38.4289 18.2474 38.5405 17.9654C38.5524 17.9587 38.5635 17.9527 38.5755 17.9468C38.9602 17.754 39.3881 17.7176 39.7208 18.1611C40.1881 18.7847 40.517 19.3563 40.1219 20.0856Z" fill="#45216A"/>
</g>
<g style="mix-blend-mode:screen">
<path d="M32.261 4.83349C32.255 4.86773 32.2461 4.9012 32.2334 4.93469C31.9767 4.78586 31.6329 4.98083 31.5094 5.25023C31.2846 5.7399 31.583 6.36577 31.199 6.79963C31.1053 6.9053 30.9817 6.97897 30.8761 7.07274C30.5702 7.34437 30.4385 7.77748 30.4705 8.18529C30.5025 8.59311 30.6811 8.97786 30.914 9.31423C30.9944 9.43033 31.0829 9.54642 31.1201 9.6826C31.2169 10.0391 30.9408 10.3762 30.7064 10.6612C30.4794 10.9365 30.2658 11.2476 30.1758 11.5981C30.1497 11.6993 30.1802 12.0223 30.1222 12.0848C30.0999 12.1094 29.5938 12.1645 29.5849 12.1518C29.2895 11.7373 29.3683 11.1219 29.7188 10.7111C29.8372 10.5727 30.0284 10.5265 30.207 10.4886C29.855 10.3487 29.4271 10.0979 29.3371 9.69674C29.2999 9.53153 29.3267 9.37897 29.4152 9.2346C29.4428 9.19069 29.7985 8.85506 29.8186 8.89525C29.8126 8.8826 28.9002 7.04595 30.5449 6.65079C30.5449 6.65079 28.936 3.9494 32.261 4.83275V4.83349Z" fill="#45216A"/>
</g>
<g style="mix-blend-mode:multiply" opacity="0.5">
<path d="M42.4973 12.9289C42.4311 12.9192 42.3857 12.9088 42.3663 12.9043C42.405 12.9014 42.4497 12.911 42.4973 12.9289Z" fill="#45216A"/>
</g>
<g style="mix-blend-mode:multiply" opacity="0.4">
<path d="M43.0956 15.2624C42.841 15.5191 42.5076 15.6285 42.1661 15.6568C41.7374 15.6918 41.2961 15.598 40.9769 15.5027C40.7104 15.4238 40.5296 15.3435 40.514 15.3368C40.5348 15.3904 41.4531 17.7613 37.98 16.715C37.9383 16.5818 37.8944 16.4508 37.8483 16.3243C37.8468 16.2097 37.8438 16.0973 37.8386 15.9879C37.8773 15.985 37.9205 15.9954 37.9592 16.0065C38.3975 16.1323 38.9065 16.2268 39.2786 15.9619C39.5889 15.7409 39.7006 15.339 39.7914 14.9692C40.1709 15.0056 40.5527 15.0257 40.9337 15.0272C41.2902 15.0294 41.6623 15.0116 41.9718 14.8359C42.3 14.6499 42.5017 14.2793 42.524 13.9072C42.5337 13.7383 42.5054 13.5731 42.4422 13.416C42.402 13.3171 42.1936 13.0663 42.2732 12.9546C42.2956 12.9234 42.3253 12.9085 42.361 12.9048C42.457 12.9837 44.0377 14.3098 43.0956 15.2624Z" fill="#45216A"/>
</g>
<g style="mix-blend-mode:screen">
<path d="M36.8109 20.0163C36.8109 20.0163 35.6306 20.6064 34.914 20.2269C34.3893 19.9493 34.5642 19.2207 34.9765 18.5859C35.013 18.5889 35.0465 18.5986 35.0747 18.6165C35.2176 18.7073 35.0881 18.964 35.1023 19.1128C35.1253 19.3502 35.2615 19.5787 35.4654 19.7037C35.7363 19.8697 36.0772 19.854 36.3942 19.8295C36.488 19.822 36.5854 19.8146 36.6747 19.8466C36.7447 19.8719 36.8087 19.9292 36.8295 19.9991C36.8236 20.0051 36.8176 20.0103 36.8109 20.0163Z" fill="#45216A"/>
</g>
<g style="mix-blend-mode:screen">
<path d="M37.6273 22.1062C37.6258 22.1099 37.6221 22.1144 37.6169 22.1188C37.593 22.1404 37.57 22.1613 37.5476 22.1821C36.8935 22.508 35.8345 22.9025 36.057 21.9015C36.1285 21.5808 36.2379 21.2682 36.3644 20.9654C36.4299 20.8083 36.4998 20.6543 36.5742 20.501C36.607 20.4333 36.6397 20.367 36.6799 20.3045C36.7179 20.245 36.7395 20.1773 36.7811 20.1185C36.7938 20.1006 36.8072 20.0835 36.825 20.0716C36.8429 20.0597 36.866 20.0537 36.8861 20.0604C36.8928 20.111 36.8794 20.1609 36.8712 20.2107C36.8585 20.2814 36.8682 20.3514 36.86 20.4221C36.8533 20.4787 36.8407 20.5374 36.831 20.594C36.8102 20.7242 36.7804 20.853 36.7514 20.9817C36.7127 21.1514 36.674 21.3203 36.6353 21.49C36.6301 21.5116 36.6256 21.5332 36.6219 21.5547C36.6025 21.6686 36.6167 21.7877 36.6628 21.8934C36.6941 21.9655 36.7417 22.0333 36.8109 22.0705C36.8742 22.1039 36.9486 22.1084 37.02 22.1069C37.1361 22.1054 37.2515 22.0905 37.3646 22.0645C37.3914 22.0585 37.6518 22.0563 37.6288 22.1062H37.6273Z" fill="#45216A"/>
</g>
<g style="mix-blend-mode:screen">
<path d="M39.3836 23.9092L39.3821 23.9107C39.2601 23.991 39.1306 24.0677 38.9936 24.1391C38.504 24.3944 37.9488 24.512 37.4003 24.448C36.866 24.3854 36.3376 24.1592 36.6227 23.4612C36.7194 23.2238 36.9099 22.9328 37.2262 22.5748C37.2857 22.5339 37.3378 22.4826 37.3892 22.432C37.4234 22.3977 37.5417 22.2407 37.599 22.2742C37.6459 22.3017 37.512 22.4595 37.4874 22.5019C37.4331 22.5957 37.3862 22.6939 37.3564 22.7981C37.32 22.9268 37.3095 23.0623 37.3103 23.1962C37.311 23.3592 37.3341 23.5363 37.448 23.6532C37.5425 23.7507 37.6839 23.7879 37.8193 23.7998C38.3075 23.8437 38.7793 23.6219 39.2675 23.5683C39.3553 23.5587 39.4647 23.5654 39.5056 23.6442C39.554 23.738 39.4647 23.8414 39.3836 23.9092Z" fill="#45216A"/>
</g>
<g style="mix-blend-mode:screen" opacity="0.8">
<path d="M26.0917 40.7181C26.0887 40.6519 26.079 40.5849 26.0671 40.5068C26.0433 40.3564 26.0634 40.1935 26.0448 40.0401C26.0128 39.7782 25.9451 39.5222 25.8401 39.2803C25.7077 38.9745 25.468 38.7289 25.3363 38.429C25.3244 38.4015 25.3117 38.3739 25.308 38.3441C25.2887 38.1559 25.5194 38.0212 25.6563 37.9438C25.7761 37.8768 26.2308 37.6022 26.3633 37.7131C26.4042 37.7473 26.4005 37.8143 26.3715 37.8597C26.2911 37.9869 26.1891 38.0681 26.1467 38.2214C26.1043 38.3747 26.1103 38.5369 26.1475 38.6887C26.1929 38.874 26.2799 39.0467 26.335 39.2297C26.4563 39.6316 26.4444 40.1079 26.3804 40.5194C26.3283 40.855 26.2003 41.1884 25.9622 41.431C25.9971 41.2763 26.0321 41.1214 26.0671 40.9667C26.0887 40.8729 26.0939 40.7955 26.0909 40.7174L26.0917 40.7181Z" fill="#FFD2EA"/>
</g>
<g style="mix-blend-mode:multiply">
<path d="M32.93 45.2763C23.231 44.9169 25.4316 42.7163 25.4316 42.7163L25.4814 42.7119C25.3199 44.9363 41.596 44.3803 41.2388 42.668L42.2569 42.8131C43.3538 43.4523 41.5744 45.5963 32.93 45.2763Z" fill="#FFD2EA"/>
</g>
<g style="mix-blend-mode:screen" opacity="0.7">
<path d="M22.8121 44.3692L14.3217 45.877C12.5379 46.0764 10.8389 46.7484 9.40112 47.823L6.0575 50.3227L8.80503 46.6301C9.64075 45.5071 10.8828 44.7555 12.2655 44.5367L14.027 44.2859L23.7416 42.9017L25.4011 42.665L25.4815 42.7112C25.4815 42.7112 25.5708 42.6524 25.3959 42.866C24.7433 43.66 23.8242 44.1891 22.8121 44.3692Z" fill="#FFB9DA"/>
</g>
<g style="mix-blend-mode:screen" opacity="0.7">
<path d="M59.8294 49.7511L58.728 48.8223L57.3029 47.6205C55.8673 46.4097 54.1036 45.6536 52.2372 45.4482L47.3003 44.9064L45.1109 44.7062C44.4575 44.6467 43.8859 44.2426 43.6113 43.6465C43.5123 43.4322 43.6567 43.1844 43.8926 43.165L44.2736 43.1338L46.9021 43.4739L48.6696 43.7254L54.2242 44.5165C54.3611 44.5381 54.4965 44.5649 54.6297 44.5969C54.853 44.6504 55.071 44.7174 55.2839 44.7978C55.4536 44.8618 55.6203 44.9347 55.7817 45.0158C55.944 45.097 56.1017 45.1862 56.2543 45.283C56.5981 45.501 56.9166 45.7578 57.2039 46.0495C57.2359 46.0815 57.2679 46.115 57.2991 46.1477C57.3609 46.2147 57.4219 46.2832 57.4807 46.3524C57.5983 46.4923 57.7099 46.6389 57.8141 46.7915L58.3388 47.561L59.0413 48.5931L59.8294 49.7504V49.7511Z" fill="#FFB9DA"/>
</g>
<path d="M24.7663 23.5327C24.7663 25.3024 23.5563 26.7372 22.0642 26.7372C21.6594 26.7372 21.2761 26.6308 20.9315 26.4418C20.6175 26.2691 20.3354 26.0272 20.1018 25.7333C19.9492 25.318 19.8644 24.8589 19.8644 24.3766C19.8644 22.6598 20.936 21.2399 22.3291 21.004C22.4631 20.9809 22.6 20.9683 22.7392 20.9683C23.2006 20.9683 23.6374 21.0978 24.0236 21.327C24.4843 21.9015 24.7663 22.6777 24.7663 23.5327Z" fill="#B8B4EF"/>
<path d="M32.4285 23.4203C32.4285 23.4531 32.427 23.4858 32.4262 23.5186C32.3816 25.3046 31.1433 26.7372 29.6207 26.7372C28.9293 26.7372 28.2967 26.4425 27.8078 25.9528C27.5161 25.4304 27.3472 24.8045 27.3472 24.1318C27.3472 22.3003 28.6041 20.8149 30.155 20.8149C30.8463 20.8149 31.4796 21.1104 31.9686 21.6008C32.2595 22.1232 32.4285 22.7483 32.4285 23.4203Z" fill="#B8B4EF"/>
<path d="M39.6514 29.2894C39.6008 29.2894 39.5547 29.2544 39.5428 29.2031C39.5286 29.1428 39.5666 29.0832 39.6268 29.0691C39.8345 29.0215 40.0361 28.9478 40.2252 28.8503C40.2802 28.822 40.3472 28.8436 40.3755 28.8987C40.4038 28.9538 40.3822 29.0207 40.3271 29.049C40.121 29.1547 39.9022 29.2351 39.6767 29.2872C39.6685 29.2894 39.6596 29.2901 39.6514 29.2901V29.2894Z" fill="#231F20"/>
<path d="M40.2758 29.0609C40.2357 29.0609 40.1962 29.0386 40.1769 29.0006C40.1486 28.9455 40.1702 28.8786 40.2252 28.8503C40.4143 28.7528 40.5936 28.6307 40.7588 28.4871C40.805 28.4462 40.8757 28.4514 40.9166 28.4983C40.9568 28.5444 40.9523 28.6151 40.9054 28.656C40.7268 28.8116 40.5318 28.944 40.3272 29.0497C40.3108 29.0579 40.2937 29.0624 40.2758 29.0624V29.0609Z" fill="#231F20"/>
<path d="M40.8318 28.6829C40.8005 28.6829 40.7692 28.6702 40.7477 28.6442C40.7075 28.5981 40.7119 28.5273 40.7588 28.4864C41.3988 27.9298 41.7657 27.103 41.7657 26.2196C41.7657 25.0029 41.0528 23.903 39.9923 23.4833C39.935 23.4609 39.9067 23.3954 39.9298 23.3381C39.9521 23.2808 40.0169 23.2526 40.0749 23.2756C41.2202 23.7281 41.9897 24.9113 41.9897 26.2196C41.9897 27.1685 41.5945 28.0555 40.9062 28.6553C40.8853 28.674 40.8593 28.6829 40.8332 28.6829H40.8318Z" fill="#231F20"/>
<path d="M38.8656 29.349C38.8656 29.349 38.8604 29.349 38.8574 29.349C38.495 29.3222 38.1467 29.227 37.8223 29.0647C37.7672 29.0372 37.7449 28.9702 37.7724 28.9152C37.7999 28.8601 37.8669 28.8378 37.922 28.8653C38.2204 29.0141 38.5404 29.1027 38.8738 29.1265C38.9356 29.131 38.9817 29.1846 38.9772 29.2463C38.9728 29.3051 38.9237 29.3498 38.8664 29.3498L38.8656 29.349Z" fill="#231F20"/>
<path d="M39.5652 27.7809C39.5428 27.7809 39.5205 27.7742 39.5004 27.76C39.4706 27.7384 38.7637 27.2324 38.6907 26.675C38.6654 26.48 38.7183 26.3029 38.847 26.1474C39.2236 25.6957 39.7564 26.1079 39.9841 26.2836C40.0035 26.2985 40.0288 26.3193 40.0578 26.3431C40.4195 26.6408 40.5267 26.6616 40.5587 26.6475C40.5587 26.6475 40.5832 26.6207 40.5758 26.5001C40.5534 26.1526 40.4455 25.8117 40.2625 25.5148C40.1144 25.2737 39.9395 25.1003 39.743 25.0006C39.3188 24.7855 38.7726 24.8875 38.2948 25.0162C38.2353 25.0318 38.1743 24.9969 38.1579 24.9373C38.1415 24.8778 38.1773 24.8168 38.2368 24.8004C38.7555 24.6612 39.3523 24.5518 39.8435 24.8011C40.0772 24.9195 40.2818 25.1204 40.4522 25.3972C40.6539 25.7254 40.773 26.1012 40.7975 26.4852C40.8094 26.6713 40.7633 26.7926 40.6599 26.8462C40.4656 26.9451 40.1858 26.7368 39.9157 26.515C39.8889 26.4927 39.8651 26.4733 39.8472 26.4599C39.493 26.1861 39.2161 26.0521 39.0182 26.2895C38.9289 26.3967 38.8947 26.5128 38.9118 26.6452C38.9713 27.1059 39.6225 27.5725 39.6292 27.577C39.6798 27.6127 39.6909 27.6826 39.656 27.7325C39.6344 27.763 39.5994 27.7794 39.5644 27.7794L39.5652 27.7809Z" fill="#231F20"/>
<path d="M25.7649 26.7397C25.4434 26.7397 25.2804 26.407 25.2157 26.2738C24.8607 25.5497 25.1144 24.6575 25.3362 24.0487C25.357 23.9907 25.4218 23.9609 25.4791 23.9817C25.5371 24.0026 25.5669 24.0666 25.5461 24.1246C25.3384 24.6947 25.0988 25.5267 25.4158 26.1749C25.5468 26.4413 25.6681 26.541 25.8237 26.509C26.1295 26.445 26.4093 26.2843 26.6661 26.1198C26.7182 26.0863 26.7874 26.1019 26.8201 26.154C26.8529 26.2061 26.838 26.2753 26.7859 26.3081C26.5113 26.4837 26.2099 26.6564 25.8683 26.7278C25.8318 26.7352 25.7969 26.739 25.7641 26.739L25.7649 26.7397Z" fill="#231F20"/>
<path d="M30.597 28.6851C30.5694 28.6851 30.5426 28.6754 30.5211 28.6553C30.4764 28.6129 30.4727 28.5452 30.5144 28.5006L30.5196 28.4953C30.5613 28.4499 30.6342 28.4447 30.6796 28.4864C30.725 28.5281 30.7302 28.5966 30.6885 28.6412L30.6803 28.6494C30.658 28.6732 30.6267 28.6851 30.5962 28.6851H30.597Z" fill="#231F20"/>
<path d="M28.1017 29.9658C27.5227 29.9658 26.8916 29.7604 26.2472 29.1956C26.201 29.1547 26.1966 29.0847 26.2368 29.0378C26.2777 28.9917 26.3476 28.9865 26.3945 29.0274C26.9958 29.555 28.6025 30.5605 30.5143 28.5005C30.556 28.4552 30.6267 28.4529 30.6721 28.4946C30.7175 28.5363 30.7197 28.607 30.6781 28.6523C30.3171 29.0416 29.3281 29.9651 28.1017 29.9651V29.9658Z" fill="#231F20"/>
<path d="M30.5954 28.6887C30.5806 28.6887 30.5649 28.6857 30.55 28.679C30.3499 28.5897 30.1802 28.4565 30.0462 28.2816C30.0083 28.2325 30.018 28.1625 30.0663 28.1253C30.1154 28.0874 30.1854 28.0971 30.2226 28.1454C30.3342 28.2905 30.4749 28.4014 30.6408 28.4751C30.6974 28.5004 30.7227 28.5659 30.6974 28.6224C30.6788 28.6641 30.6379 28.6887 30.5954 28.6887Z" fill="#231F20"/>
<path d="M31.1498 28.8036C31.0114 28.8036 30.7852 28.7835 30.55 28.6786C30.4935 28.6533 30.4682 28.5878 30.4935 28.5312C30.5188 28.4747 30.5842 28.4494 30.6408 28.4747C30.9534 28.6138 31.254 28.5751 31.257 28.5744C31.318 28.5655 31.3746 28.6086 31.3828 28.6696C31.3909 28.7306 31.3493 28.7872 31.2882 28.7954C31.283 28.7954 31.2309 28.8028 31.1498 28.8028V28.8036Z" fill="#231F20"/>
<path d="M27.1186 35.6431C27.1186 35.6431 27.1163 35.6431 27.1156 35.6431C26.7829 35.6334 26.4451 35.6111 26.1109 35.5754C24.156 35.3685 22.7167 34.2968 21.8348 32.3902C21.1368 30.8818 20.7952 28.8792 20.8205 26.4397C20.8205 26.3787 20.8711 26.3296 20.9322 26.3296H20.9336C20.9954 26.3296 21.0445 26.3809 21.0438 26.4427C20.9731 33.3555 23.7727 35.1043 26.1348 35.3543C26.4629 35.3893 26.7948 35.4116 27.1223 35.4206C27.1841 35.4221 27.2324 35.4734 27.2309 35.5352C27.2295 35.5954 27.1796 35.6438 27.1193 35.6438L27.1186 35.6431Z" fill="#231F20"/>
<path d="M27.4595 35.6484C27.3456 35.6484 27.231 35.647 27.1149 35.6432C27.0531 35.6418 27.0048 35.5904 27.0063 35.5286C27.0077 35.4669 27.0613 35.4155 27.1209 35.42C30.3 35.51 32.5103 34.3126 33.8037 33.2916C35.2072 32.1835 35.8665 31.0382 35.8732 31.0271C35.9037 30.9735 35.9715 30.9549 36.025 30.9854C36.0786 31.0159 36.0972 31.0836 36.0667 31.1372C36.0392 31.1856 35.3843 32.3257 33.9488 33.4605C32.6725 34.4697 30.5255 35.6477 27.458 35.6477L27.4595 35.6484Z" fill="#231F20"/>
<path d="M21.7203 20.3143C21.7107 20.3143 21.701 20.3128 21.6913 20.3106C21.6318 20.2942 21.5968 20.2332 21.6132 20.1737C21.8007 19.4816 22.0396 18.8252 22.3224 18.2217C22.3484 18.1659 22.4154 18.1413 22.4712 18.1681C22.527 18.1941 22.5508 18.2611 22.5248 18.3169C22.2472 18.9086 22.0135 19.553 21.829 20.2325C21.8156 20.2823 21.7702 20.3151 21.7211 20.3151L21.7203 20.3143Z" fill="#231F20"/>
<path d="M21.6786 20.4729C21.6696 20.4729 21.6599 20.4714 21.6503 20.4692C21.5907 20.4536 21.555 20.3925 21.5699 20.333L21.5803 20.2913C21.5907 20.2519 21.6004 20.2124 21.6116 20.173C21.6279 20.1135 21.6897 20.0785 21.7485 20.0949C21.808 20.1112 21.843 20.1723 21.8266 20.2318C21.8162 20.2705 21.8066 20.3084 21.7961 20.3471L21.7857 20.3888C21.7731 20.4394 21.7277 20.4722 21.6778 20.4722L21.6786 20.4729Z" fill="#231F20"/>
<path d="M39.3523 38.4929C39.2927 38.4929 39.2429 38.4453 39.2406 38.385L39.2191 37.7957C39.2168 37.7339 39.2652 37.6825 39.3262 37.6803C39.3873 37.6773 39.4393 37.7264 39.4416 37.7875L39.4632 38.3769C39.4654 38.4386 39.417 38.49 39.356 38.4922C39.3545 38.4922 39.353 38.4922 39.3515 38.4922L39.3523 38.4929Z" fill="#231F20"/>
<path d="M39.3151 37.4664C39.2555 37.4664 39.2057 37.4187 39.2034 37.3585L39.0412 32.9306C39.039 32.8688 39.0874 32.8174 39.1484 32.8152C39.2072 32.8108 39.2615 32.8614 39.2637 32.9224L39.426 37.3503C39.4282 37.4121 39.3798 37.4634 39.3188 37.4656C39.3173 37.4656 39.3158 37.4656 39.3143 37.4656L39.3151 37.4664Z" fill="#231F20"/>
<path d="M39.3307 37.9034C39.2712 37.9034 39.2213 37.8557 39.2191 37.7955L39.2034 37.3586C39.2012 37.2969 39.2496 37.2455 39.3106 37.2433C39.3716 37.2403 39.4237 37.2894 39.426 37.3505L39.4416 37.7873C39.4438 37.849 39.3954 37.9004 39.3344 37.9026C39.3329 37.9026 39.3314 37.9026 39.33 37.9026L39.3307 37.9034Z" fill="#231F20"/>
<path d="M16.2795 73.9244H-5.05182C-5.11359 73.9244 -5.16345 73.8745 -5.16345 73.8127V65.2524C-5.16345 65.2286 -5.15601 65.2047 -5.14113 65.1854L8.71562 46.5636C9.57366 45.4101 10.8284 44.6511 12.2483 44.4263L25.4732 42.542C25.5342 42.5339 25.5908 42.5755 25.5997 42.6366C25.6086 42.6976 25.5662 42.7541 25.5052 42.7631L12.2818 44.6473C10.9221 44.8624 9.71878 45.5902 8.89497 46.6968L-4.9402 65.2888V73.7004H16.2795C16.3413 73.7004 16.3912 73.7502 16.3912 73.812C16.3912 73.8738 16.3413 73.9236 16.2795 73.9236V73.9244Z" fill="#231F20"/>
<path d="M67.6573 73.9241H16.2795C16.2177 73.9241 16.1678 73.8743 16.1678 73.8125C16.1678 73.7507 16.2177 73.7009 16.2795 73.7009H67.5457L67.5383 61.2655L57.7217 46.8544C56.9098 45.6637 55.6291 44.8518 54.2069 44.627L41.2231 42.7777C41.1621 42.7688 41.1197 42.7122 41.1286 42.6512C41.1375 42.5902 41.1933 42.5485 41.2551 42.5567L54.2404 44.406C55.7251 44.6404 57.0601 45.4873 57.907 46.7286L67.7429 61.168C67.7556 61.1866 67.7623 61.2082 67.7623 61.2306L67.7697 73.8118C67.7697 73.8415 67.7578 73.8698 67.737 73.8906C67.7161 73.9115 67.6878 73.9234 67.6581 73.9234L67.6573 73.9241Z" fill="#231F20"/>
<path d="M27.1179 38.6593C27.0561 38.6593 27.0062 38.6094 27.0062 38.5477V37.9285C27.0062 37.8668 27.0561 37.8169 27.1179 37.8169C27.1796 37.8169 27.2295 37.8668 27.2295 37.9285V38.5477C27.2295 38.6094 27.1796 38.6593 27.1179 38.6593Z" fill="#231F20"/>
<path d="M27.1179 38.0403C27.0561 38.0403 27.0062 37.9904 27.0062 37.9286V37.4427C27.0062 37.3809 27.0561 37.3311 27.1179 37.3311C27.1796 37.3311 27.2295 37.3809 27.2295 37.4427V37.9286C27.2295 37.9904 27.1796 38.0403 27.1179 38.0403Z" fill="#231F20"/>
<path d="M27.1179 35.6427C27.0561 35.6427 27.0062 35.5936 27.0062 35.5318V35.5296C27.0062 35.4678 27.0561 35.418 27.1179 35.418C27.1796 35.418 27.2295 35.4678 27.2295 35.5296C27.2295 35.5914 27.1796 35.642 27.1179 35.642V35.6427Z" fill="#231F20"/>
<path d="M27.1179 37.5542C27.0561 37.5542 27.0062 37.5044 27.0062 37.4426V35.5315C27.0062 35.4698 27.0561 35.4199 27.1179 35.4199C27.1796 35.4199 27.2295 35.4698 27.2295 35.5315V37.4426C27.2295 37.5044 27.1796 37.5542 27.1179 37.5542Z" fill="#231F20"/>
<path d="M37.6995 24.5763C37.5953 24.5763 37.4911 24.5703 37.3877 24.5584C36.9441 24.5063 36.6502 24.3642 36.5147 24.1342C36.4016 23.9437 36.4039 23.7026 36.5192 23.4191C36.5423 23.3618 36.6078 23.3342 36.6651 23.358C36.7224 23.3811 36.7499 23.4466 36.7261 23.5039C36.6383 23.7197 36.6316 23.8939 36.7067 24.0211C36.8295 24.2287 37.1585 24.3076 37.4137 24.3374C37.9265 24.3977 38.4548 24.2942 38.9423 24.0405C39.324 23.841 39.6649 23.5925 39.9536 23.3015C39.9968 23.2576 40.0682 23.2576 40.1114 23.3015C40.1553 23.3446 40.1553 23.4153 40.1114 23.4592C39.8055 23.7666 39.4468 24.0286 39.045 24.2384C38.6156 24.4624 38.1557 24.577 37.6995 24.577V24.5763Z" fill="#231F20"/>
<path d="M36.6225 23.5727C36.6084 23.5727 36.5943 23.5697 36.5801 23.5645C36.5228 23.5414 36.496 23.476 36.5191 23.4186C36.6285 23.1507 36.8443 22.8359 37.1628 22.478C36.6486 22.6812 36.2877 22.7057 36.086 22.5509C35.923 22.4251 35.8761 22.1989 35.9476 21.8767C36.0532 21.3997 36.2661 20.849 36.5816 20.2358C36.1738 20.3928 35.4065 20.6138 34.8618 20.3251C34.6698 20.2231 34.5478 20.0653 34.4994 19.8555C34.4257 19.5347 34.5396 19.0986 34.8067 18.6469C34.3788 18.7779 33.7567 18.8516 33.0691 18.5524C33.0601 18.5487 33.0519 18.5435 33.0445 18.5375C32.8138 18.3559 32.5303 17.9109 32.7081 17.3037C32.3561 17.5731 31.8255 17.8596 31.1446 17.8849C30.4927 17.9087 30.2054 17.4689 30.1154 17.131C29.7336 17.3573 28.6441 17.9139 27.4118 17.7517C26.4622 17.6266 26.0112 16.9941 25.8438 16.6823C25.6056 16.9599 25.0289 17.5247 24.377 17.4041C24.2326 17.3773 24.0994 17.3171 23.9833 17.227C23.9334 17.64 23.7481 18.3634 23.0702 18.4914C22.841 18.5346 22.5924 18.4899 22.3692 18.3641C22.3156 18.3344 22.2962 18.2659 22.326 18.2123C22.3558 18.1587 22.4242 18.1394 22.4778 18.1692C22.6557 18.2681 22.8514 18.3046 23.0285 18.2718C23.7221 18.1409 23.7749 17.1667 23.7779 16.9725C23.7786 16.9249 23.8091 16.8832 23.8545 16.8683C23.8992 16.8534 23.9491 16.8683 23.9781 16.9063C24.0949 17.0581 24.2423 17.1519 24.4171 17.1839C25.1189 17.3133 25.7708 16.4159 25.7775 16.4062C25.8013 16.3727 25.8423 16.3556 25.8832 16.3608C25.9241 16.3667 25.9591 16.3943 25.9732 16.433C25.9874 16.4717 26.3357 17.3833 27.4408 17.5284C28.8592 17.7159 30.1198 16.8631 30.1325 16.8549C30.1652 16.8326 30.2077 16.8289 30.2434 16.846C30.2791 16.8631 30.3037 16.8981 30.3066 16.9375C30.3096 16.968 30.3825 17.6847 31.1364 17.6601C32.3107 17.617 33.0177 16.6986 33.0244 16.6897C33.0616 16.6406 33.1308 16.6309 33.1799 16.6674C33.2291 16.7039 33.2395 16.7738 33.203 16.8229C32.5303 17.736 33.0847 18.2756 33.1725 18.3515C33.9412 18.6804 34.6147 18.5137 35.0449 18.315C35.091 18.2934 35.1461 18.3061 35.1781 18.3455C35.2101 18.385 35.2116 18.4408 35.1818 18.4825C34.8216 18.9744 34.6438 19.4804 34.7182 19.8026C34.7517 19.9485 34.8335 20.0534 34.9675 20.1249C35.5874 20.4531 36.6218 19.9805 36.7491 19.9195C36.7535 19.9158 36.7572 19.912 36.7617 19.9083C36.8011 19.8689 36.8637 19.8644 36.9076 19.8979C36.9522 19.9314 36.9649 19.9924 36.9381 20.0408C36.5451 20.7559 36.2854 21.3892 36.1671 21.9221C36.1321 22.0799 36.1135 22.286 36.2237 22.3708C36.4038 22.5092 36.9187 22.3812 37.6004 22.027C37.6495 22.0017 37.7098 22.0159 37.7418 22.0605C37.7745 22.1052 37.7693 22.1669 37.7299 22.2056C37.2038 22.7228 36.8666 23.1574 36.7267 23.4998C36.7089 23.5429 36.6672 23.569 36.6233 23.569L36.6225 23.5727Z" fill="#231F20"/>
<path d="M21.9815 17.9146C21.9406 17.9146 21.9011 17.8916 21.881 17.8529C21.7538 17.5954 21.7143 17.2865 21.7679 16.9606C21.7776 16.8996 21.8356 16.8579 21.8959 16.8683C21.9569 16.878 21.9979 16.936 21.9882 16.9963C21.942 17.2806 21.9733 17.5351 22.0812 17.7539C22.1087 17.8089 22.0857 17.8759 22.0306 17.9035C22.015 17.9116 21.9979 17.9154 21.9815 17.9154V17.9146Z" fill="#231F20"/>
<path d="M22.4221 18.3805C22.4034 18.3805 22.3848 18.376 22.3677 18.3664C22.1579 18.2488 21.9889 18.0709 21.881 17.8521C21.8535 17.7971 21.8766 17.7301 21.9316 17.7026C21.9867 17.675 22.0537 17.6981 22.0812 17.7532C22.1698 17.931 22.306 18.0761 22.4771 18.1714C22.5307 18.2012 22.5501 18.2696 22.5203 18.3232C22.5002 18.3597 22.4622 18.3805 22.4228 18.3805H22.4221Z" fill="#231F20"/>
<path d="M21.7195 20.3143C21.6614 20.3143 21.6123 20.2689 21.6078 20.2101C21.5371 19.1429 21.7135 18.2945 21.8735 17.7706C21.8914 17.7118 21.9539 17.6784 22.0127 17.6962C22.0715 17.7141 22.105 17.7766 22.0871 17.8354C21.9606 18.2499 21.7589 19.1072 21.8304 20.1952C21.8341 20.257 21.7879 20.3098 21.7262 20.3143C21.7239 20.3143 21.721 20.3143 21.7187 20.3143H21.7195Z" fill="#231F20"/>
<path d="M21.7202 20.3175C21.6585 20.3175 21.6086 20.2677 21.6086 20.2059C21.6049 20.1441 21.651 20.0935 21.7128 20.0891C21.776 20.0853 21.8274 20.1337 21.8319 20.1947C21.8319 20.197 21.8319 20.2029 21.8319 20.2051C21.8319 20.2669 21.782 20.3168 21.7202 20.3168V20.3175Z" fill="#231F20"/>
<path d="M37.98 16.8265C37.9324 16.8265 37.8885 16.7959 37.8736 16.7476C37.8319 16.6121 37.788 16.4826 37.7441 16.3621C37.7225 16.304 37.7523 16.24 37.8103 16.2185C37.8684 16.1969 37.9324 16.2266 37.954 16.2847C38.0001 16.409 38.0447 16.5422 38.0879 16.6813C38.1058 16.7401 38.073 16.8026 38.0142 16.8212C38.0031 16.8242 37.9919 16.8265 37.9815 16.8265H37.98Z" fill="#231F20"/>
<path d="M40.0324 23.4914C40.0041 23.4914 39.9751 23.4802 39.9535 23.4587C39.9096 23.4155 39.9096 23.3448 39.9535 23.3009C40.6062 22.6445 41.0825 21.5766 40.7126 20.9946C40.5295 20.7066 40.1589 20.6449 39.6678 20.8205C39.6187 20.8384 39.5636 20.819 39.5361 20.7751C39.5078 20.7312 39.5145 20.6731 39.5517 20.6367C40.5519 19.6358 40.2155 19.0069 39.6313 18.2278C39.3582 17.8639 38.9928 17.8244 38.515 18.1057C38.4741 18.1303 38.422 18.1251 38.3855 18.0938C38.3491 18.0625 38.3372 18.0119 38.355 17.9673C38.4987 17.6123 38.4667 17.3585 38.259 17.1926C38.195 17.142 38.1184 17.104 38.0239 17.0773C37.9859 17.0668 37.9569 17.0371 37.9465 16.9991C37.9234 16.9135 37.8988 16.8294 37.8728 16.7468C37.8549 16.688 37.8877 16.6255 37.9465 16.6069C38.006 16.5891 38.0678 16.6218 38.0864 16.6806C38.1065 16.7468 38.1266 16.8131 38.1452 16.8808C38.2419 16.9143 38.3267 16.9604 38.3989 17.017C38.5656 17.1502 38.7264 17.3876 38.6423 17.7909C39.1148 17.5967 39.5152 17.6986 39.8099 18.0916C40.3472 18.8082 40.7565 19.5353 39.9625 20.5139C40.3814 20.4529 40.7134 20.5764 40.9016 20.8733C41.3355 21.5572 40.8414 22.7241 40.1121 23.4564C40.0905 23.478 40.0614 23.4892 40.0332 23.4892L40.0324 23.4914Z" fill="#231F20"/>
<path d="M37.8483 16.4352C37.8029 16.4352 37.7605 16.4069 37.7434 16.3623C37.0118 14.3783 35.5823 13.1504 33.2433 12.4992C32.2386 12.2194 31.199 12.1197 30.1534 12.2015C30.0931 12.2052 30.0381 12.1606 30.0336 12.0988C30.0284 12.0371 30.0745 11.9835 30.1363 11.979C31.2079 11.8942 32.2736 11.9969 33.3036 12.2841C35.717 12.9569 37.1949 14.2279 37.9532 16.2856C37.9748 16.3437 37.945 16.4077 37.887 16.4292C37.8743 16.4337 37.861 16.4359 37.8483 16.4359V16.4352Z" fill="#231F20"/>
<path d="M29.5841 12.2632C29.529 12.2632 29.4814 12.223 29.4739 12.1672C29.465 12.1062 29.5082 12.0496 29.5692 12.0415C29.7597 12.0147 29.9502 11.9938 30.1363 11.9797C30.1966 11.976 30.2516 12.0206 30.2561 12.0824C30.2613 12.1442 30.2152 12.1978 30.1534 12.2022C29.9718 12.2164 29.7858 12.2372 29.5997 12.2632C29.5945 12.2632 29.5893 12.264 29.5841 12.264V12.2632Z" fill="#231F20"/>
<path d="M26.8775 13.0445C26.8344 13.0445 26.7942 13.0199 26.7756 12.9783C26.7503 12.9217 26.7756 12.8562 26.8321 12.8309C27.4766 12.5451 28.1449 12.3241 28.8198 12.176C28.8801 12.1626 28.9397 12.2006 28.9531 12.2609C28.9664 12.3211 28.9285 12.3807 28.8682 12.3941C28.2081 12.5392 27.554 12.755 26.9237 13.0348C26.9088 13.0415 26.8939 13.0445 26.8783 13.0445H26.8775Z" fill="#231F20"/>
<path d="M28.8429 12.3964C28.7916 12.3964 28.7454 12.3607 28.7343 12.3086C28.7209 12.2484 28.7588 12.1888 28.8191 12.1754C29.0669 12.1211 29.3192 12.0757 29.5692 12.0407C29.6303 12.0318 29.6868 12.075 29.695 12.136C29.7032 12.197 29.6608 12.2536 29.5997 12.2617C29.3557 12.296 29.1093 12.3399 28.8675 12.3935C28.8593 12.395 28.8511 12.3964 28.8437 12.3964H28.8429Z" fill="#231F20"/>
<path d="M21.878 17.0898C21.8721 17.0898 21.8661 17.0898 21.8602 17.0883C21.7991 17.0787 21.7582 17.0206 21.7679 16.9603C21.8282 16.5927 22.0016 16.2013 22.2844 15.7979C22.5813 15.3737 22.8544 15.181 23.1178 15.2078C23.2741 15.2234 23.4155 15.3172 23.5398 15.4876C23.6678 14.7657 24.06 14.1012 24.6293 13.6651C24.9783 13.3964 25.2797 13.447 25.4873 13.5557C25.7359 13.3927 26.2003 13.1129 26.8321 12.8316C26.8879 12.8063 26.9541 12.8316 26.9794 12.8882C27.0047 12.9447 26.9794 13.0102 26.9229 13.0355C26.2531 13.3332 25.7776 13.6294 25.5536 13.7789C25.5171 13.8035 25.4687 13.8042 25.4315 13.7804C25.2157 13.6435 24.9977 13.6636 24.7655 13.8414C24.0481 14.3921 23.7564 15.2398 23.7229 15.85C23.7199 15.9013 23.6819 15.9445 23.6313 15.9534C23.58 15.9624 23.5301 15.9356 23.5093 15.888C23.423 15.6893 23.2816 15.4481 23.097 15.4295C22.9258 15.4117 22.7078 15.5836 22.4689 15.9259C22.2055 16.3017 22.044 16.6619 21.9897 16.9968C21.9807 17.0519 21.9331 17.0906 21.8795 17.0906L21.878 17.0898Z" fill="#231F20"/>
<path d="M41.9786 15.7752C41.5893 15.7752 41.2106 15.6888 40.9456 15.6092C40.8868 15.5913 40.8526 15.5296 40.8705 15.47C40.8883 15.4113 40.9508 15.377 41.0096 15.3949C41.3013 15.4819 41.7367 15.5787 42.1572 15.5445C42.2197 15.54 42.2725 15.5854 42.2777 15.6464C42.2829 15.7082 42.2368 15.7618 42.1758 15.767C42.1103 15.7722 42.0448 15.7744 41.9793 15.7744L41.9786 15.7752Z" fill="#231F20"/>
<path d="M29.5849 12.2631C29.5499 12.2631 29.5157 12.2468 29.4941 12.2163C29.1763 11.7705 29.2351 11.1067 29.634 10.6386C29.7047 10.556 29.7947 10.5009 29.8877 10.463C29.5923 10.303 29.3058 10.0648 29.2291 9.72101C29.186 9.52901 29.2172 9.34594 29.3214 9.17626C29.3289 9.16361 29.5201 8.95376 29.6742 8.8451C29.561 8.5772 29.2946 7.82854 29.5715 7.23617C29.7173 6.92361 29.989 6.70334 30.3797 6.5813C30.2107 6.25609 29.8267 5.3906 30.2107 4.89051C30.5181 4.49014 31.231 4.43804 32.3302 4.73571C32.4507 4.47227 32.837 3.74446 33.4263 3.69981C33.8081 3.67228 34.1876 3.93349 34.5553 4.48195C34.6922 3.99674 35.065 3.39395 35.8457 3.45497C36.4693 3.50334 36.9999 3.9759 37.1354 4.60473C37.1398 4.62483 37.1436 4.64567 37.1473 4.66576C37.4948 4.22892 38.2948 3.42371 39.3761 3.58073C39.8353 3.64771 40.2453 3.91115 40.5021 4.30333C40.7536 4.68882 40.8295 5.15916 40.7097 5.59525C40.6814 5.69869 40.6442 5.79543 40.5981 5.88473C40.8645 5.78873 41.2515 5.67041 41.6719 5.61162C42.2956 5.52455 42.9103 5.79245 43.2757 6.30966C43.3114 6.36026 43.2995 6.42948 43.2489 6.4652C43.1983 6.50092 43.1291 6.489 43.0933 6.4384C42.7711 5.98296 42.2517 5.75599 41.7024 5.83264C40.9791 5.93311 40.3369 6.23003 40.3302 6.233C40.281 6.25607 40.2223 6.24045 40.1917 6.19579C40.1605 6.15114 40.1657 6.09087 40.2044 6.05292C40.3398 5.91747 40.4373 5.74334 40.4946 5.53571C40.5973 5.16213 40.5318 4.7573 40.3153 4.42539C40.0935 4.08604 39.74 3.85906 39.3441 3.80101C38.05 3.61199 37.1562 5.03189 37.1473 5.04678C37.1197 5.09068 37.0654 5.11004 37.0163 5.09367C36.9672 5.0773 36.9359 5.02818 36.9411 4.97683C36.9508 4.88008 36.9426 4.77068 36.9166 4.65161C36.8012 4.11877 36.354 3.71841 35.8278 3.67748C34.8649 3.60529 34.725 4.7439 34.7197 4.79227C34.7145 4.8399 34.6788 4.87934 34.6319 4.88902C34.585 4.89869 34.5367 4.87784 34.5121 4.83617C34.1445 4.20361 33.7843 3.89627 33.4427 3.92232C32.8757 3.96548 32.5013 4.90018 32.4976 4.90986C32.4768 4.96344 32.4187 4.99171 32.3637 4.97608C31.3233 4.68138 30.6394 4.69849 30.3886 5.02594C30.0753 5.43375 30.4652 6.29552 30.6424 6.5932C30.6602 6.62371 30.6632 6.66092 30.649 6.69367C30.6349 6.72641 30.6066 6.75022 30.5724 6.75915C30.1757 6.8544 29.9078 7.0464 29.7754 7.32993C29.4844 7.95282 29.916 8.83617 29.9205 8.84436C29.948 8.89943 29.9257 8.96641 29.8706 8.99394C29.858 8.99989 29.8446 9.00361 29.8319 9.0051C29.7575 9.05421 29.5454 9.24995 29.5104 9.29683C29.4397 9.41218 29.4182 9.53646 29.4487 9.6719C29.529 10.0291 29.9294 10.2568 30.2509 10.3841C30.2963 10.4019 30.3253 10.4481 30.3209 10.4972C30.3164 10.5463 30.2807 10.5865 30.233 10.5969C30.0537 10.6356 29.8974 10.6758 29.8059 10.783C29.4777 11.1685 29.4226 11.7281 29.6779 12.086C29.7136 12.1359 29.7024 12.2058 29.6518 12.2416C29.6325 12.2557 29.6094 12.2624 29.5871 12.2624L29.5849 12.2631Z" fill="#231F20"/>
<path d="M43.423 7.73939C43.4134 7.73939 43.4044 7.73792 43.3948 7.73569C43.3352 7.72006 43.2995 7.65903 43.3151 7.59949C43.4186 7.20805 43.3375 6.78535 43.0926 6.4393C43.0569 6.3887 43.0688 6.3195 43.1194 6.28378C43.17 6.24806 43.2392 6.25995 43.2749 6.31056C43.5577 6.71093 43.6515 7.20136 43.5309 7.6568C43.5175 7.70666 43.4729 7.74014 43.423 7.74014V7.73939Z" fill="#231F20"/>
<path d="M42.1661 15.7676C42.1088 15.7676 42.0597 15.7237 42.0552 15.6649C42.05 15.6031 42.0961 15.5496 42.1572 15.5443C42.5188 15.5146 42.8083 15.3933 43.016 15.1827C43.208 14.9884 43.295 14.7711 43.2809 14.5196C43.2385 13.765 42.2956 12.9948 42.2867 12.9873C42.2457 12.9538 42.2331 12.8965 42.2576 12.8497C42.2814 12.8028 42.335 12.779 42.3864 12.7923C42.3946 12.7946 43.202 13.0022 43.7601 12.5408C43.9618 12.3741 44.0615 12.1844 44.0645 11.9611C44.0734 11.3591 43.3739 10.7362 43.3665 10.7302C43.3412 10.7079 43.327 10.6751 43.3285 10.6409C43.33 10.6067 43.3471 10.5754 43.3747 10.5561C44.0124 10.0954 44.3027 9.67495 44.2379 9.30732C44.1285 8.68518 43.0465 8.37114 43.036 8.36817C42.9966 8.357 42.9668 8.325 42.9579 8.28555C42.949 8.24537 42.9624 8.20444 42.9936 8.17691C43.045 8.13225 43.0956 8.069 43.1454 7.99011C43.2228 7.86658 43.2801 7.73486 43.3159 7.59942C43.3315 7.53988 43.3925 7.50416 43.452 7.51978C43.5116 7.53541 43.5473 7.59644 43.5317 7.65598C43.49 7.81374 43.4238 7.96556 43.3345 8.10845C43.3121 8.14491 43.2883 8.17839 43.2653 8.2089C43.6061 8.33392 44.354 8.67327 44.4589 9.26862C44.5356 9.70471 44.2513 10.1713 43.6143 10.6573C43.8256 10.8694 44.2967 11.4052 44.2885 11.9648C44.284 12.2543 44.1546 12.5058 43.903 12.7142C43.5094 13.0394 43.0264 13.0818 42.6997 13.0632C43.0085 13.3721 43.4721 13.9287 43.5049 14.5077C43.5227 14.8217 43.4119 15.1023 43.176 15.3412C42.9289 15.5905 42.5925 15.7341 42.1765 15.7683C42.1735 15.7683 42.1706 15.7683 42.1676 15.7683L42.1661 15.7676Z" fill="#231F20"/>
<path d="M39.4609 17.0915C39.0501 17.0915 38.5456 17.0014 37.948 16.8213C37.8892 16.8035 37.8557 16.741 37.8736 16.6822C37.8914 16.6234 37.954 16.5899 38.0127 16.6077C39.1915 16.9627 39.9938 16.9545 40.3331 16.5839C40.7186 16.1635 40.4135 15.3843 40.4105 15.3769C40.3934 15.3344 40.4038 15.2861 40.4373 15.2548C40.47 15.2235 40.5192 15.2154 40.5601 15.234C40.5616 15.2347 40.7432 15.3158 41.0096 15.3955C41.0684 15.4133 41.1026 15.4751 41.0847 15.5346C41.0669 15.5934 41.0044 15.6276 40.9456 15.6098C40.8474 15.5808 40.761 15.551 40.6896 15.5257C40.7655 15.8301 40.8325 16.3689 40.4976 16.735C40.2803 16.9731 39.9335 17.0922 39.4609 17.0922V17.0915Z" fill="#231F20"/>
<path d="M37.8482 16.4349C37.7872 16.4349 37.7373 16.3857 37.7366 16.3247C37.7091 13.6717 36.6025 11.8834 34.6207 11.2888C32.8681 10.7634 30.7904 11.332 30.2374 12.1521C30.2032 12.2034 30.1332 12.2168 30.0826 12.1826C30.0313 12.1484 30.0179 12.0784 30.0521 12.0278C30.6594 11.1273 32.8146 10.5149 34.6847 11.0752C35.6358 11.3602 36.4 11.9028 36.9559 12.6871C37.6064 13.6047 37.9435 14.8274 37.9591 16.3225C37.9591 16.3843 37.91 16.4349 37.849 16.4356H37.8475L37.8482 16.4349Z" fill="#231F20"/>
<path d="M20.9315 26.5529C20.9136 26.5529 20.895 26.5485 20.8779 26.5396C19.8889 25.997 19.2504 24.8175 19.2504 23.533C19.2504 21.8951 20.2863 20.4849 21.66 20.2519C21.7211 20.2422 21.7784 20.2824 21.7888 20.3435C21.7992 20.4045 21.7583 20.4618 21.6973 20.4722C20.4292 20.6873 19.4736 22.003 19.4736 23.533C19.4736 24.7371 20.0667 25.8408 20.9851 26.3438C21.0394 26.3736 21.0587 26.4413 21.029 26.4956C21.0089 26.5328 20.9702 26.5537 20.9307 26.5537L20.9315 26.5529Z" fill="#231F20"/>
<path d="M24.7663 23.6438C24.7045 23.6438 24.6547 23.5939 24.6547 23.5321C24.6547 21.8272 23.4922 20.4401 22.0641 20.4401C21.9443 20.4401 21.8208 20.4505 21.6973 20.4713C21.6362 20.481 21.5789 20.4408 21.5685 20.3798C21.5581 20.3187 21.599 20.2614 21.66 20.251C21.7955 20.228 21.9317 20.2168 22.0641 20.2168C23.6158 20.2168 24.8779 21.7044 24.8779 23.5321C24.8779 23.5939 24.8281 23.6438 24.7663 23.6438Z" fill="#231F20"/>
<path d="M22.064 26.8479C21.651 26.8479 21.2514 26.7437 20.8778 26.539C20.8235 26.5093 20.8041 26.4415 20.8339 26.3872C20.8637 26.3329 20.9314 26.3135 20.9857 26.3433C21.3266 26.5301 21.689 26.6246 22.0648 26.6246C23.4929 26.6246 24.6553 25.2375 24.6553 23.5325C24.6553 23.4708 24.7052 23.4209 24.7669 23.4209C24.8287 23.4209 24.8786 23.4708 24.8786 23.5325C24.8786 25.361 23.6164 26.8479 22.0648 26.8479H22.064Z" fill="#231F20"/>
<path d="M29.6205 26.8476C28.0108 26.8476 26.701 25.3094 26.701 23.4192C26.701 21.529 28.0108 19.9907 29.6205 19.9907C31.2302 19.9907 32.5399 21.529 32.5399 23.4192C32.5399 23.443 32.5399 23.4668 32.5384 23.4906V23.5204C32.4923 25.3861 31.2108 26.8476 29.6212 26.8476H29.6205ZM29.6205 20.214C28.1336 20.214 26.9243 21.6518 26.9243 23.4192C26.9243 25.1866 28.1336 26.6244 29.6205 26.6244C31.1074 26.6244 32.2713 25.2588 32.3144 23.5145V23.4839C32.3159 23.4623 32.3167 23.4408 32.3167 23.4192C32.3167 21.6518 31.1074 20.214 29.6205 20.214Z" fill="#231F20"/>
<path d="M26.8128 23.6439C26.7867 23.6439 26.7614 23.635 26.7399 23.6171C25.7947 22.806 24.8779 23.5829 24.8392 23.6171C24.7923 23.6573 24.7224 23.6528 24.6814 23.606C24.6405 23.5591 24.6457 23.4891 24.6926 23.4482C24.7038 23.4385 25.7955 22.5127 26.885 23.4482C26.9319 23.4884 26.9371 23.5591 26.8969 23.606C26.8746 23.632 26.8433 23.6447 26.812 23.6447L26.8128 23.6439Z" fill="#231F20"/>
<path d="M32.4097 23.63C32.3487 23.63 32.2988 23.5809 32.2981 23.5199C32.2974 23.4581 32.3465 23.4075 32.4082 23.4067H32.4246C32.4246 23.4067 32.4254 23.4067 32.4261 23.4067C32.4871 23.4067 32.537 23.4559 32.5377 23.5169C32.5385 23.5786 32.4894 23.6292 32.4276 23.63H32.4112C32.4112 23.63 32.4105 23.63 32.4097 23.63Z" fill="#231F20"/>
<path d="M32.4261 23.6292C32.3651 23.6292 32.3152 23.5801 32.3145 23.5191C32.3137 23.4573 32.3628 23.4067 32.4246 23.4059L36.6211 23.3486H36.6226C36.6836 23.3486 36.7334 23.3978 36.7342 23.4588C36.7349 23.5206 36.6858 23.5711 36.624 23.5719L32.4276 23.6292H32.4261Z" fill="#231F20"/>
<path d="M26.8611 12.4322C26.7957 12.4322 26.7302 12.427 26.6654 12.4158C26.6044 12.4061 26.5635 12.3481 26.5739 12.2878C26.5836 12.2268 26.6416 12.1859 26.7019 12.1963C26.8686 12.2238 27.0412 12.2074 27.2005 12.1486C27.2437 12.1323 27.2876 12.1129 27.333 12.0928C27.4461 12.0422 27.5622 11.9901 27.6969 11.9819C27.8427 11.9738 27.9759 12.0177 28.1039 12.0608C28.1307 12.0698 28.1575 12.0787 28.1843 12.0876C28.3949 12.1539 28.6144 12.1829 28.8392 12.174C28.9024 12.171 28.953 12.2193 28.9553 12.2811C28.9575 12.3429 28.9099 12.395 28.8481 12.3972C28.5988 12.4069 28.3517 12.3749 28.1173 12.3005C28.089 12.2915 28.0608 12.2819 28.0325 12.2722C27.9201 12.2342 27.813 12.1978 27.711 12.2045C27.6172 12.2104 27.5235 12.2521 27.4245 12.2967C27.3776 12.3176 27.3285 12.3399 27.2779 12.3585C27.1447 12.4076 27.0033 12.4329 26.8619 12.4329L26.8611 12.4322Z" fill="#231F20"/>
<path d="M25.1882 13.1762C25.1555 13.1762 25.1227 13.1613 25.1004 13.1338C25.0624 13.0854 25.0706 13.0155 25.119 12.9768C25.4353 12.7275 25.9331 12.7654 26.3722 12.7982C26.5069 12.8086 26.6342 12.8183 26.7465 12.8183C26.7696 12.8183 26.7927 12.8183 26.8165 12.819H26.879C26.9408 12.8205 26.9899 12.8711 26.9899 12.9329C26.9899 12.9939 26.9393 13.0437 26.8782 13.0437H26.8128C26.7904 13.0423 26.7681 13.0423 26.7458 13.0415C26.626 13.0415 26.495 13.0311 26.3558 13.0207C25.9577 12.9902 25.506 12.9567 25.2574 13.1517C25.2373 13.168 25.2128 13.1755 25.1882 13.1755V13.1762Z" fill="#231F20"/>
<path d="M44.6606 7.60622C44.642 7.60622 44.6226 7.60174 44.6048 7.59132C44.4954 7.52806 44.3614 7.50203 44.2193 7.47449C44.005 7.43282 43.7839 7.38966 43.6277 7.21254C43.5324 7.10389 43.4885 6.97365 43.4468 6.84788C43.4372 6.81811 43.4275 6.78909 43.4171 6.76007C43.3612 6.60677 43.2898 6.51524 43.2035 6.4877C43.1923 6.48398 43.1804 6.48174 43.1678 6.48025C43.1067 6.47356 43.0621 6.41849 43.068 6.35747C43.0747 6.29645 43.1313 6.25253 43.1908 6.25774C43.2184 6.26072 43.2452 6.26593 43.2705 6.27411C43.426 6.32323 43.5458 6.4609 43.6262 6.68342C43.6373 6.71393 43.6478 6.74518 43.6582 6.77644C43.6946 6.88583 43.7289 6.98928 43.7944 7.0637C43.9 7.18352 44.0757 7.21775 44.261 7.25422C44.415 7.28399 44.5743 7.31524 44.7157 7.3971C44.7692 7.42761 44.7871 7.49608 44.7566 7.54966C44.7358 7.58538 44.6985 7.60547 44.6599 7.60547L44.6606 7.60622Z" fill="#231F20"/>
<path d="M44.223 8.49168C44.2155 8.49168 44.2073 8.49168 44.1999 8.48945C43.9573 8.43884 43.7072 8.37261 43.5599 8.1687C43.5011 8.08758 43.4691 7.99829 43.4386 7.91196C43.4103 7.83233 43.3835 7.75791 43.3389 7.70135C43.2987 7.65447 43.3031 7.58378 43.35 7.54359C43.3962 7.50341 43.4654 7.50786 43.5056 7.55326C43.5078 7.55549 43.5115 7.55922 43.5123 7.56071C43.5815 7.64778 43.6157 7.74377 43.6484 7.8368C43.6752 7.91122 43.6998 7.98191 43.74 8.03698C43.8404 8.17614 44.0362 8.22676 44.2445 8.26992C44.3048 8.28257 44.3435 8.34136 44.3309 8.40164C44.3197 8.45448 44.2736 8.49019 44.2215 8.49019L44.223 8.49168Z" fill="#231F20"/>
<path d="M42.4995 16.4389C42.4734 16.4389 42.4474 16.4299 42.4265 16.4113C42.1869 16.2022 41.8885 15.9425 41.5462 15.8934C41.5186 15.8896 41.4904 15.8867 41.4621 15.8844C41.4085 15.8792 41.3527 15.874 41.2961 15.8606C41.1302 15.8212 40.9798 15.7133 40.8838 15.5637C40.8504 15.5116 40.8652 15.4431 40.9173 15.4096C40.9694 15.3769 41.0379 15.391 41.0714 15.4431C41.1361 15.5443 41.2366 15.6173 41.3475 15.6433C41.3899 15.653 41.4353 15.6575 41.4837 15.6627C41.5149 15.6657 41.5469 15.6686 41.5782 15.6731C41.9852 15.7319 42.3112 16.0154 42.5739 16.2439C42.62 16.2841 42.6252 16.3548 42.5851 16.4016C42.5627 16.427 42.5322 16.4396 42.501 16.4396L42.4995 16.4389Z" fill="#231F20"/>
<path d="M43.1104 15.869C43.0977 15.869 43.0843 15.8667 43.0709 15.8623C43.0159 15.8414 42.9682 15.8117 42.9251 15.7849C42.8737 15.7529 42.8291 15.7246 42.7852 15.7194C42.736 15.7127 42.681 15.7343 42.6162 15.7581C42.553 15.7819 42.4815 15.8087 42.4019 15.8131C42.3171 15.8176 42.2352 15.7938 42.1705 15.7752L42.1332 15.764C42.0745 15.7462 42.0402 15.6844 42.0581 15.6256C42.0759 15.5668 42.1377 15.5326 42.1965 15.5505L42.233 15.5609C42.2873 15.5765 42.3416 15.5929 42.3907 15.5906C42.4354 15.5884 42.4852 15.5698 42.5373 15.5497C42.6177 15.5192 42.71 15.4857 42.8134 15.4983C42.9057 15.5103 42.9786 15.5557 43.0434 15.5966C43.0806 15.6197 43.1148 15.6412 43.1491 15.6539C43.2071 15.6755 43.2361 15.7395 43.2146 15.7975C43.1974 15.8422 43.155 15.8697 43.1096 15.8697L43.1104 15.869Z" fill="#231F20"/>
<path d="M21.8788 17.0868C21.8535 17.0868 21.8275 17.0778 21.8074 17.0607C21.7612 17.0205 21.7538 16.9521 21.794 16.9059L21.8044 16.8933C21.8438 16.8456 21.9138 16.8389 21.9614 16.8776C22.009 16.9171 22.0157 16.987 21.977 17.0347L21.9659 17.0473C21.9435 17.0734 21.9108 17.0868 21.8788 17.0868Z" fill="#231F20"/>
<path d="M21.3594 18.2873C21.3259 18.2873 21.2931 18.2724 21.2708 18.2442C21.2329 18.195 21.2418 18.1251 21.2909 18.0879C21.3973 18.006 21.413 17.8542 21.4308 17.6793C21.4435 17.5573 21.4561 17.4308 21.503 17.3132C21.5581 17.174 21.6526 17.0669 21.7441 16.9627C21.7605 16.9441 21.7769 16.9255 21.7932 16.9061C21.8334 16.8592 21.9034 16.854 21.951 16.8942C21.9979 16.9344 22.0031 17.0051 21.9629 17.052C21.9458 17.0713 21.9287 17.0914 21.9116 17.1108C21.829 17.2045 21.7516 17.2931 21.7106 17.3958C21.6757 17.4851 21.6645 17.5908 21.6526 17.7031C21.6325 17.9011 21.6094 18.1251 21.4271 18.2657C21.407 18.2814 21.3825 18.2888 21.3586 18.2888L21.3594 18.2873Z" fill="#231F20"/>
<path d="M40.499 34.353C40.4685 34.353 40.4372 34.3516 40.4067 34.3493C39.8575 34.301 39.3872 33.8232 39.0486 32.9681C39.0255 32.9108 39.0538 32.8461 39.1111 32.823C39.1684 32.8007 39.2331 32.8282 39.2562 32.8855C39.5576 33.6461 39.9736 34.0866 40.4268 34.1268C40.4581 34.1298 40.4908 34.1305 40.5228 34.1298C40.9455 34.1179 41.2655 33.7808 41.4486 33.1556C41.6086 32.6094 41.6562 31.8905 41.5818 31.1315C41.4798 30.0889 41.1673 29.1579 40.7453 28.6414C40.7066 28.5938 40.7133 28.5231 40.7609 28.4844C40.8086 28.4449 40.8793 28.4524 40.918 28.5C41.366 29.0492 41.6971 30.0241 41.8036 31.1091C41.8809 31.8957 41.8303 32.6444 41.6622 33.2182C41.3928 34.1365 40.8971 34.3419 40.528 34.3523C40.5183 34.3523 40.5079 34.3523 40.4983 34.3523L40.499 34.353Z" fill="#231F20"/>
<path d="M40.4708 33.7649C40.4656 33.7649 40.4596 33.7649 40.4544 33.7634C40.1567 33.7195 39.5443 32.8235 39.3843 31.1938C39.3225 30.5671 39.3411 30.0261 39.4393 29.5394C39.4691 29.3913 39.5041 29.2611 39.545 29.1413C39.5651 29.0825 39.6284 29.052 39.6872 29.0721C39.7452 29.0922 39.7765 29.1554 39.7564 29.2142C39.7184 29.3251 39.6864 29.4456 39.6581 29.5841C39.5644 30.0484 39.5473 30.5679 39.6068 31.1722C39.7519 32.6509 40.2788 33.4345 40.4648 33.5335C40.6047 33.4278 40.9895 32.6717 40.8407 31.1521C40.7171 29.8914 40.3406 29.2365 40.1843 29.0133C40.1486 28.9627 40.1612 28.8935 40.2118 28.8577C40.2624 28.822 40.3324 28.8347 40.3673 28.8853C40.5333 29.1227 40.9344 29.817 41.0632 31.1305C41.2232 32.7662 40.7848 33.6994 40.4946 33.7619C40.4872 33.7634 40.479 33.7642 40.4708 33.7642V33.7649Z" fill="#231F20"/>
<path d="M38.8655 29.349C38.8566 29.349 38.8469 29.3482 38.838 29.3453C38.7785 29.3304 38.742 29.2693 38.7569 29.2098C38.9303 28.5244 39.1997 28.1464 39.5569 28.0861C39.6834 28.0645 39.8188 28.1017 39.9163 28.1858C40.208 28.4344 40.0205 28.7313 39.897 28.9285C39.856 28.9933 39.8173 29.055 39.7958 29.1086C39.7816 29.1436 39.7682 29.1793 39.7563 29.2143C39.7362 29.2723 39.673 29.3036 39.6142 29.2835C39.5561 29.2634 39.5249 29.2001 39.545 29.1413C39.5584 29.1019 39.5732 29.0625 39.5889 29.0238C39.6179 28.9523 39.6633 28.8794 39.7079 28.8094C39.8523 28.5795 39.9022 28.4671 39.7712 28.3555C39.7236 28.3146 39.6551 28.296 39.5933 28.3064C39.3388 28.3488 39.1185 28.6896 38.9727 29.2649C38.96 29.3155 38.9146 29.349 38.8648 29.349H38.8655Z" fill="#231F20"/>
<path d="M39.1528 33.038C39.1081 33.038 39.0665 33.0112 39.0493 32.9673C38.8499 32.4642 38.7055 31.8414 38.6445 31.2148C38.5783 30.542 38.6028 29.9281 38.7159 29.3908C38.7271 29.3372 38.7412 29.2754 38.7576 29.2099C38.7725 29.1504 38.8335 29.1139 38.8931 29.1288C38.9526 29.1437 38.9891 29.2047 38.9742 29.2642C38.9585 29.3268 38.9452 29.3856 38.934 29.4369C38.8253 29.9519 38.803 30.5428 38.8663 31.1932C38.9258 31.7997 39.0642 32.401 39.2562 32.8855C39.2793 32.9428 39.251 33.0075 39.1937 33.0306C39.1803 33.0358 39.1662 33.0388 39.1528 33.0388V33.038Z" fill="#231F20"/>
<path d="M39.3522 38.493C39.3024 38.493 39.2562 38.4587 39.2436 38.4081C39.2287 38.3486 39.2652 38.2876 39.3254 38.2734L39.3612 38.2653C39.3798 38.2608 39.3984 38.2563 39.417 38.2518C39.7504 38.1596 39.8694 38.0904 39.9104 38.0576C39.8635 38.0279 39.7221 37.9661 39.3135 37.9028C39.2525 37.8931 39.2108 37.8366 39.2205 37.7756C39.2302 37.7145 39.2875 37.6729 39.3478 37.6825C39.9148 37.7696 40.1396 37.8716 40.15 38.0442C40.1597 38.2102 39.9647 38.333 39.4765 38.4669C39.4549 38.4729 39.4333 38.4781 39.4118 38.4825L39.379 38.49C39.3701 38.4922 39.3612 38.493 39.3522 38.493Z" fill="#231F20"/>
<path d="M30.4548 38.7687C29.3616 38.7687 28.3845 38.7516 27.6872 38.7084C27.4684 38.695 27.2727 38.6779 27.106 38.6586C27.045 38.6519 27.0011 38.596 27.0078 38.535C27.0145 38.474 27.0703 38.4301 27.1313 38.4368C27.2943 38.4554 27.4863 38.4718 27.7013 38.4852C30.3417 38.6504 37.2396 38.4212 38.5962 38.3735C38.844 38.3646 39.0896 38.3311 39.327 38.2723C39.3873 38.2574 39.4476 38.2947 39.4617 38.3542C39.4766 38.4137 39.4401 38.4748 39.3798 38.4889C39.1276 38.5507 38.8664 38.5871 38.6037 38.5961C37.2113 38.6452 33.4107 38.768 30.4548 38.768V38.7687Z" fill="#231F20"/>
<path d="M27.1186 38.6595C27.1142 38.6595 27.1097 38.6595 27.106 38.6595C26.5084 38.5903 26.2695 38.495 26.2554 38.3187C26.2449 38.1869 26.338 38.0359 27.0881 37.8223C27.1469 37.8052 27.2094 37.8394 27.2258 37.8989C27.2429 37.9585 27.2079 38.0202 27.1491 38.0366C26.6885 38.1676 26.5404 38.2599 26.4942 38.2986C26.5441 38.3276 26.6937 38.3871 27.1313 38.4377C27.1923 38.4444 27.2362 38.5002 27.2295 38.5613C27.2228 38.6178 27.1744 38.6602 27.1186 38.6602V38.6595Z" fill="#231F20"/>
<path d="M32.5534 44.2855C29.8014 44.2855 26.8157 44.0437 25.7716 43.3523C25.4576 43.1447 25.3258 42.9013 25.3794 42.6305C25.3913 42.5702 25.4509 42.5307 25.5104 42.5426C25.5707 42.5546 25.6101 42.6133 25.5982 42.6736C25.5632 42.8493 25.6607 43.0107 25.8951 43.1655C26.8239 43.7802 29.8207 44.1285 33.5283 44.0519C37.0661 43.9789 40.1098 43.5391 40.9299 42.9839C41.0818 42.8812 41.1495 42.7823 41.1301 42.69C41.1175 42.6297 41.1562 42.5702 41.2165 42.5583C41.276 42.5456 41.3363 42.5843 41.3482 42.6446C41.3876 42.8336 41.2886 43.01 41.055 43.1685C40.0548 43.8465 36.5564 44.2126 33.5327 44.2751C33.212 44.2818 32.8845 44.2855 32.5534 44.2855Z" fill="#231F20"/>
<path d="M41.2387 42.7791C41.1866 42.7791 41.1405 42.7426 41.1293 42.6898C41.1249 42.6682 41.1159 42.6458 41.1033 42.6235C40.9775 42.4047 40.8681 42.1845 40.7773 41.9679C40.3271 40.8881 40.2921 39.8365 40.6694 38.753C40.7342 38.5662 40.8004 38.4077 40.854 38.2805C40.9061 38.1569 40.9507 38.0498 40.9559 38.0036C40.9284 37.9158 40.4625 37.6948 39.2934 37.4641C39.2331 37.4522 39.1937 37.3934 39.2056 37.3331C39.2175 37.2728 39.2763 37.2334 39.3366 37.2453C41.2276 37.6181 41.1926 37.9069 41.1777 38.0297C41.1688 38.1071 41.1256 38.2105 41.0601 38.3668C41.008 38.4911 40.9433 38.6459 40.8808 38.826C40.5221 39.8559 40.5563 40.8553 40.9842 41.8816C41.0713 42.0892 41.1762 42.3013 41.2975 42.5119C41.3221 42.5551 41.3392 42.5997 41.3489 42.6451C41.3615 42.7054 41.3221 42.7642 41.2618 42.7768C41.2544 42.7783 41.2469 42.7791 41.2395 42.7791H41.2387Z" fill="#231F20"/>
<path d="M25.4889 42.7634C25.4814 42.7634 25.4747 42.7634 25.4673 42.7612C25.407 42.7493 25.3676 42.6905 25.3795 42.6302C25.3899 42.5774 25.407 42.5245 25.4308 42.4732C26.4474 40.2614 25.7285 39.2136 25.3832 38.7098C25.282 38.5617 25.2083 38.4553 25.1979 38.3541C25.1599 37.9835 25.797 37.6404 27.0933 37.3331C27.1536 37.3189 27.2131 37.3561 27.228 37.4157C27.2422 37.476 27.205 37.5355 27.1454 37.5504C25.9346 37.8369 25.4025 38.1561 25.4211 38.331C25.4256 38.3757 25.4985 38.4814 25.5685 38.5833C25.9376 39.1206 26.7049 40.2391 25.6347 42.5655C25.6184 42.6004 25.6072 42.6361 25.5997 42.6726C25.5893 42.7255 25.5424 42.7627 25.4904 42.7627L25.4889 42.7634Z" fill="#231F20"/>
<path d="M16.2795 73.924C16.2207 73.924 16.1708 73.8779 16.1678 73.8184C16.0748 71.9817 15.3091 70.1763 13.8929 68.4535C12.5213 66.7851 11.8382 64.9343 11.8635 62.9518C11.8836 61.3696 12.3531 59.7027 13.2581 57.9977C14.7948 55.1043 17.0921 53.0704 17.1152 53.0503C17.1613 53.0102 17.232 53.0146 17.273 53.0608C17.3139 53.1069 17.3087 53.1776 17.2625 53.2186C17.2395 53.2386 14.9697 55.2487 13.4531 58.1079C12.566 59.7808 12.1061 61.4121 12.0867 62.9577C12.0629 64.8852 12.7282 66.6861 14.0648 68.3121C15.5122 70.0729 16.2951 71.9214 16.3904 73.8072C16.3933 73.869 16.3464 73.9211 16.2847 73.924C16.2824 73.924 16.281 73.924 16.2787 73.924H16.2795Z" fill="#231F20"/>
<path d="M55.2027 49.9272C55.0033 49.9272 54.7979 49.9213 54.5858 49.9094C53.0602 49.823 50.8805 49.4123 49.1614 47.9455C48.3213 47.2288 47.0137 45.1868 46.7912 43.4878C46.7867 43.4528 46.7986 43.4186 46.8232 43.394C46.8478 43.3695 46.882 43.3583 46.9177 43.3628L54.2398 44.4054C55.7244 44.6398 57.0595 45.4867 57.9064 46.728L59.1335 48.5296C59.167 48.578 59.1566 48.6443 59.1097 48.6807C58.6052 49.0729 58.0686 49.3721 57.5149 49.5708C56.8496 49.8097 56.0883 49.9265 55.2027 49.9265V49.9272ZM47.0346 43.6054C47.3017 45.2002 48.5371 47.1194 49.3066 47.7758C50.9787 49.2016 53.1071 49.602 54.5985 49.6861C55.7237 49.7494 56.6539 49.6422 57.4398 49.3609C57.9406 49.1816 58.428 48.9151 58.8894 48.5683L57.7218 46.8538C56.9099 45.6631 55.6284 44.8512 54.2063 44.6264L47.0338 43.6054H47.0346Z" fill="#231F20"/>
<path d="M40.8808 42.0365C40.8808 42.0365 40.8779 42.0365 40.8756 42.0365C40.8578 42.0357 40.8399 42.035 40.8221 42.0335C40.3041 41.9873 39.9015 41.6301 39.5011 41.2372C39.3448 41.0846 39.1506 40.8941 39.0568 40.6486C38.9393 40.3375 39.0025 39.9944 39.0539 39.7191C39.0799 39.5792 39.1097 39.4206 39.1915 39.2822C39.2846 39.1245 39.4401 38.9965 39.6671 38.8915C40.0362 38.7204 40.412 38.6482 40.7841 38.6787C40.8183 38.6817 40.8496 38.7003 40.8689 38.7293C40.8875 38.7583 40.892 38.794 40.8808 38.8268C40.5229 39.8567 40.5564 40.8562 40.9843 41.8824C40.9992 41.9174 40.9947 41.9583 40.9724 41.9896C40.9515 42.0193 40.9173 42.0372 40.8808 42.0372V42.0365ZM40.6159 38.8945C40.3301 38.8945 40.0488 38.96 39.7608 39.0939C39.5763 39.1795 39.4528 39.2778 39.3835 39.3953C39.3218 39.4995 39.2965 39.632 39.2727 39.7592C39.2243 40.0197 39.1692 40.3159 39.2652 40.5682C39.3411 40.7676 39.5093 40.9314 39.6574 41.0765C39.9901 41.4024 40.3212 41.7016 40.7075 41.7886C40.3435 40.819 40.316 39.8686 40.6234 38.8945H40.6167H40.6159Z" fill="#231F20"/>
<path d="M37.5029 68.5455C37.4307 68.5455 37.3578 68.5455 37.2841 68.544C36.9373 68.538 36.537 68.5201 36.1716 68.3758C35.865 68.2545 35.6037 68.0543 35.3515 67.8608C35.2986 67.8206 35.2458 67.7797 35.193 67.7402C34.5433 67.255 33.8378 66.8859 33.0958 66.6433C32.3494 66.3992 31.5539 66.2824 30.7844 66.1693C30.2106 66.0852 29.6175 65.9973 29.0437 65.8582C26.7904 65.3112 26.0023 64.122 25.7336 63.4619C25.4709 62.8167 25.4188 62.0442 25.5751 61.0998C25.8192 59.6226 26.4525 58.2318 27.405 57.0768C27.9751 56.3854 28.5548 55.9173 29.177 55.6457C31.2488 54.7408 34.5135 55.1538 39.1572 56.9086C41.3965 57.7547 43.0962 59.6048 43.5933 61.7384C44.1329 64.0528 43.1349 66.5584 41.2201 67.6956C40.2586 68.2671 39.0404 68.5455 37.5022 68.5455H37.5029ZM29.2663 55.8504C28.6769 56.1078 28.1247 56.5551 27.577 57.2189C26.649 58.3434 26.0328 59.6978 25.7946 61.1363C25.6458 62.0383 25.6927 62.772 25.9397 63.3778C26.1928 63.9984 26.9384 65.1177 29.0958 65.6409C29.6599 65.7778 30.2478 65.8641 30.8164 65.9482C31.5948 66.0628 32.4008 66.1812 33.1643 66.4312C33.9301 66.6813 34.6571 67.0615 35.3262 67.5609C35.3797 67.6011 35.4333 67.642 35.4869 67.6829C35.7273 67.8675 35.9758 68.058 36.2534 68.1674C36.5838 68.2976 36.9611 68.3147 37.2878 68.3199C38.8878 68.3467 40.1366 68.0796 41.107 67.5028C42.9399 66.4141 43.8947 64.0104 43.3768 61.7882C42.896 59.7268 41.2491 57.9363 39.0791 57.117C34.4927 55.3845 31.2823 54.97 29.267 55.8504H29.2663Z" fill="#231F20"/>
<path d="M20.2915 48.7166C20.2089 48.7166 20.1307 48.7151 20.0578 48.7128C18.6744 48.6652 17.2016 48.3206 16.1181 47.79C14.629 47.0607 13.8535 45.9913 13.8766 44.6987C13.8788 44.5543 13.8922 44.4099 13.9168 44.2678C13.925 44.2202 13.9629 44.183 14.0113 44.1763L23.7259 42.7921C23.7639 42.7869 23.8011 42.801 23.8264 42.8293C23.8807 42.8918 23.9313 42.9588 23.9774 43.028C24.5683 43.9173 24.3384 45.0931 24.0727 46.0189C23.9298 46.516 23.7624 47.0384 23.4349 47.4753C22.6453 48.529 21.212 48.7166 20.2922 48.7166H20.2915ZM14.1244 44.3854C14.1095 44.4903 14.1013 44.596 14.0999 44.7017C14.0783 45.9192 14.7905 46.8903 16.2163 47.5891C17.2731 48.1063 18.7116 48.4435 20.0652 48.4896C20.9144 48.5186 22.4563 48.4085 23.2556 47.3413C23.5607 46.9342 23.7199 46.4341 23.8576 45.9564C24.1106 45.0767 24.3317 43.9634 23.7914 43.1515C23.7616 43.1069 23.7296 43.0637 23.6954 43.0213L14.1244 44.3854Z" fill="#231F20"/>
</g>
</g>
<defs>
<clipPath id="clip0_525_30040">
<rect x="0.124023" y="0.25" width="64" height="64" rx="12" fill="white"/>
</clipPath>
<clipPath id="clip1_525_30040">
<rect width="64" height="64" fill="white" transform="translate(0.124023 0.25)"/>
</clipPath>
</defs>
</svg>
