<svg width="40" height="41" viewBox="0 0 40 41" fill="none" xmlns="http://www.w3.org/2000/svg">
<g id="Avatars">
<g clip-path="url(#clip0_316_3111)">
<rect y="0.705688" width="40" height="40" rx="20" fill="#DEDAF9"/>
<g id="1 - Punk man Fill">
<path id="Vector" d="M16.8901 18.5564C16.8901 18.8327 16.6659 19.0569 16.3896 19.0569C16.3529 19.0569 16.3166 19.0522 16.2817 19.0448C16.1343 19.0122 16.012 18.915 15.9445 18.7838C15.9096 18.7155 15.8896 18.6383 15.8896 18.5564C15.8896 18.2801 16.1138 18.0564 16.3896 18.0564C16.6655 18.0564 16.8901 18.2801 16.8901 18.5564Z" fill="#FFAC00"/>
<path id="Vector_2" d="M23.4944 28.6536L23.4358 29.3047L23.2642 29.1522C23.3581 28.9871 23.4335 28.8187 23.4944 28.6536Z" fill="#DD920B"/>
<path id="Vector_3" d="M27.639 10.7443C27.639 10.4266 27.4692 10.188 27.3315 10.0462C27.2371 9.94944 27.1576 9.89781 27.1576 9.89781C27.1576 9.89781 27.2483 9.46711 27.2483 8.85176C27.2483 7.97967 27.0659 6.73734 26.1832 5.82711C26.1399 5.78246 26.0948 5.73874 26.0478 5.69548C24.9808 4.71502 23.8004 4.31269 22.8906 4.79967H22.8901C22.5166 4.99967 22.1887 5.34944 21.9329 5.87083H21.9325C21.9278 5.86385 21.8734 5.78944 21.7804 5.69269C21.7762 5.68851 21.7715 5.68385 21.7669 5.6792C21.7622 5.67409 21.7576 5.66944 21.7529 5.66478C21.4064 5.31781 20.6129 4.76013 19.8492 5.90571H19.8487C19.8487 5.90571 19.8478 5.90432 19.8473 5.90339C19.8464 5.90292 19.8459 5.90199 19.8446 5.9006C19.8436 5.89967 19.8427 5.89827 19.8413 5.89688C19.8399 5.89548 19.8385 5.89409 19.8366 5.89223C19.8352 5.89037 19.8334 5.88851 19.8315 5.88664C19.7166 5.76757 19.0418 5.13176 17.7306 5.10013C15.9273 5.05641 15.1366 6.00525 15.1366 7.02478C15.1366 7.6006 15.3887 8.19874 15.8525 8.65362C15.8678 8.66851 15.8836 8.68385 15.8994 8.69827C15.9148 8.71316 15.9306 8.72758 15.9469 8.74199C15.899 8.7313 14.3599 8.38199 13.6683 9.12618C13.459 9.3513 13.2283 9.85455 13.2283 10.3634C13.2283 10.6852 13.3204 11.0094 13.5687 11.2666C13.718 11.4211 13.9232 11.5513 14.198 11.6429C13.9097 11.7397 13.6897 11.935 13.6897 12.3053C13.6897 12.3573 13.6939 12.4127 13.7032 12.4718C13.7329 12.6657 13.8059 12.808 13.9073 12.9099C14.4422 13.4471 15.7692 12.8657 15.7692 12.8657C15.832 13.8266 15.9022 14.9601 15.9087 15.0713C16.0236 15.0462 16.1427 15.0327 16.2641 15.0327C16.6557 15.0327 17.0176 15.2192 17.3097 15.4597C17.4762 15.5001 17.6399 15.5518 17.8018 15.6225C17.8757 15.6546 17.9506 15.6908 18.0059 15.7499C18.0311 15.7764 18.0808 15.8164 18.0808 15.7597V15.7532L18.0278 14.7894C18.0259 14.7559 18.025 14.7225 18.025 14.689C18.025 14.3425 18.1236 14.0015 18.3097 13.7076L18.472 13.4518C18.5432 13.3397 18.579 13.2118 18.579 13.0839C18.579 12.9666 18.5487 12.849 18.4883 12.7434L18.2808 12.3797C18.2185 12.2708 18.1897 12.1536 18.1897 12.0392C18.1897 11.7439 18.3813 11.4634 18.692 11.3764C20.4808 10.8769 24.6557 9.95734 26.4999 11.6313L27.1692 13.4327L27.1706 13.4359C27.1706 13.4359 27.3906 12.8322 27.3906 12.1708C27.3906 11.9592 27.3678 11.7411 27.3083 11.535C27.5529 11.2359 27.639 10.9704 27.639 10.7443ZM27.639 10.7443C27.639 10.4266 27.4692 10.188 27.3315 10.0462C27.2371 9.94944 27.1576 9.89781 27.1576 9.89781C27.1576 9.89781 27.2483 9.46711 27.2483 8.85176C27.2483 7.97967 27.0659 6.73734 26.1832 5.82711C26.1399 5.78246 26.0948 5.73874 26.0478 5.69548C24.9808 4.71502 23.8004 4.31269 22.8906 4.79967H22.8901C22.5166 4.99967 22.1887 5.34944 21.9329 5.87083H21.9325C21.9278 5.86385 21.8734 5.78944 21.7804 5.69269C21.7762 5.68851 21.7715 5.68385 21.7669 5.6792C21.7622 5.67409 21.7576 5.66944 21.7529 5.66478C21.4064 5.31781 20.6129 4.76013 19.8492 5.90571H19.8487C19.8487 5.90571 19.8478 5.90432 19.8473 5.90339C19.8464 5.90292 19.8459 5.90199 19.8446 5.9006C19.8436 5.89967 19.8427 5.89827 19.8413 5.89688C19.8399 5.89548 19.8385 5.89409 19.8366 5.89223C19.8352 5.89037 19.8334 5.88851 19.8315 5.88664C19.7166 5.76757 19.0418 5.13176 17.7306 5.10013C15.9273 5.05641 15.1366 6.00525 15.1366 7.02478C15.1366 7.6006 15.3887 8.19874 15.8525 8.65362C15.8678 8.66851 15.8836 8.68385 15.8994 8.69827C15.9148 8.71316 15.9306 8.72758 15.9469 8.74199C15.899 8.7313 14.3599 8.38199 13.6683 9.12618C13.459 9.3513 13.2283 9.85455 13.2283 10.3634C13.2283 10.6852 13.3204 11.0094 13.5687 11.2666C13.718 11.4211 13.9232 11.5513 14.198 11.6429C13.9097 11.7397 13.6897 11.935 13.6897 12.3053C13.6897 12.3573 13.6939 12.4127 13.7032 12.4718C13.7329 12.6657 13.8059 12.808 13.9073 12.9099C14.4422 13.4471 15.7692 12.8657 15.7692 12.8657C15.832 13.8266 15.9022 14.9601 15.9087 15.0713C16.0236 15.0462 16.1427 15.0327 16.2641 15.0327C16.6557 15.0327 17.0176 15.2192 17.3097 15.4597C17.4762 15.5001 17.6399 15.5518 17.8018 15.6225C17.8757 15.6546 17.9506 15.6908 18.0059 15.7499C18.0311 15.7764 18.0808 15.8164 18.0808 15.7597V15.7532L18.0278 14.7894C18.0259 14.7559 18.025 14.7225 18.025 14.689C18.025 14.3425 18.1236 14.0015 18.3097 13.7076L18.472 13.4518C18.5432 13.3397 18.579 13.2118 18.579 13.0839C18.579 12.9666 18.5487 12.849 18.4883 12.7434L18.2808 12.3797C18.2185 12.2708 18.1897 12.1536 18.1897 12.0392C18.1897 11.7439 18.3813 11.4634 18.692 11.3764C20.4808 10.8769 24.6557 9.95734 26.4999 11.6313L27.1692 13.4327L27.1706 13.4359C27.1706 13.4359 27.3906 12.8322 27.3906 12.1708C27.3906 11.9592 27.3678 11.7411 27.3083 11.535C27.5529 11.2359 27.639 10.9704 27.639 10.7443Z" fill="#541B0A"/>
<path id="Vector_4" d="M18.9129 36.1448C18.7957 36.5188 18.6724 36.9043 18.4157 37.2006C18.3399 37.2885 18.2538 37.3648 18.1622 37.435L18.1389 35.8262L18.1199 34.4811C18.1459 34.4857 18.172 34.4899 18.198 34.4946C18.2701 34.5085 18.3431 34.5229 18.4148 34.542C18.5552 34.5792 18.6901 34.6327 18.7994 34.7267C19.1813 35.0555 19.0636 35.6639 18.9129 36.1448Z" fill="#009F62"/>
<path id="Vector_5" d="M21.5924 37.1522L21.5352 41.1387C21.3706 40.9415 21.2171 40.7327 21.0273 40.5606C20.7069 40.2699 20.2892 40.088 20.0166 39.7522C19.5352 39.1606 19.6785 38.2127 20.2204 37.6759C20.6683 37.2327 21.1134 37.1532 21.5924 37.1522Z" fill="#009F62"/>
<path id="Vector_6" d="M7.81993 46.6694H-1.60938L-1.60519 38.8062L3.26644 31.6555L4.38411 30.0145L4.79714 30.6485L6.42458 33.1475C7.05202 34.0773 7.40551 35.1643 7.44597 36.2852L7.81993 46.6694Z" fill="#FF6060"/>
<path id="Vector_7" d="M18.1622 37.435L18.1198 34.481L18.104 33.3764C18.0952 33.1973 17.9626 33.0489 17.7859 33.0201L17.6082 32.9908L16.5929 32.8248L15.9994 32.7275C15.8054 32.6959 15.6175 32.6434 15.4394 32.5713C14.6259 32.2461 14.011 31.5331 13.824 30.6513L13.6175 29.1522L13.3794 27.4261L6.78636 28.3592C5.87427 28.5038 5.06264 29.0182 4.54264 29.7815L4.38403 30.0145L4.79706 30.6485L6.4245 33.1475C7.05194 34.0773 7.40543 35.1643 7.44589 36.2852L7.81985 46.6694H18.2943L18.1622 37.435ZM13.6594 34.4778C13.578 35.6606 12.5529 36.5531 11.3705 36.4717C10.1878 36.3903 9.2952 35.3657 9.37659 34.1829C9.45799 33.0001 10.4826 32.1075 11.6654 32.1889C12.8482 32.2703 13.7408 33.2954 13.6594 34.4778Z" fill="#735FFF"/>
<path id="Vector_8" d="M25.2568 26.8276L24.8721 31.1034C24.8312 31.5583 24.6805 31.9965 24.434 32.3806L24.3112 32.5713C24.1326 32.6434 23.9451 32.696 23.7512 32.7276L23.1572 32.8248L23.6451 32.0667C23.8921 31.683 24.0428 31.2448 24.0837 30.7904L24.4772 26.4132L25.2568 26.8276Z" fill="white"/>
<path id="Vector_9" d="M23.4358 29.3048L23.4032 29.6634L23.1074 29.3997C23.1646 29.3183 23.2172 29.2355 23.2642 29.1522L23.4358 29.3048Z" fill="#FFAC00"/>
<path id="Vector_10" d="M23.4031 29.6634L23.3055 30.7499C23.2757 31.0815 23.1659 31.4015 22.9855 31.6811L22.9585 31.7224C22.6673 31.8769 22.3408 32.0094 21.9734 32.1127L21.512 30.5341C22.2738 30.2927 22.7766 29.8694 23.1073 29.3997L23.4031 29.6634Z" fill="#DD920B"/>
<path id="Vector_11" d="M22.9585 31.7225L22.1423 32.9908L21.9646 33.0201C21.7879 33.049 21.6553 33.1974 21.6465 33.3764L21.5925 37.1522C21.1134 37.1532 20.6683 37.2327 20.2204 37.676C19.6785 38.2127 19.5353 39.1606 20.0167 39.7522C20.2892 40.088 20.7069 40.2699 21.0274 40.5606C21.2172 40.7327 21.3706 40.9415 21.5353 41.1387L21.4562 46.6694H18.2944L18.1623 37.435C18.2539 37.3648 18.3399 37.2885 18.4158 37.2006C18.6725 36.9043 18.7958 36.5187 18.913 36.1448C19.0637 35.6639 19.1813 35.0555 18.7995 34.7267C18.6902 34.6327 18.5553 34.5792 18.4148 34.542C18.3432 34.5229 18.2702 34.5085 18.1981 34.4946C18.172 34.4899 18.146 34.4857 18.1199 34.4811L18.1041 33.3764C18.0953 33.1974 17.9627 33.049 17.786 33.0201L17.6083 32.9908L16.7651 31.6811C16.7558 31.6671 16.7479 31.6522 16.739 31.6378C17.0585 31.816 17.4227 31.9685 17.8385 32.0871C18.0572 32.1499 18.2902 32.2029 18.5385 32.2453C18.632 32.2615 18.7283 32.276 18.8265 32.2885C19.1851 32.3355 19.5734 32.3606 19.9934 32.3606C20.6339 32.3606 21.1972 32.2974 21.693 32.1839C21.7892 32.162 21.8823 32.1383 21.9734 32.1127C22.3409 32.0094 22.6674 31.8769 22.9585 31.7225Z" fill="#FFAC00"/>
<path id="Vector_12" d="M16.9366 29.5848L16.385 30.0862L16.2319 28.3824C16.3715 28.7759 16.591 29.2029 16.9366 29.5848Z" fill="#DD920B"/>
<path id="Vector_13" d="M17.1399 29.7904L16.4176 30.4472L16.385 30.0862L16.9366 29.5848C16.9999 29.6551 17.0673 29.7239 17.1399 29.7904Z" fill="#FFAC00"/>
<path id="Vector_14" d="M18.984 30.6616L18.5384 32.2453C17.8189 32.123 17.2268 31.9095 16.7389 31.6378C16.5742 31.3685 16.4728 31.0648 16.4449 30.7499L16.4175 30.4471L17.1398 29.7904C17.5719 30.1885 18.1663 30.5141 18.984 30.6616Z" fill="#DD920B"/>
<g id="Vector_15" style="mix-blend-mode:multiply" opacity="0.6">
<path d="M18.4403 34.4225L18.4148 34.5421L18.1389 35.8262L18.1199 34.4811L18.1041 33.3765C18.0952 33.1974 17.9627 33.049 17.7859 33.0202L17.6082 32.9909L16.5929 32.8248L15.9994 32.7276C15.8055 32.696 15.6175 32.6434 15.4394 32.5714C15.2194 32.4834 15.0138 32.3672 14.8273 32.2267L13.9385 29.8216L14.7329 29.4867L15.5199 29.1551L16.2729 28.8374L16.7906 28.6193C16.7906 28.6193 17.0771 30.5565 17.8385 32.0872C17.9292 32.2695 18.0268 32.4458 18.1315 32.6128C18.4682 33.1509 18.5738 33.8021 18.4403 34.4225Z" fill="#AF750E"/>
</g>
<path id="Vector_16" d="M19.2721 30.7048L18.8265 32.2885C18.7283 32.2759 18.6321 32.2615 18.5386 32.2452L18.9842 30.6615C19.0772 30.6782 19.173 30.6927 19.2721 30.7048Z" fill="#FFAC00"/>
<path id="Vector_17" d="M21.6929 32.1839C21.1971 32.2974 20.6339 32.3606 19.9934 32.3606C19.5734 32.3606 19.185 32.3355 18.8264 32.2885L19.272 30.7048C19.4966 30.7323 19.7366 30.7467 19.9934 30.7467C20.4632 30.7467 20.8743 30.6978 21.2339 30.6113L21.6929 32.1839Z" fill="#DD920B"/>
<path id="Vector_18" d="M15.4393 32.5714C15.2193 32.4834 15.0138 32.3672 14.8273 32.2267C14.3245 31.8481 13.9603 31.2946 13.824 30.6514L13.3793 27.4262L13.3784 27.4197L14.4938 26.8276L14.7328 29.4867L14.8784 31.1034C14.9193 31.5583 15.07 31.9965 15.3166 32.3807L15.4393 32.5714Z" fill="#735FFF"/>
<path id="Vector_19" d="M16.593 32.8248L15.9995 32.7276C15.8055 32.696 15.6176 32.6434 15.4395 32.5713L15.3167 32.3806C15.0702 31.9965 14.9195 31.5583 14.8785 31.1034L14.733 29.4867L14.4939 26.8276L15.2734 26.4132L15.5199 29.1551L15.6669 30.7904C15.7078 31.2448 15.8581 31.683 16.1055 32.0667L16.593 32.8248Z" fill="white"/>
<path id="Vector_20" d="M17.6083 32.9908L16.593 32.8248L16.1055 32.0666C15.8581 31.6829 15.7079 31.2448 15.6669 30.7904L15.52 29.155L15.2734 26.4131L16.019 26.0173L16.0241 26.075L16.232 28.3824L16.273 28.8373L16.3851 30.0862L16.4176 30.4471L16.4451 30.7499C16.473 31.0648 16.5744 31.3685 16.739 31.6378C16.7479 31.6522 16.7558 31.6671 16.7651 31.6811L17.6083 32.9908Z" fill="#735FFF"/>
<path id="Vector_21" d="M35.4247 30.0182L35.1028 30.5122L33.3865 33.1475C32.7591 34.0773 32.4056 35.1643 32.3651 36.2852L31.9912 46.6694H21.4563L21.5354 41.1387L21.5926 37.1522L21.6465 33.3764C21.6554 33.1973 21.7879 33.0489 21.9647 33.0201L22.1423 32.9908L23.1572 32.8247L23.7512 32.7275C23.9451 32.6959 24.1326 32.6433 24.3112 32.5712C25.1247 32.2461 25.7396 31.5331 25.9265 30.6512L26.2419 28.3601L26.3707 27.4257L33.0107 28.3722C33.8749 28.5089 34.6512 28.9787 35.1735 29.6805L35.4247 30.0182Z" fill="#735FFF"/>
<path id="Vector_22" d="M43.8335 41.3192V46.6695H31.9912L32.3652 36.2853C32.4056 35.1644 32.7591 34.0774 33.3866 33.1476L35.1028 30.5123L35.4247 30.0183L36.6749 31.6983L43.8335 41.3192Z" fill="#FF6060"/>
<path id="Vector_23" d="M24.4772 26.4131L24.0837 30.7904C24.0428 31.2448 23.8921 31.6829 23.6451 32.0666L23.1572 32.8248L22.1423 32.9908L22.9586 31.7224L22.9856 31.6811C23.1661 31.4015 23.2758 31.0815 23.3056 30.7499L23.4033 29.6634L23.4358 29.3048L23.4944 28.6536L23.7274 26.0606L23.7316 26.0173L24.4772 26.4131Z" fill="#735FFF"/>
<path id="Vector_24" d="M21.9734 32.1127C21.8823 32.1382 21.7892 32.162 21.693 32.1838L21.2339 30.6113C21.3302 30.5885 21.4232 30.5624 21.512 30.5341L21.9734 32.1127Z" fill="#FFAC00"/>
<path id="Vector_25" d="M26.3715 27.4197L26.3706 27.4258L25.9264 30.6514C25.7394 31.5332 25.1245 32.2462 24.311 32.5714L24.4338 32.3807C24.6803 31.9965 24.831 31.5583 24.872 31.1034L25.2566 26.8276L26.3715 27.4197Z" fill="#735FFF"/>
<path id="Vector_26" d="M11.6656 32.189C10.4828 32.1076 9.45813 33.0002 9.37673 34.1829C9.29534 35.3657 10.1879 36.3904 11.3707 36.4718C12.553 36.5532 13.5781 35.6606 13.6595 34.4778C13.7409 33.2955 12.8484 32.2704 11.6656 32.189ZM10.0112 34.316C9.96232 34.3122 9.92511 34.2699 9.92883 34.2211C9.93208 34.1718 9.97441 34.135 10.0237 34.1383C10.0725 34.1415 10.1098 34.1839 10.106 34.2332C10.1028 34.282 10.0605 34.3192 10.0112 34.316ZM11.6865 35.7076C11.6763 35.8522 11.5512 35.9615 11.4065 35.9518C11.2619 35.9415 11.1525 35.8164 11.1628 35.6718C11.1725 35.5271 11.2981 35.4178 11.4423 35.4281C11.587 35.4378 11.6963 35.5634 11.6865 35.7076ZM13.0125 34.5225C12.9637 34.5192 12.9265 34.4769 12.9302 34.4276C12.9335 34.3788 12.9758 34.3415 13.0251 34.3448C13.0739 34.3485 13.1112 34.3908 13.1074 34.4402C13.1042 34.489 13.0619 34.5262 13.0125 34.5225Z" fill="#DAD7FF"/>
<path id="Vector_27" d="M10.1059 34.2331C10.1027 34.282 10.0604 34.3192 10.011 34.3159C9.96221 34.3122 9.925 34.2699 9.92872 34.2211C9.93198 34.1718 9.97431 34.135 10.0236 34.1383C10.0724 34.1415 10.1097 34.1838 10.1059 34.2331Z" fill="white"/>
<path id="Vector_28" d="M11.8181 34.4429C11.8209 34.4494 11.8237 34.4554 11.8265 34.4619H11.826C11.8232 34.4559 11.8204 34.4494 11.8181 34.4429Z" fill="#FFAC00"/>
<path id="Vector_29" d="M12.7525 33.6555L12.0339 34.2815C11.9808 34.0997 11.8869 33.942 11.738 33.815L12.3939 33.2438C12.4645 33.1825 12.5715 33.1899 12.6334 33.2606L12.7687 33.4159C12.8306 33.4866 12.8232 33.5941 12.7525 33.6555Z" fill="#FFAC00"/>
<path id="Vector_30" d="M11.4981 34.6532C11.3995 34.6862 11.3079 34.7374 11.2293 34.8057L10.527 35.4178C10.4688 35.4685 10.3804 35.4625 10.3293 35.4039C10.2786 35.3457 10.2846 35.2574 10.3432 35.2067L11.0488 34.5918C11.106 34.542 11.1553 34.4839 11.1958 34.4197L11.2204 34.4481C11.2897 34.5281 11.3749 34.5927 11.4702 34.6387L11.486 34.6467C11.4902 34.6485 11.4939 34.6513 11.4981 34.6532Z" fill="#FFAC00"/>
<path id="Vector_31" d="M12.5482 35.5568C12.4896 35.6075 12.4013 35.6015 12.3506 35.5434L11.7357 34.8373C11.6692 34.761 11.5882 34.6987 11.498 34.6531C11.4938 34.6513 11.4901 34.6485 11.4859 34.6466L11.4701 34.6387C11.3747 34.5927 11.2896 34.528 11.2203 34.448L11.1957 34.4196L10.3878 33.4927C10.3264 33.422 10.3338 33.3145 10.4045 33.2531L10.5599 33.1178C10.6306 33.0559 10.738 33.0634 10.7994 33.1341L11.5417 33.9861L11.6352 34.0931C11.7064 34.175 11.7603 34.2713 11.7924 34.375C11.8017 34.4047 11.8133 34.4341 11.8259 34.4624C11.8575 34.5327 11.8989 34.5987 11.9501 34.6568L12.5617 35.3596C12.6124 35.4178 12.6064 35.5061 12.5482 35.5568Z" fill="#FFAC00"/>
<path id="Vector_32" d="M11.6865 35.7076C11.6763 35.8522 11.5511 35.9615 11.4065 35.9518C11.2618 35.9415 11.1525 35.8164 11.1628 35.6718C11.1725 35.5271 11.2981 35.4178 11.4423 35.428C11.587 35.4378 11.6963 35.5634 11.6865 35.7076Z" fill="#A39CFF"/>
<path id="Vector_33" d="M13.1074 34.4402C13.1041 34.489 13.0618 34.5262 13.0125 34.5225C12.9637 34.5192 12.9265 34.4769 12.9302 34.4276C12.9334 34.3788 12.9758 34.3415 13.0251 34.3448C13.0739 34.3485 13.1111 34.3908 13.1074 34.4402Z" fill="white"/>
<path id="Vector_34" d="M25.6888 22.2639C25.4488 22.4109 25.1818 22.5267 24.8841 22.6048C24.7157 22.6495 24.5381 22.682 24.3502 22.702C24.1367 22.7244 23.9288 22.7383 23.7274 22.7439V26.0606L23.4943 28.6537C23.4334 28.8188 23.3581 28.9871 23.2641 29.1523C23.2171 29.2355 23.1646 29.3183 23.1074 29.3997C22.7767 29.8695 22.2739 30.2927 21.512 30.5341C21.4232 30.5625 21.3302 30.5885 21.2339 30.6113C20.8743 30.6978 20.4632 30.7467 19.9934 30.7467C19.7367 30.7467 19.4967 30.7323 19.272 30.7048C19.1729 30.6927 19.0771 30.6783 18.9841 30.6616C18.1664 30.5141 17.572 30.1885 17.1399 29.7904C17.0674 29.7239 16.9999 29.6551 16.9367 29.5848C16.5911 29.203 16.3715 28.776 16.232 28.3825L16.0241 26.0751L16.2818 19.0448C16.3167 19.0523 16.3529 19.0569 16.3897 19.0569C16.666 19.0569 16.8902 18.8327 16.8902 18.5565C16.8902 18.2802 16.666 18.0565 16.3897 18.0565C16.1134 18.0565 15.8897 18.2802 15.8897 18.5565C15.8897 18.6383 15.9097 18.7155 15.9446 18.7839C15.1246 18.6225 14.5032 17.8513 14.5032 16.9239C14.5032 16.8551 14.5064 16.7871 14.5134 16.7206C14.5315 16.5406 14.5729 16.3681 14.6343 16.2071C14.7464 15.9132 14.9255 15.6569 15.1506 15.4592C15.3446 15.289 15.5725 15.1625 15.8222 15.0932C15.8311 15.0909 15.8395 15.0885 15.8483 15.0862C15.8683 15.0806 15.8883 15.076 15.9088 15.0713C16.0236 15.0462 16.1427 15.0327 16.2641 15.0327C16.2739 15.0327 16.2864 15.0327 16.2995 15.0337C16.3906 15.0365 16.4799 15.0485 16.5669 15.0695C16.7129 15.1044 16.8529 15.1625 16.9841 15.236C17.0999 15.3002 17.2092 15.3765 17.3097 15.4597C17.4762 15.5002 17.6399 15.5518 17.8018 15.6225C17.8757 15.6546 17.9506 15.6909 18.006 15.7499C18.032 15.7774 18.0846 15.8192 18.0808 15.7532C18.0808 15.7527 18.0278 14.7895 18.0278 14.7895C18.0069 14.4085 18.1055 14.0299 18.3097 13.7076L18.472 13.4518C18.4799 13.4397 18.4869 13.4271 18.4939 13.4146C18.6088 13.2062 18.6078 12.9518 18.4883 12.7434L18.2808 12.3797C18.0585 11.9909 18.2608 11.4969 18.692 11.3765C19.4813 11.156 20.7339 10.8541 22.0464 10.729H22.0474C23.3836 10.6016 24.7813 10.6574 25.8139 11.1695H25.8143C25.8753 11.2002 25.9343 11.2318 25.9925 11.2653C26.1762 11.3704 26.3464 11.4918 26.4999 11.6313L27.1692 13.4327C27.1888 13.5141 27.2074 13.596 27.2241 13.6778C27.7041 15.9895 28.1334 20.7648 25.6888 22.2639Z" fill="#C16D53"/>
<path id="Vector_35" d="M21.8756 15.2683C22.0029 15.259 22.0913 15.0479 22.0729 14.7969C22.0546 14.5458 21.9365 14.3498 21.8092 14.3591C21.6818 14.3684 21.5935 14.5795 21.6118 14.8306C21.6302 15.0816 21.7483 15.2776 21.8756 15.2683Z" fill="#231F20"/>
<path id="Vector_36" d="M25.9362 15.0915C26.0635 15.0821 26.1518 14.8711 26.1335 14.62C26.1151 14.3689 25.997 14.1729 25.8697 14.1822C25.7424 14.1916 25.654 14.4026 25.6724 14.6537C25.6907 14.9048 25.8088 15.1008 25.9362 15.0915Z" fill="#231F20"/>
<g id="Vector_37" style="mix-blend-mode:screen">
<path d="M25.6887 22.2639C25.4487 22.4108 25.1817 22.5266 24.884 22.6048C26.3324 22.0597 26.9171 19.589 26.9124 17.2708C26.9078 14.8643 26.1933 12.2839 25.8138 11.1694C25.9975 11.2745 26.3464 11.4918 26.4998 11.6313L27.1691 13.4327C27.1887 13.5141 27.2073 13.5959 27.224 13.6778C27.704 15.9894 28.1333 20.7648 25.6887 22.2639Z" fill="#E5765C"/>
</g>
<path id="Vector_38" d="M23.7274 22.7438C23.7274 22.7438 20.3501 23.102 18.1943 19.9629C18.1943 19.9629 18.8874 24.9796 23.7274 25.6494V22.7438Z" fill="#843928"/>
<path id="Vector_39" d="M27.2483 8.85172C27.2483 9.46706 27.1576 9.89776 27.1576 9.89776C27.0264 5.78799 22.8901 4.80009 22.8901 4.80009H22.8906C23.8004 4.31265 24.9808 4.71497 26.0478 5.69544C26.0948 5.73869 26.1399 5.78241 26.1832 5.82706C27.066 6.7373 27.2483 7.97962 27.2483 8.85172Z" fill="#872F1B"/>
<path id="Vector_40" d="M21.55 8.57173C21.55 8.57173 23.6035 9.97871 24.9882 8.10754C24.9882 8.10754 24.8407 9.29731 24.0333 9.7494C23.4054 10.1015 22.1891 10.0048 21.55 8.57173Z" fill="#872F1B"/>
<path id="Vector_41" d="M24.5093 8.97034C24.5093 8.97034 25.0456 9.62801 26.046 9.1908C26.046 9.1908 24.7251 10.2559 24.5093 8.97034Z" fill="#872F1B"/>
<path id="Vector_42" d="M27.9399 39.9285V39.3997H28.2445L27.6641 37.9574H27.0101V39.3997H27.3641V39.9285H26.1204V39.3997H26.4813V35.9932H26.1204V35.4644H28.7176L29.0176 35.7704V37.6578L28.718 37.9574H28.1785L28.759 39.3997H29.1836V39.9285H27.9399ZM27.0101 37.4285H28.4962V35.9932H27.0101V37.4285Z" fill="#DAD7FF"/>
<g id="Vector_43" style="mix-blend-mode:soft-light">
<path d="M36.6761 31.7224L35.1026 30.5122L34.4226 29.9889C33.9538 29.6285 33.4003 29.395 32.8152 29.3103L26.2417 28.3601L26.3705 27.4257L33.0105 28.3722C33.8747 28.5089 34.651 28.9787 35.1733 29.6805L35.4245 30.0182L36.6747 31.6982L36.6761 31.7224Z" fill="white"/>
</g>
<g id="Vector_44" style="mix-blend-mode:soft-light">
<path d="M13.544 28.6192L7.53985 29.2336C6.43054 29.3471 5.38403 29.8024 4.54496 30.5369L3.26636 31.6559L4.38403 30.015L4.54264 29.782C5.06264 29.0187 5.87426 28.5043 6.78636 28.3597L13.3794 27.4266L13.544 28.6197V28.6192Z" fill="white"/>
</g>
<g id="Vector_45" style="mix-blend-mode:screen">
<path d="M17.0339 15.4518C16.9023 15.5871 16.4353 15.6215 16.3246 15.6066C16.0744 15.5722 15.8162 15.5052 15.5739 15.5773C15.3292 15.6499 15.1478 15.8508 14.9409 16.0006C14.919 16.0164 14.8962 16.0318 14.8697 16.0359C14.7055 16.0625 14.8069 15.8611 14.8423 15.808C14.9283 15.6787 15.0339 15.5611 15.1506 15.4587C15.206 15.4299 15.2609 15.3992 15.3139 15.3625C15.4832 15.2457 15.6283 15.1504 15.8223 15.0927C15.8311 15.0904 15.8395 15.088 15.8483 15.0857C15.8683 15.0801 15.8883 15.0755 15.9088 15.0708C16.0237 15.0457 16.1427 15.0322 16.2641 15.0322C16.3218 15.0322 16.4395 15.0429 16.5669 15.069C16.7227 15.1001 16.8925 15.1532 16.9841 15.2355C17.0851 15.3262 17.0869 15.3973 17.0339 15.4518Z" fill="#E5765C"/>
</g>
<g id="Group">
<g id="Group_2">
<path id="Vector_46" d="M27.197 36.1871V37.2416H28.3017V36.1871H27.197ZM28.1933 37.1332H27.3054V36.2955H28.1933V37.1332Z" fill="white"/>
<path id="Vector_47" d="M28.9663 39.0973L28.6194 38.2596H28.8436L29.3198 37.7829V35.6457L28.8436 35.1689H25.825V36.2955H26.1789V39.0973H25.825V40.2238H29.4859V39.0973H28.9663ZM29.378 40.1155H27.7529V39.2057H27.9696L27.5366 38.1513H27.197V39.2057H27.558V40.1155H25.9333V39.2057H26.2873V36.1871H25.9333V35.2773H28.8003L29.2115 35.6889V37.7396L28.8003 38.1513H28.4608L28.8868 39.2057H29.378V40.1155ZM27.3054 39.0973V38.2596H27.464L27.8036 39.0973H27.3054Z" fill="white"/>
<path id="Vector_48" d="M27.197 36.1871V37.2416H28.3017V36.1871H27.197ZM28.1933 37.1332H27.3054V36.2955H28.1933V37.1332Z" fill="white"/>
</g>
<path id="Vector_49" d="M27.197 36.1871V37.2416H28.3017V36.1871H27.197ZM28.1933 37.1332H27.3054V36.2955H28.1933V37.1332Z" fill="white"/>
</g>
<g id="Vector_50" style="mix-blend-mode:soft-light">
<path d="M16.024 26.0751L16.2013 27.9574L13.5371 28.6458L13.3794 27.4262L16.024 26.0751Z" fill="white"/>
</g>
<g id="Vector_51" style="mix-blend-mode:soft-light">
<path d="M23.7275 26.0605L23.5791 27.8452L26.2419 28.3601L26.3707 27.4257L23.7275 26.0605Z" fill="white"/>
</g>
</g>
<g id="1 - Punk man Line">
<path id="Vector_52" d="M15.9452 18.8536C15.9406 18.8536 15.9364 18.8536 15.9318 18.8522C15.0638 18.6815 14.4341 17.8704 14.4341 16.9239C14.4341 15.9773 15.0485 15.1894 15.8945 15.0034C15.9322 14.995 15.9694 15.0187 15.9778 15.0564C15.9862 15.0941 15.9625 15.1313 15.9248 15.1397C15.142 15.3118 14.5741 16.0625 14.5741 16.9243C14.5741 17.7862 15.1564 18.5578 15.9592 18.7159C15.9969 18.7234 16.0215 18.7601 16.0141 18.7978C16.0076 18.8313 15.9783 18.8541 15.9457 18.8541L15.9452 18.8536Z" fill="#231F20"/>
<path id="Vector_53" d="M17.3926 15.6006C17.3759 15.6006 17.3596 15.5945 17.3461 15.5829C17.1019 15.3638 16.7164 15.1029 16.2643 15.1029C16.1499 15.1029 16.0354 15.1155 15.9238 15.1397C15.8861 15.148 15.8489 15.1243 15.8405 15.0866C15.8322 15.049 15.8559 15.0118 15.8936 15.0034C16.0145 14.9769 16.1392 14.9634 16.2638 14.9634C16.7596 14.9634 17.1764 15.2438 17.4387 15.4792C17.4675 15.5048 17.4699 15.549 17.4438 15.5778C17.4299 15.5931 17.4108 15.6011 17.3917 15.6011L17.3926 15.6006Z" fill="#231F20"/>
<path id="Vector_54" d="M15.9481 17.8996C15.9263 17.8996 15.9049 17.8894 15.8909 17.8703C15.8686 17.8387 15.876 17.7954 15.9076 17.7731C15.9118 17.7703 16.3183 17.4782 16.356 17.1908C16.3667 17.108 16.3449 17.0354 16.2895 16.9689C16.1658 16.8206 15.9928 16.9038 15.7714 17.0754C15.7602 17.0843 15.7458 17.0959 15.7286 17.1099C15.5597 17.2485 15.3849 17.3792 15.2635 17.3168C15.1988 17.2838 15.17 17.208 15.1774 17.0913C15.1928 16.8513 15.2676 16.6159 15.3932 16.4113C15.4997 16.2382 15.6276 16.1127 15.7737 16.0387C16.0811 15.8829 16.4537 15.9508 16.7779 16.0382C16.8151 16.0485 16.8369 16.0866 16.8272 16.1238C16.8174 16.161 16.7793 16.1829 16.7416 16.1731C16.443 16.0927 16.1016 16.0289 15.8365 16.1634C15.7137 16.2257 15.6044 16.3336 15.5118 16.4847C15.3979 16.6703 15.33 16.8834 15.3165 17.1006C15.3118 17.1764 15.3272 17.1931 15.3276 17.1931C15.3467 17.2015 15.4142 17.188 15.6402 17.0024C15.6583 16.9875 15.6742 16.9745 15.6863 16.9652C15.8286 16.8554 16.1616 16.5978 16.3969 16.8801C16.4779 16.9768 16.5104 17.088 16.4946 17.2099C16.449 17.5582 16.0072 17.8745 15.9886 17.888C15.9765 17.8968 15.9621 17.901 15.9481 17.901V17.8996Z" fill="#231F20"/>
<path id="Vector_55" d="M24.674 17.2489C24.6535 17.2489 24.6317 17.2466 24.6089 17.242C24.3954 17.1973 24.207 17.0894 24.0354 16.9796C24.0028 16.9587 23.9935 16.9159 24.014 16.8833C24.0345 16.8508 24.0782 16.8415 24.1103 16.862C24.2708 16.9647 24.4456 17.0652 24.6368 17.1052C24.7335 17.1252 24.8098 17.0629 24.8917 16.8964C25.1089 16.4536 24.9191 15.8643 24.7052 15.3466C24.5656 15.0089 24.4005 14.6875 24.2149 14.3908C24.1945 14.3582 24.2042 14.315 24.2368 14.2945C24.2694 14.274 24.3126 14.2838 24.3331 14.3164C24.5228 14.6196 24.6917 14.948 24.834 15.2931C25.0601 15.8401 25.2582 16.4652 25.0168 16.9578C24.9759 17.041 24.874 17.2489 24.6735 17.2489H24.674Z" fill="#231F20"/>
<path id="Vector_56" d="M23.1132 19.2653C22.3467 19.2653 21.729 18.6876 21.503 18.4448C21.4769 18.4165 21.4783 18.3723 21.5067 18.3462C21.5351 18.3202 21.5792 18.3216 21.6053 18.3499C22.8002 19.6374 23.8039 19.009 24.1802 18.6793C24.209 18.6537 24.2532 18.6569 24.2788 18.6858C24.3044 18.7146 24.3011 18.7588 24.2723 18.7844C23.8699 19.1374 23.4751 19.2658 23.1132 19.2658V19.2653Z" fill="#231F20"/>
<path id="Vector_57" d="M21.554 18.4671C21.5275 18.4671 21.5019 18.4518 21.4903 18.4257C21.4745 18.3904 21.4903 18.3495 21.5256 18.3336C21.6293 18.2876 21.7172 18.2183 21.787 18.1276C21.8103 18.0969 21.8545 18.0913 21.8847 18.115C21.9154 18.1388 21.921 18.1825 21.8972 18.2127C21.8131 18.322 21.7075 18.4053 21.5824 18.4611C21.5731 18.4653 21.5633 18.4671 21.554 18.4671Z" fill="#231F20"/>
<path id="Vector_58" d="M21.2076 18.5388C21.1564 18.5388 21.1243 18.5346 21.1211 18.5341C21.083 18.5285 21.0564 18.4932 21.062 18.455C21.0676 18.4169 21.103 18.3904 21.1411 18.396C21.143 18.396 21.3309 18.4206 21.5262 18.3336C21.5616 18.3178 21.6025 18.3336 21.6183 18.369C21.6341 18.4043 21.6183 18.4453 21.583 18.4611C21.436 18.5267 21.2946 18.5392 21.2081 18.5392L21.2076 18.5388Z" fill="#231F20"/>
<path id="Vector_59" d="M15.909 15.1411C15.8723 15.1411 15.8416 15.1128 15.8393 15.0755L15.8383 15.0588C15.8155 14.6932 15.7588 13.7783 15.7062 12.9672C15.422 13.0779 14.5518 13.3737 14.0262 13.0848C13.8095 12.9658 13.6779 12.763 13.6346 12.4825C13.5648 12.0318 13.7523 11.7188 14.176 11.5769C14.2123 11.5648 14.2523 11.5844 14.2644 11.6211C14.2765 11.6579 14.2569 11.6974 14.2202 11.7095C13.8593 11.8304 13.7127 12.0765 13.7723 12.4616C13.809 12.7002 13.9141 12.8644 14.0932 12.9625C14.6546 13.2709 15.7309 12.8067 15.7416 12.8021C15.7625 12.7928 15.7862 12.7946 15.8058 12.8062C15.8253 12.8179 15.8374 12.8388 15.8393 12.8611C15.8932 13.6955 15.9541 14.6695 15.9779 15.05L15.9788 15.0672C15.9811 15.1058 15.9518 15.1388 15.9137 15.1411C15.9123 15.1411 15.9109 15.1411 15.9095 15.1411H15.909Z" fill="#231F20"/>
<path id="Vector_60" d="M14.1983 11.7127C14.169 11.7127 14.142 11.6941 14.1322 11.6653C14.1201 11.6285 14.1397 11.589 14.1764 11.5769C14.7364 11.389 15.5239 11.556 15.5574 11.5634C15.595 11.5718 15.6187 11.6085 15.6108 11.6462C15.6029 11.6839 15.5657 11.708 15.5281 11.6997C15.5201 11.6978 14.7443 11.5336 14.2211 11.7094C14.2136 11.7118 14.2062 11.7132 14.1987 11.7132L14.1983 11.7127Z" fill="#231F20"/>
<path id="Vector_61" d="M18.0647 15.8583C18.0363 15.8583 17.9991 15.8443 17.9554 15.7973C17.908 15.7466 17.8401 15.7145 17.7745 15.6862C17.6266 15.622 17.4694 15.5699 17.294 15.5276C17.2563 15.5187 17.2335 15.4806 17.2424 15.4434C17.2512 15.4062 17.2889 15.3829 17.3266 15.3918C17.5103 15.4359 17.6749 15.4908 17.8303 15.5583C17.8875 15.5829 17.9508 15.6127 18.0066 15.6559C17.9926 15.4057 17.9591 14.7936 17.9591 14.7936C17.9373 14.3955 18.0382 14.0071 18.2517 13.6708L18.414 13.4145C18.5368 13.2211 18.5424 12.9773 18.4284 12.7783L18.2205 12.4145C18.1038 12.2104 18.088 11.9685 18.1773 11.7508C18.2666 11.5336 18.4475 11.3727 18.6735 11.3094C20.4154 10.8229 24.6694 9.87548 26.547 11.5801C26.5554 11.5876 26.5614 11.5969 26.5656 11.6076L27.2349 13.4085C27.2484 13.4448 27.2298 13.4848 27.194 13.4983C27.1577 13.5118 27.1177 13.4932 27.1042 13.4573L26.4405 11.6722C24.608 10.0299 20.4266 10.9648 18.7107 11.4438C18.5261 11.4955 18.3787 11.6266 18.3061 11.8038C18.2331 11.9815 18.2461 12.1787 18.3414 12.3452L18.5494 12.709C18.6889 12.9532 18.6819 13.2518 18.5312 13.4894L18.3689 13.7457C18.1712 14.0578 18.0773 14.4173 18.0977 14.7862C18.1334 15.4296 18.1512 15.7521 18.1512 15.7536C18.1549 15.8201 18.1154 15.8448 18.0982 15.8518C18.0889 15.8555 18.0777 15.8587 18.0652 15.8587L18.0647 15.8583Z" fill="#231F20"/>
<path id="Vector_62" d="M27.1709 13.5053C27.1421 13.5053 27.116 13.4876 27.1058 13.4601C27.0984 13.4411 27.1002 13.4201 27.1086 13.4029C27.1435 13.302 27.4672 12.3308 27.2416 11.5541C27.2351 11.5322 27.2402 11.508 27.2546 11.4904C27.5002 11.1899 27.603 10.8969 27.5598 10.6192C27.4956 10.2048 27.1235 9.95828 27.1198 9.95595C27.0956 9.94014 27.0835 9.9113 27.0895 9.88293C27.0951 9.85688 27.6235 7.23642 26.0012 5.74619C25.1026 4.9206 24.1798 4.54619 23.4021 4.69223C22.8081 4.80386 22.3346 5.21037 21.996 5.9006C21.9853 5.92246 21.9635 5.93735 21.9393 5.93921C21.9142 5.94153 21.8909 5.93037 21.877 5.91037C21.8723 5.90386 21.4137 5.27781 20.8416 5.28851C20.5077 5.29456 20.1937 5.51502 19.9077 5.9434C19.8956 5.96153 19.876 5.9727 19.8542 5.97456C19.8328 5.97595 19.8114 5.96712 19.797 5.95084C19.7956 5.94898 19.6291 5.76153 19.2923 5.5727C18.9821 5.39828 18.4588 5.18712 17.7291 5.16944C16.5156 5.13967 15.6398 5.58107 15.3263 6.37874C15.0263 7.142 15.2951 8.07084 15.9946 8.68944C16.0184 8.71084 16.0249 8.74526 16.0105 8.77363C15.9956 8.802 15.9635 8.81688 15.9323 8.80944C15.917 8.80572 14.3858 8.45595 13.7198 9.17316C13.4658 9.44665 13.1923 10.1341 13.3407 10.7136C13.4467 11.1271 13.7426 11.4173 14.2202 11.5764C14.257 11.5885 14.2765 11.628 14.2644 11.6648C14.2523 11.7011 14.2128 11.7211 14.176 11.709C13.6579 11.5369 13.3221 11.2048 13.2053 10.7485C13.0374 10.0922 13.3519 9.36386 13.6174 9.07828C14.1821 8.47084 15.2588 8.55688 15.7328 8.63037C15.1174 7.97921 14.9007 7.08014 15.1965 6.32805C15.5328 5.47223 16.4584 4.99921 17.7328 5.02991C18.9644 5.05967 19.6412 5.60572 19.8402 5.79595C20.1407 5.37316 20.477 5.15549 20.8398 5.14944C20.8453 5.14944 20.8505 5.14944 20.856 5.14944C21.3612 5.14944 21.7644 5.55781 21.9207 5.742C22.2733 5.07781 22.7746 4.66851 23.3765 4.55549C24.1979 4.40107 25.1635 4.78758 26.0956 5.64386C27.657 7.07781 27.2984 9.50526 27.2346 9.86665C27.3421 9.94758 27.6356 10.2006 27.6974 10.5969C27.7458 10.9067 27.6412 11.2276 27.3853 11.5508C27.6151 12.4039 27.2523 13.4164 27.2365 13.4597C27.2267 13.4871 27.2007 13.5053 27.1714 13.5057L27.1709 13.5053Z" fill="#231F20"/>
<path id="Vector_63" d="M16.7391 31.7076C16.7158 31.7076 16.6926 31.6959 16.6795 31.6741C16.5093 31.3959 16.4042 31.0787 16.3754 30.7559L16.3479 30.4531C16.3447 30.4145 16.3726 30.3811 16.4112 30.3773C16.4498 30.3741 16.4833 30.402 16.487 30.4406L16.5144 30.7434C16.5414 31.0448 16.6395 31.3411 16.7986 31.6011C16.8186 31.6341 16.8084 31.6769 16.7754 31.6969C16.7642 31.7038 16.7516 31.7071 16.7391 31.7071V31.7076Z" fill="#231F20"/>
<path id="Vector_64" d="M17.6085 33.0607C17.6048 33.0607 17.6011 33.0607 17.5974 33.0597L16.5825 32.8937C16.5443 32.8876 16.5188 32.8514 16.5248 32.8137C16.5309 32.7755 16.5671 32.75 16.6048 32.756L17.6197 32.9221C17.6578 32.9281 17.6834 32.9644 17.6774 33.0021C17.6718 33.0365 17.642 33.0607 17.6085 33.0607Z" fill="#231F20"/>
<path id="Vector_65" d="M13.3797 27.4954C13.3453 27.4954 13.3155 27.4699 13.3108 27.435L13.3099 27.4285C13.3062 27.3996 13.3206 27.3713 13.3462 27.3578L14.4615 26.7657C14.4955 26.748 14.5378 26.7606 14.556 26.7945C14.5741 26.8285 14.5611 26.8708 14.5271 26.8889L13.435 27.4685C13.4243 27.4824 13.408 27.4922 13.3894 27.495C13.3862 27.495 13.3834 27.4954 13.3801 27.4954H13.3797Z" fill="#231F20"/>
<path id="Vector_66" d="M15.2737 26.483C15.2485 26.483 15.2244 26.4695 15.2118 26.4458C15.1937 26.4118 15.2067 26.3695 15.2406 26.3513L15.9862 25.9555C16.0067 25.9448 16.0318 25.9448 16.0523 25.9555C16.0727 25.9667 16.0862 25.9872 16.0885 26.0104L16.0937 26.0681C16.0969 26.1067 16.069 26.1402 16.0304 26.1439C16.0072 26.1458 15.9862 26.1365 15.9718 26.1206L15.3058 26.4741C15.2955 26.4797 15.2844 26.482 15.2732 26.482L15.2737 26.483Z" fill="#231F20"/>
<path id="Vector_67" d="M17.6085 33.0607C17.5857 33.0607 17.5629 33.0495 17.5499 33.0286L16.7066 31.7188C16.7006 31.709 16.6945 31.6993 16.6885 31.6895L16.6796 31.6741C16.6596 31.6411 16.6699 31.5983 16.7029 31.5783C16.7359 31.5583 16.7787 31.5686 16.7987 31.6016L16.8089 31.6188C16.8136 31.6272 16.8187 31.6355 16.8238 31.6434L17.6671 32.9537C17.688 32.9862 17.6787 33.029 17.6462 33.05C17.6345 33.0574 17.6215 33.0611 17.6085 33.0611V33.0607Z" fill="#231F20"/>
<path id="Vector_68" d="M16.3852 30.156C16.3493 30.156 16.3191 30.1286 16.3159 30.0923L16.1624 28.3886C16.1591 28.35 16.187 28.3165 16.2256 28.3128C16.2638 28.3095 16.2977 28.3374 16.3014 28.376L16.4549 30.0797C16.4582 30.1183 16.4303 30.1518 16.3917 30.1555C16.3893 30.1555 16.3875 30.1555 16.3852 30.1555V30.156Z" fill="#231F20"/>
<path id="Vector_69" d="M16.2323 28.4522C16.1965 28.4522 16.1663 28.4248 16.163 28.3885L15.9551 26.0806C15.9518 26.042 15.9797 26.0085 16.0183 26.0048C16.0565 26.0015 16.0904 26.0294 16.0942 26.068L16.3021 28.3759C16.3053 28.4145 16.2774 28.448 16.2388 28.4517C16.2365 28.4517 16.2346 28.4517 16.2323 28.4517V28.4522Z" fill="#231F20"/>
<path id="Vector_70" d="M15.4397 32.641C15.4309 32.641 15.4225 32.6396 15.4137 32.6359C14.5653 32.2968 13.9458 31.5601 13.756 30.6657C13.756 30.6638 13.7556 30.6624 13.7551 30.6606L13.3104 27.435C13.3053 27.3968 13.3318 27.3615 13.37 27.3564C13.4077 27.3517 13.4435 27.3778 13.4486 27.4159L13.8928 30.6387C14.0732 31.4861 14.6611 32.1843 15.4653 32.5057C15.5011 32.5201 15.5184 32.5606 15.5044 32.5964C15.4937 32.6238 15.4672 32.6401 15.4397 32.6401V32.641Z" fill="#231F20"/>
<path id="Vector_71" d="M16.4178 30.5169C16.382 30.5169 16.3517 30.4895 16.3485 30.4532L16.3159 30.0923C16.3127 30.0537 16.3406 30.0202 16.3792 30.0164C16.4178 30.0127 16.4513 30.0411 16.455 30.0797L16.4876 30.4406C16.4908 30.4792 16.4629 30.5127 16.4243 30.5164C16.422 30.5164 16.4201 30.5164 16.4178 30.5164V30.5169Z" fill="#231F20"/>
<path id="Vector_72" d="M16.5932 32.8945C16.5704 32.8945 16.5476 32.8833 16.5346 32.8624L16.0471 32.1043C15.7946 31.7126 15.6392 31.2606 15.5978 30.7964L15.2044 26.4192C15.2011 26.3806 15.2295 26.3471 15.2676 26.3433C15.3053 26.3396 15.3397 26.368 15.3434 26.4066L15.7369 30.7838C15.7764 31.2252 15.9244 31.6559 16.1648 32.0285L16.6527 32.7866C16.6737 32.8192 16.6644 32.8619 16.6318 32.8829C16.6202 32.8903 16.6071 32.894 16.5941 32.894L16.5932 32.8945Z" fill="#231F20"/>
<path id="Vector_73" d="M15.4397 32.6411C15.4169 32.6411 15.3941 32.6299 15.3811 32.609L15.2583 32.4183C15.0062 32.0258 14.8509 31.5732 14.8095 31.1099L14.4248 26.8341C14.4216 26.7955 14.4495 26.762 14.4881 26.7583C14.5267 26.7551 14.5602 26.783 14.5639 26.8216L14.9485 31.0978C14.9881 31.5388 15.136 31.9695 15.376 32.3434L15.4988 32.5341C15.5197 32.5667 15.5104 32.6095 15.4778 32.6304C15.4662 32.6379 15.4532 32.6416 15.4402 32.6416L15.4397 32.6411Z" fill="#231F20"/>
<path id="Vector_74" d="M16.5936 32.8946C16.5899 32.8946 16.5862 32.8946 16.5824 32.8937L15.9889 32.7965C15.7903 32.7639 15.5969 32.7095 15.4141 32.636C15.3782 32.6216 15.361 32.5811 15.3755 32.5453C15.3899 32.5095 15.4303 32.4923 15.4662 32.5067C15.6396 32.5764 15.8229 32.6281 16.0113 32.6588L16.6048 32.756C16.6429 32.762 16.6685 32.7983 16.6624 32.836C16.6569 32.8704 16.6271 32.8946 16.5936 32.8946Z" fill="#231F20"/>
<path id="Vector_75" d="M14.4941 26.8974C14.469 26.8974 14.4448 26.8839 14.4323 26.8602C14.4141 26.8262 14.4271 26.7839 14.4611 26.7657L15.2406 26.3513C15.2746 26.3332 15.3169 26.3462 15.3351 26.3802C15.3532 26.4141 15.3402 26.4564 15.3062 26.4746L14.5267 26.889C14.5164 26.8946 14.5048 26.8974 14.4941 26.8974Z" fill="#231F20"/>
<path id="Vector_76" d="M22.1425 33.0606C22.1295 33.0606 22.1165 33.0569 22.1049 33.0495C22.0723 33.0285 22.063 32.9853 22.0839 32.9532L22.9002 31.6848C22.9211 31.6523 22.9644 31.643 22.9965 31.6639C23.029 31.6848 23.0383 31.7281 23.0174 31.7602L22.2011 33.0285C22.1877 33.0495 22.1653 33.0606 22.1425 33.0606Z" fill="#231F20"/>
<path id="Vector_77" d="M22.1425 33.0607C22.109 33.0607 22.0792 33.0365 22.0736 33.0021C22.0676 32.9639 22.0932 32.9281 22.1313 32.9221L23.1467 32.756C23.1848 32.75 23.2206 32.7755 23.2267 32.8137C23.2327 32.8518 23.2071 32.8876 23.169 32.8937L22.1536 33.0597C22.1499 33.0602 22.1462 33.0607 22.1425 33.0607Z" fill="#231F20"/>
<path id="Vector_78" d="M23.436 29.3746C23.436 29.3746 23.4318 29.3746 23.4295 29.3746C23.3909 29.3713 23.363 29.3374 23.3662 29.2988L23.4248 28.6471C23.4281 28.6085 23.4616 28.5806 23.5006 28.5839C23.5392 28.5871 23.5672 28.6211 23.5639 28.6597L23.5053 29.3113C23.502 29.3476 23.4718 29.375 23.436 29.375V29.3746Z" fill="#231F20"/>
<path id="Vector_79" d="M23.4033 29.7331C23.4033 29.7331 23.3991 29.7331 23.3968 29.7331C23.3582 29.7299 23.3303 29.6959 23.3335 29.6573L23.3656 29.2987C23.3689 29.2601 23.4023 29.2317 23.4414 29.2354C23.48 29.2387 23.5079 29.2726 23.5047 29.3112L23.4726 29.6699C23.4693 29.7061 23.4391 29.7336 23.4033 29.7336V29.7331Z" fill="#231F20"/>
<path id="Vector_80" d="M26.3713 27.4955C26.368 27.4955 26.3652 27.4955 26.362 27.4951C26.3434 27.4928 26.3271 27.483 26.3164 27.469L25.2243 26.8895C25.1903 26.8714 25.1773 26.829 25.1954 26.7951C25.2136 26.7611 25.2559 26.7481 25.2899 26.7662L26.4052 27.3583C26.4313 27.3718 26.4457 27.4002 26.4415 27.4295L26.4406 27.436C26.4359 27.4709 26.4057 27.4965 26.3717 27.4965L26.3713 27.4955Z" fill="#231F20"/>
<path id="Vector_81" d="M23.4946 28.7229C23.4946 28.7229 23.4904 28.7229 23.4881 28.7229C23.4495 28.7196 23.4216 28.6857 23.4248 28.6471L23.6583 26.0541C23.6616 26.0155 23.6955 25.9871 23.7341 25.9908C23.7727 25.9941 23.8006 26.028 23.7974 26.0666L23.5639 28.6596C23.5606 28.6959 23.5304 28.7234 23.4946 28.7234V28.7229Z" fill="#231F20"/>
<path id="Vector_82" d="M24.3114 32.641C24.2839 32.641 24.2574 32.6243 24.2467 32.5973C24.2323 32.5615 24.25 32.521 24.2858 32.5066C25.09 32.1848 25.6779 31.4871 25.8584 30.6396L26.3025 27.4169C26.3077 27.3787 26.3435 27.3522 26.3811 27.3573C26.4193 27.3624 26.4458 27.3978 26.4407 27.4359L25.996 30.6615C25.996 30.6615 25.9956 30.6648 25.9951 30.6666C25.8053 31.561 25.1858 32.2973 24.3374 32.6369C24.3291 32.6401 24.3202 32.642 24.3114 32.642V32.641Z" fill="#231F20"/>
<path id="Vector_83" d="M24.4773 26.4829C24.4661 26.4829 24.455 26.4801 24.4448 26.475L23.7699 26.1164C23.7564 26.1261 23.7392 26.1313 23.722 26.1299C23.6834 26.1266 23.6554 26.0926 23.6587 26.054L23.6624 26.0113C23.6643 25.988 23.6782 25.9671 23.6987 25.9564C23.7192 25.9452 23.7443 25.9452 23.7648 25.9564L24.5103 26.3522C24.5443 26.3703 24.5573 26.4126 24.5392 26.4466C24.5266 26.4703 24.5024 26.4838 24.4773 26.4838V26.4829Z" fill="#231F20"/>
<path id="Vector_84" d="M22.9587 31.7923C22.9457 31.7923 22.9327 31.7886 22.921 31.7811C22.8885 31.7602 22.8792 31.7169 22.9001 31.6848L22.9271 31.6434C23.101 31.3746 23.2075 31.0634 23.2364 30.7439L23.334 29.6574C23.3373 29.6188 23.3713 29.5909 23.4099 29.5941C23.4485 29.5974 23.4764 29.6313 23.4731 29.6699L23.3754 30.7565C23.3447 31.0983 23.2303 31.4313 23.0443 31.7192L23.0178 31.7606C23.0043 31.7816 22.982 31.7927 22.9592 31.7927L22.9587 31.7923Z" fill="#231F20"/>
<path id="Vector_85" d="M24.3107 32.6411C24.2977 32.6411 24.2847 32.6374 24.2731 32.6299C24.2405 32.609 24.2312 32.5657 24.2521 32.5336L24.3749 32.3429C24.6149 31.9695 24.7628 31.5388 24.8024 31.0974L25.187 26.8211C25.1903 26.7825 25.2242 26.7546 25.2628 26.7578C25.3014 26.7611 25.3294 26.795 25.3261 26.8336L24.9414 31.1099C24.9 31.5732 24.7447 32.0257 24.4926 32.4183L24.3698 32.609C24.3563 32.6299 24.334 32.6411 24.3112 32.6411H24.3107Z" fill="#231F20"/>
<path id="Vector_86" d="M23.1574 32.8945C23.1444 32.8945 23.1314 32.8908 23.1198 32.8834C23.0872 32.8624 23.0779 32.8192 23.0988 32.7871L23.5863 32.029C23.8263 31.6564 23.9742 31.2257 24.0142 30.7843L24.4077 26.4071C24.4109 26.3685 24.4458 26.3401 24.4835 26.3438C24.5221 26.3471 24.55 26.381 24.5467 26.4196L24.1532 30.7969C24.1114 31.261 23.956 31.7131 23.7039 32.1048L23.2165 32.8629C23.203 32.8838 23.1807 32.895 23.1579 32.895L23.1574 32.8945Z" fill="#231F20"/>
<path id="Vector_87" d="M25.2568 26.8974C25.2457 26.8974 25.2345 26.8946 25.2243 26.889L24.4447 26.4746C24.4108 26.4564 24.3978 26.4141 24.4159 26.3802C24.434 26.3462 24.4764 26.3332 24.5103 26.3513L25.2899 26.7657C25.3238 26.7839 25.3368 26.8262 25.3187 26.8602C25.3061 26.8839 25.282 26.8974 25.2568 26.8974Z" fill="#231F20"/>
<path id="Vector_88" d="M23.1574 32.8946C23.1239 32.8946 23.0941 32.8704 23.0885 32.836C23.0825 32.7978 23.1081 32.762 23.1462 32.756L23.7397 32.6588C23.9281 32.6276 24.1113 32.5764 24.2848 32.5067C24.3206 32.4923 24.3611 32.5095 24.3755 32.5453C24.3899 32.5811 24.3727 32.6216 24.3369 32.636C24.1541 32.7099 23.9606 32.7639 23.762 32.7965L23.1685 32.8937C23.1648 32.8941 23.1611 32.8946 23.1574 32.8946Z" fill="#231F20"/>
<path id="Vector_89" d="M23.5209 22.8165C21.7 22.8165 20.4033 22.1579 19.6023 21.5607C18.606 20.8183 18.153 20.0304 18.1344 19.9969C18.1153 19.9634 18.127 19.9211 18.1605 19.9021C18.1939 19.883 18.2363 19.8946 18.2553 19.9281C18.26 19.936 18.7158 20.7276 19.6907 21.4523C20.5888 22.1202 22.1246 22.8667 24.3433 22.6323C25.2549 22.5355 25.9828 22.1225 26.5065 21.4044C27.1381 20.5388 27.4795 19.2453 27.5214 17.5593C27.5637 15.8597 27.28 14.2881 27.1563 13.6909C27.1409 13.6174 27.1233 13.5379 27.1019 13.4476C27.093 13.41 27.1163 13.3728 27.1535 13.3634C27.1916 13.3546 27.2284 13.3779 27.2377 13.4151C27.2595 13.5067 27.2777 13.5872 27.293 13.6621C27.4177 14.2639 27.7037 15.8486 27.6609 17.5621C27.6186 19.2765 27.2679 20.5969 26.6191 21.4858C26.0707 22.2374 25.3098 22.6695 24.3577 22.77C24.0674 22.8007 23.7884 22.8151 23.5209 22.8151V22.8165Z" fill="#231F20"/>
<path id="Vector_90" d="M16.0244 26.1443C16.0244 26.1443 16.0225 26.1443 16.0216 26.1443C15.983 26.1429 15.9532 26.1103 15.9546 26.0722L16.2123 19.042C16.2137 19.0034 16.2463 18.9741 16.2844 18.975C16.323 18.9764 16.3528 19.009 16.3514 19.0471L16.0937 26.0773C16.0923 26.115 16.0611 26.1448 16.0239 26.1448L16.0244 26.1443Z" fill="#231F20"/>
<path id="Vector_91" d="M18.1201 34.5508C18.082 34.5508 18.0508 34.5201 18.0504 34.482L18.0346 33.3774C18.0276 33.2346 17.9183 33.1122 17.7746 33.0885L17.5969 33.0597C17.5587 33.0536 17.5332 33.0174 17.5392 32.9797C17.5453 32.942 17.5815 32.9155 17.6192 32.922L17.7969 32.9508C18.0048 32.9848 18.1634 33.1625 18.1736 33.3727L18.1894 34.4797C18.1899 34.5183 18.1592 34.5499 18.1206 34.5504H18.1197L18.1201 34.5508Z" fill="#231F20"/>
<path id="Vector_92" d="M4.38436 30.0838C4.37087 30.0838 4.35738 30.0801 4.34529 30.0717C4.31366 30.0499 4.30529 30.0066 4.32715 29.975L4.48575 29.7424C5.01413 28.9666 5.84901 28.4373 6.77645 28.2908L13.3709 27.3573C13.4085 27.3522 13.4444 27.3787 13.4499 27.4169C13.4555 27.455 13.4285 27.4903 13.3904 27.4959L6.79738 28.4294C5.90901 28.5699 5.10854 29.0778 4.60157 29.822L4.44296 30.0545C4.42947 30.0745 4.40761 30.0852 4.38529 30.0852L4.38436 30.0838Z" fill="#231F20"/>
<path id="Vector_93" d="M18.1624 37.5044C18.1243 37.5044 18.0931 37.4737 18.0926 37.4355L18.0503 34.4816C18.0498 34.443 18.0805 34.4114 18.1191 34.4109H18.1201C18.1582 34.4109 18.1894 34.4416 18.1898 34.4797L18.2322 37.4337C18.2326 37.4723 18.2019 37.5039 18.1633 37.5044H18.1624Z" fill="#231F20"/>
<path id="Vector_94" d="M18.2944 46.7392H7.82001C7.78141 46.7392 7.75024 46.708 7.75024 46.6694C7.75024 46.6308 7.78141 46.5997 7.82001 46.5997H18.2233L18.0921 37.436C18.0916 37.3973 18.1223 37.3657 18.1609 37.3653C18.1986 37.3643 18.2312 37.3955 18.2316 37.4341L18.3637 46.6685C18.3637 46.6871 18.3568 46.7053 18.3437 46.7183C18.3307 46.7313 18.3126 46.7392 18.294 46.7392H18.2944Z" fill="#231F20"/>
<path id="Vector_95" d="M7.82012 46.7392H-1.60919C-1.62779 46.7392 -1.64547 46.7318 -1.65849 46.7188C-1.67151 46.7057 -1.67896 46.6881 -1.67896 46.6695L-1.67477 38.8062C-1.67477 38.7923 -1.67058 38.7788 -1.66268 38.7671L4.32663 29.975C4.34849 29.9434 4.39174 29.935 4.42337 29.9569C4.455 29.9788 4.46337 30.022 4.44151 30.0537L-1.53523 38.8276L-1.53942 46.5992H7.82012C7.85872 46.5992 7.88988 46.6304 7.88988 46.669C7.88988 46.7076 7.85872 46.7388 7.82012 46.7388V46.7392Z" fill="#231F20"/>
<path id="Vector_96" d="M23.728 26.1304C23.7233 26.1304 23.7187 26.1299 23.714 26.129C23.7098 26.1281 23.7052 26.1267 23.701 26.1248C23.6968 26.123 23.6926 26.1211 23.6889 26.1183C23.6852 26.116 23.6815 26.1132 23.6782 26.1099C23.6652 26.0969 23.6582 26.0788 23.6582 26.0602C23.6582 26.056 23.6582 26.0513 23.6591 26.0467C23.6601 26.0425 23.6615 26.0378 23.6633 26.0337C23.6652 26.0295 23.667 26.0253 23.6698 26.0216C23.6722 26.0178 23.6749 26.0141 23.6782 26.0113C23.6815 26.0081 23.6852 26.0048 23.6889 26.0025C23.6926 25.9997 23.6968 25.9978 23.701 25.996C23.7052 25.9941 23.7098 25.9927 23.714 25.9918C23.7368 25.9871 23.761 25.9951 23.7773 26.0113C23.7898 26.0239 23.7977 26.042 23.7977 26.0602C23.7977 26.0783 23.7898 26.0969 23.7773 26.1099C23.774 26.1132 23.7703 26.116 23.7666 26.1183C23.7629 26.1211 23.7587 26.123 23.7545 26.1248C23.7503 26.1267 23.7456 26.1281 23.7415 26.129C23.7368 26.1299 23.7322 26.1304 23.728 26.1304Z" fill="#231F20"/>
<path id="Vector_97" d="M23.7275 26.1299C23.6889 26.1299 23.6577 26.0988 23.6577 26.0602V22.7546C23.6577 22.716 23.6889 22.6848 23.7275 22.6848C23.7661 22.6848 23.7973 22.716 23.7973 22.7546V26.0602C23.7973 26.0988 23.7661 26.1299 23.7275 26.1299Z" fill="#231F20"/>
<path id="Vector_98" d="M21.5927 37.222H21.5918C21.5532 37.2216 21.5225 37.19 21.523 37.1513L21.5769 33.3755C21.5871 33.1625 21.7457 32.9853 21.9537 32.9513L22.1313 32.9225C22.169 32.916 22.2053 32.942 22.2113 32.9802C22.2174 33.0183 22.1918 33.0541 22.1537 33.0602L21.976 33.089C21.8327 33.1123 21.723 33.2351 21.716 33.3802L21.662 37.1537C21.6616 37.1918 21.6304 37.2225 21.5923 37.2225L21.5927 37.222Z" fill="#231F20"/>
<path id="Vector_99" d="M21.5353 41.2086H21.5344C21.4958 41.2081 21.4651 41.1765 21.4656 41.1379L21.5228 37.1514C21.5233 37.1132 21.5544 37.0825 21.5926 37.0825H21.5935C21.6321 37.083 21.6628 37.1146 21.6623 37.1532L21.6051 41.1397C21.6047 41.1779 21.5735 41.2086 21.5353 41.2086Z" fill="#231F20"/>
<path id="Vector_100" d="M43.8337 46.7392H31.9909C31.9523 46.7392 31.9211 46.708 31.9211 46.6694C31.9211 46.6308 31.9523 46.5997 31.9909 46.5997H43.7639V41.3425L35.3686 30.0597C35.3453 30.0285 35.3518 29.9852 35.383 29.962C35.4137 29.9392 35.4574 29.9452 35.4807 29.9764L43.8895 41.2778C43.8984 41.2899 43.9035 41.3043 43.9035 41.3197V46.6699C43.9035 46.7085 43.8723 46.7397 43.8337 46.7397V46.7392Z" fill="#231F20"/>
<path id="Vector_101" d="M35.4248 30.0876C35.4034 30.0876 35.3825 30.0779 35.369 30.0597L35.1178 29.7225C34.6034 29.0309 33.8513 28.576 33.0002 28.4411L26.3616 27.4951C26.3234 27.4895 26.2969 27.4542 26.3025 27.416C26.3081 27.3779 26.343 27.3514 26.3816 27.3569L33.0216 28.3035C33.9099 28.4444 34.6941 28.9183 35.2304 29.6393L35.4816 29.9765C35.5048 30.0076 35.4983 30.0509 35.4671 30.0742C35.4546 30.0835 35.4402 30.0881 35.4258 30.0881L35.4248 30.0876Z" fill="#231F20"/>
<path id="Vector_102" d="M7.82019 46.7392C7.78298 46.7392 7.75182 46.7094 7.75042 46.6717L7.37647 36.2875C7.33647 35.1787 6.98763 34.1061 6.36716 33.1866L4.32577 30.0526C4.30484 30.0205 4.31368 29.9773 4.34623 29.9559C4.37833 29.935 4.42158 29.9438 4.44298 29.9764L6.48344 33.1094C7.11786 34.0498 7.47507 35.1475 7.516 36.2824L7.88996 46.6666C7.89135 46.7052 7.86112 46.7373 7.82251 46.7387C7.82158 46.7387 7.82065 46.7387 7.82019 46.7387V46.7392Z" fill="#231F20"/>
<path id="Vector_103" d="M31.9912 46.7392C31.9912 46.7392 31.9893 46.7392 31.9889 46.7392C31.9503 46.7378 31.92 46.7053 31.9214 46.6671L32.2954 36.283C32.3363 35.1481 32.6935 34.0504 33.3284 33.109L35.3661 29.9806C35.387 29.9485 35.4303 29.9392 35.4628 29.9602C35.4949 29.9811 35.5042 30.0244 35.4833 30.0569L33.4452 33.1862C32.8242 34.1072 32.4749 35.1792 32.4354 36.2881L32.0614 46.6723C32.06 46.7099 32.0293 46.7397 31.9917 46.7397L31.9912 46.7392Z" fill="#231F20"/>
<path id="Vector_104" d="M19.9936 30.8164C19.7397 30.8164 19.4941 30.802 19.2638 30.7741C19.2257 30.7694 19.1983 30.7346 19.2029 30.6964C19.2076 30.6583 19.2429 30.6313 19.2806 30.6355C19.5052 30.6629 19.7452 30.6769 19.9936 30.6769C20.4378 30.6769 20.8499 30.6322 21.2178 30.5434C21.255 30.5346 21.2931 30.5574 21.302 30.595C21.3108 30.6322 21.288 30.6704 21.2503 30.6792C20.8717 30.7704 20.449 30.8164 19.9936 30.8164Z" fill="#231F20"/>
<path id="Vector_105" d="M18.9843 30.7313C18.9801 30.7313 18.9759 30.7313 18.9717 30.7304C18.2168 30.5941 17.5847 30.2955 17.0926 29.842C17.0643 29.8159 17.0624 29.7718 17.0884 29.7434C17.1145 29.715 17.1587 29.7132 17.187 29.7392C17.6591 30.1746 18.268 30.4615 18.9964 30.5932C19.034 30.6001 19.0596 30.6364 19.0526 30.6741C19.0466 30.7076 19.0173 30.7313 18.9843 30.7313Z" fill="#231F20"/>
<path id="Vector_106" d="M16.9369 29.6545C16.9179 29.6545 16.8988 29.6466 16.8853 29.6317C16.576 29.2899 16.3341 28.8773 16.1667 28.4061C16.1537 28.3699 16.1727 28.3299 16.209 28.3168C16.2453 28.3038 16.2853 28.3229 16.2983 28.3592C16.4597 28.8131 16.6918 29.2099 16.989 29.5378C17.0151 29.5661 17.0127 29.6103 16.9839 29.6364C16.9704 29.6485 16.9537 29.6545 16.9369 29.6545Z" fill="#231F20"/>
<path id="Vector_107" d="M23.2642 29.222C23.2526 29.222 23.2405 29.2192 23.2298 29.2127C23.1963 29.1936 23.1847 29.1508 23.2037 29.1178C23.2898 28.9666 23.3656 28.8024 23.4289 28.6294C23.4424 28.5931 23.4824 28.5745 23.5182 28.588C23.5544 28.6015 23.573 28.6415 23.5596 28.6773C23.4935 28.8573 23.4144 29.0285 23.3247 29.1866C23.3117 29.2094 23.2884 29.222 23.2642 29.222Z" fill="#231F20"/>
<path id="Vector_108" d="M21.5122 30.6039C21.4824 30.6039 21.4549 30.5848 21.4456 30.555C21.434 30.5183 21.4545 30.4792 21.4912 30.4676C22.1568 30.2569 22.6815 29.8839 23.0508 29.3597C23.0731 29.3281 23.1163 29.3206 23.148 29.3429C23.1796 29.3653 23.187 29.4085 23.1647 29.4402C22.7777 29.9899 22.2289 30.3806 21.5336 30.6011C21.5266 30.6034 21.5196 30.6043 21.5126 30.6043L21.5122 30.6039Z" fill="#231F20"/>
<path id="Vector_109" d="M21.9736 32.1824C21.9429 32.1824 21.915 32.1624 21.9066 32.1317C21.8964 32.0945 21.9178 32.0559 21.955 32.0457C22.3033 31.948 22.6299 31.8182 22.9266 31.661C22.9606 31.6429 23.0029 31.6559 23.021 31.6899C23.0392 31.7238 23.0261 31.7661 22.9922 31.7843C22.6871 31.9461 22.3508 32.0792 21.9931 32.1801C21.9866 32.182 21.9806 32.1829 21.974 32.1829L21.9736 32.1824Z" fill="#231F20"/>
<path id="Vector_110" d="M18.5386 32.3151C18.5349 32.3151 18.5307 32.3151 18.527 32.3141C17.8419 32.1979 17.2289 31.9909 16.7051 31.6988C16.6717 31.6802 16.6596 31.6374 16.6782 31.6039C16.6968 31.5704 16.7391 31.5579 16.7731 31.5769C17.2828 31.8611 17.881 32.063 18.5503 32.1765C18.5884 32.183 18.614 32.2188 18.6075 32.2569C18.6019 32.2909 18.5721 32.3151 18.5386 32.3151Z" fill="#231F20"/>
<path id="Vector_111" d="M19.9935 32.4304C19.5814 32.4304 19.1856 32.4058 18.8172 32.3579C18.7791 32.3528 18.7521 32.3179 18.7572 32.2797C18.7623 32.2416 18.7977 32.2146 18.8354 32.2197C19.1972 32.2672 19.587 32.2914 19.993 32.2914C20.6033 32.2914 21.1698 32.2323 21.6772 32.1165C21.7154 32.1076 21.7521 32.1314 21.7609 32.169C21.7698 32.2067 21.7461 32.2439 21.7084 32.2528C21.1907 32.3714 20.614 32.4314 19.993 32.4314L19.9935 32.4304Z" fill="#231F20"/>
<path id="Vector_112" d="M17.1401 29.8602C17.1233 29.8602 17.1061 29.8541 17.0931 29.842C17.0224 29.7774 16.9526 29.7067 16.8852 29.6318C16.8596 29.603 16.8619 29.5592 16.8903 29.5332C16.9192 29.5076 16.9629 29.5095 16.9889 29.5383C17.0536 29.6099 17.1201 29.6774 17.1875 29.7392C17.2159 29.7653 17.2178 29.8095 17.1917 29.8378C17.1778 29.8527 17.1592 29.8606 17.1401 29.8606V29.8602Z" fill="#231F20"/>
<path id="Vector_113" d="M19.2722 30.7746C19.2694 30.7746 19.2667 30.7746 19.2639 30.7741C19.1643 30.762 19.0662 30.7472 18.9722 30.7304C18.9341 30.7234 18.909 30.6872 18.916 30.6495C18.9229 30.6113 18.9592 30.5867 18.9969 30.5932C19.0885 30.6095 19.1839 30.6239 19.2811 30.636C19.3192 30.6406 19.3467 30.6755 19.342 30.7137C19.3378 30.749 19.3076 30.7751 19.2727 30.7751L19.2722 30.7746Z" fill="#231F20"/>
<path id="Vector_114" d="M18.8265 32.3583C18.8237 32.3583 18.8205 32.3583 18.8177 32.3579C18.7186 32.3453 18.6205 32.3304 18.5265 32.3141C18.4884 32.3076 18.4633 32.2713 18.4698 32.2337C18.4763 32.1955 18.5126 32.17 18.5502 32.1769C18.6423 32.1927 18.7381 32.2072 18.8349 32.2197C18.873 32.2248 18.9 32.2597 18.8954 32.2979C18.8907 32.3332 18.8609 32.3588 18.8261 32.3588L18.8265 32.3583Z" fill="#231F20"/>
<path id="Vector_115" d="M21.2341 30.681C21.2025 30.681 21.1741 30.6596 21.1662 30.6275C21.1573 30.5899 21.1806 30.5527 21.2178 30.5434C21.3094 30.5215 21.4015 30.4959 21.4908 30.4675C21.528 30.4559 21.5666 30.4759 21.5787 30.5127C21.5904 30.5494 21.5704 30.5885 21.5336 30.6006C21.4411 30.6303 21.3457 30.6568 21.2504 30.6792C21.2448 30.6806 21.2397 30.681 21.2341 30.681Z" fill="#231F20"/>
<path id="Vector_116" d="M21.6931 32.2537C21.6611 32.2537 21.6327 32.2318 21.6252 32.1993C21.6169 32.1616 21.6401 32.1244 21.6778 32.116C21.7713 32.0946 21.862 32.0718 21.955 32.0458C21.9922 32.0355 22.0308 32.0569 22.0411 32.0941C22.0513 32.1313 22.0299 32.17 21.9927 32.1802C21.8973 32.2067 21.8048 32.2304 21.709 32.2523C21.7038 32.2537 21.6987 32.2541 21.6936 32.2541L21.6931 32.2537Z" fill="#231F20"/>
<path id="Vector_117" d="M23.1076 29.4694C23.0936 29.4694 23.0797 29.4652 23.0676 29.4568C23.0359 29.4345 23.0285 29.3912 23.0504 29.3596C23.1066 29.2792 23.1583 29.1978 23.2034 29.1178C23.2224 29.0843 23.2648 29.0726 23.2983 29.0912C23.3317 29.1103 23.3438 29.1526 23.3248 29.1861C23.2773 29.2699 23.2234 29.3554 23.1643 29.4396C23.1508 29.4592 23.129 29.4694 23.1071 29.4694H23.1076Z" fill="#231F20"/>
<path id="Vector_118" d="M21.5355 41.2086C21.5155 41.2086 21.4955 41.2002 21.482 41.1835C21.4429 41.1369 21.4048 41.0895 21.3667 41.0421C21.2467 40.8937 21.1225 40.7402 20.9811 40.6118C20.8532 40.496 20.7057 40.3951 20.5625 40.2974C20.3499 40.1523 20.1304 40.0025 19.9629 39.7965C19.4839 39.2072 19.5792 38.2132 20.1722 37.6262C20.6536 37.1495 21.1397 37.083 21.5932 37.0825C21.6318 37.0825 21.6629 37.1137 21.6629 37.1523C21.6629 37.1909 21.6318 37.2221 21.5932 37.2221C21.1039 37.2225 20.6913 37.3086 20.2704 37.7253C19.7267 38.2639 19.6355 39.1718 20.0713 39.7081C20.2262 39.8983 20.4276 40.036 20.6411 40.1821C20.7881 40.2825 20.9397 40.3862 21.0746 40.5086C21.2239 40.6439 21.3513 40.8016 21.475 40.9542C21.5127 41.0011 21.5509 41.0476 21.5895 41.0937C21.6141 41.1235 21.6099 41.1672 21.5806 41.1918C21.5676 41.2025 21.5518 41.2081 21.536 41.2081L21.5355 41.2086Z" fill="#231F20"/>
<path id="Vector_119" d="M18.1625 37.5043C18.1416 37.5043 18.1207 37.495 18.1072 37.4769C18.0839 37.4462 18.0895 37.4025 18.1202 37.3792C18.2174 37.3048 18.2969 37.2318 18.3635 37.1546C18.6146 36.8643 18.7379 36.4709 18.8467 36.1234C18.9807 35.6955 19.1169 35.0909 18.7546 34.7792C18.6048 34.6504 18.4002 34.6034 18.1858 34.5629C18.1718 34.5602 18.1579 34.5578 18.1444 34.5555L18.1081 34.549C18.07 34.542 18.0453 34.5057 18.0518 34.4676C18.0588 34.4295 18.0955 34.4048 18.1332 34.4113L18.1676 34.4174C18.1821 34.4197 18.1969 34.4225 18.2114 34.4253C18.436 34.4676 18.67 34.5216 18.8453 34.6732C19.27 35.0388 19.1253 35.6997 18.9797 36.1648C18.8667 36.5253 18.7388 36.9332 18.469 37.2453C18.396 37.3295 18.31 37.4095 18.2048 37.4895C18.1923 37.4992 18.1774 37.5039 18.1625 37.5039V37.5043Z" fill="#231F20"/>
<path id="Vector_120" d="M16.3903 19.1261C16.3499 19.1261 16.3085 19.1215 16.2671 19.1126C16.2294 19.1043 16.2057 19.0671 16.214 19.0294C16.2224 18.9917 16.2592 18.968 16.2973 18.9764C16.3285 18.9833 16.3596 18.9866 16.3903 18.9866C16.6275 18.9866 16.8206 18.7936 16.8206 18.5564C16.8206 18.3192 16.6275 18.1261 16.3903 18.1261C16.1531 18.1261 15.9601 18.3192 15.9601 18.5564C15.9601 18.6247 15.9759 18.6903 16.0075 18.7522C16.0252 18.7866 16.0117 18.8285 15.9773 18.8461C15.9429 18.8638 15.901 18.8503 15.8833 18.8159C15.8415 18.7345 15.8206 18.6475 15.8206 18.5568C15.8206 18.2424 16.0764 17.9871 16.3903 17.9871C16.7043 17.9871 16.9601 18.2429 16.9601 18.5568C16.9601 18.8708 16.7043 19.1266 16.3903 19.1266V19.1261Z" fill="#231F20"/>
<path id="Vector_121" d="M16.2821 19.1145C16.277 19.1145 16.2723 19.1141 16.2672 19.1127C16.1007 19.0759 15.9607 18.9676 15.883 18.8155C15.8653 18.781 15.8788 18.7392 15.9132 18.7215C15.9477 18.7038 15.9895 18.7173 16.0072 18.7517C16.0663 18.8666 16.1719 18.9485 16.2974 18.9764C16.3351 18.9848 16.3588 19.022 16.3505 19.0597C16.3435 19.0922 16.3146 19.1145 16.2825 19.1145H16.2821Z" fill="#231F20"/>
<path id="Vector_122" d="M11.5196 36.5467C11.4685 36.5467 11.4173 36.5448 11.3657 36.5416C10.775 36.5011 10.2359 36.2327 9.84707 35.7862C9.45824 35.3397 9.26661 34.7685 9.30707 34.1783C9.34754 33.5876 9.61591 33.0485 10.0624 32.6597C10.5089 32.2709 11.0796 32.0792 11.6703 32.1197C12.8894 32.2039 13.8131 33.2639 13.7289 34.4829C13.6485 35.6504 12.6727 36.5471 11.5196 36.5471V36.5467ZM11.3754 36.402C12.5168 36.4806 13.5113 35.6155 13.5899 34.4727C13.6685 33.3304 12.8034 32.3369 11.6606 32.2583C11.1071 32.2202 10.5722 32.3997 10.1536 32.7643C9.73545 33.1285 9.48382 33.6341 9.44568 34.1876C9.40754 34.7411 9.58707 35.276 9.95172 35.6946C10.3159 36.1127 10.8215 36.3643 11.375 36.4025L11.3754 36.402Z" fill="#231F20"/>
</g>
</g>
</g>
<defs>
<clipPath id="clip0_316_3111">
<rect y="0.705688" width="40" height="40" rx="20" fill="white"/>
</clipPath>
</defs>
</svg>
