<svg width="65" height="65" viewBox="0 0 65 65" fill="none" xmlns="http://www.w3.org/2000/svg">
<g clip-path="url(#clip0_525_30441)">
<rect x="0.124023" y="0.25" width="64" height="64" rx="12" fill="#E0E0E0"/>
<g clip-path="url(#clip1_525_30441)">
<rect width="64" height="64" transform="translate(0.124023 0.25)" fill="#DEDAF9"/>
<path d="M27.1484 28.8112C27.1484 29.2533 26.7897 29.612 26.3476 29.612C26.2888 29.612 26.2308 29.6045 26.175 29.5926C25.9391 29.5405 25.7433 29.385 25.6354 29.1751C25.5796 29.0657 25.5476 28.9422 25.5476 28.8112C25.5476 28.3692 25.9063 28.0112 26.3476 28.0112C26.7889 28.0112 27.1484 28.3692 27.1484 28.8112Z" fill="#FFAC00"/>
<path d="M37.7151 44.9668L37.6213 46.0087L37.3467 45.7646C37.497 45.5004 37.6176 45.231 37.7151 44.9668Z" fill="#DD920B"/>
<path d="M44.3464 16.3117C44.3464 15.8034 44.0748 15.4217 43.8545 15.1947C43.7034 15.0399 43.5762 14.9573 43.5762 14.9573C43.5762 14.9573 43.7213 14.2682 43.7213 13.2836C43.7213 11.8883 43.4296 9.90055 42.0171 8.44418C41.9479 8.37273 41.8757 8.30278 41.8006 8.23357C40.0934 6.66483 38.2047 6.02111 36.749 6.80027H36.7483C36.1507 7.12027 35.6261 7.6799 35.2168 8.51413H35.216C35.2086 8.50297 35.1215 8.3839 34.9727 8.22911C34.966 8.22241 34.9585 8.21497 34.9511 8.20753C34.9436 8.19934 34.9362 8.1919 34.9288 8.18446C34.3743 7.62929 33.1047 6.73701 31.8828 8.56994H31.8821C31.8821 8.56994 31.8806 8.56771 31.8798 8.56622C31.8783 8.56548 31.8776 8.56399 31.8754 8.56176C31.8739 8.56027 31.8724 8.55804 31.8701 8.5558C31.8679 8.55357 31.8657 8.55134 31.8627 8.54836C31.8605 8.54539 31.8575 8.54241 31.8545 8.53943C31.6707 8.34892 30.5909 7.33162 28.493 7.28101C25.6078 7.21106 24.3427 8.7292 24.3427 10.3605C24.3427 11.2818 24.7461 12.2388 25.488 12.9666C25.5126 12.9904 25.5379 13.015 25.5632 13.038C25.5877 13.0619 25.613 13.0849 25.6391 13.108C25.5624 13.0909 23.0999 12.532 21.9933 13.7227C21.6584 14.0829 21.2893 14.8881 21.2893 15.7022C21.2893 16.2172 21.4367 16.7359 21.8341 17.1474C22.0729 17.3945 22.4011 17.6029 22.8409 17.7495C22.3795 17.9043 22.0275 18.2168 22.0275 18.8092C22.0275 18.8925 22.0342 18.9811 22.0491 19.0756C22.0968 19.3859 22.2136 19.6137 22.3758 19.7766C23.2316 20.6362 25.3548 19.7059 25.3548 19.7059C25.4553 21.2434 25.5676 23.057 25.5781 23.2349C25.7619 23.1947 25.9524 23.1731 26.1466 23.1731C26.7732 23.1731 27.3522 23.4715 27.8195 23.8563C28.086 23.921 28.3479 24.0036 28.6069 24.1167C28.7252 24.1681 28.845 24.2261 28.9336 24.3206C28.9738 24.3631 29.0534 24.4271 29.0534 24.3363V24.3258L28.9686 22.7839C28.9656 22.7303 28.9641 22.6767 28.9641 22.6232C28.9641 22.0687 29.1219 21.5232 29.4195 21.0529L29.6793 20.6436C29.7931 20.4643 29.8504 20.2596 29.8504 20.055C29.8504 19.8674 29.8021 19.6792 29.7053 19.5102L29.3734 18.9283C29.2737 18.7541 29.2275 18.5666 29.2275 18.3835C29.2275 17.911 29.5341 17.4622 30.0313 17.3231C32.8934 16.5238 39.5732 15.0525 42.5239 17.7309L43.5948 20.6131L43.597 20.6183C43.597 20.6183 43.949 19.6524 43.949 18.5941C43.949 18.2555 43.9126 17.9065 43.8173 17.5768C44.2088 17.0983 44.3464 16.6734 44.3464 16.3117ZM44.3464 16.3117C44.3464 15.8034 44.0748 15.4217 43.8545 15.1947C43.7034 15.0399 43.5762 14.9573 43.5762 14.9573C43.5762 14.9573 43.7213 14.2682 43.7213 13.2836C43.7213 11.8883 43.4296 9.90055 42.0171 8.44418C41.9479 8.37273 41.8757 8.30278 41.8006 8.23357C40.0934 6.66483 38.2047 6.02111 36.749 6.80027H36.7483C36.1507 7.12027 35.6261 7.6799 35.2168 8.51413H35.216C35.2086 8.50297 35.1215 8.3839 34.9727 8.22911C34.966 8.22241 34.9585 8.21497 34.9511 8.20753C34.9436 8.19934 34.9362 8.1919 34.9288 8.18446C34.3743 7.62929 33.1047 6.73701 31.8828 8.56994H31.8821C31.8821 8.56994 31.8806 8.56771 31.8798 8.56622C31.8783 8.56548 31.8776 8.56399 31.8754 8.56176C31.8739 8.56027 31.8724 8.55804 31.8701 8.5558C31.8679 8.55357 31.8657 8.55134 31.8627 8.54836C31.8605 8.54539 31.8575 8.54241 31.8545 8.53943C31.6707 8.34892 30.5909 7.33162 28.493 7.28101C25.6078 7.21106 24.3427 8.7292 24.3427 10.3605C24.3427 11.2818 24.7461 12.2388 25.488 12.9666C25.5126 12.9904 25.5379 13.015 25.5632 13.038C25.5877 13.0619 25.613 13.0849 25.6391 13.108C25.5624 13.0909 23.0999 12.532 21.9933 13.7227C21.6584 14.0829 21.2893 14.8881 21.2893 15.7022C21.2893 16.2172 21.4367 16.7359 21.8341 17.1474C22.0729 17.3945 22.4011 17.6029 22.8409 17.7495C22.3795 17.9043 22.0275 18.2168 22.0275 18.8092C22.0275 18.8925 22.0342 18.9811 22.0491 19.0756C22.0968 19.3859 22.2136 19.6137 22.3758 19.7766C23.2316 20.6362 25.3548 19.7059 25.3548 19.7059C25.4553 21.2434 25.5676 23.057 25.5781 23.2349C25.7619 23.1947 25.9524 23.1731 26.1466 23.1731C26.7732 23.1731 27.3522 23.4715 27.8195 23.8563C28.086 23.921 28.3479 24.0036 28.6069 24.1167C28.7252 24.1681 28.845 24.2261 28.9336 24.3206C28.9738 24.3631 29.0534 24.4271 29.0534 24.3363V24.3258L28.9686 22.7839C28.9656 22.7303 28.9641 22.6767 28.9641 22.6232C28.9641 22.0687 29.1219 21.5232 29.4195 21.0529L29.6793 20.6436C29.7931 20.4643 29.8504 20.2596 29.8504 20.055C29.8504 19.8674 29.8021 19.6792 29.7053 19.5102L29.3734 18.9283C29.2737 18.7541 29.2275 18.5666 29.2275 18.3835C29.2275 17.911 29.5341 17.4622 30.0313 17.3231C32.8934 16.5238 39.5732 15.0525 42.5239 17.7309L43.5948 20.6131L43.597 20.6183C43.597 20.6183 43.949 19.6524 43.949 18.5941C43.949 18.2555 43.9126 17.9065 43.8173 17.5768C44.2088 17.0983 44.3464 16.6734 44.3464 16.3117Z" fill="#541B0A"/>
<path d="M30.3848 56.9525C30.1973 57.5508 30.0001 58.1677 29.5893 58.6418C29.468 58.7824 29.3303 58.9045 29.1837 59.0169L29.1465 56.4427L29.116 54.2905C29.1576 54.298 29.1993 54.3047 29.241 54.3121C29.3563 54.3344 29.4732 54.3575 29.5878 54.388C29.8125 54.4476 30.0283 54.5331 30.2032 54.6835C30.8142 55.2096 30.6259 56.183 30.3848 56.9525Z" fill="#009F62"/>
<path d="M34.6721 58.5645L34.5806 64.9429C34.3171 64.6273 34.0715 64.2932 33.7679 64.0179C33.2552 63.5527 32.5869 63.2618 32.1508 62.7245C31.3806 61.7779 31.6098 60.2612 32.4767 59.4024C33.1934 58.6932 33.9056 58.5659 34.6721 58.5645Z" fill="#009F62"/>
<path d="M12.636 73.7919H-2.45093L-2.44423 61.2106L5.35037 49.7695L7.13865 47.144L7.79949 48.1584L10.4034 52.1569C11.4073 53.6445 11.9729 55.3837 12.0376 57.1772L12.636 73.7919Z" fill="#FF6060"/>
<path d="M29.1837 59.0171L29.116 54.2907L29.0907 52.5233C29.0765 52.2368 28.8644 51.9994 28.5816 51.9533L28.2974 51.9064L26.6728 51.6407L25.7232 51.4852C25.4129 51.4346 25.1123 51.3505 24.8272 51.2351C23.5256 50.7149 22.5418 49.5741 22.2427 48.1631L21.9123 45.7646L21.5312 43.0029L10.9824 44.4958C9.52304 44.7272 8.22444 45.5503 7.39244 46.7715L7.13867 47.1443L7.79951 48.1587L10.4034 52.1572C11.4073 53.6448 11.9729 55.384 12.0376 57.1774L12.636 73.7921H29.395L29.1837 59.0171ZM21.9792 54.2855C21.849 56.178 20.2088 57.6061 18.3171 57.4759C16.4246 57.3456 14.9965 55.7062 15.1268 53.8137C15.257 51.9213 16.8964 50.4932 18.7889 50.6234C20.6814 50.7536 22.1095 52.3938 21.9792 54.2855Z" fill="#735FFF"/>
<path d="M40.5348 42.0449L39.9194 48.8862C39.8539 49.614 39.6127 50.315 39.2183 50.9297L39.0219 51.2349C38.7361 51.3502 38.4362 51.4343 38.1259 51.4849L37.1755 51.6404L37.9562 50.4274C38.3514 49.8135 38.5925 49.1124 38.658 48.3854L39.2875 41.3818L40.5348 42.0449Z" fill="white"/>
<path d="M37.6212 46.0083L37.5691 46.582L37.0958 46.1601C37.1874 46.0298 37.2715 45.8974 37.3466 45.7642L37.6212 46.0083Z" fill="#FFAC00"/>
<path d="M37.5692 46.5821L37.4129 48.3205C37.3653 48.8511 37.1897 49.3631 36.9009 49.8104L36.8578 49.8766C36.3919 50.1237 35.8695 50.3358 35.2816 50.501L34.5433 47.9752C35.7623 47.589 36.5668 46.9118 37.0959 46.1602L37.5692 46.5821Z" fill="#DD920B"/>
<path d="M36.8577 49.8767L35.5517 51.9061L35.2674 51.9529C34.9846 51.9991 34.7725 52.2365 34.7584 52.523L34.6721 58.5643C33.9056 58.5658 33.1934 58.693 32.4767 59.4022C31.6097 60.261 31.3805 61.7777 32.1508 62.7243C32.5869 63.2616 33.2551 63.5526 33.7679 64.0177C34.0715 64.293 34.3171 64.6272 34.5805 64.9427L34.454 73.7918H29.3951L29.1837 59.0167C29.3303 58.9044 29.468 58.7823 29.5893 58.6417C30.0001 58.1676 30.1973 57.5507 30.3848 56.9524C30.6259 56.1829 30.8142 55.2095 30.2032 54.6834C30.0284 54.533 29.8125 54.4474 29.5878 54.3879C29.4732 54.3574 29.3564 54.3343 29.241 54.312C29.1993 54.3046 29.1577 54.2979 29.116 54.2904L29.0907 52.523C29.0765 52.2365 28.8644 51.9991 28.5817 51.9529L28.2974 51.9061L26.9482 49.8104C26.9333 49.7881 26.9206 49.7643 26.9065 49.7412C27.4177 50.0262 28.0004 50.2703 28.6657 50.4601C29.0155 50.5606 29.3884 50.6454 29.7857 50.7131C29.9353 50.7392 30.0894 50.7622 30.2464 50.7823C30.8202 50.8575 31.4416 50.8977 32.1136 50.8977C33.1383 50.8977 34.0395 50.7965 34.8328 50.6149C34.9869 50.5799 35.1357 50.542 35.2816 50.501C35.8695 50.3358 36.3919 50.1237 36.8577 49.8767Z" fill="#FFAC00"/>
<path d="M27.2228 46.4564L26.3402 47.2587L26.0953 44.5327C26.3186 45.1623 26.6698 45.8455 27.2228 46.4564Z" fill="#DD920B"/>
<path d="M27.5479 46.7855L26.3922 47.8363L26.3401 47.2588L27.2227 46.4565C27.3239 46.5689 27.4318 46.6791 27.5479 46.7855Z" fill="#FFAC00"/>
<path d="M30.4986 48.179L29.7857 50.713C28.6344 50.5172 27.6871 50.1757 26.9064 49.7411C26.643 49.3102 26.4808 48.8242 26.4361 48.3204L26.3922 47.8359L27.5479 46.7852C28.2393 47.4222 29.1904 47.9431 30.4986 48.179Z" fill="#DD920B"/>
<g style="mix-blend-mode:multiply" opacity="0.6">
<path d="M29.6288 54.1968L29.5878 54.3881L29.1465 56.4428L29.116 54.2906L29.0907 52.5232C29.0766 52.2366 28.8645 51.9992 28.5817 51.9531L28.2974 51.9062L26.6728 51.6406L25.7233 51.485C25.4129 51.4344 25.1123 51.3503 24.8273 51.235C24.4753 51.0943 24.1463 50.9083 23.8479 50.6835L22.4258 46.8353L23.6969 46.2995L24.956 45.7689L26.1609 45.2606L26.9891 44.9116C26.9891 44.9116 27.4475 48.0112 28.6658 50.4603C28.8109 50.752 28.9672 51.034 29.1346 51.3012C29.6734 52.1622 29.8423 53.2041 29.6288 54.1968Z" fill="#AF750E"/>
</g>
<path d="M30.9593 48.2484L30.2464 50.7824C30.0894 50.7623 29.9353 50.7392 29.7858 50.7132L30.4987 48.1792C30.6475 48.206 30.8008 48.2291 30.9593 48.2484Z" fill="#FFAC00"/>
<path d="M34.8328 50.6147C34.0395 50.7963 33.1382 50.8975 32.1135 50.8975C31.4415 50.8975 30.8201 50.8573 30.2463 50.7822L30.9593 48.2482C31.3187 48.2921 31.7027 48.3152 32.1135 48.3152C32.8651 48.3152 33.523 48.2371 34.0982 48.0986L34.8328 50.6147Z" fill="#DD920B"/>
<path d="M24.8272 51.2349C24.4752 51.0942 24.1462 50.9082 23.8478 50.6834C23.0433 50.0777 22.4606 49.1921 22.2426 48.1629L21.5312 43.0027L21.5297 42.9923L23.3142 42.0449L23.6967 46.2994L23.9297 48.8862C23.9952 49.614 24.2363 50.3151 24.6307 50.9298L24.8272 51.2349Z" fill="#735FFF"/>
<path d="M26.6728 51.6404L25.7233 51.4849C25.4129 51.4343 25.1123 51.3502 24.8273 51.2349L24.6308 50.9297C24.2364 50.315 23.9953 49.614 23.9298 48.8862L23.6968 46.2994L23.3143 42.0449L24.5616 41.3818L24.956 45.7688L25.1912 48.3854C25.2567 49.1124 25.497 49.8135 25.8929 50.4274L26.6728 51.6404Z" fill="white"/>
<path d="M28.2973 51.9061L26.6728 51.6404L25.8929 50.4274C25.497 49.8135 25.2566 49.1124 25.1911 48.3854L24.9559 45.7688L24.5615 41.3818L25.7545 40.7485L25.7626 40.8408L26.0953 44.5327L26.1608 45.2605L26.3401 47.2587L26.3922 47.8362L26.4361 48.3206C26.4808 48.8244 26.643 49.3104 26.9065 49.7413C26.9206 49.7643 26.9332 49.7882 26.9481 49.8105L28.2973 51.9061Z" fill="#735FFF"/>
<path d="M56.8034 47.15L56.2884 47.9404L53.5424 52.1569C52.5384 53.6446 51.9729 55.3837 51.9081 57.1772L51.3098 73.7919H34.454L34.5805 64.9428L34.672 58.5644L34.7583 52.5231C34.7725 52.2366 34.9846 51.9992 35.2674 51.953L35.5517 51.9061L37.1755 51.6405L38.1258 51.4849C38.4361 51.4343 38.736 51.3502 39.0218 51.2349C40.3234 50.7147 41.3072 49.5739 41.6064 48.1629L42.1109 44.497L42.317 43.002L52.941 44.5164C54.3237 44.7352 55.5658 45.4868 56.4015 46.6098L56.8034 47.15Z" fill="#735FFF"/>
<path d="M70.2575 65.2314V73.7918H51.3098L51.9081 57.1771C51.9729 55.3836 52.5385 53.6444 53.5424 52.1568L56.2884 47.9402L56.8034 47.1499L58.8038 49.8379L70.2575 65.2314Z" fill="#FF6060"/>
<path d="M39.2875 41.3818L38.6579 48.3854C38.5924 49.1124 38.3513 49.8135 37.9561 50.4274L37.1755 51.6404L35.5516 51.9061L36.8577 49.8767L36.9008 49.8105C37.1896 49.3632 37.3652 48.8512 37.4128 48.3206L37.5691 46.5822L37.6212 46.0084L37.715 44.9666L38.0878 40.8177L38.0945 40.7485L39.2875 41.3818Z" fill="#735FFF"/>
<path d="M35.2815 50.5009C35.1357 50.5418 34.9868 50.5798 34.8328 50.6147L34.0983 48.0986C34.2523 48.0622 34.4012 48.0205 34.5433 47.9751L35.2815 50.5009Z" fill="#FFAC00"/>
<path d="M42.3186 42.9923L42.3171 43.0019L41.6064 48.1629C41.3072 49.5739 40.3234 50.7147 39.0219 51.2349L39.2183 50.9298C39.6127 50.3151 39.8539 49.614 39.9193 48.8862L40.5348 42.0449L42.3186 42.9923Z" fill="#735FFF"/>
<path d="M18.7889 50.623C16.8965 50.4928 15.257 51.9209 15.1268 53.8133C14.9965 55.7058 16.4246 57.3452 18.3171 57.4755C20.2088 57.6057 21.849 56.1776 21.9792 54.2851C22.1095 52.3934 20.6814 50.7532 18.7889 50.623ZM16.1418 54.0262C16.0637 54.0202 16.0042 53.9525 16.0101 53.8743C16.0153 53.7955 16.0831 53.7367 16.1619 53.7419C16.2401 53.7471 16.2996 53.8148 16.2937 53.8937C16.2884 53.9718 16.2207 54.0314 16.1418 54.0262ZM18.8224 56.2528C18.806 56.4842 18.6058 56.6591 18.3744 56.6435C18.143 56.6271 17.9681 56.4269 17.9844 56.1955C18.0001 55.964 18.201 55.7891 18.4317 55.8055C18.6631 55.8211 18.838 56.0221 18.8224 56.2528ZM20.9441 54.3566C20.8659 54.3514 20.8064 54.2836 20.8124 54.2048C20.8176 54.1266 20.8853 54.0671 20.9642 54.0723C21.0423 54.0782 21.1018 54.146 21.0959 54.2248C21.0907 54.303 21.023 54.3625 20.9441 54.3566Z" fill="#DAD7FF"/>
<path d="M16.2936 53.8938C16.2884 53.972 16.2207 54.0315 16.1418 54.0263C16.0636 54.0203 16.0041 53.9526 16.0101 53.8745C16.0153 53.7956 16.083 53.7368 16.1619 53.742C16.24 53.7472 16.2995 53.815 16.2936 53.8938Z" fill="white"/>
<path d="M19.033 54.2295C19.0374 54.2399 19.0419 54.2496 19.0464 54.26H19.0456C19.0411 54.2503 19.0367 54.2399 19.033 54.2295Z" fill="#FFAC00"/>
<path d="M20.5281 52.9698L19.3783 53.9714C19.2935 53.6805 19.1432 53.4282 18.905 53.225L19.9543 52.3112C20.0674 52.2129 20.2386 52.2248 20.3376 52.3379L20.5541 52.5865C20.6531 52.6996 20.6412 52.8715 20.5281 52.9698Z" fill="#FFAC00"/>
<path d="M18.5209 54.566C18.3632 54.6188 18.2166 54.7007 18.0908 54.8101L16.9671 55.7894C16.874 55.8705 16.7327 55.8609 16.6508 55.7671C16.5697 55.6741 16.5793 55.5327 16.6731 55.4515L17.802 54.4677C17.8936 54.3881 17.9725 54.2951 18.0372 54.1924L18.0767 54.2378C18.1875 54.3658 18.3237 54.4692 18.4763 54.5429L18.5016 54.5555C18.5083 54.5585 18.5142 54.563 18.5209 54.566Z" fill="#FFAC00"/>
<path d="M20.2014 56.0117C20.1076 56.0928 19.9662 56.0831 19.8851 55.9901L18.9013 54.8604C18.7949 54.7384 18.6654 54.6386 18.521 54.5657C18.5143 54.5627 18.5083 54.5583 18.5016 54.5553L18.4763 54.5426C18.3238 54.469 18.1876 54.3655 18.0767 54.2375L18.0373 54.1921L16.7446 52.709C16.6464 52.5958 16.6583 52.4239 16.7714 52.3257L17.02 52.1091C17.1331 52.0102 17.305 52.0221 17.4032 52.1352L18.591 53.4985L18.7405 53.6697C18.8544 53.8007 18.9407 53.9547 18.9921 54.1207C19.0069 54.1683 19.0256 54.2152 19.0456 54.2606C19.0963 54.373 19.1625 54.4786 19.2443 54.5717L20.2229 55.6961C20.3041 55.7891 20.2944 55.9305 20.2014 56.0117Z" fill="#FFAC00"/>
<path d="M18.8224 56.253C18.806 56.4844 18.6059 56.6593 18.3744 56.6437C18.143 56.6273 17.9681 56.4271 17.9845 56.1957C18.0001 55.9643 18.201 55.7894 18.4317 55.8057C18.6632 55.8214 18.838 56.0223 18.8224 56.253Z" fill="#A39CFF"/>
<path d="M21.0958 54.2251C21.0906 54.3033 21.0229 54.3628 20.944 54.3569C20.8659 54.3516 20.8063 54.2839 20.8123 54.205C20.8175 54.1269 20.8852 54.0674 20.9641 54.0726C21.0423 54.0785 21.1018 54.1463 21.0958 54.2251Z" fill="white"/>
<path d="M41.2262 34.7429C40.8422 34.9781 40.415 35.1634 39.9387 35.2884C39.6693 35.3599 39.385 35.412 39.0844 35.444C38.7428 35.4797 38.4102 35.502 38.0879 35.5109V40.8177L37.7151 44.9666C37.6176 45.2307 37.497 45.5001 37.3467 45.7643C37.2716 45.8975 37.1875 46.03 37.0959 46.1602C36.5668 46.9119 35.7623 47.5891 34.5434 47.9753C34.4012 48.0207 34.2524 48.0624 34.0983 48.0988C33.5231 48.2373 32.8652 48.3154 32.1136 48.3154C31.7028 48.3154 31.3188 48.2923 30.9594 48.2484C30.8009 48.2291 30.6475 48.206 30.4987 48.1792C29.1904 47.9433 28.2394 47.4224 27.548 46.7853C27.4319 46.6789 27.324 46.5688 27.2228 46.4564C26.6699 45.8454 26.3186 45.1623 26.0954 44.5327L25.7627 40.8408L26.175 29.5924C26.2308 29.6043 26.2889 29.6118 26.3476 29.6118C26.7897 29.6118 27.1484 29.2531 27.1484 28.811C27.1484 28.369 26.7897 28.011 26.3476 28.011C25.9056 28.011 25.5476 28.369 25.5476 28.811C25.5476 28.942 25.5796 29.0655 25.6355 29.1749C24.3235 28.9167 23.3292 27.6828 23.3292 26.1989C23.3292 26.0888 23.3344 25.9801 23.3456 25.8737C23.3746 25.5857 23.4409 25.3096 23.5391 25.0521C23.7184 24.5818 24.0049 24.1718 24.3651 23.8555C24.6755 23.5831 25.0401 23.3807 25.4397 23.2698C25.4539 23.2661 25.4673 23.2624 25.4814 23.2587C25.5134 23.2497 25.5454 23.2423 25.5782 23.2348C25.762 23.1947 25.9525 23.1731 26.1467 23.1731C26.1623 23.1731 26.1824 23.1731 26.2033 23.1746C26.3491 23.179 26.492 23.1984 26.6312 23.2319C26.8649 23.2877 27.0889 23.3807 27.2987 23.4983C27.484 23.601 27.6589 23.723 27.8196 23.8562C28.0861 23.921 28.348 24.0036 28.607 24.1167C28.7253 24.168 28.8451 24.2261 28.9337 24.3206C28.9754 24.3645 29.0595 24.4315 29.0535 24.3258C29.0535 24.3251 28.9687 22.7839 28.9687 22.7839C28.9352 22.1744 29.0929 21.5686 29.4196 21.0529L29.6794 20.6436C29.692 20.6242 29.7032 20.6041 29.7143 20.584C29.8982 20.2507 29.8967 19.8436 29.7054 19.5102L29.3735 18.9282C29.0178 18.3061 29.3415 17.5158 30.0314 17.323C31.2942 16.9703 33.2983 16.4873 35.3984 16.2871H35.3999C37.538 16.0832 39.7742 16.1725 41.4263 16.9919H41.4271C41.5246 17.041 41.6191 17.0916 41.7121 17.1452C42.0061 17.3134 42.2784 17.5076 42.524 17.7308L43.5949 20.6131C43.6262 20.7433 43.6559 20.8743 43.6827 21.0053C44.4507 24.7039 45.1376 32.3444 41.2262 34.7429Z" fill="#C16D53"/>
<path d="M35.1251 23.5503C35.3288 23.5354 35.4702 23.1977 35.4408 22.796C35.4115 22.3943 35.2225 22.0807 35.0188 22.0956C34.8151 22.1105 34.6737 22.4482 34.7031 22.8499C34.7324 23.2516 34.9214 23.5652 35.1251 23.5503Z" fill="#231F20"/>
<path d="M41.6219 23.2671C41.8256 23.2522 41.967 22.9145 41.9376 22.5128C41.9083 22.1111 41.7193 21.7975 41.5156 21.8124C41.3119 21.8273 41.1705 22.165 41.1999 22.5667C41.2292 22.9684 41.4182 23.282 41.6219 23.2671Z" fill="#231F20"/>
<g style="mix-blend-mode:screen">
<path d="M41.226 34.7428C40.842 34.9779 40.4149 35.1632 39.9386 35.2883C42.256 34.4161 43.1914 30.463 43.184 26.7539C43.1766 22.9035 42.0335 18.7748 41.4262 16.9917C41.7202 17.1599 42.2783 17.5074 42.5239 17.7307L43.5948 20.6129C43.626 20.7431 43.6558 20.8741 43.6826 21.0051C44.4506 24.7037 45.1375 32.3443 41.226 34.7428Z" fill="#E5765C"/>
</g>
<path d="M38.0878 35.511C38.0878 35.511 32.6843 36.084 29.235 31.0615C29.235 31.0615 30.3438 39.0883 38.0878 40.1599V35.511Z" fill="#843928"/>
<path d="M43.7213 13.2838C43.7213 14.2684 43.5762 14.9575 43.5762 14.9575C43.3663 8.38189 36.7483 6.80123 36.7483 6.80123H36.749C38.2047 6.02133 40.0934 6.66505 41.8006 8.23379C41.8757 8.303 41.9479 8.37295 42.0171 8.4444C43.4296 9.90077 43.7213 11.8885 43.7213 13.2838Z" fill="#872F1B"/>
<path d="M34.6044 12.8355C34.6044 12.8355 37.89 15.0866 40.1054 12.0928C40.1054 12.0928 39.8695 13.9964 38.5776 14.7198C37.5729 15.2831 35.6269 15.1283 34.6044 12.8355Z" fill="#872F1B"/>
<path d="M39.3389 13.4731C39.3389 13.4731 40.1969 14.5254 41.7977 13.8259C41.7977 13.8259 39.6842 15.5301 39.3389 13.4731Z" fill="#872F1B"/>
<path d="M44.828 63.0065V62.1603H45.3154L44.3867 59.8526H43.3404V62.1603H43.9067V63.0065H41.9167V62.1603H42.4942V56.7099H41.9167V55.8638H46.0723L46.5523 56.3534V59.3733L46.073 59.8526H45.2098L46.1385 62.1603H46.818V63.0065H44.828ZM43.3404 59.0065H45.7181V56.7099H43.3404V59.0065Z" fill="#DAD7FF"/>
<g style="mix-blend-mode:soft-light">
<path d="M58.806 49.8767L56.2884 47.9404L55.2004 47.1032C54.4503 46.5264 53.5647 46.1528 52.6285 46.0174L42.111 44.497L42.3171 43.002L52.9411 44.5164C54.3238 44.7352 55.5658 45.4868 56.4016 46.6098L56.8034 47.15L58.8038 49.838L58.806 49.8767Z" fill="white"/>
</g>
<g style="mix-blend-mode:soft-light">
<path d="M21.7946 44.9115L12.1879 45.8946C10.413 46.0762 8.73862 46.8047 7.39611 47.9798L5.35034 49.7703L7.13862 47.1448L7.39239 46.772C8.22439 45.5508 9.52299 44.7277 10.9823 44.4963L21.5312 43.0034L21.7946 44.9123V44.9115Z" fill="white"/>
</g>
<g style="mix-blend-mode:screen">
<path d="M27.3783 23.8436C27.1677 24.0602 26.4205 24.1152 26.2434 24.0914C25.843 24.0364 25.43 23.9292 25.0423 24.0445C24.6508 24.1606 24.3606 24.4821 24.0294 24.7218C23.9945 24.7471 23.958 24.7716 23.9156 24.7783C23.6529 24.8207 23.8151 24.4985 23.8717 24.4137C24.0093 24.2068 24.1783 24.0185 24.3651 23.8548C24.4536 23.8086 24.5414 23.7595 24.6263 23.7007C24.8972 23.5139 25.1293 23.3614 25.4397 23.2691C25.4538 23.2654 25.4672 23.2617 25.4813 23.2579C25.5133 23.249 25.5453 23.2416 25.5781 23.2341C25.7619 23.1939 25.9524 23.1724 26.1467 23.1724C26.2389 23.1724 26.4272 23.1895 26.6311 23.2312C26.8804 23.281 27.152 23.3659 27.2986 23.4976C27.4601 23.6427 27.4631 23.7566 27.3783 23.8436Z" fill="#E5765C"/>
</g>
<path d="M43.6394 57.02V58.7071H45.4068V57.02H43.6394ZM45.2334 58.5337H43.8128V57.1934H45.2334V58.5337Z" fill="white"/>
<path d="M46.4703 61.6765L45.9152 60.3362H46.2739L47.0359 59.5734V56.1539L46.2739 55.3911H41.4441V57.1935H42.0104V61.6765H41.4441V63.4789H47.3016V61.6765H46.4703ZM47.1289 63.3055H44.5287V61.8499H44.8755L44.1827 60.1628H43.6394V61.8499H44.2169V63.3055H41.6175V61.8499H42.1838V57.0201H41.6175V55.5645H46.2046L46.8625 56.2231V59.5042L46.2046 60.1628H45.6614L46.3431 61.8499H47.1289V63.3055ZM43.8128 61.6765V60.3362H44.0666L44.6099 61.6765H43.8128Z" fill="white"/>
<path d="M43.6394 57.02V58.7071H45.4068V57.02H43.6394ZM45.2334 58.5337H43.8128V57.1934H45.2334V58.5337Z" fill="white"/>
<path d="M43.6394 57.02V58.7071H45.4068V57.02H43.6394ZM45.2334 58.5337H43.8128V57.1934H45.2334V58.5337Z" fill="white"/>
<g style="mix-blend-mode:soft-light">
<path d="M25.7627 40.8408L26.0462 43.8525L21.7835 44.9539L21.5312 43.0027L25.7627 40.8408Z" fill="white"/>
</g>
<g style="mix-blend-mode:soft-light">
<path d="M38.0879 40.8179L37.8505 43.6733L42.1109 44.4971L42.3171 43.0021L38.0879 40.8179Z" fill="white"/>
</g>
<path d="M25.6362 29.2866C25.6288 29.2866 25.6221 29.2866 25.6147 29.2844C24.226 29.0112 23.2184 27.7134 23.2184 26.199C23.2184 24.6846 24.2015 23.4239 25.5551 23.1262C25.6154 23.1128 25.6749 23.1508 25.6883 23.2111C25.7017 23.2713 25.6638 23.3309 25.6035 23.3443C24.351 23.6196 23.4424 24.8207 23.4424 26.1997C23.4424 27.5787 24.3741 28.8133 25.6586 29.0663C25.7188 29.0782 25.7583 29.137 25.7464 29.1973C25.736 29.2509 25.6891 29.2873 25.637 29.2873L25.6362 29.2866Z" fill="#231F20"/>
<path d="M27.9521 24.082C27.9253 24.082 27.8993 24.0724 27.8777 24.0538C27.487 23.7032 26.8701 23.2858 26.1467 23.2858C25.9636 23.2858 25.7806 23.3058 25.602 23.3445C25.5417 23.3579 25.4821 23.32 25.4688 23.2597C25.4554 23.1994 25.4933 23.1399 25.5536 23.1265C25.7471 23.0841 25.9465 23.0625 26.146 23.0625C26.9393 23.0625 27.6061 23.5112 28.0258 23.8878C28.0719 23.9287 28.0756 23.9994 28.034 24.0456C28.0116 24.0701 27.9811 24.0828 27.9506 24.0828L27.9521 24.082Z" fill="#231F20"/>
<path d="M25.6407 27.7603C25.6057 27.7603 25.5715 27.7439 25.5492 27.7134C25.5135 27.6628 25.5254 27.5936 25.576 27.5579C25.5827 27.5534 26.2331 27.0861 26.2934 26.6262C26.3105 26.4937 26.2755 26.3776 26.1869 26.2712C25.989 26.0338 25.7122 26.167 25.3579 26.4416C25.3401 26.4558 25.317 26.4744 25.2895 26.4967C25.0193 26.7184 24.7395 26.9276 24.5453 26.8278C24.4418 26.775 24.3957 26.6537 24.4076 26.4669C24.4322 26.0829 24.552 25.7064 24.7529 25.3789C24.9233 25.1021 25.128 24.9011 25.3616 24.7828C25.8535 24.5335 26.4496 24.6422 26.9683 24.7821C27.0279 24.7984 27.0628 24.8595 27.0472 24.919C27.0316 24.9785 26.9706 25.0135 26.9103 24.9979C26.4325 24.8691 25.8863 24.7672 25.4621 24.9823C25.2656 25.082 25.0908 25.2546 24.9427 25.4965C24.7603 25.7934 24.6517 26.1343 24.6301 26.4818C24.6227 26.6031 24.6472 26.6299 24.648 26.6299C24.6785 26.6433 24.7864 26.6217 25.1481 26.3248C25.1771 26.301 25.2024 26.2801 25.2217 26.2652C25.4495 26.0896 25.9823 25.6773 26.3588 26.1291C26.4883 26.2838 26.5404 26.4617 26.5151 26.6567C26.4422 27.2141 25.7352 27.7201 25.7055 27.7417C25.6861 27.7558 25.663 27.7625 25.6407 27.7625V27.7603Z" fill="#231F20"/>
<path d="M39.6024 26.7193C39.5696 26.7193 39.5347 26.7156 39.4982 26.7081C39.1566 26.6367 38.8552 26.464 38.5806 26.2884C38.5285 26.2549 38.5136 26.1864 38.5464 26.1344C38.5791 26.0823 38.6491 26.0674 38.7004 26.1001C38.9572 26.2646 39.237 26.4253 39.5429 26.4893C39.6976 26.5213 39.8197 26.4216 39.9507 26.1552C40.2982 25.4467 39.9946 24.5038 39.6522 23.6756C39.429 23.1353 39.1648 22.6211 38.8679 22.1463C38.8351 22.0942 38.8508 22.025 38.9028 21.9922C38.9549 21.9595 39.0242 21.9751 39.0569 22.0272C39.3605 22.5124 39.6307 23.0378 39.8584 23.59C40.2201 24.4651 40.5371 25.4653 40.1509 26.2534C40.0854 26.3866 39.9224 26.7193 39.6016 26.7193H39.6024Z" fill="#231F20"/>
<path d="M37.1049 29.9451C35.8785 29.9451 34.8902 29.0208 34.5285 28.6323C34.4869 28.5869 34.4891 28.5162 34.5345 28.4746C34.5799 28.4329 34.6506 28.4351 34.6922 28.4805C36.6041 30.5404 38.21 29.535 38.8121 29.0074C38.8582 28.9665 38.9289 28.9717 38.9698 29.0178C39.0108 29.064 39.0056 29.1347 38.9594 29.1756C38.3157 29.7404 37.6839 29.9458 37.1049 29.9458V29.9451Z" fill="#231F20"/>
<path d="M34.6103 28.6684C34.5679 28.6684 34.527 28.6438 34.5083 28.6022C34.483 28.5456 34.5084 28.4801 34.5649 28.4548C34.7309 28.3811 34.8715 28.2703 34.9831 28.1251C35.0203 28.076 35.091 28.0671 35.1394 28.1051C35.1885 28.143 35.1975 28.213 35.1595 28.2613C35.0248 28.4362 34.8559 28.5694 34.6557 28.6587C34.6408 28.6654 34.6252 28.6684 34.6103 28.6684Z" fill="#231F20"/>
<path d="M34.0559 28.7828C33.974 28.7828 33.9227 28.7761 33.9175 28.7754C33.8565 28.7665 33.814 28.7099 33.823 28.6489C33.8319 28.5878 33.8885 28.5454 33.9495 28.5544C33.9525 28.5544 34.2531 28.5938 34.5657 28.4546C34.6222 28.4293 34.6877 28.4546 34.713 28.5112C34.7383 28.5678 34.713 28.6332 34.6565 28.6585C34.4213 28.7635 34.1951 28.7836 34.0566 28.7836L34.0559 28.7828Z" fill="#231F20"/>
<path d="M25.5781 23.3466C25.5193 23.3466 25.4702 23.3012 25.4665 23.2417L25.465 23.2149C25.4285 22.63 25.3378 21.1661 25.2537 19.8683C24.799 20.0454 23.4066 20.5187 22.5657 20.0566C22.2189 19.866 22.0083 19.5416 21.9391 19.0928C21.8274 18.3717 22.1273 17.8709 22.8053 17.6439C22.8633 17.6246 22.9273 17.6558 22.9467 17.7146C22.966 17.7734 22.9348 17.8366 22.876 17.856C22.2985 18.0495 22.0641 18.4432 22.1593 19.0593C22.2181 19.4411 22.3863 19.7038 22.6728 19.8608C23.5711 20.3542 25.2931 19.6115 25.3102 19.6041C25.3437 19.5892 25.3817 19.5922 25.4129 19.6108C25.4442 19.6294 25.4635 19.6629 25.4665 19.6986C25.5528 21.0337 25.6503 22.592 25.6883 23.2007L25.6898 23.2283C25.6935 23.29 25.6466 23.3429 25.5856 23.3466C25.5833 23.3466 25.5811 23.3466 25.5789 23.3466H25.5781Z" fill="#231F20"/>
<path d="M22.841 17.8611C22.7941 17.8611 22.751 17.8313 22.7353 17.7852C22.716 17.7264 22.7472 17.6632 22.806 17.6438C23.702 17.3432 24.9619 17.6103 25.0155 17.6222C25.0758 17.6356 25.1138 17.6944 25.1011 17.7547C25.0884 17.815 25.0289 17.8537 24.9686 17.8403C24.956 17.8373 23.7147 17.5746 22.8775 17.8559C22.8656 17.8596 22.8537 17.8619 22.8418 17.8619L22.841 17.8611Z" fill="#231F20"/>
<path d="M29.0275 24.494C28.9821 24.494 28.9226 24.4717 28.8526 24.3965C28.7767 24.3154 28.6681 24.2641 28.5631 24.2187C28.3265 24.116 28.0749 24.0326 27.7944 23.9649C27.7341 23.9508 27.6976 23.8897 27.7118 23.8302C27.7259 23.7707 27.7862 23.7335 27.8465 23.7476C28.1404 23.8183 28.4039 23.9061 28.6524 24.014C28.744 24.0535 28.8452 24.1011 28.9345 24.1703C28.9122 23.7699 28.8586 22.7906 28.8586 22.7906C28.8236 22.1536 28.9851 21.5322 29.3267 20.9941L29.5864 20.5841C29.7829 20.2745 29.7918 19.8845 29.6095 19.566L29.2768 18.9841C29.09 18.6574 29.0647 18.2704 29.2076 17.9221C29.3505 17.5746 29.64 17.3171 30.0016 17.2159C32.7886 16.4375 39.5949 14.9216 42.5992 17.649C42.6126 17.6609 42.6223 17.6758 42.629 17.6929L43.6999 20.5744C43.7215 20.6324 43.6917 20.6964 43.6344 20.718C43.5763 20.7396 43.5123 20.7098 43.4908 20.6525L42.4288 17.7964C39.4967 15.1686 32.8065 16.6644 30.0612 17.431C29.7657 17.5136 29.5298 17.7234 29.4137 18.007C29.2969 18.2912 29.3177 18.6068 29.4703 18.8732L29.8029 19.4551C30.0262 19.8458 30.015 20.3236 29.7739 20.7039L29.5142 21.1139C29.1979 21.6133 29.0476 22.1885 29.0803 22.7787C29.1374 23.8081 29.1659 24.3241 29.1659 24.3266C29.1719 24.433 29.1086 24.4724 29.0811 24.4836C29.0662 24.4896 29.0483 24.4948 29.0282 24.4948L29.0275 24.494Z" fill="#231F20"/>
<path d="M43.5971 20.7293C43.551 20.7293 43.5093 20.701 43.4929 20.6571C43.481 20.6266 43.484 20.5931 43.4974 20.5656C43.5532 20.4041 44.0712 18.8502 43.7102 17.6074C43.6998 17.5725 43.708 17.5338 43.7311 17.5055C44.124 17.0247 44.2885 16.5559 44.2193 16.1116C44.1166 15.4486 43.5212 15.0541 43.5153 15.0504C43.4766 15.0251 43.4572 14.979 43.4669 14.9336C43.4758 14.8919 44.3212 10.6992 41.7255 8.3148C40.2877 6.99387 38.8113 6.3948 37.567 6.62847C36.6166 6.80707 35.8591 7.45749 35.3173 8.56187C35.3002 8.59684 35.2652 8.62066 35.2265 8.62363C35.1863 8.62735 35.1491 8.60949 35.1268 8.57749C35.1193 8.56707 34.3856 7.5654 33.4702 7.58252C32.9359 7.59219 32.4336 7.94494 31.9759 8.63033C31.9566 8.65935 31.9253 8.67721 31.8903 8.68019C31.8561 8.68242 31.8219 8.66828 31.7988 8.64224C31.7966 8.63926 31.5301 8.33935 30.9913 8.03721C30.495 7.75814 29.6578 7.42028 28.4901 7.392C26.5486 7.34438 25.1473 8.05061 24.6457 9.32689C24.1657 10.5481 24.5958 12.0342 25.7151 13.024C25.753 13.0582 25.7634 13.1133 25.7404 13.1587C25.7166 13.2041 25.6652 13.2279 25.6153 13.216C25.5908 13.2101 23.1409 12.6504 22.0753 13.798C21.6689 14.2355 21.2313 15.3354 21.4687 16.2627C21.6384 16.9243 22.1117 17.3887 22.876 17.6432C22.9348 17.6625 22.966 17.7258 22.9467 17.7846C22.9274 17.8426 22.8641 17.8746 22.8053 17.8553C21.9763 17.5799 21.439 17.0486 21.2522 16.3185C20.9835 15.2685 21.4866 14.1031 21.9115 13.6461C22.815 12.6742 24.5378 12.8119 25.2961 12.9295C24.3115 11.8876 23.9647 10.4491 24.438 9.24577C24.9761 7.87647 26.457 7.11963 28.4961 7.16875C30.4667 7.21638 31.5495 8.09005 31.868 8.39442C32.3487 7.71796 32.8868 7.36968 33.4673 7.36001C33.4762 7.36001 33.4844 7.36001 33.4933 7.36001C34.3015 7.36001 34.9467 8.0134 35.1967 8.3081C35.7608 7.2454 36.5631 6.59052 37.526 6.40968C38.8403 6.16261 40.3852 6.78103 41.8766 8.15107C44.3748 10.4454 43.801 14.3293 43.6991 14.9075C43.871 15.037 44.3406 15.4419 44.4395 16.0759C44.5169 16.5715 44.3495 17.085 43.9402 17.6022C44.3078 18.9671 43.7273 20.5872 43.702 20.6564C43.6864 20.7003 43.6447 20.7293 43.5979 20.7301L43.5971 20.7293Z" fill="#231F20"/>
<path d="M26.9065 49.8529C26.8693 49.8529 26.8321 49.8343 26.8113 49.7993C26.5389 49.3543 26.3707 48.8468 26.3246 48.3303L26.2807 47.8458C26.2755 47.7841 26.3201 47.7305 26.3819 47.7245C26.4437 47.7193 26.4972 47.764 26.5032 47.8257L26.5471 48.3102C26.5903 48.7924 26.7473 49.2665 27.0018 49.6825C27.0338 49.7353 27.0174 49.8038 26.9646 49.8358C26.9467 49.847 26.9266 49.8522 26.9065 49.8522V49.8529Z" fill="#231F20"/>
<path d="M28.2974 52.0177C28.2914 52.0177 28.2855 52.0177 28.2795 52.0162L26.6557 51.7505C26.5947 51.7408 26.5538 51.6828 26.5634 51.6225C26.5731 51.5615 26.6311 51.5205 26.6914 51.5302L28.3152 51.7959C28.3763 51.8056 28.4172 51.8636 28.4075 51.9239C28.3986 51.979 28.351 52.0177 28.2974 52.0177Z" fill="#231F20"/>
<path d="M21.5313 43.1135C21.4762 43.1135 21.4286 43.0726 21.4211 43.0168L21.4196 43.0063C21.4137 42.9602 21.4367 42.9148 21.4777 42.8932L23.2622 41.9459C23.3166 41.9176 23.3843 41.9377 23.4133 41.992C23.4423 42.0463 23.4215 42.1141 23.3672 42.1431L21.6198 43.0704C21.6027 43.0927 21.5767 43.1083 21.5469 43.1128C21.5417 43.1128 21.5372 43.1135 21.532 43.1135H21.5313Z" fill="#231F20"/>
<path d="M24.5615 41.4935C24.5214 41.4935 24.4827 41.4719 24.4626 41.4339C24.4335 41.3796 24.4544 41.3119 24.5087 41.2829L25.7016 40.6496C25.7344 40.6324 25.7746 40.6324 25.8073 40.6496C25.8401 40.6674 25.8616 40.7002 25.8654 40.7374L25.8735 40.8296C25.8788 40.8914 25.8341 40.945 25.7723 40.9509C25.7351 40.9539 25.7016 40.939 25.6786 40.9137L24.6129 41.4793C24.5965 41.4883 24.5787 41.492 24.5608 41.492L24.5615 41.4935Z" fill="#231F20"/>
<path d="M28.2974 52.0179C28.2609 52.0179 28.2245 52.0001 28.2036 51.9666L26.8544 49.871C26.8447 49.8553 26.8351 49.8397 26.8254 49.8241L26.8113 49.7995C26.7793 49.7467 26.7956 49.6782 26.8485 49.6462C26.9013 49.6142 26.9698 49.6306 27.0018 49.6834L27.0181 49.711C27.0256 49.7244 27.0338 49.7378 27.042 49.7504L28.3912 51.8468C28.4247 51.8989 28.4098 51.9673 28.3577 52.0008C28.3391 52.0127 28.3182 52.0187 28.2974 52.0187V52.0179Z" fill="#231F20"/>
<path d="M26.3402 47.3705C26.2829 47.3705 26.2345 47.3266 26.2293 47.2686L25.9837 44.5426C25.9785 44.4808 26.0231 44.4273 26.0849 44.4213C26.1459 44.4161 26.2002 44.4608 26.2062 44.5225L26.4518 47.2485C26.457 47.3102 26.4123 47.3638 26.3506 47.3698C26.3469 47.3698 26.3439 47.3698 26.3402 47.3698V47.3705Z" fill="#231F20"/>
<path d="M26.0953 44.6443C26.038 44.6443 25.9896 44.6004 25.9844 44.5424L25.6518 40.8497C25.6466 40.788 25.6912 40.7344 25.753 40.7284C25.814 40.7232 25.8683 40.7679 25.8743 40.8296L26.2069 44.5223C26.2122 44.5841 26.1675 44.6376 26.1057 44.6436C26.102 44.6436 26.099 44.6436 26.0953 44.6436V44.6443Z" fill="#231F20"/>
<path d="M24.8273 51.3464C24.8132 51.3464 24.7998 51.3442 24.7857 51.3383C23.4283 50.7957 22.437 49.617 22.1334 48.1859C22.1334 48.1829 22.1326 48.1807 22.1319 48.1777L21.4204 43.0168C21.4123 42.9557 21.4547 42.8992 21.5157 42.891C21.576 42.8836 21.6333 42.9252 21.6415 42.9863L22.3522 48.1427C22.6409 49.4986 23.5816 50.6157 24.8683 51.1299C24.9256 51.153 24.9531 51.2177 24.9308 51.275C24.9137 51.3189 24.8712 51.345 24.8273 51.345V51.3464Z" fill="#231F20"/>
<path d="M26.3923 47.9478C26.335 47.9478 26.2866 47.9038 26.2814 47.8458L26.2293 47.2683C26.2241 47.2065 26.2687 47.153 26.3305 47.147C26.3923 47.1411 26.4459 47.1864 26.4518 47.2482L26.5039 47.8257C26.5091 47.8875 26.4645 47.9411 26.4027 47.947C26.399 47.947 26.396 47.947 26.3923 47.947V47.9478Z" fill="#231F20"/>
<path d="M26.6729 51.7524C26.6364 51.7524 26.5999 51.7345 26.5791 51.7011L25.7992 50.488C25.3951 49.8614 25.1465 49.1381 25.0803 48.3954L24.4507 41.3918C24.4455 41.3301 24.4909 41.2765 24.5519 41.2705C24.6122 41.2646 24.6673 41.31 24.6732 41.3718L25.3028 48.3753C25.3661 49.0815 25.6027 49.7706 25.9875 50.3667L26.7681 51.5798C26.8016 51.6318 26.7867 51.7003 26.7346 51.7338C26.716 51.7457 26.6952 51.7517 26.6744 51.7517L26.6729 51.7524Z" fill="#231F20"/>
<path d="M24.8272 51.3465C24.7908 51.3465 24.7543 51.3286 24.7335 51.2951L24.537 50.99C24.1336 50.3619 23.8851 49.6378 23.8189 48.8966L23.2034 42.0553C23.1982 41.9935 23.2429 41.94 23.3046 41.934C23.3664 41.9288 23.42 41.9734 23.4259 42.0352L24.0414 48.8773C24.1046 49.5827 24.3413 50.2719 24.7253 50.8702L24.9217 51.1753C24.9552 51.2274 24.9403 51.2959 24.8883 51.3294C24.8696 51.3413 24.8488 51.3472 24.828 51.3472L24.8272 51.3465Z" fill="#231F20"/>
<path d="M26.6736 51.7523C26.6677 51.7523 26.6617 51.7523 26.6557 51.7509L25.7062 51.5953C25.3884 51.5432 25.0788 51.4562 24.7864 51.3386C24.7291 51.3155 24.7015 51.2508 24.7246 51.1935C24.7477 51.1362 24.8124 51.1086 24.8697 51.1317C25.1473 51.2433 25.4405 51.3259 25.7419 51.375L26.6915 51.5306C26.7525 51.5403 26.7934 51.5983 26.7837 51.6586C26.7748 51.7136 26.7272 51.7523 26.6736 51.7523Z" fill="#231F20"/>
<path d="M23.3144 42.1568C23.2742 42.1568 23.2355 42.1352 23.2154 42.0973C23.1864 42.0429 23.2072 41.9752 23.2615 41.9462L24.5088 41.2831C24.5631 41.2541 24.6308 41.2749 24.6598 41.3293C24.6889 41.3836 24.668 41.4513 24.6137 41.4803L23.3664 42.1434C23.3501 42.1523 23.3315 42.1568 23.3144 42.1568Z" fill="#231F20"/>
<path d="M35.5517 52.0178C35.5309 52.0178 35.51 52.0119 35.4914 52C35.4393 51.9665 35.4245 51.8973 35.4579 51.8459L36.764 49.8165C36.7975 49.7644 36.8667 49.7495 36.918 49.783C36.9701 49.8165 36.985 49.8857 36.9515 49.9371L35.6455 51.9665C35.6239 52 35.5882 52.0178 35.5517 52.0178Z" fill="#231F20"/>
<path d="M35.5517 52.0177C35.4982 52.0177 35.4505 51.979 35.4416 51.9239C35.4319 51.8629 35.4729 51.8056 35.5339 51.7959L37.1584 51.5302C37.2195 51.5205 37.2768 51.5615 37.2864 51.6225C37.2961 51.6835 37.2552 51.7408 37.1942 51.7505L35.5696 52.0162C35.5636 52.0169 35.5577 52.0177 35.5517 52.0177Z" fill="#231F20"/>
<path d="M37.6213 46.12C37.6213 46.12 37.6146 46.12 37.6109 46.12C37.5491 46.1148 37.5045 46.0605 37.5097 45.9987L37.6035 44.9561C37.6087 44.8943 37.6623 44.8497 37.7248 44.8549C37.7865 44.8601 37.8312 44.9144 37.826 44.9762L37.7322 46.0188C37.727 46.0769 37.6786 46.1208 37.6213 46.1208V46.12Z" fill="#231F20"/>
<path d="M37.5692 46.6938C37.5692 46.6938 37.5625 46.6938 37.5588 46.6938C37.497 46.6886 37.4524 46.6342 37.4576 46.5725L37.5089 45.9987C37.5141 45.9369 37.5677 45.8915 37.6302 45.8975C37.692 45.9027 37.7366 45.957 37.7314 46.0188L37.6801 46.5926C37.6749 46.6506 37.6265 46.6945 37.5692 46.6945V46.6938Z" fill="#231F20"/>
<path d="M42.3179 43.1136C42.3127 43.1136 42.3082 43.1136 42.303 43.1128C42.2732 43.1091 42.2472 43.0935 42.2301 43.0712L40.4827 42.1439C40.4284 42.1149 40.4075 42.0472 40.4366 41.9928C40.4656 41.9385 40.5333 41.9177 40.5876 41.9467L42.3722 42.8941C42.4139 42.9156 42.4369 42.961 42.4302 43.0079L42.4288 43.0183C42.4213 43.0741 42.3729 43.1151 42.3186 43.1151L42.3179 43.1136Z" fill="#231F20"/>
<path d="M37.7151 45.0774C37.7151 45.0774 37.7084 45.0774 37.7046 45.0774C37.6429 45.0722 37.5982 45.0179 37.6034 44.9561L37.977 40.8073C37.9822 40.7455 38.0366 40.7001 38.0983 40.7061C38.1601 40.7113 38.2047 40.7656 38.1995 40.8274L37.826 44.9762C37.8207 45.0343 37.7724 45.0782 37.7151 45.0782V45.0774Z" fill="#231F20"/>
<path d="M39.0219 51.3466C38.978 51.3466 38.9356 51.3198 38.9184 51.2766C38.8954 51.2193 38.9237 51.1546 38.981 51.1315C40.2677 50.6165 41.2083 49.5002 41.4971 48.1443L42.2078 42.9879C42.2159 42.9268 42.2732 42.8844 42.3335 42.8926C42.3945 42.9008 42.437 42.9574 42.4288 43.0184L41.7173 48.1793C41.7173 48.1793 41.7166 48.1845 41.7158 48.1875C41.4122 49.6186 40.421 50.7966 39.0636 51.3399C39.0502 51.3451 39.036 51.3481 39.0219 51.3481V51.3466Z" fill="#231F20"/>
<path d="M39.2876 41.4935C39.2697 41.4935 39.2519 41.489 39.2355 41.4809L38.1557 40.9071C38.1341 40.9227 38.1066 40.9309 38.079 40.9287C38.0173 40.9235 37.9726 40.8691 37.9778 40.8074L37.9838 40.7389C37.9868 40.7017 38.0091 40.6682 38.0418 40.6511C38.0746 40.6332 38.1148 40.6332 38.1475 40.6511L39.3404 41.2844C39.3948 41.3134 39.4156 41.3811 39.3866 41.4355C39.3665 41.4734 39.3278 41.495 39.2876 41.495V41.4935Z" fill="#231F20"/>
<path d="M36.8577 49.9886C36.8369 49.9886 36.8161 49.9827 36.7975 49.9708C36.7454 49.9373 36.7305 49.8681 36.764 49.8167L36.8071 49.7505C37.0855 49.3203 37.2559 48.8225 37.302 48.3112L37.4583 46.5728C37.4635 46.511 37.5178 46.4664 37.5796 46.4716C37.6414 46.4768 37.686 46.5311 37.6808 46.5929L37.5245 48.3313C37.4754 48.8783 37.2924 49.4111 36.9947 49.8718L36.9523 49.938C36.9307 49.9715 36.895 49.9894 36.8585 49.9894L36.8577 49.9886Z" fill="#231F20"/>
<path d="M39.0211 51.3467C39.0002 51.3467 38.9794 51.3408 38.9608 51.3289C38.9087 51.2954 38.8938 51.2262 38.9273 51.1748L39.1238 50.8697C39.5078 50.2721 39.7444 49.583 39.8077 48.8768L40.4231 42.0347C40.4283 41.973 40.4827 41.9283 40.5444 41.9335C40.6062 41.9387 40.6508 41.9931 40.6456 42.0548L40.0302 48.8969C39.964 49.6381 39.7154 50.3622 39.312 50.9903L39.1156 51.2954C39.094 51.3289 39.0583 51.3467 39.0218 51.3467H39.0211Z" fill="#231F20"/>
<path d="M37.1755 51.7522C37.1547 51.7522 37.1338 51.7462 37.1152 51.7343C37.0631 51.7008 37.0482 51.6316 37.0817 51.5802L37.8616 50.3672C38.2456 49.7711 38.4823 49.082 38.5463 48.3758L39.1759 41.3722C39.1811 41.3105 39.2369 41.2651 39.2972 41.271C39.3589 41.2762 39.4036 41.3306 39.3984 41.3923L38.7688 48.3959C38.7018 49.1386 38.4533 49.8619 38.0499 50.4885L37.27 51.7015C37.2484 51.735 37.2127 51.7529 37.1762 51.7529L37.1755 51.7522Z" fill="#231F20"/>
<path d="M40.5349 42.1568C40.517 42.1568 40.4991 42.1523 40.4828 42.1434L39.2355 41.4803C39.1812 41.4513 39.1604 41.3836 39.1894 41.3293C39.2184 41.2749 39.2861 41.2541 39.3404 41.2831L40.5877 41.9462C40.642 41.9752 40.6629 42.0429 40.6338 42.0973C40.6137 42.1352 40.575 42.1568 40.5349 42.1568Z" fill="#231F20"/>
<path d="M37.1755 51.7523C37.1219 51.7523 37.0743 51.7136 37.0654 51.6586C37.0557 51.5976 37.0966 51.5403 37.1577 51.5306L38.1072 51.375C38.4086 51.3252 38.7018 51.2433 38.9794 51.1317C39.0367 51.1086 39.1015 51.1362 39.1245 51.1935C39.1476 51.2508 39.1201 51.3155 39.0628 51.3386C38.7703 51.4569 38.4607 51.5432 38.143 51.5953L37.1934 51.7509C37.1874 51.7516 37.1815 51.7523 37.1755 51.7523Z" fill="#231F20"/>
<path d="M37.7575 35.6273C34.844 35.6273 32.7692 34.5736 31.4877 33.618C29.8937 32.4303 29.1688 31.1697 29.1391 31.1161C29.1085 31.0625 29.1272 30.9948 29.1807 30.9643C29.2343 30.9338 29.302 30.9524 29.3325 31.006C29.34 31.0186 30.0693 32.2852 31.6291 33.4447C33.0661 34.5133 35.5234 35.7077 39.0732 35.3327C40.5318 35.1779 41.6965 34.517 42.5344 33.368C43.545 31.9831 44.0912 29.9135 44.1582 27.2158C44.2259 24.4966 43.772 21.982 43.574 21.0264C43.5495 20.9088 43.5212 20.7816 43.487 20.6372C43.4728 20.5769 43.51 20.5174 43.5696 20.5025C43.6306 20.4884 43.6894 20.5256 43.7043 20.5851C43.7392 20.7317 43.7683 20.8605 43.7928 20.9803C43.9923 21.9433 44.4499 24.4787 44.3815 27.2203C44.3138 29.9633 43.7526 32.0761 42.7145 33.4982C41.8371 34.7008 40.6196 35.3922 39.0963 35.5529C38.6319 35.602 38.1854 35.6251 37.7575 35.6251V35.6273Z" fill="#231F20"/>
<path d="M25.7627 40.9519C25.7627 40.9519 25.7597 40.9519 25.7582 40.9519C25.6965 40.9496 25.6488 40.8975 25.6511 40.8365L26.0634 29.5882C26.0656 29.5264 26.1177 29.4795 26.1787 29.481C26.2405 29.4832 26.2881 29.5353 26.2859 29.5963L25.8736 40.8447C25.8714 40.905 25.8215 40.9526 25.762 40.9526L25.7627 40.9519Z" fill="#231F20"/>
<path d="M29.116 54.4021C29.0549 54.4021 29.0051 54.353 29.0043 54.292L28.979 52.5246C28.9679 52.2961 28.793 52.1004 28.563 52.0624L28.2788 52.0163C28.2177 52.0066 28.1768 51.9486 28.1865 51.8883C28.1961 51.828 28.2542 51.7856 28.3145 51.796L28.5988 51.8421C28.9314 51.8965 29.1852 52.1808 29.2015 52.5171L29.2268 54.2883C29.2276 54.3501 29.1785 54.4007 29.1167 54.4014H29.1152L29.116 54.4021Z" fill="#231F20"/>
<path d="M7.13865 47.255C7.11707 47.255 7.09549 47.2491 7.07614 47.2357C7.02554 47.2007 7.01214 47.1315 7.04712 47.0809L7.30089 46.7088C8.14628 45.4675 9.4821 44.6206 10.966 44.3862L21.5171 42.8926C21.5774 42.8844 21.6347 42.9268 21.6436 42.9879C21.6525 43.0489 21.6094 43.1054 21.5483 43.1144L10.9995 44.608C9.5781 44.8327 8.29735 45.6454 7.48619 46.8361L7.23242 47.2081C7.21084 47.2401 7.17586 47.2573 7.14014 47.2573L7.13865 47.255Z" fill="#231F20"/>
<path d="M29.1838 59.1278C29.1227 59.1278 29.0729 59.0787 29.0721 59.0177L29.0044 54.2913C29.0037 54.2296 29.0528 54.179 29.1145 54.1782H29.116C29.1771 54.1782 29.2269 54.2273 29.2277 54.2884L29.2954 59.0147C29.2961 59.0765 29.247 59.1271 29.1852 59.1278H29.1838Z" fill="#231F20"/>
<path d="M29.3951 73.9036H12.636C12.5743 73.9036 12.5244 73.8538 12.5244 73.792C12.5244 73.7302 12.5743 73.6804 12.636 73.6804H29.2813L29.0714 59.0184C29.0706 58.9567 29.1198 58.9061 29.1815 58.9053C29.2418 58.9038 29.2939 58.9537 29.2946 59.0154L29.506 73.7905C29.506 73.8203 29.4948 73.8493 29.474 73.8701C29.4532 73.891 29.4241 73.9036 29.3944 73.9036H29.3951Z" fill="#231F20"/>
<path d="M12.636 73.9035H-2.45087C-2.48064 73.9035 -2.50892 73.8916 -2.52976 73.8707C-2.55059 73.8499 -2.5625 73.8216 -2.5625 73.7918L-2.5558 61.2106C-2.5558 61.1883 -2.5491 61.1667 -2.53645 61.1481L7.04643 47.0808C7.08141 47.0302 7.15062 47.0168 7.20122 47.0518C7.25183 47.0867 7.26522 47.1559 7.23024 47.2065L-2.33255 61.2449L-2.33924 73.6795H12.636C12.6978 73.6795 12.7476 73.7293 12.7476 73.7911C12.7476 73.8529 12.6978 73.9027 12.636 73.9027V73.9035Z" fill="#231F20"/>
<path d="M38.0887 40.9294C38.0812 40.9294 38.0738 40.9287 38.0664 40.9272C38.0597 40.9257 38.0522 40.9235 38.0455 40.9205C38.0388 40.9175 38.0321 40.9146 38.0262 40.9101C38.0202 40.9064 38.0143 40.9019 38.0091 40.8967C37.9882 40.8759 37.9771 40.8468 37.9771 40.8171C37.9771 40.8104 37.9771 40.8029 37.9785 40.7955C37.98 40.7888 37.9823 40.7813 37.9852 40.7747C37.9882 40.768 37.9912 40.7613 37.9957 40.7553C37.9994 40.7493 38.0038 40.7434 38.0091 40.7389C38.0143 40.7337 38.0202 40.7285 38.0262 40.7248C38.0321 40.7203 38.0388 40.7174 38.0455 40.7144C38.0522 40.7114 38.0597 40.7092 38.0664 40.7077C38.1028 40.7002 38.1415 40.7129 38.1676 40.7389C38.1877 40.759 38.2003 40.788 38.2003 40.8171C38.2003 40.8461 38.1877 40.8759 38.1676 40.8967C38.1624 40.9019 38.1564 40.9064 38.1504 40.9101C38.1445 40.9146 38.1378 40.9175 38.1311 40.9205C38.1244 40.9235 38.117 40.9257 38.1103 40.9272C38.1028 40.9287 38.0954 40.9294 38.0887 40.9294Z" fill="#231F20"/>
<path d="M38.0879 40.9287C38.0262 40.9287 37.9763 40.8788 37.9763 40.8171V35.5281C37.9763 35.4664 38.0262 35.4165 38.0879 35.4165C38.1497 35.4165 38.1996 35.4664 38.1996 35.5281V40.8171C38.1996 40.8788 38.1497 40.9287 38.0879 40.9287Z" fill="#231F20"/>
<path d="M34.6721 58.6763H34.6706C34.6088 58.6755 34.5597 58.6249 34.5604 58.5631L34.6468 52.5218C34.6631 52.181 34.9169 51.8975 35.2496 51.8432L35.5338 51.797C35.5941 51.7866 35.6522 51.8283 35.6618 51.8893C35.6715 51.9503 35.6306 52.0076 35.5696 52.0173L35.2853 52.0634C35.0561 52.1006 34.8804 52.2971 34.8693 52.5293L34.7829 58.5669C34.7822 58.6279 34.7323 58.677 34.6713 58.677L34.6721 58.6763Z" fill="#231F20"/>
<path d="M34.5806 65.0543H34.5791C34.5174 65.0536 34.4683 65.003 34.469 64.9412L34.5605 58.5628C34.5613 58.5018 34.6111 58.4526 34.6722 58.4526H34.6737C34.7354 58.4534 34.7845 58.504 34.7838 58.5658L34.6923 64.9442C34.6915 65.0052 34.6417 65.0543 34.5806 65.0543Z" fill="#231F20"/>
<path d="M70.2576 73.9036H51.3091C51.2474 73.9036 51.1975 73.8538 51.1975 73.792C51.1975 73.7302 51.2474 73.6804 51.3091 73.6804H70.146V65.2688L56.7134 47.2164C56.6762 47.1665 56.6866 47.0973 56.7365 47.0601C56.7856 47.0236 56.8556 47.0333 56.8928 47.0832L70.3469 65.1654C70.361 65.1847 70.3692 65.2078 70.3692 65.2324V73.7927C70.3692 73.8545 70.3194 73.9044 70.2576 73.9044V73.9036Z" fill="#231F20"/>
<path d="M56.8035 47.2609C56.7692 47.2609 56.7357 47.2453 56.7141 47.2163L56.3123 46.6767C55.4892 45.5701 54.2859 44.8423 52.924 44.6265L42.3022 43.1128C42.2412 43.1039 42.1988 43.0473 42.2077 42.9863C42.2167 42.9253 42.2725 42.8829 42.3342 42.8918L52.9582 44.4062C54.3796 44.6317 55.6343 45.39 56.4924 46.5435L56.8942 47.0831C56.9314 47.1329 56.921 47.2021 56.8712 47.2393C56.8511 47.2542 56.828 47.2617 56.8049 47.2617L56.8035 47.2609Z" fill="#231F20"/>
<path d="M12.636 73.9035C12.5765 73.9035 12.5266 73.8559 12.5244 73.7956L11.9261 57.1809C11.8621 55.4068 11.3039 53.6907 10.3112 52.2194L7.04496 47.2051C7.01147 47.1538 7.02561 47.0846 7.0777 47.0503C7.12905 47.0168 7.19826 47.031 7.2325 47.0831L10.4972 52.0959C11.5123 53.6007 12.0838 55.3569 12.1493 57.1728L12.7477 73.7874C12.7499 73.8492 12.7015 73.9006 12.6398 73.9028C12.6383 73.9028 12.6368 73.9028 12.636 73.9028V73.9035Z" fill="#231F20"/>
<path d="M51.3098 73.9035C51.3098 73.9035 51.3068 73.9035 51.3061 73.9035C51.2443 73.9013 51.196 73.8492 51.1982 73.7881L51.7965 57.1734C51.862 55.3576 52.4335 53.6014 53.4494 52.0951L56.7096 47.0897C56.7431 47.0384 56.8123 47.0235 56.8644 47.057C56.9158 47.0905 56.9307 47.1597 56.8972 47.2118L53.6361 52.2187C52.6427 53.6921 52.0838 55.4075 52.0205 57.1816L51.4222 73.7963C51.42 73.8566 51.3708 73.9042 51.3106 73.9042L51.3098 73.9035Z" fill="#231F20"/>
<path d="M32.1136 48.4272C31.7073 48.4272 31.3143 48.4041 30.946 48.3595C30.8849 48.352 30.841 48.2962 30.8485 48.2352C30.8559 48.1742 30.9125 48.131 30.9728 48.1377C31.3322 48.1816 31.7162 48.2039 32.1136 48.2039C32.8243 48.2039 33.4836 48.1325 34.0723 47.9903C34.1318 47.9762 34.1929 48.0127 34.207 48.0729C34.2211 48.1325 34.1847 48.1935 34.1244 48.2076C33.5186 48.3535 32.8422 48.4272 32.1136 48.4272Z" fill="#231F20"/>
<path d="M30.4987 48.2911C30.492 48.2911 30.4853 48.2911 30.4786 48.2896C29.2708 48.0715 28.2595 47.5938 27.4721 46.8682C27.4267 46.8265 27.4238 46.7558 27.4654 46.7104C27.5071 46.665 27.5778 46.662 27.6232 46.7037C28.3786 47.4003 29.3527 47.8594 30.5181 48.07C30.5784 48.0812 30.6193 48.1393 30.6081 48.1995C30.5985 48.2531 30.5516 48.2911 30.4987 48.2911Z" fill="#231F20"/>
<path d="M27.2228 46.5682C27.1923 46.5682 27.1618 46.5556 27.1402 46.5318C26.6453 45.9848 26.2583 45.3247 25.9904 44.5708C25.9696 44.5128 26.0001 44.4488 26.0582 44.4279C26.1162 44.4071 26.1802 44.4376 26.201 44.4957C26.4593 45.222 26.8306 45.8568 27.3062 46.3814C27.3478 46.4268 27.3441 46.4975 27.298 46.5392C27.2764 46.5585 27.2496 46.5682 27.2228 46.5682Z" fill="#231F20"/>
<path d="M37.3468 45.8759C37.3282 45.8759 37.3088 45.8714 37.2917 45.861C37.2381 45.8305 37.2195 45.762 37.25 45.7092C37.3877 45.4673 37.509 45.2046 37.6102 44.9278C37.6318 44.8697 37.6958 44.8399 37.7531 44.8615C37.8111 44.8831 37.8409 44.9471 37.8193 45.0044C37.7136 45.2924 37.5871 45.5663 37.4435 45.8193C37.4227 45.8558 37.3855 45.8759 37.3468 45.8759Z" fill="#231F20"/>
<path d="M34.5434 48.0869C34.4958 48.0869 34.4519 48.0564 34.437 48.0088C34.4184 47.95 34.4511 47.8875 34.5099 47.8689C35.5748 47.5317 36.4143 46.9349 37.0052 46.0962C37.0409 46.0456 37.1101 46.0337 37.1607 46.0694C37.2113 46.1051 37.2232 46.1743 37.1875 46.225C36.5683 47.1046 35.6902 47.7297 34.5776 48.0824C34.5665 48.0862 34.5553 48.0877 34.5441 48.0877L34.5434 48.0869Z" fill="#231F20"/>
<path d="M35.2815 50.613C35.2324 50.613 35.1878 50.581 35.1744 50.5318C35.158 50.4723 35.1922 50.4105 35.2518 50.3942C35.8092 50.2379 36.3316 50.0303 36.8064 49.7787C36.8607 49.7497 36.9284 49.7705 36.9574 49.8249C36.9865 49.8792 36.9656 49.9469 36.9113 49.9759C36.4231 50.2349 35.8851 50.4478 35.3128 50.6092C35.3024 50.6122 35.2927 50.6137 35.2823 50.6137L35.2815 50.613Z" fill="#231F20"/>
<path d="M29.7858 50.8247C29.7798 50.8247 29.7731 50.8247 29.7672 50.8232C28.671 50.6372 27.6901 50.306 26.8522 49.8387C26.7986 49.8089 26.7793 49.7404 26.809 49.6869C26.8388 49.6333 26.9065 49.6132 26.9608 49.6437C27.7765 50.0984 28.7335 50.4214 29.8044 50.603C29.8654 50.6134 29.9063 50.6707 29.8959 50.7317C29.887 50.786 29.8393 50.8247 29.7858 50.8247Z" fill="#231F20"/>
<path d="M32.1136 51.0097C31.4542 51.0097 30.8209 50.9702 30.2315 50.8936C30.1705 50.8854 30.1273 50.8296 30.1355 50.7686C30.1437 50.7075 30.2003 50.6644 30.2605 50.6726C30.8395 50.7485 31.4631 50.7872 32.1128 50.7872C33.0892 50.7872 33.9956 50.6927 34.8075 50.5074C34.8685 50.4932 34.9273 50.5312 34.9415 50.5914C34.9556 50.6517 34.9177 50.7113 34.8574 50.7254C34.0291 50.9152 33.1063 51.0112 32.1128 51.0112L32.1136 51.0097Z" fill="#231F20"/>
<path d="M27.5481 46.8971C27.5213 46.8971 27.4937 46.8874 27.4729 46.868C27.3598 46.7646 27.2482 46.6515 27.1402 46.5317C27.0993 46.4855 27.103 46.4156 27.1484 46.3739C27.1946 46.333 27.2645 46.336 27.3062 46.3821C27.4096 46.4967 27.5161 46.6046 27.624 46.7036C27.6694 46.7453 27.6723 46.816 27.6307 46.8613C27.6083 46.8852 27.5786 46.8978 27.5481 46.8978V46.8971Z" fill="#231F20"/>
<path d="M30.9594 48.3603C30.9549 48.3603 30.9504 48.3603 30.946 48.3595C30.7867 48.3402 30.6297 48.3164 30.4794 48.2896C30.4183 48.2784 30.3781 48.2203 30.3893 48.1601C30.4005 48.099 30.4585 48.0596 30.5188 48.07C30.6654 48.0961 30.818 48.1191 30.9735 48.1385C31.0345 48.1459 31.0784 48.2017 31.071 48.2628C31.0643 48.3193 31.0159 48.361 30.9601 48.361L30.9594 48.3603Z" fill="#231F20"/>
<path d="M30.2464 50.8941C30.2419 50.8941 30.2367 50.8941 30.2322 50.8934C30.0737 50.8733 29.9167 50.8495 29.7664 50.8234C29.7054 50.813 29.6652 50.755 29.6756 50.6947C29.686 50.6337 29.7441 50.5927 29.8043 50.6039C29.9517 50.6292 30.105 50.6523 30.2598 50.6723C30.3208 50.6805 30.364 50.7363 30.3565 50.7974C30.3491 50.8539 30.3015 50.8949 30.2456 50.8949L30.2464 50.8941Z" fill="#231F20"/>
<path d="M34.0983 48.2106C34.0477 48.2106 34.0023 48.1764 33.9897 48.1251C33.9756 48.0648 34.0128 48.0052 34.0723 47.9904C34.2189 47.9554 34.3663 47.9145 34.5091 47.8691C34.5687 47.8505 34.6304 47.8825 34.6498 47.9412C34.6684 48 34.6364 48.0625 34.5776 48.0819C34.4295 48.1295 34.277 48.1719 34.1244 48.2077C34.1155 48.2099 34.1073 48.2106 34.0983 48.2106Z" fill="#231F20"/>
<path d="M34.8328 50.7269C34.7815 50.7269 34.7361 50.6919 34.7242 50.6398C34.7108 50.5795 34.748 50.52 34.8083 50.5066C34.9578 50.4724 35.103 50.4359 35.2518 50.3942C35.3113 50.3779 35.3731 50.4121 35.3895 50.4716C35.4058 50.5312 35.3716 50.5929 35.3121 50.6093C35.1595 50.6517 35.0114 50.6897 34.8581 50.7246C34.8499 50.7269 34.8417 50.7276 34.8336 50.7276L34.8328 50.7269Z" fill="#231F20"/>
<path d="M37.0959 46.272C37.0736 46.272 37.0513 46.2653 37.0319 46.2519C36.9813 46.2162 36.9694 46.147 37.0044 46.0964C37.0944 45.9676 37.177 45.8374 37.2492 45.7094C37.2797 45.6558 37.3475 45.6372 37.401 45.667C37.4546 45.6975 37.474 45.7652 37.4435 45.8188C37.3676 45.9528 37.2812 46.0897 37.1867 46.2244C37.1651 46.2556 37.1302 46.272 37.0952 46.272H37.0959Z" fill="#231F20"/>
<path d="M34.5805 65.0543C34.5485 65.0543 34.5165 65.0409 34.495 65.0141C34.4324 64.9397 34.3714 64.8638 34.3104 64.7879C34.1184 64.5505 33.9197 64.3049 33.6935 64.0995C33.4888 63.9142 33.2529 63.7527 33.0237 63.5965C32.6836 63.3643 32.3323 63.1246 32.0644 62.795C31.2979 61.8521 31.4505 60.2618 32.3993 59.3226C33.1696 58.5598 33.9472 58.4534 34.6728 58.4526C34.7346 58.4526 34.7844 58.5025 34.7844 58.5643C34.7844 58.626 34.7346 58.6759 34.6728 58.6759C33.8899 58.6766 33.2298 58.8143 32.5563 59.4811C31.6864 60.3429 31.5405 61.7955 32.2378 62.6536C32.4856 62.9579 32.8079 63.1782 33.1495 63.4119C33.3846 63.5726 33.6272 63.7386 33.843 63.9343C34.0819 64.1509 34.2858 64.4032 34.4838 64.6472C34.5441 64.7224 34.6051 64.7968 34.6669 64.8705C34.7063 64.9181 34.6996 64.9881 34.6527 65.0275C34.6319 65.0446 34.6066 65.0536 34.5813 65.0536L34.5805 65.0543Z" fill="#231F20"/>
<path d="M29.1838 59.1278C29.1503 59.1278 29.1168 59.1129 29.0952 59.0838C29.058 59.0347 29.067 58.9648 29.1161 58.9276C29.2716 58.8085 29.3989 58.6917 29.5053 58.5681C29.9071 58.1038 30.1043 57.4742 30.2785 56.9183C30.4928 56.2336 30.7109 55.2662 30.1311 54.7676C29.8915 54.5614 29.5641 54.4863 29.221 54.4215C29.1987 54.4171 29.1763 54.4133 29.1548 54.4096L29.0967 54.3992C29.0357 54.388 28.9963 54.33 29.0067 54.269C29.0178 54.2079 29.0766 54.1685 29.1369 54.1789L29.192 54.1886C29.215 54.1923 29.2389 54.1968 29.2619 54.2012C29.6214 54.269 29.9957 54.3553 30.2763 54.5979C30.9557 55.1828 30.7243 56.2403 30.4913 56.9845C30.3105 57.5612 30.1058 58.2139 29.6742 58.7132C29.5574 58.8479 29.4197 58.9759 29.2515 59.1039C29.2314 59.1196 29.2076 59.127 29.1838 59.127V59.1278Z" fill="#231F20"/>
<path d="M26.3484 29.7229C26.2837 29.7229 26.2174 29.7155 26.1512 29.7013C26.0909 29.6879 26.053 29.6284 26.0663 29.5681C26.0797 29.5078 26.1385 29.4699 26.1996 29.4833C26.2494 29.4944 26.2993 29.4996 26.3484 29.4996C26.7279 29.4996 27.0368 29.1908 27.0368 28.8113C27.0368 28.4317 26.7279 28.1229 26.3484 28.1229C25.9689 28.1229 25.66 28.4317 25.66 28.8113C25.66 28.9207 25.6853 29.0256 25.7359 29.1246C25.7642 29.1796 25.7426 29.2466 25.6876 29.2749C25.6325 29.3032 25.5655 29.2816 25.5372 29.2265C25.4703 29.0963 25.4368 28.9571 25.4368 28.812C25.4368 28.3089 25.8461 27.9004 26.3484 27.9004C26.8507 27.9004 27.26 28.3097 27.26 28.812C27.26 29.3143 26.8507 29.7236 26.3484 29.7236V29.7229Z" fill="#231F20"/>
<path d="M26.175 29.7043C26.1668 29.7043 26.1594 29.7035 26.1512 29.7013C25.8848 29.6425 25.6608 29.4691 25.5365 29.2257C25.5082 29.1707 25.5298 29.1037 25.5849 29.0754C25.6399 29.0471 25.7069 29.0687 25.7352 29.1238C25.8297 29.3076 25.9986 29.4386 26.1995 29.4832C26.2598 29.4966 26.2978 29.5562 26.2844 29.6164C26.2732 29.6685 26.2271 29.7043 26.1757 29.7043H26.175Z" fill="#231F20"/>
<path d="M18.5553 57.5956C18.4735 57.5956 18.3916 57.5926 18.309 57.5874C17.3639 57.5226 16.5014 57.0932 15.8792 56.3788C15.2571 55.6644 14.9505 54.7505 15.0152 53.8062C15.08 52.8611 15.5094 51.9985 16.2238 51.3764C16.9382 50.7543 17.8513 50.4477 18.7964 50.5124C20.7469 50.6471 22.2249 52.3431 22.0902 54.2936C21.9615 56.1615 20.4001 57.5963 18.5553 57.5963V57.5956ZM18.3246 57.3641C20.1508 57.4899 21.7419 56.1057 21.8677 54.2772C21.9935 52.4495 20.6093 50.8599 18.7808 50.7342C17.8952 50.6732 17.0394 50.9604 16.3696 51.5439C15.7006 52.1265 15.298 52.9355 15.237 53.8211C15.176 54.7066 15.4632 55.5625 16.0467 56.2322C16.6294 56.9012 17.4383 57.3038 18.3239 57.3649L18.3246 57.3641Z" fill="#231F20"/>
</g>
</g>
<defs>
<clipPath id="clip0_525_30441">
<rect x="0.124023" y="0.25" width="64" height="64" rx="12" fill="white"/>
</clipPath>
<clipPath id="clip1_525_30441">
<rect width="64" height="64" fill="white" transform="translate(0.124023 0.25)"/>
</clipPath>
</defs>
</svg>
