<svg width="65" height="65" viewBox="0 0 65 65" fill="none" xmlns="http://www.w3.org/2000/svg">
<g clip-path="url(#clip0_525_30442)">
<rect x="0.124023" y="0.25" width="64" height="64" rx="12" fill="#E0E0E0"/>
<g clip-path="url(#clip1_525_30442)">
<rect width="64" height="64" transform="translate(0.124023 0.25)" fill="#F3F4F5"/>
<path d="M32.3904 42.98C32.706 42.98 32.9619 42.7241 32.9619 42.4084C32.9619 42.0928 32.706 41.8369 32.3904 41.8369C32.0747 41.8369 31.8188 42.0928 31.8188 42.4084C31.8188 42.7241 32.0747 42.98 32.3904 42.98Z" fill="#231F20"/>
<path d="M32.3904 46.7847C32.706 46.7847 32.9619 46.5288 32.9619 46.2131C32.9619 45.8975 32.706 45.6416 32.3904 45.6416C32.0747 45.6416 31.8188 45.8975 31.8188 46.2131C31.8188 46.5288 32.0747 46.7847 32.3904 46.7847Z" fill="#231F20"/>
<path d="M32.3904 50.5898C32.706 50.5898 32.9619 50.3339 32.9619 50.0183C32.9619 49.7026 32.706 49.4468 32.3904 49.4468C32.0747 49.4468 31.8188 49.7026 31.8188 50.0183C31.8188 50.3339 32.0747 50.5898 32.3904 50.5898Z" fill="#231F20"/>
<path d="M38.8946 17.6668H20.6196C20.6911 17.2233 20.7722 16.782 20.863 16.3436C21.2514 14.4728 21.7285 12.581 23.0419 11.1939C23.1789 11.0495 23.324 10.9118 23.4773 10.7801C26.4846 8.19928 32.5273 8.06756 35.6753 10.0024C36.8049 10.6968 37.561 11.781 38.0559 13.035C38.0939 13.1303 38.1296 13.2262 38.1646 13.3237C38.6148 14.5844 38.8187 15.9961 38.8819 17.3461C38.8857 17.4183 38.8886 17.4897 38.8909 17.5611C38.8924 17.5961 38.8939 17.6318 38.8946 17.6668Z" fill="#C47451"/>
<path d="M31.3427 18.7575L31.3345 20.4885C31.3323 20.9513 30.9564 21.3249 30.4943 21.3249H28.2454C27.4684 21.3249 26.8046 20.7638 26.6759 19.998L26.399 18.3571C25.5752 17.6844 24.7001 18.1145 24.4247 18.282L24.1352 19.998C24.0065 20.7638 23.3427 21.3249 22.5657 21.3249L21.6102 21.3234L20.2759 21.3219C20.2617 21.8771 20.2662 22.4323 20.2915 22.9852C20.3057 23.303 20.3272 23.6178 20.3592 23.9288C20.5192 25.508 20.9494 26.9785 22.1475 28.0628C22.3127 28.2124 22.4921 28.3538 22.687 28.4877C23.9834 29.3763 25.6266 29.6881 27.1864 29.5006C29.2069 29.258 31.7676 28.2503 32.5423 26.2046C32.8928 25.2788 32.8742 24.2198 32.4917 23.3074C33.5179 23.0023 34.347 22.4419 34.8865 21.4998C35.2787 20.8159 35.487 20.036 35.5771 19.2561C35.5823 19.2122 35.6247 18.6332 35.6307 18.3355L31.3427 18.7575ZM25.4777 23.8953L29.611 22.7471C29.7568 24.4319 27.2318 25.4336 25.4777 23.8953Z" fill="#C47451"/>
<path d="M19.4058 17.6672C19.3046 17.6672 19.2228 17.7491 19.2228 17.8503V18.4799C19.2228 18.5811 19.3046 18.663 19.4058 18.663H19.7511L19.7757 17.6665H19.4058V17.6672Z" fill="#80A5F5"/>
<path d="M31.0643 40.0975L31.0651 40.0982L34.8775 42.4677L40.8854 37.9736L40.8757 37.9579L38.5263 34.2794L38.5211 34.272L31.0643 40.0975Z" fill="#009F62"/>
<path d="M30.6937 66.2966C37.3244 66.1135 43.6901 64.0588 50.0418 62.3509C53.2767 61.4809 56.54 60.6735 59.8665 60.2419C62.0961 59.9531 64.7097 60.4294 66.9921 60.0901V59.2052L66.9899 56.55L66.9727 56.5247L66.9303 56.4629C62.0217 58.1418 56.4879 56.7189 51.3791 57.8642C49.4353 58.2995 47.5473 58.9559 45.6228 59.4694C37.9264 61.5248 29.7984 61.2726 21.8847 60.3662C17.2857 59.84 12.7164 59.0966 8.13069 58.473C5.7746 58.1522 3.4133 57.8582 1.04455 57.6454C-0.213864 57.5316 -1.66875 57.0248 -3.03284 56.9697L-4.81889 59.3704L-5.71191 60.5708V61.6618C-0.0151691 62.2571 5.62353 63.1115 11.26 64.1355C17.4792 65.2659 24.3517 66.4722 30.6937 66.2966Z" fill="#CEDFF1"/>
<path d="M59.8665 60.2421C56.54 60.6738 53.2767 61.4812 50.0418 62.3512C43.6901 64.0591 37.3244 66.1138 30.6937 66.2968C24.3517 66.4725 17.4792 65.2661 11.26 64.1357C5.62353 63.1117 -0.0151691 62.2574 -5.71191 61.6621V69.1314H66.9966L66.9921 60.0903C64.7097 60.4297 62.0961 59.9534 59.8665 60.2421Z" fill="#FBEFE3"/>
<path d="M47.9781 55.5542C52.255 54.6894 56.3056 53.1572 60.6323 52.6667C61.8103 52.5335 63.0397 52.5439 64.2676 52.5536L62.3096 49.6796C62.1362 49.6848 61.9718 49.6863 61.82 49.681C58.3283 49.5657 54.803 49.6297 51.379 50.397C49.4352 50.8323 47.5472 51.4879 45.6228 52.0022C37.9264 54.0569 29.7984 53.8053 21.8847 52.8989C15.228 52.1369 8.6196 50.9231 1.95691 50.2638L-0.69165 53.8232C15.4594 55.7008 31.8598 58.813 47.9781 55.5542Z" fill="#CEDFF1"/>
<path d="M62.3096 49.6799C62.1362 49.6851 61.9718 49.6866 61.82 49.6814C58.3283 49.5661 54.803 49.6301 51.379 50.3973C49.4352 50.8327 47.5472 51.4883 45.6228 52.0025C37.9264 54.0572 29.7984 53.8057 21.8847 52.8993C15.228 52.1372 8.61961 50.9235 1.95691 50.2641L5.87877 44.9938L8.14407 41.9493C8.97979 40.8263 10.2218 40.0747 11.6045 39.8559L17.8066 38.8996L19.7787 38.596C19.7802 38.7865 19.8665 38.9785 19.9982 39.1207C20.1768 39.3134 20.4261 39.4265 20.6776 39.5032C21.7843 39.8381 22.9593 39.5381 24.0049 38.9964L27.8471 42.1041L30.8603 40.2265L31.0643 40.0985L34.8767 42.4688L40.8845 37.9739L40.8749 37.959L41.3139 38.0237L53.5625 39.8351C54.7122 40.0174 55.763 40.5674 56.5638 41.3897C56.7796 41.6107 56.9761 41.8518 57.1524 42.1108L62.3089 49.6799H62.3096Z" fill="#FBEFE3"/>
<path d="M8.1307 58.4728C12.7164 59.0964 17.2857 59.8398 21.8848 60.366C29.7984 61.2724 37.9264 61.5246 45.6228 59.4692C47.5473 58.9557 49.4353 58.2994 51.3791 57.864C56.4879 56.7187 62.0217 58.1416 66.9303 56.4627L64.2676 52.5535C63.0397 52.5438 61.8103 52.5334 60.6323 52.6666C56.3056 53.157 52.255 54.6893 47.9781 55.554C31.8598 58.8128 15.4594 55.7007 -0.691622 53.8231L-3.03284 56.9695C-1.66874 57.0246 -0.213857 57.5314 1.04456 57.6452C3.41331 57.8581 5.77461 58.152 8.1307 58.4728Z" fill="#FBEFE3"/>
<path d="M41.1413 20.1987C41.1398 20.1891 41.1376 20.1801 41.1353 20.1704C41.1219 20.1124 41.1071 20.0544 41.0907 19.9978C40.8935 19.3124 40.4753 18.7319 39.9253 18.3502C39.9052 18.336 39.8859 18.3234 39.8658 18.3115C39.8167 18.278 39.766 18.2475 39.7154 18.2184C39.6008 18.1544 39.4818 18.0979 39.359 18.0503C39.3448 18.0443 39.3314 18.0391 39.3173 18.0339C39.2868 18.0212 39.2563 18.0101 39.225 17.9997C39.1871 17.987 39.1484 17.9758 39.1097 17.9647C39.0606 17.9513 39.0114 17.9386 38.9616 17.9282C38.78 17.888 38.5917 17.8672 38.399 17.8672C38.2799 17.8672 38.1631 17.8754 38.0485 17.8903C38.0105 17.8955 37.9733 17.9014 37.9361 17.9081C37.8728 17.9193 37.8103 17.9334 37.7486 17.9491C37.6771 17.9669 37.6072 17.9877 37.5387 18.0116C37.4003 18.0584 37.2671 18.1172 37.1391 18.1864L36.3532 18.2638C36.3539 18.5325 36.3577 19.2908 36.3785 20.0975C36.4053 21.1297 36.4604 22.2415 36.5742 22.5072C36.639 22.6598 36.9761 23.808 37.0535 25.3239C37.2425 29.0024 35.9045 34.845 25.4576 33.8813L25.4152 34.9567V34.9723L25.5164 35.0646L30.7056 39.7731L30.7093 39.7768L31.0643 40.0983L31.1573 40.0253L38.521 34.272L38.5262 34.2795L38.5143 33.5263L38.358 23.9174C38.3714 23.9174 38.3848 23.9189 38.399 23.9189C39.9141 23.9189 41.1495 22.6352 41.2135 21.0248C41.2157 20.9809 41.2165 20.9369 41.2165 20.893C41.2165 20.6542 41.1904 20.4212 41.1413 20.1987Z" fill="#C47451"/>
<path d="M25.4576 33.8812C25.3526 33.8715 25.247 33.8618 25.1398 33.8506C24.0749 33.7405 23.225 33.4205 22.5508 32.9554C19.6098 30.9297 19.9945 26.1461 20.3592 23.9284C20.4819 25.1399 20.764 26.2875 21.4293 27.246C21.7508 27.7089 22.1616 28.1271 22.687 28.4873C23.8695 29.2977 25.34 29.6281 26.7733 29.5381C26.911 29.5292 27.0494 29.5165 27.1863 29.5001C28.1002 29.3907 29.1249 29.1243 30.0447 28.6763C31.0777 28.1725 31.9789 27.4395 32.4418 26.4415C32.4782 26.3641 32.5117 26.2845 32.5422 26.2041C32.5631 26.1491 32.5824 26.0933 32.601 26.0374C32.8258 25.3476 32.8525 24.5952 32.6821 23.8905C32.6345 23.691 32.5705 23.496 32.4916 23.307C32.7662 23.2252 33.0267 23.1254 33.2715 23.0041C33.6042 22.8404 33.9078 22.638 34.1772 22.3917C34.4496 22.1416 34.6877 21.8462 34.8864 21.4994C35.2786 20.8155 35.487 20.0356 35.577 19.2557C35.5822 19.2118 35.6246 18.6328 35.6306 18.3351L36.3532 18.2637C36.3547 18.8754 36.3711 22.033 36.5742 22.507C36.7975 23.0294 40.2103 35.2423 25.4576 33.8812Z" fill="#541B0A"/>
<path d="M31.0643 40.0985L30.8604 40.2265L27.8472 42.1041L24.0049 38.9964L22.9132 38.113L22.8983 38.1019L23.5949 37.2289L24.6494 35.908L25.0111 35.4548L25.0602 35.3938L25.404 34.9629L25.4144 34.9726L25.7649 35.2903L31.0643 40.0985Z" fill="#009F62"/>
<path d="M29.6109 22.7471L25.4777 23.8953C27.2317 25.4336 29.7567 24.4312 29.6109 22.7471Z" fill="white"/>
<g style="mix-blend-mode:screen">
<path d="M22.277 28.0626H22.1475C20.9494 26.9783 20.5192 25.5078 20.3592 23.9287C20.3272 23.6176 20.3057 23.3028 20.2915 22.985C20.2662 22.4321 20.2617 21.8769 20.2759 21.3218L21.6102 21.3233C21.4867 23.698 21.6251 26.0905 22.277 28.0626Z" fill="#C47451"/>
</g>
<g style="mix-blend-mode:screen">
<path d="M21.9837 17.667H20.6196C20.6911 17.2234 20.7722 16.7821 20.863 16.3438C21.2514 14.4729 21.7285 12.5812 23.0419 11.194C23.1789 11.0497 23.324 10.912 23.4773 10.7803C23.2317 11.6227 22.4674 14.3792 21.9837 17.667Z" fill="#C47451"/>
</g>
<g style="mix-blend-mode:screen">
<path d="M36.1948 10.6515C36.0705 11.2208 34.344 11.5014 32.4024 10.4588C30.5657 9.47274 28.2468 9.6186 28.3711 9.0493C28.4954 8.48 31.5704 8.60279 33.0141 8.97786C35.0316 9.50177 36.319 10.0822 36.1948 10.6515Z" fill="#C47451"/>
</g>
<g style="mix-blend-mode:multiply" opacity="0.6">
<path d="M37.4993 17.9983H26.6803L26.7964 18.6882L27.0368 20.114C27.1871 21.0041 27.7065 21.3471 28.6092 21.3471L30.7852 21.2943C31.2481 21.2943 31.6902 20.8508 31.7475 20.3797L31.8851 19.2999L36.7581 18.4671C37.0037 18.2059 37.5 17.9976 37.5 17.9976L37.4993 17.9983Z" fill="#C47451"/>
</g>
<path d="M31.3427 18.7572L35.6299 18.3353L36.3533 18.2638L37.1391 18.1864C37.5179 17.9825 37.9458 17.8672 38.399 17.8672C38.6446 17.8672 38.8827 17.9014 39.1097 17.9647V17.8084C39.1097 17.7302 39.0465 17.667 38.9683 17.667H31.3486L31.3434 18.7572H31.3427Z" fill="#80A5F5"/>
<path d="M26.283 17.6672L26.399 18.3571L26.6759 19.9973C26.8054 20.7638 27.4684 21.3242 28.2454 21.3242H30.4943C30.9572 21.3242 31.3323 20.9506 31.3345 20.4877L31.3427 18.7567L31.3479 17.6665H26.283V17.6672Z" fill="#CEDFF1"/>
<g style="mix-blend-mode:multiply" opacity="0.6">
<path d="M26.4942 19.1263L26.2546 17.7324L24.3689 18.0152L24.2915 18.4744L22.4533 18.7371L21.7694 21.3015C22.0931 21.2904 22.4169 21.28 22.7406 21.2688C23.0784 21.2576 23.4714 21.2934 23.775 21.1177C24.0615 20.9525 24.3473 20.6295 24.4515 20.3289C24.6472 19.7641 24.7022 19.424 24.8489 18.8443C25.305 18.6448 25.8342 18.5867 26.495 19.1255L26.4942 19.1263Z" fill="#C47451"/>
</g>
<path d="M24.5281 17.6672L24.4307 18.4591C24.706 18.2916 25.5812 17.8615 26.405 18.5342L26.2829 17.6665H24.5281V17.6672Z" fill="#80A5F5"/>
<path d="M24.1352 19.9973L24.4247 18.2812L24.5281 17.6665H19.775L19.7505 18.663L19.6984 20.804C19.6917 21.0875 19.9194 21.3212 20.2029 21.3219H20.2759L22.5657 21.3249C23.3427 21.3249 24.0065 20.7638 24.1352 19.998V19.9973Z" fill="#CEDFF1"/>
<g style="mix-blend-mode:screen">
<path d="M41.1413 20.1987C41.1212 20.2032 41.1011 20.2047 41.081 20.2047C40.9932 20.2032 40.9024 20.1675 40.831 20.1139C40.7178 20.0298 40.6382 19.9092 40.5489 19.7998C40.3457 19.552 40.0763 19.357 39.7787 19.2372C39.6529 19.1866 39.5264 19.1747 39.4021 19.1234C39.2332 19.0534 39.0739 18.9783 38.8879 18.9641C38.7577 18.9537 38.6267 18.9723 38.4964 18.9574C38.1534 18.9172 37.8587 18.6151 37.8274 18.2705C37.8222 18.2095 37.8244 18.1463 37.8468 18.089C37.8817 17.9989 37.9614 17.9342 38.0484 17.8903C38.163 17.8754 38.2799 17.8672 38.399 17.8672C38.5917 17.8672 38.78 17.888 38.9616 17.9282C39.0114 17.9386 39.0605 17.9513 39.1097 17.9647C39.1483 17.9758 39.1871 17.987 39.225 17.9997C39.2563 18.0101 39.2868 18.0212 39.3173 18.0339C39.3314 18.0391 39.3448 18.0443 39.359 18.0503C39.3835 18.0696 39.4096 18.0875 39.4371 18.1031C39.5785 18.1835 39.7251 18.2281 39.8657 18.3115C39.8858 18.3234 39.9052 18.336 39.9253 18.3502C40.4752 18.7319 40.8935 19.3124 41.0907 19.9978C41.107 20.0544 41.1219 20.1124 41.1353 20.1704C41.1376 20.1801 41.1398 20.1891 41.1413 20.1987Z" fill="#C47451"/>
</g>
<g style="mix-blend-mode:screen">
<path d="M22.5508 32.9557C19.6098 30.93 19.9945 26.1464 20.3592 23.9287C20.4819 25.1402 20.764 26.2878 21.4293 27.2463C21.4181 27.5745 21.3072 31.567 22.5508 32.9557Z" fill="#662212"/>
</g>
<g style="mix-blend-mode:screen">
<path d="M33.7724 23.2189C33.3922 24.0702 33.7828 25.1299 33.6109 26.0289C33.4666 26.785 32.9866 27.4548 32.3652 27.9095C31.7438 28.3642 30.9899 28.6157 30.2271 28.7192C30.175 28.7259 30.1185 28.7311 30.0746 28.7035C30.0627 28.6961 30.053 28.6872 30.0448 28.6767C31.0777 28.1729 31.9789 27.4399 32.4418 26.4419C32.4783 26.3645 32.5118 26.2849 32.5423 26.2046C32.5631 26.1495 32.5825 26.0937 32.6011 26.0379C32.8221 25.3614 32.8757 24.5778 32.6837 23.8953C32.6837 23.8939 32.6837 23.8924 32.6822 23.8909C32.6346 23.6914 32.5706 23.4965 32.4917 23.3074C32.7663 23.2256 33.0268 23.1259 33.2716 23.0046C33.6042 22.8408 33.9079 22.6384 34.1773 22.3921C34.1282 22.6846 33.8982 22.9383 33.7724 23.2189Z" fill="#541B0A"/>
</g>
<path d="M32.3904 42.98C32.706 42.98 32.9619 42.7241 32.9619 42.4084C32.9619 42.0928 32.706 41.8369 32.3904 41.8369C32.0747 41.8369 31.8188 42.0928 31.8188 42.4084C31.8188 42.7241 32.0747 42.98 32.3904 42.98Z" fill="#C6A587"/>
<path d="M32.3904 46.7847C32.706 46.7847 32.9619 46.5288 32.9619 46.2131C32.9619 45.8975 32.706 45.6416 32.3904 45.6416C32.0747 45.6416 31.8188 45.8975 31.8188 46.2131C31.8188 46.5288 32.0747 46.7847 32.3904 46.7847Z" fill="#C6A587"/>
<path d="M32.3904 50.5898C32.706 50.5898 32.9619 50.3339 32.9619 50.0183C32.9619 49.7026 32.706 49.4468 32.3904 49.4468C32.0747 49.4468 31.8188 49.7026 31.8188 50.0183C31.8188 50.3339 32.0747 50.5898 32.3904 50.5898Z" fill="#C6A587"/>
<g style="mix-blend-mode:multiply" opacity="0.7">
<path d="M38.8819 17.3465C38.8782 17.3606 38.876 17.3747 38.8745 17.3896C38.8663 17.4603 38.8589 17.5072 38.844 17.5414C38.815 17.6084 38.7592 17.6248 38.6125 17.6672C38.166 17.6672 37.7277 17.694 37.2827 17.7118C37.2522 17.7133 37.2179 17.7133 37.1934 17.6947C37.1718 17.6784 37.1621 17.6501 37.1539 17.624C37.0297 17.2125 37.0431 16.7608 37.1904 16.3574C37.2462 16.2041 37.3206 16.059 37.3943 15.9139C37.4851 15.736 37.5759 15.5582 37.6667 15.3811C37.7374 15.2419 37.8088 15.102 37.8527 14.9517C37.9242 14.7083 37.9063 14.4664 37.9033 14.2171C37.9011 13.9998 37.9197 13.7803 37.9197 13.56C37.9197 13.3852 37.9286 13.1969 38.0358 13.0585C38.0418 13.051 38.0485 13.0428 38.0552 13.0361C38.0931 13.1314 38.1288 13.2274 38.1638 13.3249C38.614 14.5855 38.818 15.9972 38.8812 17.3472L38.8819 17.3465Z" fill="#C47451"/>
</g>
<g style="mix-blend-mode:screen" opacity="0.6">
<path d="M31.0658 40.0982L31.2407 40.1905L39.4193 35.6643L38.5382 34.272L31.0658 40.0982Z" fill="#009F62"/>
</g>
<g style="mix-blend-mode:screen" opacity="0.8">
<path d="M56.5653 41.3886C56.9769 41.7875 57.3385 42.2392 57.6437 42.7207C57.7382 42.8695 57.8267 43.0653 57.7293 43.2119C57.6154 43.383 57.3564 43.3406 57.1614 43.2736C55.135 42.58 53.2425 41.4861 51.1521 41.018C48.6986 40.4681 46.079 40.8059 43.6946 40.0074C42.7175 39.68 41.7322 39.0846 41.3892 38.1134C43.7512 38.0628 46.3045 38.7609 48.6427 39.1069C50.2829 39.3495 51.9231 39.5921 53.5633 39.8347C54.7183 40.0059 55.7408 40.5894 56.5653 41.3886Z" fill="#FBEFE3"/>
</g>
<g style="mix-blend-mode:multiply">
<path d="M24.0049 38.9961C22.9593 39.5379 21.7843 39.8378 20.6777 39.5029C20.4261 39.4263 20.1768 39.3132 19.9982 39.1204C19.8665 38.9783 19.7802 38.7863 19.7787 38.5958L22.9132 38.1128L24.0049 38.9961Z" fill="#D8B99C"/>
</g>
<g style="mix-blend-mode:multiply">
<path d="M25.9733 36.4796C25.9376 36.7035 25.8959 36.9923 25.8371 37.255C25.8036 37.4023 25.7657 37.5407 25.7195 37.6553C25.5774 38.0103 25.145 38.2931 24.8429 38.497C24.5765 38.6764 24.2959 38.846 24.0049 38.9964L22.9132 38.113L22.8983 38.1019C22.9303 38.1257 23.228 37.7201 23.5949 37.2289C23.9394 36.7683 24.345 36.2325 24.6494 35.908C24.822 35.7234 24.9627 35.6066 25.0416 35.6096C25.046 35.553 25.0349 35.5002 25.0111 35.4548L25.0602 35.3938L25.404 34.9629L25.4144 34.9726L25.7649 35.2903C25.9748 35.6416 26.038 36.074 25.9733 36.4796Z" fill="#009F62"/>
</g>
<g style="mix-blend-mode:screen" opacity="0.8">
<path d="M17.7881 38.9359C17.9235 38.9746 18.021 39.0758 18.0359 39.2916C18.0478 39.4724 17.9652 39.6466 17.8647 39.7984C17.4547 40.4183 16.7551 40.7889 16.0459 41.0099C15.3367 41.2309 14.5933 41.3277 13.8818 41.5428C12.8005 41.8702 11.8182 42.4626 10.8947 43.1145C10.6647 43.2767 10.437 43.4434 10.2048 43.6027C9.3118 44.2159 8.293 44.8261 7.24519 45.1208C6.99514 45.1915 5.66901 45.5182 5.98827 44.8648C6.28445 44.259 6.80613 43.7463 7.20575 43.209C7.51831 42.7885 7.83161 42.3681 8.14417 41.9476C8.97989 40.8246 10.2219 40.073 11.6046 39.8542C11.8212 39.8199 12.0385 39.7872 12.2558 39.7537C13.3192 39.59 14.3827 39.4255 15.4461 39.2618C15.9551 39.1837 16.4642 39.1048 16.9732 39.0267C17.1942 38.9924 17.5499 38.8667 17.7888 38.9351L17.7881 38.9359Z" fill="#FBEFE3"/>
</g>
<g style="mix-blend-mode:multiply" opacity="0.7">
<path d="M38.524 33.2091L30.9787 39.5436L26.4005 35.1269C37.0669 35.7044 37.4814 28.6577 37.0535 25.3237C37.2425 29.0022 35.9045 34.8448 25.4576 33.8811L25.4152 34.9565V34.9721L30.7063 39.7721V39.7736L30.7108 39.7766L30.7153 39.7788L31.0673 40.0981V39.9745L31.1588 40.0251L38.5225 34.2718L38.5277 34.2793L38.5255 33.2091H38.524Z" fill="#C47451"/>
</g>
<path d="M38.3989 24.0304C38.39 24.0304 38.3803 24.0304 38.3714 24.0304H38.3565C38.2947 24.0289 38.2456 23.9783 38.2463 23.9165C38.2471 23.8548 38.2962 23.8042 38.3595 23.8064H38.3803C38.3862 23.8071 38.3922 23.8079 38.3989 23.8079C39.891 23.8079 41.1048 22.5003 41.1048 20.8936C41.1048 19.566 40.272 18.4058 39.0798 18.0724C39.0203 18.0561 38.9861 17.9943 39.0024 17.9348C39.0188 17.8752 39.0806 17.8403 39.1401 17.8574C40.4283 18.2168 41.328 19.4655 41.328 20.8929C41.328 22.6231 40.0138 24.0304 38.3989 24.0304Z" fill="#231F20"/>
<path d="M36.5936 18.6809C36.5631 18.6809 36.5326 18.6682 36.5102 18.6437C36.4693 18.5975 36.473 18.5268 36.5184 18.4859C36.6911 18.3311 36.8816 18.1971 37.0855 18.087C37.1398 18.058 37.2075 18.0781 37.2366 18.1324C37.2656 18.1867 37.2455 18.2545 37.1912 18.2835C37.0029 18.3847 36.8265 18.509 36.6673 18.6518C36.6457 18.6712 36.6196 18.6801 36.5929 18.6801L36.5936 18.6809Z" fill="#231F20"/>
<path d="M37.1398 18.2979C37.1004 18.2979 37.0617 18.2763 37.0416 18.2391C37.0126 18.1848 37.0327 18.117 37.087 18.088C37.497 17.8677 37.9391 17.7554 38.3997 17.7554C38.6505 17.7554 38.8998 17.7896 39.141 17.8566C39.2005 17.873 39.2347 17.9347 39.2183 17.9943C39.202 18.0538 39.1402 18.088 39.0807 18.0717C38.8596 18.0099 38.6304 17.9786 38.3997 17.9786C37.9763 17.9786 37.5707 18.0813 37.1934 18.2845C37.1763 18.2934 37.1584 18.2979 37.1406 18.2979H37.1398Z" fill="#231F20"/>
<path d="M38.358 24.0288H38.3565C37.9383 24.0221 37.5364 23.9247 37.1621 23.7371C37.107 23.7096 37.0847 23.6426 37.1123 23.5875C37.1398 23.5325 37.2068 23.5101 37.2618 23.5377C37.6057 23.7096 37.9755 23.7996 38.3595 23.8056C38.4213 23.8063 38.4704 23.8569 38.4697 23.9187C38.4689 23.9797 38.419 24.0288 38.358 24.0288Z" fill="#231F20"/>
<path d="M38.905 22.4542C38.8827 22.4542 38.8604 22.4475 38.8403 22.4334C38.8105 22.4118 38.1035 21.9057 38.0306 21.3483C38.0053 21.1534 38.0581 20.9762 38.1869 20.8207C38.5634 20.369 39.0963 20.7813 39.324 20.9569C39.3433 20.9718 39.3686 20.9926 39.3977 21.0164C39.7586 21.3134 39.8665 21.3349 39.8985 21.3208C39.8985 21.3208 39.9231 21.294 39.9156 21.1734C39.8933 20.8259 39.7854 20.4851 39.6023 20.1881C39.4542 19.947 39.2793 19.7736 39.0829 19.6739C38.6587 19.4588 38.1132 19.5608 37.6347 19.6895C37.5752 19.7059 37.5141 19.6702 37.4978 19.6106C37.4814 19.5511 37.5171 19.4901 37.5766 19.4737C38.0953 19.3346 38.6922 19.2252 39.1833 19.4745C39.417 19.5928 39.6224 19.7937 39.7921 20.0706C39.9938 20.398 40.1128 20.7746 40.1374 21.1586C40.1493 21.3446 40.1031 21.4659 39.9997 21.5195C39.8055 21.6192 39.5257 21.4108 39.2555 21.1883C39.2287 21.166 39.2049 21.1467 39.1871 21.1333C38.8328 20.8594 38.556 20.7255 38.358 20.9628C38.2687 21.07 38.2345 21.1861 38.2516 21.3186C38.3111 21.7792 38.9623 22.2458 38.969 22.2503C39.0196 22.286 39.0308 22.356 38.9958 22.4058C38.9742 22.4363 38.9392 22.4527 38.9043 22.4527L38.905 22.4542Z" fill="#231F20"/>
<path d="M25.5089 22.0573C25.1874 22.0573 25.0244 21.7246 24.9589 21.5914C24.5987 20.8576 24.8652 19.9445 25.0959 19.3216C25.1174 19.2636 25.1814 19.2346 25.2395 19.2562C25.2975 19.2777 25.3266 19.3417 25.305 19.3998C25.0877 19.984 24.8369 20.8368 25.1591 21.4939C25.2901 21.7603 25.4114 21.8608 25.5669 21.8281C25.8735 21.7641 26.1533 21.6033 26.4093 21.4389C26.4614 21.4054 26.5306 21.421 26.5634 21.4731C26.5961 21.5252 26.5812 21.5936 26.5292 21.6271C26.2545 21.8028 25.9539 21.9754 25.6116 22.0468C25.5751 22.0543 25.5401 22.058 25.5074 22.058L25.5089 22.0573Z" fill="#231F20"/>
<path d="M38.5262 34.391C38.4651 34.391 38.4153 34.3419 38.4145 34.2809L38.2463 23.9189C38.2456 23.8571 38.2947 23.8065 38.3565 23.8057C38.416 23.8035 38.4689 23.8541 38.4696 23.9159L38.6378 34.2779C38.6385 34.3397 38.5894 34.3903 38.5277 34.391H38.5254H38.5262Z" fill="#231F20"/>
<path d="M-0.691676 53.9348C-0.714746 53.9348 -0.738561 53.9273 -0.757909 53.9124C-0.80777 53.8759 -0.817449 53.806 -0.780984 53.7562L1.86757 50.1967C1.90404 50.1476 1.97474 50.1372 2.02386 50.1736C2.07372 50.2101 2.08339 50.2801 2.04692 50.3299L-0.601632 53.8893C-0.623214 53.9191 -0.657442 53.934 -0.690931 53.934L-0.691676 53.9348Z" fill="#231F20"/>
<path d="M1.95688 50.3753C1.93381 50.3753 1.91 50.3678 1.89065 50.3529C1.84079 50.3165 1.83111 50.2466 1.86758 50.1967L8.05474 41.8819C8.91353 40.7284 10.1675 39.9693 11.5874 39.7446L22.896 38.0017C22.9563 37.9928 23.0136 38.0337 23.0233 38.0947C23.033 38.1558 22.9906 38.2123 22.9303 38.222L11.6216 39.9649C10.2605 40.1799 9.05716 40.9085 8.23335 42.0144L2.04618 50.3291C2.0246 50.3589 1.99037 50.3738 1.95688 50.3738V50.3753Z" fill="#231F20"/>
<path d="M66.9965 69.2425H-5.71198C-5.77375 69.2425 -5.82361 69.1926 -5.82361 69.1308V61.6615C-5.82361 61.5997 -5.77375 61.5498 -5.71198 61.5498C-5.65021 61.5498 -5.60035 61.5997 -5.60035 61.6615V69.0192H66.8849L66.8797 59.2049C66.8797 59.1431 66.9295 59.0933 66.9913 59.0933C67.053 59.0933 67.1029 59.1431 67.1029 59.2049L67.1081 69.1308C67.1081 69.1606 67.0962 69.1889 67.0754 69.2097C67.0545 69.2306 67.0263 69.2425 66.9965 69.2425Z" fill="#231F20"/>
<path d="M62.3096 49.7908C62.2739 49.7908 62.2389 49.7736 62.2173 49.7416L57.0609 42.1725C56.2504 40.9818 54.9697 40.1699 53.5453 39.9444L40.8592 38.0683C40.7982 38.0594 40.7557 38.0028 40.7654 37.9418C40.7743 37.8808 40.8309 37.8384 40.8919 37.8481L53.5795 39.7241C55.0649 39.9593 56.4008 40.8062 57.2454 42.0475L62.4019 49.6166C62.4369 49.6672 62.4235 49.7372 62.3729 49.7714C62.3535 49.7848 62.3319 49.7908 62.3103 49.7908H62.3096Z" fill="#231F20"/>
<path d="M64.2676 52.6649C64.2319 52.6649 64.1969 52.6477 64.1754 52.6157L62.2174 49.7417C62.1824 49.6911 62.1958 49.6212 62.2464 49.5869C62.2978 49.5519 62.367 49.5653 62.4012 49.6159L64.3592 52.49C64.3942 52.5406 64.3808 52.6105 64.3302 52.6448C64.3108 52.6582 64.2892 52.6641 64.2676 52.6641V52.6649Z" fill="#231F20"/>
<path d="M25.4144 35.0838C25.4144 35.0838 25.4115 35.0838 25.41 35.0838C25.3482 35.0815 25.3006 35.0294 25.3028 34.9677L25.346 33.8767C25.3482 33.8164 25.3981 33.7695 25.4576 33.7695C25.4591 33.7695 25.4606 33.7695 25.4621 33.7695C25.5238 33.7718 25.5715 33.8239 25.5692 33.8856L25.5261 34.9766C25.5238 35.0369 25.474 35.0838 25.4144 35.0838Z" fill="#231F20"/>
<path d="M20.6196 17.7783C20.6137 17.7783 20.6077 17.7783 20.6018 17.7768C20.5407 17.7672 20.4998 17.7099 20.5095 17.6488C20.5809 17.2031 20.6635 16.7566 20.7536 16.3205C21.1398 14.4585 21.6287 12.5229 22.9608 11.1164C24.284 9.71954 26.5463 8.80494 29.1666 8.60773C31.6507 8.42094 34.1058 8.90615 35.7333 9.90633C37.142 10.7726 38.8529 12.8213 39.0055 17.6622C39.0077 17.724 38.9593 17.7754 38.8976 17.7776C38.8358 17.7798 38.7845 17.7315 38.7822 17.6697C38.6996 15.0524 38.0834 11.6142 35.6157 10.0968C34.0269 9.12048 31.6209 8.64717 29.1822 8.83024C26.6163 9.02299 24.4075 9.91229 23.1216 11.2697C21.8304 12.6338 21.3512 14.5352 20.9709 16.3651C20.8816 16.7975 20.7997 17.241 20.7283 17.6831C20.7193 17.7381 20.6717 17.7768 20.6181 17.7768L20.6196 17.7783Z" fill="#231F20"/>
<path d="M20.3584 24.0401C20.3019 24.0401 20.2535 23.997 20.2475 23.9396C20.2178 23.6435 20.1954 23.3324 20.1798 22.9901C20.1553 22.4513 20.1501 21.8887 20.1634 21.3186C20.1649 21.2576 20.2148 21.21 20.2751 21.21H20.278C20.3398 21.2114 20.3882 21.2628 20.3867 21.3246C20.3726 21.8894 20.3785 22.4468 20.4023 22.9804C20.418 23.319 20.4395 23.6256 20.4693 23.9181C20.4753 23.9791 20.4306 24.0341 20.3696 24.0401C20.3659 24.0401 20.3621 24.0401 20.3584 24.0401Z" fill="#231F20"/>
<path d="M26.3252 29.6628C24.9656 29.6628 23.6521 29.2832 22.6244 28.5792C20.8093 27.335 20.4008 25.4462 20.2482 23.94C20.2423 23.879 20.2869 23.8239 20.3479 23.8179C20.4097 23.8127 20.464 23.8566 20.47 23.9177C20.6903 26.084 21.3935 27.4652 22.7509 28.3954C23.9543 29.22 25.5662 29.5824 27.1736 29.3897C29.1278 29.1552 31.6797 28.1692 32.4387 26.1651C32.7796 25.2646 32.7617 24.2391 32.3896 23.3506C32.3777 23.3216 32.3784 23.2881 32.3918 23.2598C32.4052 23.2315 32.4305 23.2099 32.4611 23.201C33.5342 22.8817 34.2962 22.3072 34.7903 21.4455C35.1416 20.833 35.3693 20.0925 35.4676 19.2442C35.472 19.204 35.5144 18.628 35.5204 18.334C35.5219 18.2723 35.5725 18.2232 35.6343 18.2246C35.696 18.2261 35.7451 18.2767 35.7437 18.3385C35.7384 18.6347 35.696 19.2152 35.6901 19.2702C35.5881 20.1484 35.3515 20.9179 34.9853 21.5564C34.4793 22.439 33.712 23.0358 32.6426 23.3789C32.9917 24.292 32.9954 25.3294 32.6493 26.2447C31.8553 28.3426 29.2186 29.3703 27.2026 29.6122C26.9109 29.6472 26.6184 29.6643 26.3282 29.6643L26.3252 29.6628Z" fill="#231F20"/>
<path d="M25.4575 33.9928C25.4575 33.9928 25.4508 33.9928 25.4471 33.9928C25.3414 33.9831 25.2357 33.9727 25.1286 33.9616C23.5174 33.7949 22.2635 33.1378 21.4009 32.0096C20.6381 31.0109 19.4735 28.631 20.2482 23.9106C20.2579 23.8496 20.3159 23.8086 20.3762 23.8183C20.4372 23.828 20.4781 23.886 20.4685 23.9463C19.7072 28.5841 20.8368 30.9037 21.5781 31.8734C22.4011 32.951 23.6037 33.5791 25.1509 33.7391C25.2573 33.7502 25.3622 33.7599 25.4672 33.7703C25.5282 33.7763 25.5736 33.8306 25.5676 33.8916C25.5624 33.9497 25.5133 33.9928 25.4568 33.9928H25.4575Z" fill="#231F20"/>
<path d="M27.647 34.0985C26.9505 34.0985 26.2174 34.0628 25.4472 33.9921C25.3854 33.9861 25.3408 33.9318 25.346 33.8708C25.3519 33.809 25.4063 33.7651 25.4673 33.7696C30.3886 34.2235 33.7865 33.2129 35.5666 30.7661C36.796 29.0768 36.9985 27.0027 36.9523 25.5597C36.8995 23.9233 36.5237 22.6708 36.4716 22.5502C36.2654 22.0695 36.2438 19.1471 36.2416 18.263C36.2416 18.2012 36.2915 18.1514 36.3532 18.1514C36.415 18.1514 36.4649 18.2012 36.4649 18.263C36.4686 19.9806 36.5259 22.1112 36.6762 22.4632C36.7328 22.5949 37.1198 23.8585 37.1748 25.5538C37.2225 27.031 37.0133 29.1579 35.7467 30.8985C34.1988 33.0262 31.4788 34.0993 27.647 34.0993V34.0985Z" fill="#231F20"/>
<path d="M26.2828 17.7784H24.528C24.4662 17.7784 24.4164 17.7286 24.4164 17.6668C24.4164 17.605 24.4662 17.5552 24.528 17.5552H26.2828C26.3446 17.5552 26.3944 17.605 26.3944 17.6668C26.3944 17.7286 26.3446 17.7784 26.2828 17.7784Z" fill="#231F20"/>
<path d="M31.3478 17.7784H26.2829C26.2211 17.7784 26.1713 17.7286 26.1713 17.6668C26.1713 17.605 26.2211 17.5552 26.2829 17.5552H31.3478C31.4096 17.5552 31.4594 17.605 31.4594 17.6668C31.4594 17.7286 31.4096 17.7784 31.3478 17.7784Z" fill="#231F20"/>
<path d="M20.6196 17.7784H19.7757C19.7139 17.7784 19.6641 17.7286 19.6641 17.6668C19.6641 17.605 19.7139 17.5552 19.7757 17.5552H20.6196C20.6814 17.5552 20.7312 17.605 20.7312 17.6668C20.7312 17.7286 20.6814 17.7784 20.6196 17.7784Z" fill="#231F20"/>
<path d="M24.528 17.7784H20.6196C20.5578 17.7784 20.5079 17.7286 20.5079 17.6668C20.5079 17.605 20.5578 17.5552 20.6196 17.5552H24.528C24.5898 17.5552 24.6396 17.605 24.6396 17.6668C24.6396 17.7286 24.5898 17.7784 24.528 17.7784Z" fill="#231F20"/>
<path d="M38.8946 17.7784H31.3478C31.2861 17.7784 31.2362 17.7286 31.2362 17.6668C31.2362 17.605 31.2861 17.5552 31.3478 17.5552H38.8946C38.9564 17.5552 39.0063 17.605 39.0063 17.6668C39.0063 17.7286 38.9564 17.7784 38.8946 17.7784Z" fill="#231F20"/>
<path d="M39.1097 18.0759C39.0479 18.0759 38.998 18.026 38.998 17.9642V17.834C38.998 17.8028 38.9727 17.7775 38.9415 17.7775H38.8946C38.8328 17.7775 38.783 17.7276 38.783 17.6658C38.783 17.6041 38.8328 17.5542 38.8946 17.5542H38.9415C39.0955 17.5542 39.2213 17.6792 39.2213 17.8333V17.9628C39.2213 18.0245 39.1714 18.0744 39.1104 18.0744L39.1097 18.0759Z" fill="#231F20"/>
<path d="M19.7616 18.774H19.7512C19.6894 18.774 19.6395 18.7242 19.6395 18.6624C19.6395 18.6006 19.6894 18.5508 19.7512 18.5508H19.7616C19.8233 18.5508 19.8732 18.6006 19.8732 18.6624C19.8732 18.7242 19.8233 18.774 19.7616 18.774Z" fill="#231F20"/>
<path d="M19.7511 18.7741H19.4058C19.2435 18.7741 19.1111 18.6417 19.1111 18.4794V17.8499C19.1111 17.6876 19.2435 17.5552 19.4058 17.5552H19.7756C19.8374 17.5552 19.8873 17.605 19.8873 17.6668C19.8873 17.7286 19.8374 17.7784 19.7756 17.7784H19.4058C19.3663 17.7784 19.3343 17.8104 19.3343 17.8499V18.4794C19.3343 18.5189 19.3663 18.5509 19.4058 18.5509H19.7511C19.8128 18.5509 19.8627 18.6007 19.8627 18.6625C19.8627 18.7243 19.8128 18.7741 19.7511 18.7741Z" fill="#231F20"/>
<path d="M36.3532 18.3751C36.2967 18.3751 36.2476 18.332 36.2424 18.2747C36.2364 18.2137 36.281 18.1586 36.3428 18.1526L37.1287 18.0752C37.1912 18.0693 37.2448 18.1139 37.2507 18.1757C37.2567 18.2367 37.212 18.2918 37.1503 18.2978L36.3644 18.3751C36.3644 18.3751 36.357 18.3751 36.3532 18.3751Z" fill="#231F20"/>
<path d="M35.6306 18.4459C35.574 18.4459 35.5257 18.4027 35.5197 18.3454C35.5137 18.2836 35.5584 18.2293 35.6202 18.2233L36.3435 18.1519C36.4053 18.1459 36.4596 18.1906 36.4656 18.2524C36.4715 18.3141 36.4269 18.3685 36.3651 18.3744L35.6417 18.4459C35.638 18.4459 35.6343 18.4459 35.6306 18.4459Z" fill="#231F20"/>
<path d="M31.3426 18.8686C31.2861 18.8686 31.2369 18.8255 31.2317 18.7682C31.2258 18.7071 31.2704 18.6521 31.3322 18.6461L35.6195 18.2242C35.6812 18.2182 35.7355 18.2629 35.7415 18.3246C35.7475 18.3864 35.7028 18.4407 35.641 18.4467L31.3538 18.8686C31.3538 18.8686 31.3463 18.8686 31.3426 18.8686Z" fill="#231F20"/>
<path d="M24.4246 18.3933C24.4187 18.3933 24.412 18.3933 24.406 18.3918C24.345 18.3814 24.3041 18.3241 24.3145 18.263L24.4179 17.6483C24.4283 17.5873 24.4864 17.5464 24.5467 17.5568C24.6077 17.5672 24.6486 17.6245 24.6382 17.6855L24.5348 18.3002C24.5258 18.3546 24.4782 18.3933 24.4246 18.3933Z" fill="#231F20"/>
<path d="M22.5657 21.4361L20.2751 21.4331C20.2133 21.4331 20.1635 21.3833 20.1635 21.3215C20.1635 21.2597 20.2133 21.2099 20.2751 21.2099L22.5649 21.2128C23.2898 21.2128 23.9037 20.6942 24.0243 19.979L24.3138 18.2629C24.3242 18.2019 24.3815 18.1617 24.4425 18.1714C24.5035 18.1818 24.5445 18.2391 24.5341 18.3001L24.2446 20.0162C24.1061 20.8393 23.3992 21.4368 22.5649 21.4368L22.5657 21.4361Z" fill="#231F20"/>
<path d="M19.7512 18.7741H19.7482C19.6864 18.7727 19.6381 18.7213 19.6396 18.6595L19.6641 17.6638C19.6656 17.6021 19.7192 17.5552 19.7787 17.5552C19.8405 17.5567 19.8889 17.608 19.8874 17.6698L19.8628 18.6655C19.8613 18.7265 19.8115 18.7741 19.7512 18.7741Z" fill="#231F20"/>
<path d="M20.2758 21.4333H20.2028C20.0354 21.4333 19.8784 21.367 19.7615 21.2472C19.6447 21.1274 19.5822 20.9689 19.5866 20.8014L19.6395 18.6604C19.641 18.5986 19.6953 18.551 19.7541 18.5518C19.8159 18.5533 19.8642 18.6046 19.8627 18.6664L19.8099 20.8074C19.8069 20.9138 19.8471 21.015 19.9215 21.0917C19.996 21.1683 20.0957 21.2107 20.2028 21.2107H20.2758C20.3375 21.2107 20.3874 21.2606 20.3874 21.3224C20.3874 21.3841 20.3375 21.434 20.2758 21.434V21.4333Z" fill="#231F20"/>
<path d="M26.399 18.4684C26.3454 18.4684 26.2985 18.4297 26.2889 18.3754L26.1728 17.6855C26.1623 17.6245 26.2033 17.5672 26.2643 17.5568C26.3246 17.5464 26.3826 17.5873 26.393 17.6483L26.5091 18.3382C26.5196 18.3992 26.4786 18.4565 26.4176 18.4669C26.4116 18.4677 26.4049 18.4684 26.399 18.4684Z" fill="#231F20"/>
<path d="M30.4942 21.4358H28.2453C27.4103 21.4358 26.7041 20.8382 26.5657 20.0152L26.2889 18.375C26.2784 18.314 26.3194 18.2567 26.3804 18.2462C26.4407 18.2358 26.4987 18.2768 26.5091 18.3378L26.786 19.978C26.9065 20.6931 27.5205 21.2118 28.2453 21.2118H30.4942C30.8939 21.2118 31.2213 20.8866 31.2228 20.4862L31.231 18.7553C31.231 18.6935 31.2809 18.6444 31.3426 18.6444C31.4044 18.6444 31.4542 18.695 31.4535 18.7568L31.4453 20.4877C31.4423 21.0101 31.0159 21.4351 30.4935 21.4351L30.4942 21.4358Z" fill="#231F20"/>
<path d="M31.3426 18.8687C31.2808 18.8687 31.231 18.8181 31.2317 18.7563L31.2369 17.6661C31.2369 17.6043 31.2868 17.5552 31.3485 17.5552C31.4103 17.5552 31.4602 17.6058 31.4594 17.6675L31.4542 18.7578C31.4542 18.8195 31.4043 18.8687 31.3426 18.8687Z" fill="#231F20"/>
<path d="M26.399 18.7055C26.3744 18.7055 26.3491 18.6973 26.3283 18.6802C25.5752 18.0655 24.7863 18.4294 24.482 18.614C24.4291 18.646 24.3607 18.6289 24.3287 18.5768C24.2967 18.5239 24.3138 18.4555 24.3659 18.4235C24.6353 18.2605 25.5819 17.7835 26.4689 18.5076C26.5166 18.5463 26.524 18.6169 26.4846 18.6646C26.4622 18.6914 26.4302 18.7055 26.3982 18.7055H26.399Z" fill="#231F20"/>
<path d="M27.4378 24.7632C26.7733 24.7632 26.0439 24.5392 25.4047 23.9789C25.3742 23.9521 25.36 23.9104 25.3697 23.8702C25.3786 23.83 25.4092 23.7988 25.4486 23.7876L29.5818 22.6393C29.6138 22.6304 29.648 22.6364 29.6756 22.655C29.7031 22.6736 29.7202 22.7041 29.7232 22.7368C29.7865 23.4616 29.3876 24.1158 28.6568 24.4856C28.3145 24.659 27.8918 24.7632 27.4386 24.7632H27.4378ZM25.715 23.9446C26.6802 24.6836 27.8203 24.6583 28.5556 24.2862C29.1554 23.9826 29.5022 23.4684 29.5059 22.8916L25.7158 23.9446H25.715Z" fill="#231F20"/>
<path d="M31.0642 40.2095C31.0441 40.2095 31.024 40.2043 31.0054 40.1924C30.9764 40.1746 30.9571 40.1441 30.9533 40.1098C30.9496 40.0756 30.9608 40.0421 30.9853 40.0183C31.0292 39.9744 31.0999 39.9744 31.1431 40.0183C31.1587 40.0339 31.1691 40.0533 31.1736 40.0734C31.1796 40.1009 31.1751 40.1307 31.1595 40.1567C31.1379 40.1909 31.1022 40.2095 31.065 40.2095H31.0642Z" fill="#231F20"/>
<path d="M31.0643 40.2087C31.0308 40.2087 30.998 40.1938 30.9764 40.1656C30.9385 40.1172 30.9474 40.0465 30.9958 40.0085L38.4525 34.183C38.4771 34.1637 38.5091 34.1555 38.5404 34.1607C38.5716 34.1659 38.5984 34.1838 38.6155 34.2106L38.62 34.218C38.6535 34.2701 38.6378 34.3393 38.5865 34.3721C38.5768 34.3788 38.5657 34.3832 38.5552 34.3862L31.1335 40.1849C31.1134 40.2005 31.0888 40.2087 31.065 40.2087H31.0643Z" fill="#231F20"/>
<path d="M34.8775 42.579C34.8574 42.579 34.8366 42.573 34.8187 42.5618L31.0062 40.1923C30.9541 40.1596 30.9378 40.0911 30.9705 40.0383C31.0033 39.9862 31.0717 39.9698 31.1246 40.0026L34.8723 42.3319L40.7722 37.9189C40.7804 37.8965 40.7953 37.8772 40.8168 37.863C40.8689 37.8303 40.9381 37.8452 40.9709 37.8973L40.9806 37.9129C41.0118 37.962 40.9999 38.0275 40.953 38.0625L34.9445 42.5566C34.9244 42.5715 34.9013 42.579 34.8775 42.579Z" fill="#231F20"/>
<path d="M40.8756 38.0695C40.8392 38.0695 40.8027 38.0517 40.7819 38.0182L38.4317 34.3397C38.3982 34.2876 38.4139 34.2184 38.466 34.1856C38.518 34.1521 38.5865 34.1678 38.62 34.2199L40.9701 37.8984C41.0036 37.9505 40.988 38.0197 40.9359 38.0524C40.9173 38.0643 40.8965 38.0703 40.8756 38.0703V38.0695Z" fill="#231F20"/>
<path d="M22.9132 38.224C22.8886 38.224 22.8641 38.2158 22.8432 38.1995L22.8291 38.1876C22.7815 38.1489 22.7733 38.0789 22.812 38.0313L25.3169 34.893C25.3363 34.8685 25.3645 34.8536 25.3958 34.8514C25.4271 34.8491 25.4568 34.8596 25.4799 34.8804L25.4903 34.8901C25.5357 34.9317 25.5387 35.0025 25.497 35.0478C25.4858 35.0605 25.4717 35.0694 25.4568 35.0761L23.0248 38.1236C23.0226 38.1451 23.0151 38.166 23.0003 38.1838C22.9779 38.2114 22.9459 38.2255 22.9132 38.2255V38.224Z" fill="#231F20"/>
<path d="M30.9802 40.1709C30.9415 40.1248 30.9452 40.0563 30.9891 40.0161C31.033 39.9752 31.1015 39.9767 31.1439 40.0191L31.0658 40.0987L30.9809 40.1716L30.9802 40.1709Z" fill="#231F20"/>
<path d="M27.8471 42.2151C27.8218 42.2151 27.7972 42.2069 27.7771 42.1905L22.8432 38.1995C22.7956 38.1608 22.7881 38.0908 22.8268 38.0425C22.8655 37.9948 22.9354 37.9866 22.9838 38.0261L27.856 41.9673L30.8015 40.1314C30.8536 40.0986 30.9228 40.1143 30.9556 40.1671C30.9883 40.2192 30.9719 40.2884 30.9198 40.3211L27.9066 42.1995C27.8888 42.2106 27.8679 42.2166 27.8478 42.2166L27.8471 42.2151Z" fill="#231F20"/>
<path d="M31.0643 40.2089C31.0375 40.2089 31.0107 40.1992 30.9891 40.1798L25.3392 35.0546C25.2938 35.0129 25.2901 34.9423 25.3318 34.8969C25.3735 34.8515 25.4442 34.8477 25.4896 34.8894L31.1394 40.0146C31.1848 40.0563 31.1885 40.127 31.1469 40.1724C31.1245 40.1969 31.0948 40.2089 31.0643 40.2089Z" fill="#231F20"/>
<path d="M30.8603 40.3369C30.8231 40.3369 30.7866 40.3183 30.7658 40.284C30.7331 40.232 30.7494 40.1627 30.8015 40.13L31.0062 40.0027C31.0583 39.97 31.1275 39.9864 31.1602 40.0385C31.193 40.0906 31.1766 40.1598 31.1245 40.1925L30.9199 40.3198C30.9012 40.3309 30.8812 40.3369 30.8611 40.3369H30.8603Z" fill="#231F20"/>
<path d="M34.0439 51.8213H31.3291C31.0091 51.8213 30.7479 51.5609 30.7479 51.2401V40.2254C30.7479 40.1636 30.7978 40.1138 30.8596 40.1138C30.9213 40.1138 30.9712 40.1636 30.9712 40.2254V51.2401C30.9712 51.4373 31.1319 51.5981 31.3291 51.5981H34.0439C34.1057 51.5981 34.1556 51.6479 34.1556 51.7097C34.1556 51.7715 34.1057 51.8213 34.0439 51.8213Z" fill="#231F20"/>
<path d="M64.2676 52.6649C64.2319 52.6649 64.1969 52.6477 64.1754 52.6157L62.2174 49.7417C62.1824 49.6911 62.1958 49.6212 62.2464 49.5869C62.2978 49.5519 62.367 49.5653 62.4012 49.6159L64.3592 52.49C64.3942 52.5406 64.3808 52.6105 64.3302 52.6448C64.3108 52.6582 64.2892 52.6641 64.2676 52.6641V52.6649Z" fill="#231F20"/>
<path d="M-0.691676 53.9348C-0.714746 53.9348 -0.738561 53.9273 -0.757909 53.9124C-0.80777 53.8759 -0.817449 53.806 -0.780984 53.7562L1.86757 50.1967C1.90404 50.1476 1.97474 50.1372 2.02386 50.1736C2.07372 50.2101 2.08339 50.2801 2.04692 50.3299L-0.601632 53.8893C-0.623214 53.9191 -0.657442 53.934 -0.690931 53.934L-0.691676 53.9348Z" fill="#231F20"/>
<path d="M32.6881 57.0803C24.0934 57.0803 15.4788 55.9767 7.04266 54.8954C4.50052 54.5694 1.87205 54.2331 -0.704319 53.9332C-0.765342 53.9257 -0.809245 53.8707 -0.802548 53.8096C-0.795106 53.7486 -0.740043 53.704 -0.679019 53.7114C1.89884 54.0113 4.52805 54.3477 7.07019 54.6736C20.5199 56.3972 34.4272 58.1788 47.9558 55.4439C49.6414 55.103 51.3188 54.6513 52.9403 54.2137C55.4244 53.5447 57.9926 52.8526 60.6188 52.5549C61.7984 52.4217 63.0456 52.4314 64.2512 52.4411H64.2676C64.3294 52.4411 64.3792 52.4924 64.3785 52.5535C64.3785 52.6145 64.3279 52.6643 64.2668 52.6643H64.2497C63.0508 52.6546 61.8103 52.645 60.6442 52.7767C58.0343 53.0722 55.4743 53.7628 52.9984 54.4295C51.3731 54.8679 49.692 55.3203 47.9997 55.6627C42.9318 56.6874 37.8133 57.0796 32.6873 57.0796L32.6881 57.0803Z" fill="#231F20"/>
<path d="M32.4499 53.691C28.6285 53.691 25.0192 53.3695 21.872 53.0094C18.8797 52.667 15.8478 52.2258 12.9165 51.7993C9.3258 51.2769 5.61305 50.7374 1.94644 50.3742C1.88542 50.3682 1.84003 50.3132 1.84673 50.2522C1.85268 50.1904 1.90924 50.1457 1.96877 50.1517C5.64059 50.5149 9.3563 51.0551 12.9492 51.5783C15.8791 52.0047 18.9094 52.4453 21.8981 52.7876C28.528 53.5467 37.2127 54.1316 45.5944 51.8938C46.3461 51.6929 47.1044 51.4667 47.8389 51.2479C48.9842 50.9063 50.1682 50.5535 51.3552 50.2871C55.0024 49.47 58.6944 49.4648 61.8244 49.5683C61.9598 49.5727 62.1176 49.5727 62.3074 49.5668C62.3654 49.5638 62.4205 49.6136 62.422 49.6747C62.4235 49.7357 62.3751 49.7878 62.3141 49.7893C62.1206 49.7952 61.9576 49.7952 61.817 49.7908C58.701 49.6881 55.0277 49.6918 51.4043 50.5037C50.2248 50.7679 49.0445 51.1199 47.9029 51.46C47.1677 51.6795 46.4071 51.9057 45.6525 52.1074C41.2186 53.2914 36.7029 53.6888 32.4506 53.6888L32.4499 53.691Z" fill="#231F20"/>
<path d="M32.4514 61.1586C28.6292 61.1586 25.0199 60.8371 21.872 60.4769C18.905 60.1375 15.9014 59.7007 12.9969 59.278C11.3976 59.0451 9.74402 58.8047 8.11574 58.5837C5.26551 58.196 3.08132 57.9407 1.03481 57.7569C0.464018 57.7056 -0.131333 57.5768 -0.762403 57.4414C-1.49543 57.2836 -2.25301 57.1206 -2.97859 57.0842L-4.72965 59.4373C-4.76612 59.4871 -4.83608 59.4968 -4.88594 59.4604C-4.93506 59.4239 -4.94547 59.3539 -4.90901 59.3041L-3.12296 56.9033C-3.10138 56.8735 -3.0664 56.8579 -3.02919 56.8587C-2.2664 56.8892 -1.47831 57.0589 -0.716263 57.2233C-0.0926352 57.3573 0.496762 57.4845 1.05341 57.5351C3.10365 57.719 5.29081 57.9749 8.14477 58.3634C9.77379 58.5852 11.4281 58.8256 13.0281 59.0585C15.9312 59.4805 18.9325 59.9173 21.8966 60.2566C28.5273 61.0164 37.2134 61.6006 45.593 59.3629C46.3476 59.1612 47.1089 58.9342 47.8463 58.7147C48.9887 58.3738 50.1697 58.0218 51.3537 57.7569C53.68 57.2352 56.1232 57.2434 58.4852 57.2516C61.3079 57.2613 64.2259 57.2709 66.8938 56.3586C66.9407 56.3422 66.9935 56.3601 67.0218 56.401L67.0642 56.4628C67.0992 56.5134 67.0858 56.5833 67.0352 56.6176C66.9868 56.6503 66.9221 56.6406 66.8856 56.596C64.2051 57.4935 61.2975 57.483 58.4845 57.4734C56.1351 57.4652 53.7046 57.457 51.4028 57.9735C50.2262 58.2369 49.049 58.5882 47.9103 58.9275C47.1721 59.1478 46.4086 59.3755 45.651 59.5772C41.2186 60.7612 36.7037 61.1586 32.4506 61.1586H32.4514Z" fill="#231F20"/>
<path d="M29.4375 66.4252C23.2332 66.4252 16.6211 65.2233 11.2399 64.2455C5.13904 63.1374 -0.409604 62.3285 -5.72384 61.7733C-5.78486 61.7666 -5.82952 61.7123 -5.82356 61.6505C-5.81687 61.5895 -5.76254 61.5456 -5.70077 61.5508C-0.381329 62.1067 5.17253 62.9164 11.2793 64.026C17.0155 65.0686 24.1537 66.3656 30.6899 66.1856C36.3137 66.03 41.8244 64.5037 47.1543 63.0272C48.0912 62.7675 49.0602 62.4996 50.012 62.2436C53.1286 61.4057 56.4782 60.5692 59.8516 60.1316C60.9381 59.991 62.134 60.0312 63.2897 60.0699C64.4931 60.11 65.7366 60.1517 66.8797 59.9939V59.2059C66.8797 59.1441 66.9296 59.0942 66.9906 59.0942C67.0516 59.0942 67.1022 59.1441 67.1022 59.2059V60.0907C67.1022 60.1457 67.062 60.1934 67.0077 60.2008C65.8177 60.3779 64.5288 60.3348 63.2823 60.2931C62.1348 60.2544 60.9485 60.215 59.8806 60.3534C56.5206 60.7895 53.18 61.623 50.0708 62.4594C49.1197 62.7154 48.1508 62.9834 47.2146 63.2431C41.8721 64.7225 36.348 66.2533 30.6966 66.4088C30.2799 66.4207 29.8587 66.426 29.4375 66.426V66.4252Z" fill="#231F20"/>
<path d="M32.3904 43.0909C32.0139 43.0909 31.7073 42.7843 31.7073 42.4078C31.7073 42.0312 32.0139 41.7246 32.3904 41.7246C32.767 41.7246 33.0736 42.0312 33.0736 42.4078C33.0736 42.7843 32.767 43.0909 32.3904 43.0909ZM32.3904 41.9479C32.1367 41.9479 31.9305 42.154 31.9305 42.4078C31.9305 42.6615 32.1367 42.8677 32.3904 42.8677C32.6442 42.8677 32.8503 42.6615 32.8503 42.4078C32.8503 42.154 32.6442 41.9479 32.3904 41.9479Z" fill="#231F20"/>
<path d="M32.3904 46.8961C32.0139 46.8961 31.7073 46.5895 31.7073 46.2129C31.7073 45.8364 32.0139 45.5298 32.3904 45.5298C32.767 45.5298 33.0736 45.8364 33.0736 46.2129C33.0736 46.5895 32.767 46.8961 32.3904 46.8961ZM32.3904 45.753C32.1367 45.753 31.9305 45.9592 31.9305 46.2129C31.9305 46.4667 32.1367 46.6729 32.3904 46.6729C32.6442 46.6729 32.8503 46.4667 32.8503 46.2129C32.8503 45.9592 32.6442 45.753 32.3904 45.753Z" fill="#231F20"/>
<path d="M32.3904 50.7013C32.0139 50.7013 31.7073 50.3947 31.7073 50.0181C31.7073 49.6415 32.0139 49.335 32.3904 49.335C32.767 49.335 33.0736 49.6415 33.0736 50.0181C33.0736 50.3947 32.767 50.7013 32.3904 50.7013ZM32.3904 49.5582C32.1367 49.5582 31.9305 49.7643 31.9305 50.0181C31.9305 50.2719 32.1367 50.478 32.3904 50.478C32.6442 50.478 32.8503 50.2719 32.8503 50.0181C32.8503 49.7643 32.6442 49.5582 32.3904 49.5582Z" fill="#231F20"/>
</g>
</g>
<defs>
<clipPath id="clip0_525_30442">
<rect x="0.124023" y="0.25" width="64" height="64" rx="12" fill="white"/>
</clipPath>
<clipPath id="clip1_525_30442">
<rect width="64" height="64" fill="white" transform="translate(0.124023 0.25)"/>
</clipPath>
</defs>
</svg>
