<svg width="65" height="65" viewBox="0 0 65 65" fill="none" xmlns="http://www.w3.org/2000/svg">
<g clip-path="url(#clip0_525_30443)">
<rect x="0.124023" y="0.25" width="64" height="64" rx="12" fill="#E0E0E0"/>
<g clip-path="url(#clip1_525_30443)">
<rect width="64" height="64" transform="translate(0.124023 0.25)" fill="#FCDEA1"/>
<path d="M55.7266 30.6277C55.2518 31.7067 54.0641 32.1414 52.9173 32.3103C52.8943 32.314 52.8719 32.3177 52.8489 32.3207C52.4916 32.3706 52.1389 32.3959 51.8152 32.407C51.8152 32.407 51.4423 36.9875 46.7718 33.7853C46.7718 33.7853 46.4957 34.4215 45.9034 34.9663C45.0632 35.7373 43.5875 36.3244 41.3601 34.6567C43.5197 33.2256 44.2156 30.1425 44.2729 27.0839C44.2892 26.1678 44.249 25.2532 44.1739 24.3862C44.6211 24.1391 45.0788 23.7358 45.535 23.1255C45.5588 23.0935 45.5834 23.0608 45.6072 23.0273C45.6861 22.9187 45.7642 22.8041 45.8431 22.6827C45.8609 22.6545 45.8788 22.6262 45.8974 22.5972C46.4213 23.1761 46.9906 23.7105 47.6009 24.1912C47.6038 24.1942 47.6068 24.1957 47.6098 24.1979C47.8144 24.3587 48.0228 24.5127 48.2364 24.6608C49.2909 25.3931 50.4541 25.9691 51.7073 26.3449C52.5676 26.6024 53.465 26.7713 54.2613 27.1888C55.4662 27.8206 56.3138 29.2926 55.7266 30.6277Z" fill="#FF79CC"/>
<path d="M44.4403 23.2946H43.9491C43.8866 23.2946 43.8524 23.2224 43.8911 23.1741L44.4008 22.5415H43.1216L42.1943 23.6913C42.1549 23.7404 42.1891 23.8126 42.2516 23.8126H42.7428C42.8046 23.8126 42.8395 23.884 42.8016 23.9331L42.2702 24.6155C42.6699 24.7272 43.0993 24.7525 43.5443 24.6401L44.4991 23.4152C44.537 23.3661 44.502 23.2946 44.4403 23.2946Z" fill="#ECEBFF"/>
<path d="M42.7427 23.8126H42.2516C42.1891 23.8126 42.1548 23.7404 42.1943 23.6913L43.1215 22.5415H39.6573C39.6573 22.5415 40.7558 24.1929 42.2702 24.6155L42.8015 23.9331C42.8395 23.884 42.8045 23.8126 42.7427 23.8126Z" fill="#735FFF"/>
<path d="M43.891 23.1738C43.8523 23.2222 43.8865 23.2944 43.949 23.2944H44.4402C44.502 23.2944 44.5369 23.3658 44.499 23.4149L43.5442 24.6399C43.7511 24.5878 43.9609 24.5037 44.1738 24.3861C44.7401 24.0728 45.3228 23.5095 45.8973 22.5963C45.8809 22.5777 45.8646 22.5591 45.8482 22.5405H44.4007L43.891 23.1731V23.1738Z" fill="#735FFF"/>
<path d="M45.8483 22.5415H43.9551C43.8717 21.9811 43.778 21.4624 43.6827 21.0055C43.4513 19.8877 43.0844 18.7826 42.5478 17.7779C42.5128 17.8151 39.414 21.0784 36.8317 16.873C36.8317 16.873 36.8221 19.6905 34.3536 19.5052C32.1136 19.337 31.6909 16.143 31.6909 16.143C31.6909 16.143 32.034 20.4481 29.0505 23.0817C28.7253 23.369 28.3614 23.6362 27.9521 23.8758C27.4632 23.4375 26.8336 23.1733 26.1467 23.1733C24.5906 23.1733 23.3292 24.5284 23.3292 26.1991C23.3292 27.8698 24.5906 29.225 26.1467 29.225C26.5128 29.225 26.8626 29.1498 27.1841 29.0136C27.2347 28.9913 27.2853 28.9683 27.3344 28.9437C27.3344 28.9437 33.1056 31.4992 29.5052 35.1383C28.5727 36.0812 27.647 36.4488 26.7904 36.4808C26.4927 36.4927 26.204 36.4637 25.9257 36.4042C25.7694 36.3707 25.6168 36.3275 25.468 36.2769C23.7891 35.7031 22.6133 34.1366 22.6133 34.1366C22.6133 34.1366 22.1928 36.4503 19.6715 35.8177C17.1502 35.1852 17.7389 32.4555 17.7389 32.4555C17.7389 32.4555 12.8875 34.5348 10.5225 32.1132C10.0165 31.596 9.62428 30.8734 9.41739 29.8821C9.36605 29.6358 9.32586 29.3947 9.29609 29.1588C8.83693 25.5048 10.9102 23.107 13.2001 22.0868C13.5394 21.9357 13.8773 21.8189 14.2129 21.7318C14.2144 21.7318 14.2159 21.731 14.2174 21.731C15.3709 21.4326 16.4842 21.4884 17.4591 21.6961C17.4695 21.6983 17.4806 21.6998 17.4911 21.7028C17.503 21.705 17.5179 21.7087 17.535 21.7124C17.8044 21.772 18.0633 21.8434 18.3089 21.9223C19.8338 22.4105 20.8533 23.1733 20.8533 23.1733C20.8533 23.1733 20.8496 22.6784 20.8823 21.865C20.9999 18.9307 21.5886 11.8527 24.5169 8.91467C25.0401 8.39002 25.8178 8.09532 26.7607 7.97997C32.0087 7.34146 42.3863 12.2739 42.6713 14.1262C42.8447 15.2544 42.806 16.1898 42.7286 16.8313C42.7301 16.8455 42.7324 16.8596 42.7346 16.8745C42.7949 17.2942 43.03 17.868 43.1022 18.083C43.33 18.764 43.6879 19.4256 44.0459 20.0455C44.1419 20.2122 44.2401 20.3766 44.342 20.5389C44.7878 21.2488 45.2916 21.9201 45.8475 22.5415H45.8483Z" fill="#FF79CC"/>
<g style="mix-blend-mode:screen">
<path d="M42.7293 16.8313C42.7308 16.8455 42.7331 16.8596 42.7353 16.8745C42.7093 17.0025 42.7055 17.1342 42.6773 17.2622C42.6014 17.6008 42.3468 17.8933 42.0216 18.0153C41.6972 18.1366 41.3124 18.0823 41.0333 17.8769C40.1872 17.2518 40.4946 15.9524 40.0466 15.1063C39.7429 14.5333 39.1617 14.1709 38.6066 13.8367C37.4196 13.1201 36.2214 12.399 34.9132 11.939C33.2239 11.3459 31.3433 11.1822 29.8698 10.1649C28.979 9.54946 27.5636 8.73532 26.7614 7.97997C32.0094 7.34146 42.387 12.2739 42.672 14.1262C42.8454 15.2544 42.8067 16.1898 42.7293 16.8313Z" fill="#FF79CC"/>
</g>
<path d="M34.5403 23.8126H35.0315C35.094 23.8126 35.1282 23.884 35.0903 23.9331L34.5984 24.5649C34.9563 24.6944 35.3292 24.783 35.705 24.8053L36.7878 23.4152C36.8257 23.3661 36.7907 23.2946 36.729 23.2946H36.2378C36.1753 23.2946 36.1411 23.2224 36.1805 23.1741L36.6903 22.5415H35.4103L34.483 23.6913C34.4436 23.7404 34.4778 23.8126 34.5403 23.8126Z" fill="#ECEBFF"/>
<path d="M45.9331 22.5415H45.8483C45.8646 22.5601 45.881 22.5787 45.8974 22.5973C45.9093 22.5787 45.9212 22.5609 45.9331 22.5415Z" fill="#EFA197"/>
<path d="M35.0902 23.9331C35.1282 23.884 35.094 23.8126 35.0315 23.8126H34.5403C34.4778 23.8126 34.4435 23.7404 34.483 23.6913L35.4102 22.5415H31.6365C31.6365 22.5415 31.8493 22.77 32.208 23.0818C32.7483 23.5521 33.6205 24.2115 34.5983 24.5649L35.0902 23.9331Z" fill="#735FFF"/>
<path d="M36.2378 23.2946H36.729C36.7907 23.2946 36.8257 23.3661 36.7878 23.4152L35.705 24.8053C36.8398 24.8745 38.003 24.3447 38.8856 22.5415H36.6903L36.1805 23.1741C36.1411 23.2224 36.1753 23.2946 36.2378 23.2946Z" fill="#735FFF"/>
<path d="M35.9542 38.7825L35.158 38.7363C35.4333 38.7527 35.699 38.7683 35.9542 38.7825Z" fill="#EFA197"/>
<path d="M46.0417 48.9856C43.9275 49.5958 40.6731 48.763 38.6281 48.0948L37.5319 46.6674L36.7431 46.59L36.941 47.4897C36.813 47.4384 36.7431 47.4094 36.7431 47.4094C36.7431 47.4094 32.4856 54.5327 23.929 47.3662C23.929 47.3662 21.2298 44.7288 22.1131 42.9115C22.3602 42.4017 22.8901 41.9567 23.8397 41.6523C23.5033 42.3779 23.2056 42.9554 23.2056 42.9554C27.8285 47.0313 41.0624 44.5941 41.2298 44.0479C41.2826 43.8782 41.2186 43.5396 41.1063 43.1534C41.008 42.817 40.8733 42.4449 40.7453 42.1175C41.6346 42.3638 42.5314 42.7098 43.3753 43.1534C44.1202 43.5448 44.8242 44.0129 45.4441 44.5584L45.4486 44.5629C45.6004 44.6961 45.747 44.8337 45.8877 44.9766C45.9011 44.99 45.9144 45.0042 45.9278 45.0183C46.9965 46.1264 48.1797 48.3686 46.0424 48.9856H46.0417Z" fill="#055E33"/>
<path d="M25.0556 37.7651C25.2558 37.8217 25.5334 37.8775 25.8698 37.9318L25.9122 36.7783C24.8048 37.0276 23.7652 37.3997 25.0564 37.7651H25.0556Z" fill="#C67F00"/>
<path d="M70.2575 65.2315V73.7919H-2.45093L-2.44423 61.2107L5.02665 50.2436L7.39242 46.7712C7.44824 46.6901 7.50554 46.6105 7.56581 46.5323C7.58442 46.5078 7.60302 46.484 7.62237 46.4602C8.45288 45.4109 9.65103 44.7069 10.9824 44.4955L20.5906 43.1284L20.6925 43.1135L21.3712 43.0168L22.1132 42.9111C21.2298 44.7284 23.929 47.3658 23.929 47.3658C32.4856 54.5323 36.7431 47.409 36.7431 47.409C36.7431 47.409 36.8131 47.438 36.9411 47.4894L37.91 51.8853L41.2484 51.5087L38.6281 48.0944C40.6732 48.7627 43.9275 49.5954 46.0417 48.9852C48.179 48.3682 46.9958 46.126 45.9271 45.0179C45.9137 45.0038 45.9003 44.9896 45.8869 44.9762C45.7463 44.8334 45.5997 44.6957 45.4479 44.5625L45.4434 44.558C44.8235 44.0125 44.1195 43.5444 43.3746 43.153L52.9411 44.5163C54.3238 44.7351 55.5658 45.4868 56.4015 46.6097L58.7636 49.7837L70.2575 65.2315Z" fill="#009F62"/>
<path d="M38.0886 37.5664V38.8844C38.5835 38.8844 38.9831 38.8687 39.254 38.8323C40.7766 38.6298 39.2771 37.9817 38.0886 37.5664Z" fill="#C67F00"/>
<path d="M36.7432 46.5898L36.9411 47.4896L37.91 51.8855L41.2485 51.5089L38.6282 48.0953L37.532 46.6672L36.7432 46.5898ZM39.2414 49.9699L40.0548 51.0297L38.6237 51.1911L38.3766 50.0674L39.2414 49.9699Z" fill="#055E33"/>
<path d="M40.0547 51.0294L39.2413 49.9697L38.3766 50.0672L38.6237 51.1909L40.0547 51.0294Z" fill="#009F62"/>
<path d="M44.1739 24.3864C43.961 24.504 43.7512 24.5881 43.5443 24.6402C43.2176 24.7228 42.8991 24.731 42.5947 24.6856C42.4846 24.6685 42.3767 24.6454 42.2702 24.6156C41.3207 24.3507 40.5355 23.6028 40.0809 23.0819C39.8107 22.7715 39.6574 22.5416 39.6574 22.5416H43.9551C43.8717 21.9812 43.778 21.4625 43.6827 21.0056C43.4513 19.8878 43.0844 18.7827 42.5478 17.778C42.5352 17.7907 42.1422 18.2052 41.5246 18.552C41.2582 18.7023 40.9493 18.8393 40.6115 18.9248C39.9328 19.0997 39.1365 19.0692 38.3253 18.5282C37.8252 18.1948 37.3192 17.6672 36.8317 16.8731C36.8317 16.8731 36.8221 19.6906 34.3536 19.5053C32.1136 19.3371 31.6909 16.1431 31.6909 16.1431C31.6909 16.1431 31.8717 18.4143 30.8276 20.667C30.434 21.5153 29.8669 22.3615 29.0505 23.0819C28.7253 23.3691 28.3614 23.6363 27.9521 23.8759C27.4632 23.4376 26.8336 23.1734 26.1467 23.1734C24.7648 23.1734 23.615 24.2428 23.3754 25.6523C23.3449 25.8294 23.3292 26.0125 23.3292 26.1993C23.3292 27.8707 24.5906 29.2251 26.1467 29.2251C26.4965 29.2251 26.8306 29.1566 27.1402 29.0316C27.2064 29.0048 27.2712 28.9758 27.3344 28.9438C27.3344 28.9438 33.1056 31.4993 29.5052 35.1384C28.249 36.4087 27.004 36.635 25.9257 36.4043L25.9115 36.7786L25.8699 37.9321C25.9577 37.947 26.0492 37.9611 26.1452 37.9753C27.2868 38.1449 28.9746 38.3027 30.7502 38.4396C31.0144 38.4605 31.2808 38.4798 31.5473 38.4992C32.031 38.5349 32.5155 38.5691 32.9925 38.6004C33.2604 38.6182 33.5261 38.6353 33.7873 38.6525C34.2606 38.683 34.7197 38.7105 35.1581 38.7366L35.9543 38.7834C36.6732 38.8244 37.3043 38.8586 37.794 38.8839H37.8691C37.9443 38.8847 38.0172 38.8847 38.0887 38.8847V35.5113C38.4109 35.5023 38.7428 35.48 39.0844 35.4443C39.4907 35.4011 39.8673 35.3207 40.2163 35.2069C40.6368 35.07 41.017 34.8839 41.3601 34.6569C44.1672 32.798 44.5006 28.1468 44.1739 24.3864ZM38.5902 23.0819C37.7523 24.4519 36.7171 24.8672 35.705 24.8054C35.3292 24.7831 34.9564 24.6945 34.5984 24.565C33.6206 24.2115 32.7484 23.5522 32.2081 23.0819C31.8494 22.77 31.6366 22.5416 31.6366 22.5416H38.8857C38.7904 22.7366 38.6915 22.9159 38.5902 23.0819Z" fill="#FFA687"/>
<path d="M38.0886 35.511C38.0886 35.511 35.1587 35.9739 31.9535 33.812C31.9535 33.812 32.1135 37.5664 38.0878 38.4691V35.511H38.0886Z" fill="#D15D42"/>
<path d="M25.9041 36.7783C25.9041 36.7783 30.4198 37.975 38.0887 38.4691V39.3197C38.0887 39.3197 30.751 39.7454 25.8699 37.9326L25.9041 36.7791V36.7783Z" fill="#D15D42"/>
<path d="M36.8808 28.6715C36.8808 28.6715 36.2274 27.8142 34.5999 28.545C37.11 29.4953 38.8856 29.0912 38.8856 29.0912C38.8856 29.0912 38.4146 28.1937 36.8808 28.6715Z" fill="#D30074"/>
<path d="M34.8983 28.6528C34.8983 28.6528 36.3577 30.9896 38.591 29.1767C38.591 29.1767 36.4805 29.2839 34.8983 28.6528Z" fill="#D30074"/>
<path d="M40.3666 41.2116C40.3763 41.2331 40.5519 41.6246 40.7447 42.1172C41.0193 42.8212 41.3281 43.7299 41.2299 44.0477C41.0624 44.5939 27.8286 47.0311 23.2057 42.9552C23.2057 42.9552 23.5034 42.3777 23.8397 41.6521C23.9633 41.3857 24.092 41.0999 24.2126 40.8149C23.0747 39.142 23.3017 37.5479 23.3716 37.1944V37.1907C23.3813 36.8261 24.54 36.486 25.468 36.2769C25.6169 36.3275 25.7694 36.3706 25.9257 36.4041L25.9115 36.7784C24.8042 37.0277 23.7646 37.3998 25.0557 37.7652C25.2559 37.8218 25.5335 37.8776 25.8699 37.9319C25.9577 37.9468 26.0492 37.9609 26.1452 37.9751C27.2868 38.1448 28.9746 38.3025 30.7502 38.4395C30.7808 40.4785 30.0827 41.3596 30.0827 41.3596H30.8663C31.5004 40.614 31.5488 39.014 31.5473 38.499C32.031 38.5347 32.5155 38.569 32.9925 38.6002C33.0074 40.5983 32.3235 41.4631 32.3235 41.4631H33.1071C33.721 40.7397 33.785 39.2134 33.7873 38.6523C34.2606 38.6828 34.7197 38.7103 35.1581 38.7364C35.1223 40.8819 34.5843 41.4631 34.5843 41.4631H35.3679C36.0191 40.7278 35.9543 38.7848 35.9543 38.7833C36.6732 38.8242 37.3043 38.8584 37.794 38.8837H37.8691C37.9443 38.8845 38.0172 38.8845 38.0887 38.8845C38.5828 38.8845 38.9824 38.8689 39.2541 38.8324C40.7767 38.63 39.2771 37.9818 38.0887 37.5665V36.9749C38.2219 37.0143 38.4503 37.0836 38.7272 37.1736C39.7683 37.5107 41.5015 38.1336 41.5246 38.5541H41.5238C41.5171 38.6382 41.3698 40.2657 40.3666 41.2116Z" fill="#FFAC00"/>
<path d="M41.5245 38.5543H41.5237C41.517 38.6384 41.3697 40.2659 40.3665 41.2118L39.7176 41.6523L40.4342 39.1645C40.5347 38.8162 40.4097 38.4427 40.1209 38.2246L38.7271 37.1738C39.7682 37.5109 41.5014 38.1338 41.5245 38.5543Z" fill="#FFCA76"/>
<path d="M35.3679 41.4633C36.019 40.728 35.9543 38.7849 35.9543 38.7834C35.699 38.7686 35.4326 38.7537 35.158 38.7373C35.123 40.8821 34.5842 41.4633 34.5842 41.4633H35.3679Z" fill="#FFC661"/>
<path d="M30.0826 41.3596H30.8663C31.5003 40.614 31.5487 39.014 31.5472 38.499C31.2808 38.4796 31.0144 38.4603 30.7502 38.4395C30.7807 40.4785 30.0826 41.3596 30.0826 41.3596Z" fill="#FFC661"/>
<path d="M33.107 41.463C33.7209 40.7396 33.7849 39.2133 33.7872 38.6522C33.526 38.6351 33.2603 38.618 32.9924 38.6001C33.0073 40.5982 32.3234 41.463 32.3234 41.463H33.107Z" fill="#FFC661"/>
<g style="mix-blend-mode:screen">
<path d="M42.3394 22.5414C41.9919 20.215 41.5245 18.5518 41.5245 18.5518C42.1422 18.205 42.5351 17.7905 42.5478 17.7778C43.0844 18.7825 43.4512 19.8876 43.6827 21.0054C43.7779 21.4623 43.8717 21.981 43.955 22.5414H42.3394Z" fill="#FFA687"/>
</g>
<g style="mix-blend-mode:screen">
<path d="M41.36 34.6567C41.0169 34.8837 40.6367 35.0698 40.2162 35.2067C42.672 32.8171 42.9191 28.3795 42.5946 24.6854C42.899 24.7308 43.2175 24.7226 43.5442 24.64C43.7511 24.5879 43.9609 24.5038 44.1738 24.3862C44.5005 28.1466 44.1671 32.7978 41.36 34.6567Z" fill="#FFA687"/>
</g>
<g style="mix-blend-mode:screen">
<path d="M45.8483 22.5417H45.1718C45.0885 22.3951 45.0088 22.247 44.9292 22.0989C44.665 21.6085 44.3941 21.0831 44.3428 20.5391C44.7885 21.249 45.2924 21.9203 45.8483 22.5417Z" fill="#FF79CC"/>
</g>
<g style="mix-blend-mode:screen">
<path d="M55.7265 30.6279C55.2517 31.707 54.064 32.1416 52.9172 32.3105C52.9425 32.2197 52.9745 32.1319 53.0132 32.0501C53.4225 31.1771 54.0298 30.5357 53.4731 29.5883C52.9284 28.6618 52.0383 28.3329 51.1394 27.8945C50.1808 27.4272 49.1576 26.8839 48.2973 26.2514C47.955 25.9998 45.2447 23.5157 45.5349 23.1251C45.5587 23.0931 45.5833 23.0603 45.6071 23.0268C45.686 22.9182 45.7641 22.8036 45.843 22.6823C45.8608 22.654 45.8787 22.6257 45.8973 22.5967C45.8147 22.7284 47.3842 24.033 47.6007 24.1907C47.6037 24.1937 47.6067 24.1952 47.6097 24.1974C47.8143 24.3582 48.0227 24.5122 48.2363 24.6603C49.2908 25.3926 50.454 25.9686 51.7072 26.3444C52.5674 26.6019 53.4649 26.7708 54.2612 27.1883C55.466 27.8201 56.3137 29.2921 55.7265 30.6272V30.6279Z" fill="#FF79CC"/>
</g>
<g style="mix-blend-mode:multiply">
<path d="M45.9034 34.9662C45.0632 35.7372 43.5875 36.3244 41.3601 34.6567C43.5197 33.2256 44.2155 30.1424 44.2729 27.0838C45.1636 26.5897 45.4725 29.2717 45.4993 29.914C45.5499 31.1352 45.4204 32.3698 45.6392 33.5716C45.724 34.0353 45.8595 34.5011 45.9034 34.9662Z" fill="#EF60CD"/>
</g>
<g style="mix-blend-mode:screen">
<path d="M29.5051 35.1385C28.5726 36.0813 27.6469 36.449 26.7903 36.481C26.6705 36.4065 26.5685 36.3091 26.4934 36.1818C26.2694 35.8023 26.3966 35.2999 26.6586 34.945C26.9198 34.59 27.2941 34.3377 27.6246 34.046C27.7868 33.9031 27.9401 33.7476 28.08 33.5809C28.4573 33.1329 28.7364 32.6045 28.8242 32.0285C28.944 31.2389 28.6493 30.363 27.9847 29.9202C27.7659 29.7751 27.5099 29.6731 27.3432 29.4707C27.1766 29.2676 27.1356 29.1195 27.184 29.0138C27.2346 28.9915 27.2852 28.9684 27.3343 28.9438C27.3343 28.9438 33.1055 31.4994 29.5051 35.1385Z" fill="#FF79CC"/>
</g>
<g style="mix-blend-mode:multiply">
<path d="M19.4773 26.2462C17.7776 27.4793 15.5614 26.785 13.7106 27.5165C11.9261 28.2228 10.7011 30.2477 10.5225 32.1134C10.0165 31.5962 9.62428 30.8736 9.41739 29.8823C9.36605 29.636 9.32586 29.3949 9.29609 29.159C8.83693 25.505 10.9102 23.1072 13.2001 22.087C13.5394 21.9359 13.8773 21.8191 14.2129 21.732C14.2144 21.732 14.2159 21.7312 14.2174 21.7312C15.3314 21.5206 16.3726 21.4648 17.4911 21.703C17.503 21.7052 17.5179 21.7089 17.535 21.7126C17.6719 21.7439 17.9584 21.8191 18.3089 21.9225C19.3166 22.2194 20.8503 22.7523 20.8533 23.1735C20.8533 23.1735 20.8496 22.6786 20.8823 21.8652C21.1584 23.5344 20.764 25.3123 19.4766 26.2462H19.4773Z" fill="#F236CF"/>
</g>
<path d="M27.1402 29.0317C26.8306 29.1567 26.4965 29.2252 26.1467 29.2252C24.5906 29.2252 23.3292 27.8708 23.3292 26.1993C23.3292 26.0185 23.3329 25.8235 23.3858 25.6509C23.5837 25.6673 23.6753 26.0364 23.7542 26.2016C23.961 26.6339 24.1716 27.0723 24.4849 27.4347C24.7982 27.7971 25.2321 28.0821 25.7106 28.1119C25.9689 28.1275 26.2301 28.0695 26.4868 28.1067C26.9445 28.1729 27.1075 28.6187 27.1409 29.0317H27.1402Z" fill="#D15D42"/>
<path d="M40.6115 18.9256C40.4291 19.221 40.0213 19.3155 39.6648 19.3133C39.1275 19.3111 38.5932 19.1682 38.1214 18.9122C38.0991 18.9003 38.0775 18.8884 38.0552 18.8757C37.8379 18.7514 37.6027 18.4486 37.3847 18.3667C37.1443 18.2766 37.0401 18.5565 36.8741 18.7566C36.642 19.0357 36.3778 19.3379 36.3398 19.3713C35.8985 19.7524 35.3701 20.0374 34.7994 20.1661C34.3141 20.2755 33.8021 20.2673 33.3221 20.1401C32.8779 20.0225 32.3674 19.8059 32.1128 19.41C32.0459 19.3059 31.9789 19.2024 31.9127 19.0982C31.8568 19.2992 31.8368 19.4711 31.7207 19.6445C31.6016 19.8238 31.5019 20.0091 31.362 20.1751C31.2243 20.3388 31.068 20.4876 30.8968 20.6164C30.8738 20.6335 30.8507 20.6499 30.8276 20.667C31.8717 18.4143 31.6909 16.1431 31.6909 16.1431C31.6909 16.1431 32.1136 19.3371 34.3536 19.5053C36.8221 19.6906 36.8317 16.8731 36.8317 16.8731C37.3192 17.6672 37.8252 18.1948 38.3253 18.5282C39.1365 19.0692 39.9328 19.0997 40.6115 18.9256Z" fill="#D15D42"/>
<g style="mix-blend-mode:multiply">
<path d="M21.3712 43.0171C21.2982 43.1875 21.2 43.3497 21.0854 43.4978C21.0065 43.5998 20.9194 43.6958 20.8264 43.7836C20.4126 44.1758 19.8954 44.4385 19.3864 44.696C16.4149 46.197 13.3667 47.541 9.94492 47.2173C9.18287 47.1451 8.19459 46.9814 7.62231 46.4604C8.45283 45.4111 9.65097 44.7071 10.9823 44.4958L20.5905 43.1287L20.6925 43.1138L21.3712 43.0171Z" fill="#00C172"/>
</g>
<g style="mix-blend-mode:screen">
<path d="M58.8365 49.9698L55.283 46.7155C54.5433 46.0763 53.6399 45.655 52.6747 45.4988L45.2938 44.41L45.4479 44.5626L46.3625 45.5285C43.6254 43.4031 41.1681 43.1657 41.1063 43.1531C41.0081 42.8167 40.8734 42.4446 40.7454 42.1172C41.6347 42.3635 42.5314 42.7096 43.3753 43.1531L52.9418 44.5164C54.3245 44.7352 55.5666 45.4869 56.4023 46.6098L58.7643 49.7838L58.8373 49.9698H58.8365Z" fill="#009F62"/>
</g>
<path d="M48.2364 24.7722C48.2141 24.7722 48.1925 24.7655 48.1731 24.7521C47.324 24.1627 46.5307 23.4624 45.8156 22.6713C45.7746 22.6259 45.7776 22.5552 45.8237 22.5136C45.8691 22.4726 45.9398 22.4756 45.9815 22.5217C46.6855 23.3009 47.4654 23.9893 48.3011 24.569C48.3517 24.604 48.3644 24.6739 48.3294 24.7245C48.3078 24.7558 48.2729 24.7722 48.2379 24.7722H48.2364Z" fill="#231F20"/>
<path d="M45.8974 22.7081C45.8669 22.7081 45.8364 22.6954 45.8148 22.6716L45.7649 22.6158C45.724 22.5697 45.7277 22.499 45.7739 22.458C45.82 22.4171 45.8907 22.4208 45.9316 22.467L45.9807 22.522C46.0224 22.5674 46.0187 22.6381 45.9726 22.6798C45.951 22.6992 45.9242 22.7088 45.8981 22.7088L45.8974 22.7081Z" fill="#231F20"/>
<path d="M44.0228 35.8406C43.1811 35.8406 42.2665 35.4744 41.2931 34.7459C41.244 34.7086 41.2336 34.6387 41.2708 34.5896C41.308 34.5405 41.3779 34.5308 41.4271 34.5673C42.6222 35.4625 43.7147 35.7877 44.6739 35.5339C46.0306 35.1753 46.6632 33.7546 46.6691 33.7405C46.6825 33.7099 46.7085 33.6869 46.7405 33.6779C46.7725 33.669 46.8068 33.6742 46.8343 33.6928C48.3465 34.7295 49.5484 35.0473 50.4079 34.6379C51.5517 34.0932 51.7013 32.4143 51.7028 32.3972C51.7072 32.3406 51.7534 32.2967 51.8099 32.2945C53.8721 32.2223 55.1551 31.6456 55.6231 30.5814C56.0719 29.5619 55.6656 28.0504 54.2084 27.2861C53.6339 26.9847 52.9887 26.8113 52.3651 26.6432C52.1381 26.5821 51.903 26.5189 51.6745 26.4504C50.4429 26.0813 49.2648 25.5098 48.1724 24.7514C48.1218 24.7165 48.1091 24.6465 48.1441 24.5959C48.1791 24.5453 48.249 24.5326 48.2996 24.5676C49.3727 25.3126 50.5292 25.8737 51.7385 26.2361C51.9647 26.3038 52.1977 26.3663 52.4231 26.4273C53.0587 26.5985 53.7158 26.7756 54.3126 27.0882C54.9407 27.4179 55.4706 27.9671 55.7668 28.5952C56.092 29.285 56.1136 30.0225 55.8285 30.6707C55.3307 31.8026 54.0142 32.4225 51.9149 32.5133C51.8933 32.674 51.836 33.0126 51.6961 33.3929C51.4401 34.0895 51.0285 34.5888 50.5046 34.8381C49.5885 35.2735 48.3487 34.9743 46.8157 33.9481C46.6259 34.318 45.9688 35.4193 44.7327 35.7475C44.502 35.8086 44.2654 35.8391 44.0228 35.8391V35.8406Z" fill="#231F20"/>
<path d="M26.1468 29.3365C24.5319 29.3365 23.2177 27.9292 23.2177 26.199C23.2177 24.4688 24.5319 23.0615 26.1468 23.0615C26.8336 23.0615 27.5012 23.3212 28.0266 23.7923C28.0727 23.8332 28.0764 23.9039 28.0348 23.9501C27.9938 23.9962 27.9231 23.9999 27.877 23.9583C27.3925 23.5237 26.7778 23.284 26.146 23.284C24.6539 23.284 23.4402 24.5916 23.4402 26.1983C23.4402 27.805 24.6539 29.1125 26.146 29.1125C26.5434 29.1125 26.9259 29.0217 27.2831 28.8431C27.3382 28.8156 27.4052 28.8379 27.4327 28.893C27.4603 28.948 27.4379 29.015 27.3829 29.0425C26.9944 29.2368 26.5776 29.335 26.1453 29.335L26.1468 29.3365Z" fill="#231F20"/>
<path d="M25.6414 27.7603C25.6065 27.7603 25.5722 27.7439 25.5499 27.7134C25.5142 27.6628 25.5261 27.5936 25.5767 27.5579C25.5834 27.5534 26.2338 27.0861 26.2941 26.6262C26.3112 26.4937 26.2762 26.3776 26.1877 26.2712C25.9897 26.0338 25.7129 26.167 25.3586 26.4416C25.3408 26.4558 25.3177 26.4744 25.2902 26.4967C25.02 26.7184 24.7402 26.9276 24.546 26.8278C24.4426 26.775 24.3964 26.6537 24.4083 26.4669C24.4329 26.0829 24.552 25.7071 24.7536 25.3789C24.924 25.1021 25.1287 24.9011 25.3624 24.7828C25.8543 24.5335 26.4504 24.6422 26.9691 24.7821C27.0286 24.7984 27.0636 24.8595 27.048 24.919C27.0323 24.9785 26.9706 25.0135 26.911 24.9979C26.4333 24.8691 25.8878 24.7672 25.4628 24.9823C25.2664 25.082 25.0915 25.2546 24.9434 25.4965C24.7611 25.7934 24.6524 26.1343 24.6308 26.4818C24.6234 26.6031 24.648 26.6299 24.6487 26.6299C24.68 26.6433 24.7879 26.6217 25.1488 26.3248C25.1778 26.301 25.2031 26.2801 25.2225 26.2652C25.4502 26.0896 25.983 25.6773 26.3596 26.1291C26.4891 26.2838 26.5412 26.4617 26.5159 26.6567C26.4429 27.2141 25.736 27.7201 25.7062 27.7417C25.6868 27.7558 25.6638 27.7625 25.6414 27.7625V27.7603Z" fill="#231F20"/>
<path d="M39.6024 26.7189C39.5689 26.7189 39.5347 26.7152 39.4982 26.7077C39.1566 26.6363 38.8552 26.4637 38.5806 26.288C38.5285 26.2545 38.5136 26.1861 38.5464 26.134C38.5799 26.0819 38.6491 26.067 38.7004 26.1005C38.9572 26.265 39.2362 26.4257 39.5429 26.4897C39.6976 26.5217 39.8197 26.422 39.9507 26.1556C40.2982 25.4471 39.9946 24.5042 39.6522 23.6759C39.6284 23.6186 39.656 23.5539 39.7125 23.5301C39.7698 23.5063 39.8346 23.5338 39.8584 23.5904C40.2201 24.4655 40.5371 25.4657 40.1508 26.2538C40.0854 26.387 39.9224 26.7197 39.6016 26.7197L39.6024 26.7189Z" fill="#231F20"/>
<path d="M37.727 35.6292C35.5577 35.6292 33.5998 35.0517 31.8911 33.9049C31.8398 33.8707 31.8264 33.8015 31.8606 33.7501C31.8948 33.6988 31.964 33.6854 32.0154 33.7196C34.0306 35.0725 36.4053 35.6158 39.0718 35.3338C39.9119 35.2445 40.6606 34.9855 41.2984 34.5635C41.3497 34.53 41.4189 34.5434 41.4532 34.5948C41.4874 34.6461 41.4733 34.7153 41.4219 34.7496C40.7544 35.1916 39.9722 35.4625 39.0963 35.5555C38.6312 35.6046 38.175 35.6292 37.727 35.6292Z" fill="#231F20"/>
<path d="M41.3609 34.7681C41.3244 34.7681 41.2894 34.7502 41.2678 34.7182C41.2336 34.6669 41.2478 34.5977 41.2991 34.5634C44.3004 32.5757 44.319 27.3404 44.063 24.3964C44.0578 24.3346 44.1032 24.281 44.1642 24.2758C44.2252 24.2706 44.2796 24.316 44.2848 24.377C44.5452 27.3701 44.5192 32.6985 41.4219 34.7495C41.4033 34.7621 41.3817 34.7681 41.3601 34.7681H41.3609Z" fill="#231F20"/>
<path d="M25.9115 36.89C25.9115 36.89 25.9085 36.89 25.907 36.89C25.8453 36.8878 25.7976 36.8357 25.7999 36.7747L25.8133 36.4003C25.8155 36.3386 25.8676 36.2894 25.9286 36.2932C25.9904 36.2954 26.038 36.3475 26.0358 36.4085L26.0224 36.7828C26.0202 36.8431 25.9703 36.8908 25.9108 36.8908L25.9115 36.89Z" fill="#231F20"/>
<path d="M25.8699 38.0436C25.8699 38.0436 25.8669 38.0436 25.8654 38.0436C25.8036 38.0414 25.756 37.9893 25.7583 37.9283L25.8007 36.7748C25.8029 36.713 25.8557 36.6646 25.916 36.6676C25.9778 36.6698 26.0254 36.7219 26.0232 36.783L25.9808 37.9365C25.9785 37.9967 25.9287 38.0444 25.8691 38.0444L25.8699 38.0436Z" fill="#231F20"/>
<path d="M24.3525 73.9033H-2.45087C-2.48064 73.9033 -2.50892 73.8914 -2.52976 73.8706C-2.5506 73.8498 -2.5625 73.8215 -2.5625 73.7917L-2.55506 61.2105C-2.55506 61.1882 -2.54836 61.1666 -2.53571 61.148L7.30094 46.7085C8.14634 45.4672 9.48215 44.6204 10.9661 44.3859L22.0983 42.8008C22.1594 42.7926 22.2159 42.8343 22.2248 42.8953C22.2338 42.9564 22.1914 43.0129 22.1303 43.0219L10.9995 44.6062C9.57815 44.831 8.29741 45.6436 7.48625 46.8343L-2.33106 61.2455L-2.33775 73.6801H24.354C24.4157 73.6801 24.4656 73.7299 24.4656 73.7917C24.4656 73.8535 24.4157 73.9033 24.354 73.9033H24.3525Z" fill="#231F20"/>
<path d="M70.2576 73.9036H24.3525C24.2907 73.9036 24.2408 73.8537 24.2408 73.792C24.2408 73.7302 24.2907 73.6803 24.3525 73.6803H70.146V65.2688L56.3123 46.6768C55.4892 45.5702 54.2859 44.8424 52.924 44.6266L43.359 43.2632C43.298 43.2543 43.2555 43.1977 43.2645 43.1367C43.2734 43.0757 43.3292 43.0333 43.391 43.0422L52.9575 44.4056C54.3789 44.631 55.6336 45.3894 56.4916 46.5429L70.3476 65.1646C70.3618 65.184 70.37 65.207 70.37 65.2316V73.792C70.37 73.8537 70.3201 73.9036 70.2583 73.9036H70.2576Z" fill="#231F20"/>
<path d="M38.0887 37.6782C38.0269 37.6782 37.9771 37.6283 37.9771 37.5665V36.9749C37.9771 36.9131 38.0269 36.8633 38.0887 36.8633C38.1504 36.8633 38.2003 36.9131 38.2003 36.9749V37.5665C38.2003 37.6283 38.1504 37.6782 38.0887 37.6782Z" fill="#231F20"/>
<path d="M38.0887 38.9958C38.0269 38.9958 37.9771 38.9459 37.9771 38.8842V37.5662C37.9771 37.5045 38.0269 37.4546 38.0887 37.4546C38.1504 37.4546 38.2003 37.5045 38.2003 37.5662V38.8842C38.2003 38.9459 38.1504 38.9958 38.0887 38.9958Z" fill="#231F20"/>
<path d="M38.0887 37.0857C38.0269 37.0857 37.9771 37.0359 37.9771 36.9741V35.5281C37.9771 35.4664 38.0269 35.4165 38.0887 35.4165C38.1504 35.4165 38.2003 35.4664 38.2003 35.5281V36.9741C38.2003 37.0359 38.1504 37.0857 38.0887 37.0857Z" fill="#231F20"/>
<path d="M27.9521 23.9873C27.9141 23.9873 27.8762 23.9672 27.8561 23.9322C27.8248 23.8794 27.8427 23.8109 27.8963 23.7796C28.2818 23.5542 28.6457 23.2907 28.9776 22.9982C29.0237 22.9573 29.0944 22.9618 29.1353 23.0079C29.1763 23.0541 29.1718 23.1248 29.1257 23.1657C28.7833 23.4678 28.4075 23.7395 28.0094 23.9724C27.9915 23.9828 27.9722 23.988 27.9528 23.988L27.9521 23.9873Z" fill="#231F20"/>
<path d="M29.0505 23.1932C29.0192 23.1932 28.9887 23.1806 28.9664 23.1553C28.9255 23.1091 28.9299 23.0384 28.9761 22.9975C31.8821 20.4323 31.5822 16.1942 31.5785 16.1517C31.574 16.0915 31.6179 16.0386 31.6782 16.0319C31.7392 16.0252 31.7928 16.0684 31.801 16.1279C31.8055 16.1592 32.2393 19.2342 34.3617 19.3934C35.0025 19.4418 35.5271 19.2818 35.9193 18.9194C36.7044 18.1945 36.7193 16.8848 36.7193 16.8721C36.7193 16.8223 36.7528 16.7784 36.8012 16.765C36.8495 16.7516 36.9001 16.7717 36.9262 16.8141C37.7098 18.0904 38.6162 18.7906 39.6201 18.8941C41.1695 19.0548 42.4146 17.7562 42.4667 17.7011C42.4912 17.6751 42.5269 17.6624 42.5627 17.6669C42.5984 17.6714 42.6296 17.693 42.646 17.725C43.1558 18.6797 43.5413 19.7752 43.7921 20.9823C43.8933 21.4712 43.9855 21.9899 44.0652 22.525C44.0741 22.586 44.0324 22.6425 43.9714 22.6522C43.9104 22.6611 43.8538 22.6195 43.8441 22.5584C43.7645 22.0278 43.6737 21.5129 43.5725 21.0284C43.3381 19.898 42.9831 18.868 42.518 17.9638C42.163 18.2972 41.0014 19.2617 39.5963 19.1173C38.5984 19.0139 37.6979 18.3746 36.9173 17.2152C36.8607 17.6825 36.6761 18.525 36.0711 19.0838C35.6313 19.4909 35.0501 19.6703 34.3439 19.6174C32.825 19.5036 32.1083 18.0502 31.7958 17.0641C31.7161 18.4952 31.2704 21.271 29.1234 23.1664C29.1018 23.1851 29.0758 23.1947 29.0497 23.1947L29.0505 23.1932Z" fill="#231F20"/>
<path d="M26.6669 36.596C26.4146 36.596 26.1601 36.5685 25.9018 36.5134C25.8416 36.5008 25.8029 36.4412 25.8163 36.3809C25.8289 36.3207 25.8892 36.282 25.9487 36.2954C27.1841 36.5595 28.3539 36.1435 29.4256 35.06C30.3327 34.1432 30.7056 33.2196 30.5344 32.3155C30.1608 30.3404 27.3173 29.0589 27.2883 29.0462C27.2317 29.0209 27.2064 28.9555 27.2317 28.8989C27.257 28.8423 27.3225 28.817 27.379 28.8423C27.4096 28.8557 28.1299 29.1772 28.9098 29.7584C29.9517 30.5346 30.5895 31.4046 30.7539 32.2738C30.9392 33.2546 30.5463 34.2451 29.5841 35.217C28.6769 36.1346 27.6983 36.596 26.6661 36.596H26.6669Z" fill="#231F20"/>
<path d="M25.9256 36.5157C25.9182 36.5157 25.91 36.5149 25.9018 36.5135C25.7485 36.4807 25.5908 36.4368 25.4315 36.3825C25.3735 36.3624 25.3422 36.2991 25.3623 36.2403C25.3824 36.1823 25.4456 36.151 25.5044 36.1711C25.6548 36.2225 25.8043 36.2642 25.9487 36.2954C26.009 36.3081 26.0477 36.3676 26.0343 36.4279C26.0231 36.48 25.977 36.5164 25.9256 36.5164V36.5157Z" fill="#231F20"/>
<path d="M25.468 36.3876C25.4561 36.3876 25.4442 36.3853 25.4323 36.3816C24.057 35.912 23.0286 34.8099 22.6654 34.3783C22.5627 34.7057 22.2993 35.3182 21.7017 35.7037C21.1547 36.0564 20.4626 36.1308 19.644 35.9254C17.4554 35.3762 17.5201 33.2903 17.5982 32.6317C16.7968 32.9427 13.6131 34.0441 11.3679 32.875C10.2955 32.3169 9.60271 31.3174 9.30727 29.9035C8.4336 25.7174 10.7212 23.0681 13.1532 21.9838C14.2792 21.4815 16.1248 21.0551 18.5188 21.8737C19.6038 22.2443 20.4031 22.7332 20.7417 22.9587C20.7484 22.2689 20.7997 19.9998 21.1711 17.4339C21.7694 13.3014 22.8686 10.408 24.4366 8.83482C26.425 6.8404 31.6775 8.26998 33.8438 8.97696C35.9603 9.66756 38.1631 10.6268 39.8866 11.6069C40.9136 12.1911 42.6557 13.2932 42.7808 14.1074C42.9594 15.2683 42.9125 16.2261 42.8403 16.8296C42.8812 17.1504 43.0435 17.5939 43.1409 17.8603C43.1685 17.9355 43.1916 17.9987 43.2072 18.0456C43.4319 18.7176 43.7891 19.3762 44.1411 19.9879C44.6539 20.878 45.2552 21.7115 45.9294 22.4653C45.9703 22.5115 45.9666 22.5822 45.9205 22.6231C45.8743 22.664 45.8036 22.6603 45.7627 22.6142C45.0788 21.8491 44.4678 21.003 43.9476 20.0996C43.5897 19.4774 43.2258 18.8069 42.9951 18.1171C42.9802 18.0717 42.9571 18.0099 42.9311 17.9377C42.8224 17.6408 42.658 17.1913 42.6163 16.8438C42.6155 16.8348 42.6155 16.8259 42.6163 16.817C42.6877 16.2283 42.7354 15.2862 42.5597 14.1416C42.4035 13.1265 38.5322 10.7422 33.7739 9.18905C29.2782 7.72152 25.9324 7.64933 24.5943 8.99259C20.9292 12.6689 20.9627 23.0666 20.9635 23.1716C20.9635 23.214 20.9404 23.2527 20.9024 23.272C20.8645 23.2914 20.8191 23.2877 20.7849 23.2616C20.7476 23.2341 17.023 20.5029 13.2433 22.1878C10.8902 23.2363 8.67769 25.8023 9.52458 29.8581C9.80513 31.2028 10.4593 32.1509 11.4691 32.6771C13.9063 33.9466 17.6548 32.3682 17.6928 32.3526C17.7315 32.3362 17.7754 32.3429 17.8074 32.369C17.8394 32.3958 17.8542 32.4374 17.8453 32.4784C17.8438 32.4851 17.7047 33.1518 17.8676 33.8811C18.082 34.8426 18.6974 35.4573 19.6961 35.7081C20.4515 35.8979 21.084 35.8331 21.5767 35.5169C22.3238 35.0361 22.4995 34.1245 22.5009 34.1156C22.5091 34.0717 22.5419 34.0374 22.585 34.027C22.6282 34.0166 22.6736 34.033 22.6996 34.0687C22.7115 34.0843 23.8755 35.6151 25.5015 36.1695C25.5595 36.1896 25.5908 36.2529 25.5715 36.3109C25.5558 36.3571 25.5119 36.3868 25.4658 36.3868L25.468 36.3876Z" fill="#231F20"/>
<path d="M34.5984 24.6764C34.5858 24.6764 34.5731 24.6742 34.5605 24.6697C33.5752 24.3133 32.697 23.6554 32.1344 23.1657C32.0883 23.1256 32.0831 23.0549 32.1233 23.008C32.1635 22.9618 32.2342 22.9566 32.281 22.9968C32.8295 23.4738 33.6831 24.1146 34.6364 24.4591C34.6944 24.48 34.7242 24.544 34.7034 24.602C34.687 24.6474 34.6438 24.6757 34.5984 24.6757V24.6764Z" fill="#231F20"/>
<path d="M32.2081 23.1932C32.182 23.1932 32.156 23.1843 32.1352 23.1657C31.7765 22.8539 31.5644 22.6269 31.5554 22.6172C31.5249 22.5845 31.5168 22.5376 31.5346 22.4967C31.5525 22.4557 31.5927 22.4297 31.6373 22.4297H35.4111C35.4728 22.4297 35.5227 22.4795 35.5227 22.5413C35.5227 22.6031 35.4728 22.6529 35.4111 22.6529H31.906C32.0005 22.7445 32.1277 22.8635 32.2818 22.9975C32.3279 23.0377 32.3331 23.1084 32.2929 23.1553C32.2706 23.1806 32.2401 23.194 32.2088 23.194L32.2081 23.1932Z" fill="#231F20"/>
<path d="M35.8985 24.9227C35.8322 24.9227 35.7653 24.9205 35.6983 24.9168C35.6365 24.913 35.5896 24.8602 35.5933 24.7984C35.5971 24.7367 35.6507 24.6905 35.7117 24.6935C36.9515 24.7694 37.9584 24.0825 38.704 22.6529H36.6903C36.6285 22.6529 36.5786 22.6031 36.5786 22.5413C36.5786 22.4795 36.6285 22.4297 36.6903 22.4297H38.8856C38.9243 22.4297 38.96 22.4498 38.9801 22.4825C39.0002 22.5153 39.0025 22.5562 38.9861 22.5904C38.2278 24.1391 37.1904 24.9227 35.8985 24.9227Z" fill="#231F20"/>
<path d="M44.1738 24.4979C44.1344 24.4979 44.0964 24.477 44.0763 24.4406C44.0466 24.3863 44.0659 24.3185 44.1202 24.2888C44.7111 23.9621 45.2775 23.3727 45.8036 22.537C45.8363 22.4849 45.9055 22.4692 45.9576 22.502C46.0097 22.5347 46.0254 22.6039 45.9926 22.656C45.4464 23.5237 44.8525 24.1384 44.2281 24.4837C44.211 24.4934 44.1924 24.4979 44.1746 24.4979H44.1738Z" fill="#231F20"/>
<path d="M43.5443 24.7515C43.4944 24.7515 43.449 24.718 43.4364 24.6674C43.4215 24.6079 43.4572 24.5468 43.5167 24.5319C43.7177 24.4813 43.9201 24.3995 44.1195 24.2893C44.1731 24.2596 44.2416 24.2789 44.2713 24.3332C44.3011 24.3876 44.2818 24.4553 44.2274 24.4851C44.0116 24.6049 43.7906 24.6934 43.5718 24.7492C43.5629 24.7515 43.5532 24.753 43.5443 24.753V24.7515Z" fill="#231F20"/>
<path d="M45.8483 22.6529H44.4008C44.339 22.6529 44.2892 22.6031 44.2892 22.5413C44.2892 22.4795 44.339 22.4297 44.4008 22.4297H45.8483C45.91 22.4297 45.9599 22.4795 45.9599 22.5413C45.9599 22.6031 45.91 22.6529 45.8483 22.6529Z" fill="#231F20"/>
<path d="M42.2702 24.727C42.2606 24.727 42.2502 24.7255 42.2405 24.7225C40.7037 24.2939 39.6105 22.6715 39.5644 22.6031C39.5413 22.5688 39.5398 22.5249 39.5592 22.4885C39.5785 22.452 39.6165 22.4297 39.6574 22.4297H43.1216C43.1834 22.4297 43.2332 22.4795 43.2332 22.5413C43.2332 22.6031 43.1834 22.6529 43.1216 22.6529H39.8762C40.2022 23.0823 41.1309 24.1815 42.3 24.5082C42.3595 24.5246 42.3938 24.5863 42.3774 24.6459C42.364 24.695 42.3186 24.7277 42.2702 24.7277V24.727Z" fill="#231F20"/>
<path d="M45.8974 22.708C45.8773 22.708 45.8565 22.7028 45.8386 22.6909C45.8178 22.6782 45.8029 22.6596 45.7947 22.6388C45.7605 22.6195 45.7374 22.583 45.7374 22.5413C45.7374 22.4795 45.7873 22.4297 45.8491 22.4297H45.9339C45.9741 22.4297 46.012 22.4513 46.0314 22.487C46.0507 22.5227 46.05 22.5659 46.0284 22.6001C46.0217 22.6113 46.015 22.6209 46.0083 22.6314L45.9927 22.6559C45.9718 22.6902 45.9354 22.708 45.8982 22.708H45.8974Z" fill="#231F20"/>
<path d="M40.0809 23.193H38.5903C38.5285 23.193 38.4786 23.1431 38.4786 23.0814C38.4786 23.0196 38.5285 22.9697 38.5903 22.9697H40.0809C40.1426 22.9697 40.1925 23.0196 40.1925 23.0814C40.1925 23.1431 40.1426 23.193 40.0809 23.193Z" fill="#231F20"/>
<path d="M32.2082 23.193H29.0513C28.9896 23.193 28.9397 23.1431 28.9397 23.0814C28.9397 23.0196 28.9896 22.9697 29.0513 22.9697H32.2082C32.2699 22.9697 32.3198 23.0196 32.3198 23.0814C32.3198 23.1431 32.2699 23.193 32.2082 23.193Z" fill="#231F20"/>
<path d="M32.2133 23.193H32.2073C32.1456 23.193 32.0957 23.1431 32.0957 23.0814C32.0957 23.0196 32.1456 22.9697 32.2073 22.9697C32.2691 22.9697 32.3219 23.0196 32.3219 23.0814C32.3219 23.1431 32.2751 23.193 32.2133 23.193Z" fill="#231F20"/>
<path d="M37.8573 29.2903C37.0848 29.2903 35.935 29.1697 34.5605 28.6488C34.5181 28.6332 34.4898 28.593 34.4883 28.5476C34.4869 28.5022 34.5129 28.4613 34.5538 28.4427C36.0035 27.7915 36.7231 28.3489 36.9159 28.5439C38.466 28.0914 38.9639 28.9993 38.984 29.0388C39.0003 29.0693 39.0011 29.1058 38.9862 29.1378C38.9713 29.169 38.943 29.1921 38.9096 29.1995C38.8761 29.207 38.4958 29.2903 37.8558 29.2903H37.8573ZM34.9103 28.5387C36.7812 29.1884 38.2093 29.0775 38.6878 29.0112C38.4921 28.8006 37.9801 28.4457 36.9144 28.7783C36.8697 28.7924 36.8206 28.7768 36.7923 28.7396C36.7693 28.7098 36.2349 28.0527 34.9103 28.5394V28.5387Z" fill="#231F20"/>
<path d="M34.2531 28.96C34.2122 28.96 34.1735 28.9377 34.1534 28.899C34.1251 28.8439 34.1474 28.7769 34.2025 28.7486C34.2204 28.7397 34.6505 28.512 34.6736 28.0074C34.6765 27.9457 34.7279 27.898 34.7904 27.901C34.8522 27.904 34.8998 27.9561 34.8968 28.0178C34.8678 28.6549 34.3268 28.9362 34.3037 28.9481C34.2873 28.9563 34.2702 28.96 34.2531 28.96Z" fill="#231F20"/>
<path d="M36.9166 29.9771C36.8087 29.9771 36.7008 29.9689 36.5936 29.9518C35.4803 29.7754 34.8306 28.7551 34.8031 28.7112C34.7704 28.6591 34.786 28.5899 34.8388 28.5572C34.8909 28.5244 34.9601 28.54 34.9929 28.5921C34.9988 28.6018 35.6187 29.5715 36.6301 29.7307C37.2597 29.8297 37.9138 29.5983 38.5754 29.0431C38.6223 29.0037 38.693 29.0096 38.7324 29.0565C38.7718 29.1034 38.7659 29.1741 38.7183 29.2135C38.1147 29.7203 37.5097 29.9756 36.9158 29.9756L36.9166 29.9771Z" fill="#231F20"/>
<path d="M36.6903 22.6529H35.4103C35.3486 22.6529 35.2987 22.6031 35.2987 22.5413C35.2987 22.4795 35.3486 22.4297 35.4103 22.4297H36.6903C36.7521 22.4297 36.802 22.4795 36.802 22.5413C36.802 22.6031 36.7521 22.6529 36.6903 22.6529Z" fill="#231F20"/>
<path d="M35.705 24.9167C35.705 24.9167 35.7005 24.9167 35.6983 24.9167C35.3366 24.8951 34.9534 24.8125 34.5604 24.6696C34.5024 24.6488 34.4726 24.5848 34.4935 24.5267C34.5143 24.4687 34.5783 24.4389 34.6363 24.4598C35.0092 24.5945 35.3709 24.6733 35.7117 24.6934C35.7735 24.6972 35.8203 24.75 35.8166 24.8118C35.8129 24.8713 35.7638 24.9167 35.705 24.9167Z" fill="#231F20"/>
<path d="M43.9551 22.6529H43.1216C43.0599 22.6529 43.01 22.6031 43.01 22.5413C43.01 22.4795 43.0599 22.4297 43.1216 22.4297H43.9551C44.0169 22.4297 44.0667 22.4795 44.0667 22.5413C44.0667 22.6031 44.0169 22.6529 43.9551 22.6529Z" fill="#231F20"/>
<path d="M42.9608 24.8238C42.7226 24.8238 42.4823 24.7903 42.2404 24.7226C42.1809 24.7062 42.1467 24.6444 42.163 24.5849C42.1794 24.5254 42.2412 24.4911 42.3007 24.5075C42.7137 24.6229 43.123 24.631 43.5174 24.5313C43.5777 24.5164 43.638 24.5522 43.6529 24.6124C43.6678 24.6727 43.632 24.733 43.5718 24.7479C43.3708 24.7985 43.1669 24.8238 42.9608 24.8238Z" fill="#231F20"/>
<path d="M44.4009 22.6529H43.9551C43.8934 22.6529 43.8435 22.6031 43.8435 22.5413C43.8435 22.4795 43.8934 22.4297 43.9551 22.4297H44.4009C44.4627 22.4297 44.5125 22.4795 44.5125 22.5413C44.5125 22.6031 44.4627 22.6529 44.4009 22.6529Z" fill="#231F20"/>
<path d="M52.8645 26.2989C50.8426 26.2989 48.9501 25.2473 48.1762 24.7554C48.1241 24.7227 48.1084 24.6535 48.1419 24.6014C48.1747 24.5493 48.2439 24.5344 48.296 24.5671C49.1369 25.1015 51.3308 26.3145 53.5291 26.0347C53.5901 26.0272 53.6459 26.0704 53.6541 26.1314C53.6616 26.1924 53.6184 26.2483 53.5574 26.2564C53.3259 26.2862 53.0945 26.2996 52.8645 26.2996V26.2989Z" fill="#231F20"/>
<path d="M10.0619 23.7849C10.0314 23.7849 10.0016 23.7722 9.97926 23.7484C9.93759 23.703 9.94131 23.6323 9.9867 23.5907C11.4766 22.2347 13.8654 21.7071 13.9666 21.6855C14.0269 21.6729 14.0864 21.7108 14.0991 21.7711C14.1117 21.8314 14.0738 21.8909 14.0135 21.9036C13.9897 21.9088 11.5815 22.4409 10.137 23.7559C10.1154 23.7752 10.0887 23.7849 10.0619 23.7849Z" fill="#231F20"/>
<path d="M35.9544 38.8946C35.9544 38.8946 35.9499 38.8946 35.9477 38.8946C35.6924 38.8797 35.426 38.8648 35.1507 38.8485C35.0889 38.8447 35.042 38.7919 35.0457 38.7301C35.0495 38.6684 35.1008 38.6215 35.1641 38.6252C35.4394 38.6416 35.7051 38.6572 35.9603 38.6713C36.0221 38.6751 36.069 38.7279 36.0653 38.7889C36.0623 38.8485 36.0124 38.8939 35.9537 38.8939L35.9544 38.8946Z" fill="#231F20"/>
<path d="M25.8699 38.0435C25.8639 38.0435 25.858 38.0435 25.852 38.042C25.4941 37.9839 25.2239 37.9281 25.026 37.8723C24.5512 37.7376 24.3413 37.5925 24.3473 37.3997C24.3525 37.2092 24.5393 36.9726 25.8885 36.6697C25.9488 36.6563 26.0083 36.6942 26.0217 36.7538C26.0351 36.8141 25.9972 36.8736 25.9376 36.887C24.5921 37.1899 24.5705 37.4035 24.5705 37.4057C24.5705 37.4064 24.5817 37.5143 25.087 37.6572C25.2746 37.7101 25.5439 37.7651 25.8885 37.8217C25.9495 37.8314 25.9905 37.8887 25.9808 37.9497C25.9719 38.0048 25.9242 38.0435 25.8706 38.0435H25.8699Z" fill="#231F20"/>
<path d="M30.7502 38.551C30.7502 38.551 30.7443 38.551 30.7413 38.551C28.697 38.3932 27.1447 38.2369 26.1281 38.0858C26.0314 38.0717 25.9398 38.0568 25.8513 38.0427C25.7902 38.033 25.7493 37.9757 25.759 37.9147C25.7687 37.8537 25.8267 37.812 25.887 37.8224C25.9748 37.8365 26.0656 37.8507 26.1608 37.8648C27.1722 38.0151 28.7186 38.1714 30.7584 38.3284C30.8202 38.3329 30.8656 38.3865 30.8611 38.4483C30.8567 38.507 30.8075 38.551 30.7502 38.551Z" fill="#231F20"/>
<path d="M38.0887 38.9958C38.0172 38.9958 37.9436 38.9958 37.8684 38.9951H37.794C37.2984 38.969 36.6665 38.9355 35.9484 38.8946C35.8866 38.8909 35.8397 38.838 35.8435 38.777C35.8472 38.7152 35.8985 38.6684 35.9611 38.6721C36.6792 38.713 37.3103 38.7472 37.7999 38.7725H37.8692C37.9451 38.7725 38.0172 38.7733 38.0887 38.7733C38.1504 38.7733 38.2003 38.8231 38.2003 38.8849C38.2003 38.9467 38.1504 38.9965 38.0887 38.9965V38.9958Z" fill="#231F20"/>
<path d="M35.158 38.8478C35.158 38.8478 35.1536 38.8478 35.1513 38.8478C34.713 38.8218 34.2538 38.7935 33.7805 38.7637C33.7188 38.76 33.6726 38.7064 33.6764 38.6454C33.6801 38.5836 33.7314 38.5375 33.7947 38.5412C34.268 38.5717 34.7271 38.6 35.1647 38.6253C35.2265 38.629 35.2734 38.6819 35.2697 38.7436C35.2659 38.8032 35.2168 38.8486 35.158 38.8486V38.8478Z" fill="#231F20"/>
<path d="M32.9924 38.7115C32.9924 38.7115 32.9872 38.7115 32.985 38.7115C32.5467 38.6825 32.0734 38.6497 31.539 38.6103C31.4773 38.6058 31.4311 38.5522 31.4356 38.4905C31.4401 38.4287 31.4944 38.3826 31.5554 38.387C32.0897 38.4265 32.5623 38.4592 32.9999 38.4882C33.0617 38.492 33.1078 38.5455 33.1041 38.6066C33.1003 38.6653 33.0512 38.7107 32.9924 38.7107V38.7115Z" fill="#231F20"/>
<path d="M38.0887 38.9958C38.0269 38.9958 37.977 38.946 37.977 38.8842C37.977 38.8224 38.0269 38.7726 38.0887 38.7726C38.5984 38.7726 38.9861 38.7555 39.2392 38.7212C39.7534 38.6528 39.7869 38.5471 39.7869 38.5456C39.7869 38.5426 39.7928 38.2792 38.0515 37.6712C37.9934 37.6511 37.9629 37.5871 37.983 37.529C38.0031 37.471 38.0671 37.4397 38.1251 37.4606C40.0533 38.1341 40.0221 38.4384 40.0087 38.5687C39.9886 38.7614 39.7608 38.8768 39.2682 38.9422C39.0048 38.978 38.6074 38.9958 38.0879 38.9958H38.0887Z" fill="#231F20"/>
<path d="M40.2654 41.2573C40.2394 41.2015 40.2625 41.1345 40.3183 41.1085C40.3741 41.0825 40.4396 41.1048 40.4664 41.1599L40.3667 41.2105L40.2654 41.2573Z" fill="#231F20"/>
<path d="M40.7446 42.228C40.7 42.228 40.6576 42.2012 40.6405 42.1573C40.4604 41.6951 40.2966 41.3268 40.2654 41.2575L40.4685 41.166L40.3666 41.2114L40.4685 41.1668C40.4998 41.2367 40.6658 41.6096 40.8481 42.0769C40.8704 42.1342 40.8421 42.1989 40.7848 42.2213C40.7714 42.2265 40.758 42.2287 40.7439 42.2287L40.7446 42.228Z" fill="#231F20"/>
<path d="M24.2126 40.9254C24.1954 40.9254 24.1791 40.9217 24.1627 40.9135C24.1099 40.8874 24.0875 40.8249 24.1091 40.7714C24.1255 40.7304 24.1657 40.7021 24.2126 40.7021C24.2743 40.7021 24.3242 40.752 24.3242 40.8138C24.3242 40.8324 24.319 40.8517 24.31 40.8681C24.29 40.9046 24.252 40.9254 24.2126 40.9254Z" fill="#231F20"/>
<path d="M32.342 45.3795C29.3474 45.3795 25.3258 44.9725 23.132 43.0376C23.0933 43.0034 23.0829 42.9483 23.1067 42.9029C23.1097 42.8969 23.4073 42.3195 23.7385 41.6043C23.7645 41.5485 23.8308 41.5239 23.8866 41.55C23.9424 41.576 23.967 41.6422 23.9409 41.6981C23.679 42.2636 23.4371 42.7444 23.3448 42.9267C26.079 45.2605 31.641 45.2768 34.7286 45.0767C38.239 44.8489 40.9024 44.2171 41.1264 44.0021C41.1562 43.8815 41.1539 43.4729 40.6397 42.1565C40.6174 42.0992 40.6457 42.0344 40.703 42.0121C40.761 41.9898 40.825 42.0181 40.8473 42.0754C41.4657 43.6582 41.3683 43.9753 41.3363 44.0795C41.3117 44.1598 41.2313 44.261 40.5928 44.4411C39.2577 44.8177 35.964 45.3781 32.3584 45.3795H32.3413H32.342Z" fill="#231F20"/>
<path d="M23.8398 41.7638C23.8241 41.7638 23.8078 41.7608 23.7929 41.7534C23.7371 41.7273 23.7125 41.6611 23.7386 41.6053C23.8762 41.3083 24.0013 41.0278 24.1099 40.771C24.1337 40.7145 24.2 40.6877 24.2565 40.7123C24.3131 40.7361 24.3399 40.8016 24.3153 40.8589C24.2052 41.1178 24.0794 41.4006 23.941 41.6998C23.9224 41.7407 23.8814 41.7645 23.8398 41.7645V41.7638Z" fill="#231F20"/>
<path d="M40.3667 41.3223C40.3369 41.3223 40.3071 41.3104 40.2856 41.2873C40.2431 41.2426 40.2454 41.172 40.29 41.1295C41.2426 40.232 41.4004 38.6819 41.4123 38.5517C41.3884 38.2756 39.9797 37.6557 38.056 37.0812C37.9972 37.0633 37.963 37.0015 37.9808 36.942C37.9987 36.8825 38.0612 36.8497 38.12 36.8668C40.997 37.7264 41.6199 38.2547 41.6355 38.5472C41.6355 38.5524 41.6355 38.5584 41.6355 38.5628C41.6296 38.6343 41.4785 40.3154 40.4433 41.291C40.4217 41.3111 40.3942 41.3215 40.3667 41.3215V41.3223Z" fill="#231F20"/>
<path d="M39.7177 41.7634C39.6753 41.7634 39.6351 41.7396 39.6165 41.6986C39.5904 41.6428 39.615 41.5766 39.6715 41.5505C39.8955 41.4478 40.1039 41.3064 40.2907 41.1301C40.3354 41.0877 40.4061 41.0899 40.4485 41.1345C40.4909 41.1792 40.4887 41.2499 40.444 41.2923C40.2394 41.4851 40.0109 41.6406 39.7646 41.753C39.7497 41.7597 39.7333 41.7634 39.7184 41.7634H39.7177Z" fill="#231F20"/>
<path d="M24.4574 41.2592C24.4246 41.2592 24.3919 41.2443 24.3695 41.2168C24.2825 41.1067 24.1984 40.9921 24.1202 40.8774C24.0853 40.8268 24.0987 40.7569 24.1493 40.7227C24.2006 40.6877 24.2698 40.7011 24.3041 40.7517C24.3792 40.8626 24.4603 40.972 24.5444 41.0784C24.5824 41.1268 24.5742 41.1967 24.5258 41.2354C24.505 41.2518 24.4812 41.2592 24.4566 41.2592H24.4574Z" fill="#231F20"/>
<path d="M24.2126 40.9256C24.1769 40.9256 24.1419 40.9084 24.1203 40.8764C22.9594 39.1715 23.1945 37.5217 23.26 37.1816C23.2652 37.035 23.33 36.6428 25.4435 36.1665C25.5045 36.1524 25.5633 36.1911 25.5767 36.2506C25.5901 36.3109 25.5521 36.3704 25.4926 36.3838C23.5651 36.8184 23.4855 37.1503 23.4833 37.1912C23.4833 37.1987 23.4833 37.2069 23.481 37.2143C23.4215 37.5157 23.1826 39.1016 24.3049 40.7499C24.3398 40.8013 24.3264 40.8705 24.2751 40.9047C24.2557 40.9181 24.2342 40.9241 24.2126 40.9241V40.9256Z" fill="#231F20"/>
<path d="M43.3747 43.2644C43.3568 43.2644 43.3397 43.26 43.3226 43.2518C42.5092 42.8239 41.6318 42.4786 40.7142 42.2248C40.6547 42.2084 40.6197 42.1466 40.6368 42.0871C40.6532 42.0276 40.7149 41.9926 40.7745 42.0097C41.7069 42.268 42.5992 42.6192 43.4267 43.0546C43.4811 43.0836 43.5019 43.1506 43.4736 43.2056C43.4535 43.2436 43.4148 43.2652 43.3747 43.2652V43.2644Z" fill="#231F20"/>
<path d="M44.3086 49.3104C44.2661 49.3104 44.2237 49.3104 44.1806 49.3097C44.7 49.2561 45.2313 49.102 46.0105 48.878C46.6036 48.7069 46.9623 48.3958 47.0784 47.9523C47.2384 47.3398 46.9087 46.1722 45.8066 45.0544C45.1316 44.3697 44.2959 43.7632 43.3225 43.2512C43.2682 43.2222 43.2473 43.1552 43.2756 43.1002C43.3039 43.0451 43.3716 43.025 43.4267 43.0533C44.4202 43.5757 45.2745 44.1964 45.9659 44.8974C46.7815 45.7242 47.545 47.0503 47.295 48.0081C47.158 48.5327 46.7465 48.8974 46.073 49.0916C45.5424 49.2449 44.9433 49.3097 44.3086 49.3097V49.3104ZM42.5374 49.1697C41.1666 48.9688 39.7631 48.5826 38.5932 48.2008C38.5344 48.1815 38.5024 48.119 38.5218 48.0602C38.5411 48.0014 38.6036 47.9694 38.6624 47.9887C40.5318 48.599 41.6868 48.9763 42.5374 49.1705V49.1697Z" fill="#231F20"/>
<path d="M31.0687 50.6743C28.8361 50.6743 26.4161 49.5937 23.8568 47.4512C23.8546 47.449 23.8523 47.4475 23.8501 47.4452C23.7377 47.3351 21.104 44.7297 22.012 42.8618C22.0387 42.806 22.1057 42.7829 22.1608 42.8105C22.2159 42.838 22.2397 42.9042 22.2121 42.9593C21.3868 44.6575 23.9022 47.1833 24.0027 47.283C26.9407 49.7426 29.6815 50.7785 32.1485 50.3617C35.1163 49.8601 36.6307 47.3768 36.6456 47.3522C36.6739 47.3046 36.7327 47.2852 36.7848 47.3068C36.7848 47.3068 36.8547 47.3359 36.9813 47.3865C37.0386 47.4095 37.0668 47.4743 37.0438 47.5316C37.0207 47.5889 36.956 47.6172 36.8987 47.5941C36.8533 47.5762 36.8153 47.5606 36.7848 47.5487C36.4894 47.9922 34.9429 50.1169 32.185 50.5827C31.8181 50.6445 31.4453 50.6758 31.0665 50.6758L31.0687 50.6743Z" fill="#231F20"/>
<path d="M22.1132 43.0228C22.0968 43.0228 22.0804 43.0191 22.0648 43.0116C22.009 42.9848 21.9859 42.9178 22.0135 42.8628C22.297 42.2793 22.9005 41.8365 23.8062 41.5463C23.865 41.5277 23.9275 41.5597 23.9468 41.6185C23.9655 41.6773 23.9335 41.7398 23.8747 41.7591C23.0285 42.03 22.4696 42.4349 22.2144 42.961C22.195 43.0004 22.1556 43.0235 22.1139 43.0235L22.1132 43.0228Z" fill="#231F20"/>
<path d="M37.9101 51.9961C37.858 51.9961 37.8126 51.9604 37.8015 51.9083L36.8325 47.5124C36.8191 47.4521 36.8571 47.3925 36.9174 47.3792C36.9776 47.3658 37.0372 47.4037 37.0506 47.464L37.9979 51.7617L41.0402 51.4186L38.5397 48.162C38.5025 48.1129 38.5114 48.043 38.5605 48.0058C38.6096 47.9685 38.6796 47.9775 38.7168 48.0266L41.3371 51.4402C41.3616 51.4722 41.3668 51.5146 41.3512 51.5518C41.3356 51.589 41.3014 51.6143 41.2612 51.6188L37.9228 51.9953C37.9183 51.9953 37.9146 51.9953 37.9101 51.9953V51.9961Z" fill="#231F20"/>
<path d="M38.6282 48.2061C38.5947 48.2061 38.5612 48.1912 38.5396 48.1622L37.4732 46.7728L36.8853 46.7155L37.0505 47.4649C37.0639 47.5252 37.026 47.5847 36.9657 47.5981C36.9047 47.6115 36.8459 47.5736 36.8325 47.5133L36.6345 46.6136C36.6271 46.5786 36.636 46.5421 36.6598 46.5153C36.6836 46.4885 36.7179 46.4744 36.7543 46.4781L37.5432 46.5555C37.5737 46.5585 37.602 46.5741 37.6206 46.5987L38.7167 48.0268C38.754 48.0759 38.745 48.1458 38.6959 48.1831C38.6758 48.1987 38.652 48.2061 38.6282 48.2061Z" fill="#231F20"/>
<path d="M38.6238 51.3023C38.5717 51.3023 38.5263 51.2666 38.5151 51.2145L38.268 50.0908C38.2613 50.0595 38.268 50.0275 38.2866 50.0015C38.3052 49.9754 38.3335 49.9591 38.3648 49.9553L39.2295 49.8579C39.2675 49.8526 39.3069 49.8698 39.3307 49.901L40.1441 50.9607C40.1687 50.9927 40.1739 51.0352 40.1583 51.0724C40.1426 51.1096 40.1084 51.1349 40.0682 51.1393L38.6372 51.3008C38.6327 51.3008 38.629 51.3008 38.6245 51.3008L38.6238 51.3023ZM38.5121 50.1637L38.7108 51.0679L39.8457 50.9399L39.1908 50.0871L38.5121 50.1637Z" fill="#231F20"/>
<path d="M24.3525 73.9037C24.3086 73.9037 24.2669 73.8777 24.2491 73.8345L19.5257 62.2892C19.5175 62.2691 19.5153 62.2475 19.519 62.2267C19.839 60.4741 19.749 57.5956 17.503 53.839C16.1546 51.5841 14.6483 50.0644 14.6334 50.0488C14.5903 50.0049 14.5903 49.9342 14.6334 49.8911C14.6774 49.8479 14.7481 49.8471 14.7912 49.8911C14.8061 49.9059 16.3295 51.4419 17.6921 53.7199C18.949 55.8207 20.322 58.9999 19.7445 62.2349L24.4552 73.7504C24.4783 73.8077 24.4515 73.8724 24.3942 73.8963C24.3801 73.9022 24.3659 73.9044 24.3518 73.9044L24.3525 73.9037Z" fill="#231F20"/>
<path d="M35.3679 41.5745H34.5842C34.5396 41.5745 34.4994 41.5484 34.4815 41.5075C34.4637 41.4666 34.4719 41.4197 34.5016 41.3869C34.5061 41.3817 35.0121 40.7908 35.0456 38.7347C35.0464 38.6729 35.0962 38.6253 35.1587 38.6245C35.2205 38.6253 35.2696 38.6766 35.2689 38.7376C35.2436 40.2826 34.9586 41.0364 34.7889 41.3505H35.3158C35.8977 40.6271 35.8434 38.8046 35.8427 38.786C35.8404 38.725 35.8881 38.6729 35.9498 38.6707C36.0116 38.6692 36.0629 38.7153 36.0659 38.7763C36.0667 38.7957 36.1329 40.7663 35.4512 41.5358C35.4296 41.5596 35.3999 41.5737 35.3679 41.5737V41.5745Z" fill="#231F20"/>
<path d="M35.9477 38.8939L35.1514 38.8477C35.0896 38.844 35.0428 38.7912 35.0465 38.7301C35.0502 38.6684 35.1023 38.6215 35.164 38.6252L35.9603 38.6713L35.9477 38.8946V38.8939Z" fill="#231F20"/>
<path d="M33.1071 41.5744H32.3235C32.2803 41.5744 32.2416 41.5499 32.223 41.5112C32.2044 41.4725 32.2096 41.4271 32.2356 41.3936C32.2423 41.3854 32.895 40.5281 32.8809 38.6007C32.8809 38.5389 32.93 38.489 32.9917 38.4883H32.9925C33.0535 38.4883 33.1034 38.5374 33.1041 38.5992C33.1153 40.1233 32.729 40.9992 32.5281 41.3512H33.0543C33.6236 40.6278 33.6742 39.1074 33.6756 38.6513C33.6756 38.5895 33.7255 38.5426 33.788 38.5404C33.8498 38.5404 33.8996 38.591 33.8989 38.6527C33.8967 39.2719 33.823 40.7923 33.1919 41.5357C33.1703 41.561 33.1398 41.5752 33.1071 41.5752V41.5744Z" fill="#231F20"/>
<path d="M33.7872 38.7638C33.7872 38.7638 33.782 38.7638 33.7798 38.7638L32.985 38.7117C32.9232 38.7072 32.8771 38.6544 32.8808 38.5926C32.8845 38.5308 32.9381 38.4854 32.9999 38.4884L33.7947 38.5405C33.8565 38.5442 33.9026 38.5978 33.8989 38.6588C33.8951 38.7176 33.846 38.763 33.7872 38.763V38.7638Z" fill="#231F20"/>
<path d="M30.8664 41.4711H30.0827C30.0396 41.4711 30.0009 41.4465 29.9823 41.4078C29.9637 41.3691 29.9689 41.3237 29.9949 41.2902C30.0016 41.2821 30.6677 40.4084 30.6387 38.4408C30.6379 38.379 30.687 38.3284 30.7488 38.3276H30.7503C30.8113 38.3276 30.8612 38.3768 30.8619 38.4378C30.885 39.9976 30.4913 40.8914 30.2874 41.2478H30.8135C31.3955 40.5103 31.4372 38.9624 31.4357 38.4988C31.4357 38.437 31.4855 38.3872 31.5473 38.3872C31.6091 38.3872 31.6589 38.437 31.6589 38.4988C31.6604 39.1284 31.5957 40.6748 30.9512 41.4324C30.9296 41.4569 30.8991 41.4718 30.8664 41.4718V41.4711Z" fill="#231F20"/>
<path d="M31.5473 38.6105C31.5473 38.6105 31.542 38.6105 31.5391 38.6105C31.2727 38.5911 31.0055 38.5718 30.7413 38.5509C30.6795 38.5465 30.6341 38.4921 30.6386 38.4311C30.6431 38.3694 30.6974 38.324 30.7584 38.3284C31.0226 38.3493 31.2883 38.3686 31.5547 38.388C31.6165 38.3924 31.6626 38.446 31.6581 38.507C31.6537 38.5658 31.6046 38.6105 31.5473 38.6105Z" fill="#231F20"/>
</g>
</g>
<defs>
<clipPath id="clip0_525_30443">
<rect x="0.124023" y="0.25" width="64" height="64" rx="12" fill="white"/>
</clipPath>
<clipPath id="clip1_525_30443">
<rect width="64" height="64" fill="white" transform="translate(0.124023 0.25)"/>
</clipPath>
</defs>
</svg>
