<svg width="25" height="20" viewBox="0 0 25 20" fill="none" xmlns="http://www.w3.org/2000/svg">
<g clip-path="url(#clip0_717_8342)">
<path d="M17 16.5C21.4183 16.5 25 12.9183 25 8.5C25 4.08172 21.4183 0.5 17 0.5C12.5817 0.5 9 4.08172 9 8.5C9 12.9183 12.5817 16.5 17 16.5Z" fill="#F0F0F0"/>
<path d="M16.6519 8.49999H24.9997C24.9997 7.77793 24.9034 7.07843 24.7241 6.41302H16.6519V8.49999Z" fill="#D80027"/>
<path d="M16.6519 4.32568H23.8255C23.3358 3.52655 22.7096 2.82021 21.9795 2.23871H16.6519V4.32568Z" fill="#D80027"/>
<path d="M16.9997 16.5C18.8824 16.5 20.613 15.8492 21.9795 14.7609H12.0198C13.3863 15.8492 15.1169 16.5 16.9997 16.5Z" fill="#D80027"/>
<path d="M10.174 12.6733H23.8256C24.2188 12.0317 24.5237 11.3305 24.7242 10.5863H9.27539C9.47592 11.3305 9.78083 12.0317 10.174 12.6733Z" fill="#D80027"/>
<path d="M12.7057 1.74931H13.4348L12.7567 2.24197L13.0157 3.03912L12.3376 2.54647L11.6595 3.03912L11.8832 2.35047C11.2862 2.84781 10.7629 3.4305 10.3316 4.07975H10.5652L10.1336 4.39334C10.0663 4.50553 10.0018 4.6195 9.94 4.73516L10.1461 5.36956L9.76156 5.09016C9.66597 5.29269 9.57853 5.49978 9.49994 5.71119L9.72703 6.41019H10.5652L9.88709 6.90284L10.1461 7.7L9.46803 7.20734L9.06184 7.50247C9.02119 7.82928 9 8.16216 9 8.5H17C17 4.08175 17 3.56087 17 0.5C15.4196 0.5 13.9464 0.958438 12.7057 1.74931ZM13.0157 7.7L12.3376 7.20734L11.6595 7.7L11.9185 6.90284L11.2404 6.41019H12.0786L12.3376 5.61303L12.5966 6.41019H13.4348L12.7567 6.90284L13.0157 7.7ZM12.7567 4.57241L13.0157 5.36956L12.3376 4.87691L11.6595 5.36956L11.9185 4.57241L11.2404 4.07975H12.0786L12.3376 3.28259L12.5966 4.07975H13.4348L12.7567 4.57241ZM15.8853 7.7L15.2072 7.20734L14.5291 7.7L14.7881 6.90284L14.11 6.41019H14.9482L15.2072 5.61303L15.4662 6.41019H16.3043L15.6262 6.90284L15.8853 7.7ZM15.6262 4.57241L15.8853 5.36956L15.2072 4.87691L14.5291 5.36956L14.7881 4.57241L14.11 4.07975H14.9482L15.2072 3.28259L15.4662 4.07975H16.3043L15.6262 4.57241ZM15.6262 2.24197L15.8853 3.03912L15.2072 2.54647L14.5291 3.03912L14.7881 2.24197L14.11 1.74931H14.9482L15.2072 0.952156L15.4662 1.74931H16.3043L15.6262 2.24197Z" fill="#0052B4"/>
</g>
<rect x="9.25" y="0.75" width="15.5" height="15.5" rx="7.75" stroke="white" stroke-width="0.5"/>
<g clip-path="url(#clip1_717_8342)">
<rect x="-10.0486" y="3.84597" width="33.6968" height="23.4857" rx="3.5739" transform="rotate(-13 -10.0486 3.84597)" fill="white"/>
<rect x="-10.0486" y="3.84597" width="33.6968" height="23.4857" rx="3.5739" transform="rotate(-13 -10.0486 3.84597)" stroke="#F2F4F7" stroke-width="1.02112"/>
<path d="M7.10727 3.55315C11.4675 2.54651 15.8182 5.26513 16.8248 9.62535C17.8315 13.9856 15.1128 18.3363 10.7526 19.3429C6.3924 20.3495 2.04171 17.6309 1.03508 13.2707C0.0284491 8.91048 2.74706 4.55979 7.10727 3.55315ZM7.57535 8.03339L5.72077 8.00553L5.70329 8.98475C5.7128 8.98473 6.36008 8.98323 6.37114 8.99494C6.74359 9.00145 6.86124 9.21909 6.89292 9.40567L6.81711 13.5314C6.79841 13.6475 6.72559 13.8318 6.46565 13.828C6.47742 13.8383 5.79663 13.8171 5.79663 13.8171L5.59376 14.9093L7.44724 14.9454L7.41994 16.4681L8.33856 16.4836L8.36652 14.9767C8.6185 14.9856 8.86344 14.9927 9.10171 14.9964L9.07294 16.4954L9.99272 16.5116L10.0214 14.9906C11.5697 14.9274 12.6594 14.5577 12.8201 13.1127C12.8528 12.1269 12.4094 11.4198 11.5356 11.1952C12.0743 10.9336 12.4164 10.4623 12.3533 9.66646C12.2679 8.57962 11.3341 8.20018 10.1491 8.07662L10.1771 6.5698L9.25748 6.55459L9.23024 8.02115C8.98881 8.01714 8.74117 8.01828 8.49521 8.01947L8.52215 6.54295L7.60353 6.52751L7.57535 8.03339ZM8.44674 11.8512C9.07051 11.8616 11.0283 11.7159 11.0067 12.9029C10.9854 14.0403 9.03289 13.8784 8.40931 13.8684L8.44674 11.8512ZM8.4975 9.09736C9.01729 9.10631 10.6507 8.96984 10.6315 10.0489C10.6113 11.0828 8.9837 10.9363 8.46415 10.9282L8.4975 9.09736Z" fill="#F7931A"/>
</g>
<rect x="0.75" y="3.25" width="16.5" height="16.5" rx="8.25" stroke="white" stroke-width="0.5"/>
<defs>
<clipPath id="clip0_717_8342">
<rect x="9" y="0.5" width="16" height="16" rx="8" fill="white"/>
</clipPath>
<clipPath id="clip1_717_8342">
<rect x="1" y="3.5" width="16" height="16" rx="8" fill="white"/>
</clipPath>
</defs>
</svg>
