<svg width="25" height="21" viewBox="0 0 25 21" fill="none" xmlns="http://www.w3.org/2000/svg">
<g clip-path="url(#clip0_678_8270)">
<path d="M16.5 16.7057C20.9183 16.7057 24.5 13.124 24.5 8.70569C24.5 4.28741 20.9183 0.705688 16.5 0.705688C12.0817 0.705688 8.5 4.28741 8.5 8.70569C8.5 13.124 12.0817 16.7057 16.5 16.7057Z" fill="#F0F0F0"/>
<path d="M16.1519 8.70562H24.4997C24.4997 7.98356 24.4034 7.28406 24.2241 6.61865H16.1519V8.70562Z" fill="#D80027"/>
<path d="M16.1519 4.5313H23.3255C22.8358 3.73218 22.2096 3.02584 21.4795 2.44434H16.1519V4.5313Z" fill="#D80027"/>
<path d="M16.4997 16.7057C18.3824 16.7057 20.113 16.0549 21.4795 14.9666H11.5198C12.8863 16.0549 14.6169 16.7057 16.4997 16.7057Z" fill="#D80027"/>
<path d="M9.67398 12.879H23.3256C23.7188 12.2374 24.0237 11.5362 24.2242 10.792H8.77539C8.97592 11.5362 9.28083 12.2374 9.67398 12.879Z" fill="#D80027"/>
<path d="M12.2057 1.955H12.9348L12.2567 2.44766L12.5157 3.24481L11.8376 2.75216L11.1595 3.24481L11.3832 2.55616C10.7862 3.0535 10.2629 3.63619 9.83162 4.28544H10.0652L9.63356 4.59903C9.56631 4.71122 9.50181 4.82519 9.44 4.94084L9.64612 5.57525L9.26156 5.29584C9.16597 5.49838 9.07853 5.70547 8.99994 5.91688L9.22703 6.61588H10.0652L9.38709 7.10853L9.64612 7.90569L8.96803 7.41303L8.56184 7.70816C8.52119 8.03497 8.5 8.36784 8.5 8.70569H16.5C16.5 4.28744 16.5 3.76656 16.5 0.705688C14.9196 0.705688 13.4464 1.16413 12.2057 1.955ZM12.5157 7.90569L11.8376 7.41303L11.1595 7.90569L11.4185 7.10853L10.7404 6.61588H11.5786L11.8376 5.81872L12.0966 6.61588H12.9348L12.2567 7.10853L12.5157 7.90569ZM12.2567 4.77809L12.5157 5.57525L11.8376 5.08259L11.1595 5.57525L11.4185 4.77809L10.7404 4.28544H11.5786L11.8376 3.48828L12.0966 4.28544H12.9348L12.2567 4.77809ZM15.3853 7.90569L14.7072 7.41303L14.0291 7.90569L14.2881 7.10853L13.61 6.61588H14.4482L14.7072 5.81872L14.9662 6.61588H15.8043L15.1262 7.10853L15.3853 7.90569ZM15.1262 4.77809L15.3853 5.57525L14.7072 5.08259L14.0291 5.57525L14.2881 4.77809L13.61 4.28544H14.4482L14.7072 3.48828L14.9662 4.28544H15.8043L15.1262 4.77809ZM15.1262 2.44766L15.3853 3.24481L14.7072 2.75216L14.0291 3.24481L14.2881 2.44766L13.61 1.955H14.4482L14.7072 1.15784L14.9662 1.955H15.8043L15.1262 2.44766Z" fill="#0052B4"/>
</g>
<rect x="8.75" y="0.955688" width="15.5" height="15.5" rx="7.75" stroke="white" stroke-width="0.5"/>
<g clip-path="url(#clip1_678_8270)">
<path d="M16.5 11.7057C16.5 16.1239 12.9183 19.7057 8.5 19.7057C4.08175 19.7057 0.5 16.1239 0.5 11.7057C0.5 11.7076 8.5 3.70659 8.5 3.70569C12.9183 3.70569 16.5 7.28744 16.5 11.7057Z" fill="#0052B4"/>
<path d="M8.47852 11.706H8.49996C8.49996 11.6988 8.49996 11.6918 8.49996 11.6846C8.49283 11.6917 8.48569 11.6989 8.47852 11.706Z" fill="#F0F0F0"/>
<path d="M8.49975 7.88045C8.49975 6.47279 8.49975 5.55039 8.49975 3.70654H8.49841C4.08075 3.70726 0.499756 7.28867 0.499756 11.7065H4.67366V9.35614L7.02403 11.7065H8.47838C8.48553 11.6994 8.49266 11.6923 8.49978 11.6851C8.49978 11.1461 8.49978 10.6652 8.49978 10.2309L6.14938 7.88045H8.49975Z" fill="#F0F0F0"/>
<path d="M4.54758 4.74951C3.29636 5.46198 2.25617 6.50217 1.5437 7.75339V11.706H3.63067V6.83651V6.83648H8.50023C8.50023 6.17826 8.50023 5.5512 8.50023 4.74951H4.54758Z" fill="#D80027"/>
<path d="M8.50037 10.7223L5.6581 7.88002H4.67432C4.67432 7.87999 4.67432 7.88002 4.67432 7.88002L8.50034 11.7061H8.50037C8.50037 11.7061 8.50037 11.0278 8.50037 10.7223Z" fill="#D80027"/>
<path d="M5.3251 13.0967L5.76417 14.0147L6.75563 13.7856L6.31164 14.7013L7.10895 15.3336L6.11623 15.5573L6.11901 16.5749L5.3251 15.9383L4.53123 16.5749L4.53401 15.5573L3.54126 15.3336L4.3386 14.7013L3.89454 13.7856L4.88607 14.0147L5.3251 13.0967Z" fill="#F0F0F0"/>
<path d="M12.4781 14.8359L12.6976 15.295L13.1934 15.1804L12.9713 15.6382L13.37 15.9544L12.8736 16.0663L12.875 16.5751L12.4781 16.2567L12.0811 16.5751L12.0825 16.0663L11.5862 15.9544L11.9848 15.6382L11.7628 15.1804L12.2586 15.295L12.4781 14.8359Z" fill="#F0F0F0"/>
<path d="M10.4356 9.96667L10.6551 10.4257L11.1509 10.3111L10.9289 10.769L11.3275 11.0851L10.8312 11.197L10.8325 11.7058L10.4356 11.3875L10.0387 11.7058L10.04 11.197L9.5437 11.0851L9.94236 10.769L9.72036 10.3111L10.2161 10.4257L10.4356 9.96667Z" fill="#F0F0F0"/>
<path d="M12.4781 7.18408L12.6976 7.64314L13.1934 7.52855L12.9714 7.9864L13.37 8.30252L12.8736 8.41443L12.875 8.92324L12.4781 8.6049L12.0811 8.92324L12.0825 8.41443L11.5862 8.30252L11.9848 7.9864L11.7628 7.52855L12.2586 7.64314L12.4781 7.18408Z" fill="#F0F0F0"/>
<path d="M14.2613 9.27087L14.4808 9.72994L14.9766 9.61531L14.7546 10.0732L15.1532 10.3893L14.6569 10.5012L14.6582 11.01L14.2613 10.6917L13.8644 11.01L13.8657 10.5012L13.3694 10.3893L13.768 10.0732L13.546 9.61531L14.0418 9.72994L14.2613 9.27087Z" fill="#F0F0F0"/>
<path d="M12.9861 11.7059L13.1588 12.2374H13.7176L13.2655 12.5658L13.4382 13.0972L12.9861 12.7688L12.534 13.0972L12.7067 12.5658L12.2546 12.2374H12.8134L12.9861 11.7059Z" fill="#F0F0F0"/>
</g>
<rect x="0.75" y="3.95569" width="15.5" height="15.5" rx="7.75" stroke="white" stroke-width="0.5"/>
<defs>
<clipPath id="clip0_678_8270">
<rect x="8.5" y="0.705688" width="16" height="16" rx="8" fill="white"/>
</clipPath>
<clipPath id="clip1_678_8270">
<rect x="0.5" y="3.70569" width="16" height="16" rx="8" fill="white"/>
</clipPath>
</defs>
</svg>
