<svg width="25" height="21" viewBox="0 0 25 21" fill="none" xmlns="http://www.w3.org/2000/svg">
<g clip-path="url(#clip0_678_8270)">
<path d="M16.5 16.7057C20.9183 16.7057 24.5 13.124 24.5 8.70569C24.5 4.28741 20.9183 0.705688 16.5 0.705688C12.0817 0.705688 8.5 4.28741 8.5 8.70569C8.5 13.124 12.0817 16.7057 16.5 16.7057Z" fill="#F0F0F0"/>
<path d="M16.1519 8.70562H24.4997C24.4997 7.98356 24.4034 7.28406 24.2241 6.61865H16.1519V8.70562Z" fill="#D80027"/>
<path d="M16.1519 4.5313H23.3255C22.8358 3.73218 22.2096 3.02584 21.4795 2.44434H16.1519V4.5313Z" fill="#D80027"/>
<path d="M16.4997 16.7057C18.3824 16.7057 20.113 16.0549 21.4795 14.9666H11.5198C12.8863 16.0549 14.6169 16.7057 16.4997 16.7057Z" fill="#D80027"/>
<path d="M9.67398 12.879H23.3256C23.7188 12.2374 24.0237 11.5362 24.2242 10.792H8.77539C8.97592 11.5362 9.28083 12.2374 9.67398 12.879Z" fill="#D80027"/>
<path d="M12.2057 1.955H12.9348L12.2567 2.44766L12.5157 3.24481L11.8376 2.75216L11.1595 3.24481L11.3832 2.55616C10.7862 3.0535 10.2629 3.63619 9.83162 4.28544H10.0652L9.63356 4.59903C9.56631 4.71122 9.50181 4.82519 9.44 4.94084L9.64612 5.57525L9.26156 5.29584C9.16597 5.49838 9.07853 5.70547 8.99994 5.91688L9.22703 6.61588H10.0652L9.38709 7.10853L9.64612 7.90569L8.96803 7.41303L8.56184 7.70816C8.52119 8.03497 8.5 8.36784 8.5 8.70569H16.5C16.5 4.28744 16.5 3.76656 16.5 0.705688C14.9196 0.705688 13.4464 1.16413 12.2057 1.955ZM12.5157 7.90569L11.8376 7.41303L11.1595 7.90569L11.4185 7.10853L10.7404 6.61588H11.5786L11.8376 5.81872L12.0966 6.61588H12.9348L12.2567 7.10853L12.5157 7.90569ZM12.2567 4.77809L12.5157 5.57525L11.8376 5.08259L11.1595 5.57525L11.4185 4.77809L10.7404 4.28544H11.5786L11.8376 3.48828L12.0966 4.28544H12.9348L12.2567 4.77809ZM15.3853 7.90569L14.7072 7.41303L14.0291 7.90569L14.2881 7.10853L13.61 6.61588H14.4482L14.7072 5.81872L14.9662 6.61588H15.8043L15.1262 7.10853L15.3853 7.90569ZM15.1262 4.77809L15.3853 5.57525L14.7072 5.08259L14.0291 5.57525L14.2881 4.77809L13.61 4.28544H14.4482L14.7072 3.48828L14.9662 4.28544H15.8043L15.1262 4.77809ZM15.1262 2.44766L15.3853 3.24481L14.7072 2.75216L14.0291 3.24481L14.2881 2.44766L13.61 1.955H14.4482L14.7072 1.15784L14.9662 1.955H15.8043L15.1262 2.44766Z" fill="#0052B4"/>
</g>
<rect x="8.75" y="0.955688" width="15.5" height="15.5" rx="7.75" stroke="white" stroke-width="0.5"/>
<rect x="0.75" y="3.95569" width="15.5" height="15.5" rx="7.75" fill="#003399"/>
<rect x="0.75" y="3.95569" width="15.5" height="15.5" rx="7.75" stroke="white" stroke-width="0.5"/>
<path fill-rule="evenodd" clip-rule="evenodd" d="M7.77605 6.75614H8.35484L8.5337 6.20569L8.71255 6.75614H9.29134L8.82305 7.09634L9.00195 7.64675L8.5337 7.30655L8.06545 7.64675L8.24434 7.09634L7.77605 6.75614ZM7.77605 16.3151H8.35484L8.5337 15.7646L8.71255 16.3151H9.29134L8.82305 16.6553L9.00195 17.2057L8.5337 16.8655L8.06545 17.2057L8.24434 16.6553L7.77605 16.3151ZM2.99658 11.5356H3.57537L3.75423 10.9852L3.93308 11.5356H4.51187L4.04358 11.8758L4.22244 12.4262L3.75423 12.086L3.28598 12.4262L3.46487 11.8758L2.99658 11.5356ZM5.38626 7.39753H5.96501L6.14386 6.84708L6.32272 7.39753H6.90151L6.43326 7.73772L6.61211 8.28818L6.14386 7.94798L5.67561 8.28818L5.85447 7.73772L5.38626 7.39753ZM3.63801 9.14577H4.2168L4.39561 8.59536L4.57451 9.14577H5.15326L4.68501 9.48597L4.86386 10.0364L4.39561 9.69622L3.92741 10.0364L4.10626 9.48597L3.63801 9.14577ZM3.63672 13.9256H4.21547L4.39433 13.3751L4.57318 13.9256H5.15193L4.68372 14.2658L4.86258 14.8162L4.39433 14.476L3.92608 14.8162L4.10493 14.2658L3.63672 13.9256ZM5.38666 15.6751H5.96545L6.1443 15.1246L6.32316 15.6751H6.90195L6.4337 16.0153L6.61255 16.5657L6.1443 16.2255L5.6761 16.5657L5.85495 16.0153L5.38666 15.6751ZM12.5555 11.5356H13.1343L13.3132 10.9852L13.492 11.5356H14.0708L13.6025 11.8758L13.7814 12.4262L13.3132 12.086L12.845 12.4262L13.0238 11.8758L12.5555 11.5356ZM10.1659 7.39753H10.7447L10.9235 6.84708L11.1024 7.39753H11.6811L11.2129 7.73772L11.3918 8.28818L10.9235 7.94798L10.4553 8.28818L10.6341 7.73772L10.1659 7.39753ZM11.9141 9.14577H12.4929L12.6718 8.59536L12.8506 9.14577H13.4294L12.9611 9.48597L13.14 10.0364L12.6718 9.69622L12.2035 10.0364L12.3824 9.48597L11.9141 9.14577ZM11.9155 13.9256H12.4942L12.6731 13.3751L12.8519 13.9256H13.4307L12.9625 14.2658L13.1413 14.8162L12.6731 14.476L12.2048 14.8162L12.3837 14.2658L11.9155 13.9256ZM10.1654 15.6751H10.7442L10.9231 15.1246L11.1019 15.6751H11.6807L11.2124 16.0153L11.3913 16.5657L10.9231 16.2255L10.4548 16.5657L10.6337 16.0153L10.1654 15.6751Z" fill="#FFCC00"/>
<defs>
<clipPath id="clip0_678_8270">
<rect x="8.5" y="0.705688" width="16" height="16" rx="8" fill="white"/>
</clipPath>
</defs>
</svg>
