<svg width="25" height="20" viewBox="0 0 25 20" fill="none" xmlns="http://www.w3.org/2000/svg">
<g clip-path="url(#clip0_678_8258)">
<path d="M17 16.2057C21.4183 16.2057 25 12.624 25 8.20569C25 3.78741 21.4183 0.205688 17 0.205688C12.5817 0.205688 9 3.78741 9 8.20569C9 12.624 12.5817 16.2057 17 16.2057Z" fill="#F0F0F0"/>
<path d="M16.6519 8.20562H24.9997C24.9997 7.48356 24.9034 6.78406 24.7241 6.11865H16.6519V8.20562Z" fill="#D80027"/>
<path d="M16.6519 4.0313H23.8255C23.3358 3.23218 22.7096 2.52584 21.9795 1.94434H16.6519V4.0313Z" fill="#D80027"/>
<path d="M16.9997 16.2057C18.8824 16.2057 20.613 15.5549 21.9795 14.4666H12.0198C13.3863 15.5549 15.1169 16.2057 16.9997 16.2057Z" fill="#D80027"/>
<path d="M10.174 12.379H23.8256C24.2188 11.7374 24.5237 11.0362 24.7242 10.292H9.27539C9.47592 11.0362 9.78083 11.7374 10.174 12.379Z" fill="#D80027"/>
<path d="M12.7057 1.455H13.4348L12.7567 1.94766L13.0157 2.74481L12.3376 2.25216L11.6595 2.74481L11.8832 2.05616C11.2862 2.5535 10.7629 3.13619 10.3316 3.78544H10.5652L10.1336 4.09903C10.0663 4.21122 10.0018 4.32519 9.94 4.44084L10.1461 5.07525L9.76156 4.79584C9.66597 4.99838 9.57853 5.20547 9.49994 5.41688L9.72703 6.11588H10.5652L9.88709 6.60853L10.1461 7.40569L9.46803 6.91303L9.06184 7.20816C9.02119 7.53497 9 7.86784 9 8.20569H17C17 3.78744 17 3.26656 17 0.205688C15.4196 0.205688 13.9464 0.664126 12.7057 1.455ZM13.0157 7.40569L12.3376 6.91303L11.6595 7.40569L11.9185 6.60853L11.2404 6.11588H12.0786L12.3376 5.31872L12.5966 6.11588H13.4348L12.7567 6.60853L13.0157 7.40569ZM12.7567 4.27809L13.0157 5.07525L12.3376 4.58259L11.6595 5.07525L11.9185 4.27809L11.2404 3.78544H12.0786L12.3376 2.98828L12.5966 3.78544H13.4348L12.7567 4.27809ZM15.8853 7.40569L15.2072 6.91303L14.5291 7.40569L14.7881 6.60853L14.11 6.11588H14.9482L15.2072 5.31872L15.4662 6.11588H16.3043L15.6262 6.60853L15.8853 7.40569ZM15.6262 4.27809L15.8853 5.07525L15.2072 4.58259L14.5291 5.07525L14.7881 4.27809L14.11 3.78544H14.9482L15.2072 2.98828L15.4662 3.78544H16.3043L15.6262 4.27809ZM15.6262 1.94766L15.8853 2.74481L15.2072 2.25216L14.5291 2.74481L14.7881 1.94766L14.11 1.455H14.9482L15.2072 0.657845L15.4662 1.455H16.3043L15.6262 1.94766Z" fill="#0052B4"/>
</g>
<rect x="9.25" y="0.455688" width="15.5" height="15.5" rx="7.75" stroke="white" stroke-width="0.5"/>
<g clip-path="url(#clip1_678_8258)">
<path d="M9 19.2057C13.4183 19.2057 17 15.624 17 11.2057C17 6.78741 13.4183 3.20569 9 3.20569C4.58172 3.20569 1 6.78741 1 11.2057C1 15.624 4.58172 19.2057 9 19.2057Z" fill="#F0F0F0"/>
<path d="M2.65379 6.33435C2.02538 7.15194 1.55154 8.09429 1.27563 9.11801H5.43745L2.65379 6.33435Z" fill="#0052B4"/>
<path d="M16.7245 9.1181C16.4486 8.09441 15.9747 7.15207 15.3463 6.33447L12.5627 9.1181H16.7245Z" fill="#0052B4"/>
<path d="M1.27563 13.2925C1.55157 14.3162 2.02542 15.2585 2.65379 16.0761L5.43736 13.2925H1.27563Z" fill="#0052B4"/>
<path d="M13.8703 4.8589C13.0527 4.23049 12.1104 3.75665 11.0867 3.48071V7.6425L13.8703 4.8589Z" fill="#0052B4"/>
<path d="M4.12915 17.5508C4.94674 18.1792 5.88909 18.653 6.91278 18.929V14.7672L4.12915 17.5508Z" fill="#0052B4"/>
<path d="M6.91274 3.48071C5.88906 3.75665 4.94671 4.23049 4.12915 4.85887L6.91274 7.64246V3.48071Z" fill="#0052B4"/>
<path d="M11.0867 18.929C12.1104 18.653 13.0527 18.1792 13.8703 17.5508L11.0867 14.7672V18.929Z" fill="#0052B4"/>
<path d="M12.5627 13.2925L15.3463 16.0761C15.9747 15.2585 16.4486 14.3162 16.7245 13.2925H12.5627Z" fill="#0052B4"/>
<path d="M16.9323 10.1622H10.0435H10.0435V3.27341C9.70191 3.22894 9.35366 3.20569 9 3.20569C8.64628 3.20569 8.29809 3.22894 7.95653 3.27341V10.1622V10.1622H1.06772C1.02325 10.5038 1 10.852 1 11.2057C1 11.5594 1.02325 11.9076 1.06772 12.2492H7.95647H7.9565V19.138C8.29809 19.1824 8.64628 19.2057 9 19.2057C9.35366 19.2057 9.70191 19.1825 10.0435 19.138V12.2492V12.2492H16.9323C16.9768 11.9076 17 11.5594 17 11.2057C17 10.852 16.9768 10.5038 16.9323 10.1622Z" fill="#D80027"/>
<path d="M11.0869 13.2932L14.6568 16.8631C14.821 16.699 14.9776 16.5274 15.127 16.3495L12.0707 13.2932H11.0869V13.2932Z" fill="#D80027"/>
<path d="M6.91292 13.2932H6.91286L3.34302 16.8631C3.50714 17.0272 3.67874 17.1839 3.85661 17.3333L6.91292 14.2769V13.2932Z" fill="#D80027"/>
<path d="M6.91293 9.11843V9.11837L3.34305 5.54846C3.17887 5.71259 3.02224 5.88418 2.8728 6.06206L5.92915 9.1184H6.91293V9.11843Z" fill="#D80027"/>
<path d="M11.0869 9.11914L14.6568 5.5492C14.4927 5.38501 14.3211 5.22839 14.1432 5.07898L11.0869 8.13532V9.11914Z" fill="#D80027"/>
</g>
<rect x="0.75" y="2.95569" width="16.5" height="16.5" rx="8.25" stroke="white" stroke-width="0.5"/>
<defs>
<clipPath id="clip0_678_8258">
<rect x="9" y="0.205688" width="16" height="16" rx="8" fill="white"/>
</clipPath>
<clipPath id="clip1_678_8258">
<rect x="1" y="3.20569" width="16" height="16" rx="8" fill="white"/>
</clipPath>
</defs>
</svg>
