<svg width="73" height="72" viewBox="0 0 73 72" fill="none" xmlns="http://www.w3.org/2000/svg">
<rect x="0.625" y="0.125" width="71.75" height="71.75" rx="35.875" stroke="#CDD5DF" strokeWidth="0.25"/>
<rect x="6.625" y="6.125" width="59.75" height="59.75" rx="29.875" fill="white"/>
<rect x="6.625" y="6.125" width="59.75" height="59.75" rx="29.875" stroke="#CDD5DF" strokeWidth="0.25"/>
<path d="M31.8447 25.3942C31.2091 25.2393 30.5806 25.5599 30.1497 26.0522L27.5842 28.9842V29.0159C28.8864 28.6447 30.3689 28.316 31.9842 28.0872C32.9438 27.9512 33.9503 27.8505 34.9936 27.7971C34.5179 26.9324 33.3554 25.7622 31.8447 25.3942Z" fill="#121926"/>
<path d="M36.3842 27.7552C36.6786 26.6924 38.2222 24.6262 40.4528 24.4764C40.5621 24.469 40.6112 24.3281 40.524 24.2619C37.2451 21.7722 33.5266 23.1223 32.1847 24.2795C32.1068 24.3467 32.1593 24.4684 32.2621 24.4738C34.5215 24.5938 36.0875 26.6839 36.3842 27.7552Z" fill="#121926"/>
<path d="M45.147 28.9417L42.6188 26.0523C42.1879 25.5599 41.5593 25.2393 40.9237 25.3942C39.4275 25.7589 38.2728 26.9103 37.7887 27.773C38.769 27.8068 39.7694 27.8868 40.7842 28.0216C42.2148 28.2115 43.6742 28.5102 45.147 28.9417Z" fill="#121926"/>
<path fill-rule="evenodd" clip-rule="evenodd" d="M52.3934 42.0944C52.2355 41.7999 51.9132 41.6325 51.5815 41.6727L47.1082 42.2149C46.8855 42.2419 46.7584 41.968 46.9228 41.8153L50.3787 38.6063C50.4258 38.5625 50.4445 38.503 50.4177 38.4445C50.18 37.9256 48.7841 35.4659 47.9416 33.9972C47.0209 33.6177 46.1002 33.2952 45.1842 33.0239C43.6988 32.5841 42.2256 32.2789 40.7842 32.0841C39.2753 31.8802 37.8011 31.7971 36.3842 31.8068C34.8399 31.8174 33.3635 31.9383 31.9842 32.1332C30.3689 32.3614 28.8867 32.6911 27.5842 33.0638C26.5751 33.3526 25.6739 33.6673 24.9022 33.9807L22.5159 38.3821C22.4661 38.4739 22.484 38.5877 22.5595 38.6598L25.8641 41.8187C26.0252 41.9727 25.8972 42.243 25.676 42.216L21.26 41.6752C20.9208 41.6337 20.5921 41.8093 20.438 42.1143L18.452 46.0458C18.1796 46.5849 18.5714 47.2218 19.1754 47.2218H53.788C54.4006 47.2218 54.7918 46.5683 54.5023 46.0283L52.3934 42.0944ZM29.3211 33.7323C28.1053 33.7323 27.9316 34.9674 27.9316 35.585V37.1481L27.9335 37.1612C27.9923 37.5741 28.1296 38.5376 29.3211 38.5376C30.5253 38.5376 30.8263 37.5341 30.8263 37.1481V35.585C30.7877 34.9674 30.6526 33.7323 29.3211 33.7323ZM43.3316 33.7323C42.1158 33.7323 41.9421 34.9674 41.9421 35.585V36.2841C41.9421 36.8594 41.8928 37.4769 42.1909 37.9689C42.3775 38.2771 42.712 38.5376 43.3316 38.5376C44.5358 38.5376 44.8369 37.5341 44.8369 37.1481V35.585C44.7983 34.9674 44.6632 33.7323 43.3316 33.7323ZM33.9526 38.6973C33.9526 38.5959 33.9969 38.4996 34.0739 38.4336L36.1581 36.6465C36.2882 36.535 36.4802 36.535 36.6103 36.6465L38.6945 38.4336C38.7715 38.4996 38.8158 38.5959 38.8158 38.6973V42.1438C38.8158 42.2436 38.7729 42.3385 38.698 42.4045L36.6138 44.24C36.4826 44.3555 36.2859 44.3555 36.1546 44.24L34.0704 42.4045C33.9956 42.3385 33.9526 42.2436 33.9526 42.1438V38.6973Z" fill="#121926"/>
<path d="M27.9316 37.1481V35.585C27.9316 34.9674 28.1053 33.7323 29.3211 33.7323C30.6526 33.7323 30.7877 34.9674 30.8263 35.585V37.1481C30.8263 37.5341 30.5253 38.5376 29.3211 38.5376C28.1296 38.5376 27.9923 37.5741 27.9335 37.1612M27.9316 37.1481L27.9335 37.1612M27.9316 37.1481C27.9322 37.1524 27.9328 37.1568 27.9335 37.1612M36.3842 27.7552C36.6786 26.6924 38.2222 24.6262 40.4528 24.4764C40.5621 24.469 40.6112 24.3281 40.524 24.2619C37.2451 21.7722 33.5266 23.1223 32.1847 24.2795C32.1068 24.3467 32.1593 24.4684 32.2621 24.4738C34.5215 24.5938 36.0875 26.6839 36.3842 27.7552ZM36.3842 27.7552C35.9142 27.7594 35.4504 27.7738 34.9936 27.7971M36.3842 27.7552C36.8473 27.751 37.3156 27.7566 37.7887 27.773M36.3842 27.7552V31.8068M34.9936 27.7971C34.5179 26.9324 33.3554 25.7622 31.8447 25.3942C31.2091 25.2393 30.5806 25.5599 30.1497 26.0522L27.5842 28.9842V29.0159M34.9936 27.7971C33.9503 27.8505 32.9438 27.9512 31.9842 28.0872M37.7887 27.773C38.2728 26.9103 39.4275 25.7589 40.9237 25.3942C41.5593 25.2393 42.1879 25.5599 42.6188 26.0523L45.147 28.9417M37.7887 27.773C38.769 27.8068 39.7694 27.8868 40.7842 28.0216M36.3842 31.8068C37.8011 31.7971 39.2753 31.8802 40.7842 32.0841M36.3842 31.8068C34.8399 31.8174 33.3635 31.9383 31.9842 32.1332M40.7842 28.0216V32.0841M40.7842 28.0216C42.2148 28.2115 43.6742 28.5102 45.147 28.9417M40.7842 32.0841C42.2256 32.2789 43.6988 32.5841 45.1842 33.0239M31.9842 28.0216V28.0872M31.9842 32.1332C30.3689 32.3614 28.8867 32.6911 27.5842 33.0638M31.9842 32.1332V28.0872M27.5842 33.0638C26.5751 33.3526 25.6739 33.6673 24.9022 33.9807M27.5842 33.0638V29.0159M45.1842 33.0239V28.9842L45.147 28.9417M45.1842 33.0239C46.1002 33.2952 47.0209 33.6177 47.9416 33.9972M24.9022 33.9807C24.5719 34.1149 24.2653 34.2488 23.9841 34.3804C23.8284 34.4533 23.6474 34.3409 23.6474 34.1689V30.6336C23.6474 30.5458 23.6968 30.4654 23.7759 30.4271C24.7355 29.9612 26.0318 29.4584 27.5842 29.0159M24.9022 33.9807L22.5159 38.3821C22.4661 38.4739 22.484 38.5877 22.5595 38.6598L25.8641 41.8187C26.0252 41.9727 25.8972 42.243 25.676 42.216L21.26 41.6752C20.9208 41.6337 20.5921 41.8093 20.438 42.1143L18.452 46.0458C18.1796 46.5849 18.5714 47.2218 19.1754 47.2218H53.788C54.4006 47.2218 54.7918 46.5683 54.5023 46.0283L52.3934 42.0944C52.2355 41.7999 51.9132 41.6325 51.5815 41.6727L47.1082 42.2149C46.8855 42.2419 46.7584 41.968 46.9228 41.8153L50.3787 38.6063C50.4258 38.5625 50.4445 38.503 50.4177 38.4445C50.18 37.9256 48.7841 35.4659 47.9416 33.9972M47.9416 33.9972C48.2455 34.1224 48.5494 34.2539 48.8532 34.3918C49.0064 34.4613 49.1817 34.3516 49.1841 34.1834L49.2347 30.6397C49.236 30.5487 49.184 30.4653 49.1014 30.4271C47.78 29.8153 46.4582 29.3259 45.147 28.9417M27.5842 29.0159C28.8864 28.6447 30.3689 28.316 31.9842 28.0872M41.9421 35.585C41.9421 34.9674 42.1158 33.7323 43.3316 33.7323C44.6632 33.7323 44.7983 34.9674 44.8369 35.585V37.1481C44.8369 37.5341 44.5358 38.5376 43.3316 38.5376C42.712 38.5376 42.3775 38.2771 42.1909 37.9689C41.8928 37.4769 41.9421 36.8594 41.9421 36.2841V35.585ZM36.1581 36.6465L34.0739 38.4336C33.9969 38.4996 33.9526 38.5959 33.9526 38.6973V42.1438C33.9526 42.2436 33.9956 42.3385 34.0704 42.4045L36.1546 44.24C36.2859 44.3555 36.4826 44.3555 36.6138 44.24L38.698 42.4045C38.7729 42.3385 38.8158 42.2436 38.8158 42.1438V38.6973C38.8158 38.5959 38.7715 38.4996 38.6945 38.4336L36.6103 36.6465C36.4802 36.535 36.2882 36.535 36.1581 36.6465Z" stroke="#121926" strokeWidth="0.463158"/>
<path d="M19.3673 42.7072C19.4509 42.789 19.5984 42.7071 19.582 42.5914C19.2066 39.9348 21.5728 37.1032 23.0564 35.7924C23.1378 35.7205 23.0866 35.584 22.978 35.584H22.1838C22.1569 35.584 22.1315 35.5928 22.1108 35.61C20.7326 36.7584 18.525 39.2745 18.6183 41.9303C18.6194 41.9596 18.6318 41.9874 18.6528 42.008L19.3673 42.7072Z" fill="#121926" stroke="#121926" strokeWidth="0.231579"/>
<path d="M53.5797 42.7072C53.4962 42.789 53.3487 42.7071 53.3651 42.5914C53.7404 39.9348 51.3742 37.1032 49.8907 35.7924C49.8093 35.7205 49.8605 35.584 49.9691 35.584H50.7632C50.7901 35.584 50.8156 35.5928 50.8363 35.61C52.2145 36.7584 54.4221 39.2745 54.3287 41.9303C54.3277 41.9596 54.3152 41.9874 54.2943 42.008L53.5797 42.7072Z" fill="#121926" stroke="#121926" strokeWidth="0.231579"/>
<path d="M32.2236 47.6375L31.1547 48.2865C30.9601 48.4047 30.9718 48.691 31.1755 48.7928L32.2504 49.3303C32.371 49.3906 32.504 49.422 32.6388 49.422H40.1298C40.2646 49.422 40.3976 49.3906 40.5182 49.3303L41.5931 48.7928C41.7968 48.691 41.8085 48.4047 41.6139 48.2865L40.5451 47.6375C40.4092 47.5551 40.2533 47.5114 40.0944 47.5114H36.3843H32.6743C32.5153 47.5114 32.3594 47.5551 32.2236 47.6375Z" fill="#121926" stroke="#FCFCFD" strokeWidth="0.115789"/>
</svg>
