<svg width="25" height="20" viewBox="0 0 25 20" fill="none" xmlns="http://www.w3.org/2000/svg">
<g clip-path="url(#clip0_223_8038)">
<path d="M17 16.5C21.4183 16.5 25 12.9183 25 8.5C25 4.08172 21.4183 0.5 17 0.5C12.5817 0.5 9 4.08172 9 8.5C9 12.9183 12.5817 16.5 17 16.5Z" fill="#F0F0F0"/>
<path d="M16.6519 8.49999H24.9997C24.9997 7.77793 24.9034 7.07843 24.7241 6.41302H16.6519V8.49999Z" fill="#D80027"/>
<path d="M16.6519 4.32568H23.8255C23.3358 3.52655 22.7096 2.82021 21.9795 2.23871H16.6519V4.32568Z" fill="#D80027"/>
<path d="M16.9997 16.5001C18.8824 16.5001 20.613 15.8493 21.9795 14.7609H12.0198C13.3863 15.8493 15.1169 16.5001 16.9997 16.5001Z" fill="#D80027"/>
<path d="M10.174 12.6733H23.8256C24.2188 12.0317 24.5237 11.3305 24.7242 10.5863H9.27539C9.47592 11.3305 9.78083 12.0317 10.174 12.6733Z" fill="#D80027"/>
<path d="M12.7057 1.74931H13.4348L12.7567 2.24197L13.0157 3.03912L12.3376 2.54647L11.6595 3.03912L11.8832 2.35047C11.2862 2.84781 10.7629 3.4305 10.3316 4.07975H10.5652L10.1336 4.39334C10.0663 4.50553 10.0018 4.6195 9.94 4.73516L10.1461 5.36956L9.76156 5.09016C9.66597 5.29269 9.57853 5.49978 9.49994 5.71119L9.72703 6.41019H10.5652L9.88709 6.90284L10.1461 7.7L9.46803 7.20734L9.06184 7.50247C9.02119 7.82928 9 8.16216 9 8.5H17C17 4.08175 17 3.56087 17 0.5C15.4196 0.5 13.9464 0.958438 12.7057 1.74931ZM13.0157 7.7L12.3376 7.20734L11.6595 7.7L11.9185 6.90284L11.2404 6.41019H12.0786L12.3376 5.61303L12.5966 6.41019H13.4348L12.7567 6.90284L13.0157 7.7ZM12.7567 4.57241L13.0157 5.36956L12.3376 4.87691L11.6595 5.36956L11.9185 4.57241L11.2404 4.07975H12.0786L12.3376 3.28259L12.5966 4.07975H13.4348L12.7567 4.57241ZM15.8853 7.7L15.2072 7.20734L14.5291 7.7L14.7881 6.90284L14.11 6.41019H14.9482L15.2072 5.61303L15.4662 6.41019H16.3043L15.6262 6.90284L15.8853 7.7ZM15.6262 4.57241L15.8853 5.36956L15.2072 4.87691L14.5291 5.36956L14.7881 4.57241L14.11 4.07975H14.9482L15.2072 3.28259L15.4662 4.07975H16.3043L15.6262 4.57241ZM15.6262 2.24197L15.8853 3.03912L15.2072 2.54647L14.5291 3.03912L14.7881 2.24197L14.11 1.74931H14.9482L15.2072 0.952156L15.4662 1.74931H16.3043L15.6262 2.24197Z" fill="#0052B4"/>
</g>
<rect x="9.25" y="0.75" width="15.5" height="15.5" rx="7.75" stroke="white" stroke-width="0.5"/>
<g clip-path="url(#clip1_223_8038)">
<path d="M9 19.5C13.4183 19.5 17 15.9183 17 11.5C17 7.08172 13.4183 3.5 9 3.5C4.58172 3.5 1 7.08172 1 11.5C1 15.9183 4.58172 19.5 9 19.5Z" fill="#F0F0F0"/>
<path d="M2.65379 6.62866C2.02538 7.44626 1.55154 8.3886 1.27563 9.41232H5.43745L2.65379 6.62866Z" fill="#0052B4"/>
<path d="M16.7245 9.41241C16.4486 8.38872 15.9747 7.44638 15.3463 6.62878L12.5627 9.41241H16.7245Z" fill="#0052B4"/>
<path d="M1.27563 13.5868C1.55157 14.6105 2.02542 15.5528 2.65379 16.3704L5.43736 13.5868H1.27563Z" fill="#0052B4"/>
<path d="M13.8703 5.15315C13.0527 4.52475 12.1104 4.0509 11.0867 3.77496V7.93675L13.8703 5.15315Z" fill="#0052B4"/>
<path d="M4.12915 17.8451C4.94674 18.4736 5.88909 18.9474 6.91278 19.2233V15.0616L4.12915 17.8451Z" fill="#0052B4"/>
<path d="M6.91274 3.77496C5.88906 4.0509 4.94671 4.52474 4.12915 5.15312L6.91274 7.93671V3.77496Z" fill="#0052B4"/>
<path d="M11.0867 19.2233C12.1104 18.9474 13.0527 18.4736 13.8703 17.8452L11.0867 15.0616V19.2233Z" fill="#0052B4"/>
<path d="M12.5627 13.5868L15.3463 16.3704C15.9747 15.5528 16.4486 14.6105 16.7245 13.5868H12.5627Z" fill="#0052B4"/>
<path d="M16.9323 10.4565H10.0435H10.0435V3.56772C9.70191 3.52325 9.35366 3.5 9 3.5C8.64628 3.5 8.29809 3.52325 7.95653 3.56772V10.4565V10.4565H1.06772C1.02325 10.7981 1 11.1463 1 11.5C1 11.8537 1.02325 12.2019 1.06772 12.5435H7.95647H7.9565V19.4323C8.29809 19.4768 8.64628 19.5 9 19.5C9.35366 19.5 9.70191 19.4768 10.0435 19.4323V12.5435V12.5435H16.9323C16.9768 12.2019 17 11.8537 17 11.5C17 11.1463 16.9768 10.7981 16.9323 10.4565Z" fill="#D80027"/>
<path d="M11.0869 13.5875L14.6568 17.1574C14.821 16.9932 14.9776 16.8217 15.127 16.6438L12.0707 13.5875H11.0869V13.5875Z" fill="#D80027"/>
<path d="M6.91292 13.5875H6.91286L3.34302 17.1573C3.50714 17.3215 3.67874 17.4781 3.85661 17.6276L6.91292 14.5712V13.5875Z" fill="#D80027"/>
<path d="M6.91293 9.41274V9.41268L3.34305 5.84277C3.17887 6.0069 3.02224 6.17849 2.8728 6.35637L5.92915 9.41271H6.91293V9.41274Z" fill="#D80027"/>
<path d="M11.0869 9.41345L14.6568 5.84351C14.4927 5.67932 14.3211 5.5227 14.1432 5.37329L11.0869 8.42964V9.41345Z" fill="#D80027"/>
</g>
<rect x="0.75" y="3.25" width="16.5" height="16.5" rx="8.25" stroke="white" stroke-width="0.5"/>
<defs>
<clipPath id="clip0_223_8038">
<rect x="9" y="0.5" width="16" height="16" rx="8" fill="white"/>
</clipPath>
<clipPath id="clip1_223_8038">
<rect x="1" y="3.5" width="16" height="16" rx="8" fill="white"/>
</clipPath>
</defs>
</svg>
