<svg width="197" height="186" viewBox="0 0 197 186" fill="none" xmlns="http://www.w3.org/2000/svg">
<ellipse opacity="0.19" cx="75.6432" cy="10.4669" rx="2.5792" ry="2.5792" fill="white"/>
<g opacity="0.29" filter="url(#filter0_f_359_4812)">
<ellipse cx="44.6911" cy="25.9425" rx="2.5792" ry="2.5792" fill="white"/>
</g>
<g opacity="0.37" filter="url(#filter1_f_359_4812)">
<ellipse cx="54.9994" cy="62.0499" rx="2.5792" ry="2.5792" fill="white"/>
</g>
<g opacity="0.15" filter="url(#filter2_f_359_4812)">
<ellipse cx="60.1627" cy="139.425" rx="2.5792" ry="2.5792" fill="white"/>
</g>
<g opacity="0.6" filter="url(#filter3_f_359_4812)">
<ellipse cx="18.8993" cy="108.475" rx="2.5792" ry="2.5792" fill="white"/>
</g>
<ellipse opacity="0.6" cx="44.691" cy="25.9425" rx="2.5792" ry="2.5792" fill="white"/>
<ellipse opacity="0.6" cx="26.6302" cy="77.5245" rx="2.5792" ry="2.5792" fill="white"/>
<ellipse opacity="0.6" cx="122.07" cy="18.2042" rx="2.5792" ry="2.5792" fill="white"/>
<g opacity="0.26" filter="url(#filter4_f_359_4812)">
<ellipse cx="116.906" cy="31.0987" rx="2.5792" ry="2.5792" fill="white"/>
</g>
<g opacity="0.26" filter="url(#filter5_f_359_4812)">
<ellipse cx="39.5313" cy="20.7833" rx="2.5792" ry="2.5792" fill="white"/>
</g>
<g opacity="0.15" filter="url(#filter6_f_359_4812)">
<ellipse cx="96.2763" cy="67.2081" rx="2.5792" ry="2.5792" fill="white"/>
</g>
<ellipse opacity="0.33" cx="29.2093" cy="160.058" rx="2.5792" ry="2.5792" fill="white"/>
<g opacity="0.13" filter="url(#filter7_f_359_4812)">
<ellipse cx="44.6911" cy="98.1573" rx="2.5792" ry="2.5792" fill="white"/>
</g>
<ellipse opacity="0.27" cx="75.6432" cy="10.4669" rx="2.5792" ry="2.5792" fill="white"/>
<g opacity="0.11" filter="url(#filter8_f_359_4812)">
<ellipse cx="39.5313" cy="31.0987" rx="2.5792" ry="2.5792" fill="white"/>
</g>
<ellipse opacity="0.42" cx="153.018" cy="108.475" rx="2.5792" ry="2.5792" fill="white"/>
<ellipse opacity="0.27" cx="178.812" cy="41.4161" rx="2.5792" ry="2.5792" fill="white"/>
<g opacity="0.28" filter="url(#filter9_f_359_4812)">
<ellipse cx="127.228" cy="56.8917" rx="2.5792" ry="2.5792" fill="white"/>
</g>
<g opacity="0.27" filter="url(#filter10_f_359_4812)">
<ellipse cx="178.812" cy="118.791" rx="2.5792" ry="2.5792" fill="white"/>
</g>
<g opacity="0.39" filter="url(#filter11_f_359_4812)">
<ellipse cx="127.228" cy="129.108" rx="2.5792" ry="2.5792" fill="white"/>
</g>
<ellipse opacity="0.3" cx="44.6911" cy="154.9" rx="2.5792" ry="2.5792" fill="white"/>
<g opacity="0.45" filter="url(#filter12_f_359_4812)">
<ellipse cx="147.86" cy="160.058" rx="2.5792" ry="2.5792" fill="white"/>
</g>
<ellipse opacity="0.21" cx="147.86" cy="93.0001" rx="2.5792" ry="2.5792" fill="white"/>
<g opacity="0.08" filter="url(#filter13_f_359_4812)">
<ellipse cx="8.57932" cy="144.583" rx="2.5792" ry="2.5792" fill="white"/>
</g>
<g opacity="0.31" filter="url(#filter14_f_359_4812)">
<ellipse cx="80.7927" cy="129.108" rx="2.5792" ry="2.5792" fill="white"/>
</g>
<ellipse opacity="0.59" cx="75.6432" cy="67.2081" rx="2.5792" ry="2.5792" fill="white"/>
<g opacity="0.54" filter="url(#filter15_f_359_4812)">
<ellipse cx="29.2093" cy="165.216" rx="2.5792" ry="2.5792" fill="white"/>
</g>
<ellipse opacity="0.07" cx="142.698" cy="113.633" rx="2.5792" ry="2.5792" fill="white"/>
<g opacity="0.1" filter="url(#filter16_f_359_4812)">
<ellipse cx="111.746" cy="139.425" rx="2.5792" ry="2.5792" fill="white"/>
</g>
<g opacity="0.42" filter="url(#filter17_f_359_4812)">
<ellipse cx="106.585" cy="149.742" rx="2.5792" ry="2.5792" fill="white"/>
</g>
<g opacity="0.56" filter="url(#filter18_f_359_4812)">
<ellipse cx="173.65" cy="139.425" rx="2.5792" ry="2.5792" fill="white"/>
</g>
<ellipse opacity="0.13" cx="178.812" cy="46.5743" rx="2.5792" ry="2.5792" fill="white"/>
<ellipse opacity="0.32" cx="173.65" cy="165.216" rx="2.5792" ry="2.5792" fill="white"/>
<g opacity="0.07" filter="url(#filter19_f_359_4812)">
<ellipse cx="80.7927" cy="46.5743" rx="2.5792" ry="2.5792" fill="white"/>
</g>
<g opacity="0.52" filter="url(#filter20_f_359_4812)">
<ellipse cx="60.1627" cy="170.374" rx="2.5792" ry="2.5792" fill="white"/>
</g>
<g opacity="0.28" filter="url(#filter21_f_359_4812)">
<ellipse cx="34.3712" cy="139.425" rx="2.5792" ry="2.5792" fill="white"/>
</g>
<ellipse opacity="0.23" cx="91.1144" cy="98.1573" rx="2.5792" ry="2.5792" fill="white"/>
<g opacity="0.35" filter="url(#filter22_f_359_4812)">
<ellipse cx="8.57932" cy="51.7335" rx="2.5792" ry="2.5792" fill="white"/>
</g>
<ellipse opacity="0.46" cx="91.1144" cy="123.95" rx="2.5792" ry="2.5792" fill="white"/>
<g opacity="0.34" filter="url(#filter23_f_359_4812)">
<ellipse cx="96.2763" cy="108.475" rx="2.5792" ry="2.5792" fill="white"/>
</g>
<g opacity="0.6" filter="url(#filter24_f_359_4812)">
<ellipse cx="142.698" cy="103.317" rx="2.5792" ry="2.5792" fill="white"/>
</g>
<g opacity="0.19" filter="url(#filter25_f_359_4812)">
<ellipse cx="142.698" cy="129.108" rx="2.5792" ry="2.5792" fill="white"/>
</g>
<g opacity="0.19" filter="url(#filter26_f_359_4812)">
<ellipse cx="127.228" cy="108.475" rx="2.5792" ry="2.5792" fill="white"/>
</g>
<g opacity="0.25" filter="url(#filter27_f_359_4812)">
<ellipse cx="111.746" cy="123.95" rx="2.5792" ry="2.5792" fill="white"/>
</g>
<g opacity="0.09" filter="url(#filter28_f_359_4812)">
<ellipse cx="60.1627" cy="77.5255" rx="2.5792" ry="2.5792" fill="white"/>
</g>
<g opacity="0.35" filter="url(#filter29_f_359_4812)">
<ellipse cx="49.8513" cy="175.532" rx="2.5792" ry="2.5792" fill="white"/>
</g>
<g opacity="0.42" filter="url(#filter30_f_359_4812)">
<ellipse cx="183.958" cy="82.6837" rx="2.5792" ry="2.5792" fill="white"/>
</g>
<g opacity="0.23" filter="url(#filter31_f_359_4812)">
<ellipse cx="173.65" cy="72.3663" rx="2.5792" ry="2.5792" fill="white"/>
</g>
<g opacity="0.5" filter="url(#filter32_f_359_4812)">
<ellipse cx="183.958" cy="139.425" rx="2.5792" ry="2.5792" fill="white"/>
</g>
<g opacity="0.22" filter="url(#filter33_f_359_4812)">
<ellipse cx="111.746" cy="46.5743" rx="2.5792" ry="2.5792" fill="white"/>
</g>
<ellipse opacity="0.08" cx="122.066" cy="25.9425" rx="2.5792" ry="2.5792" fill="white"/>
<g opacity="0.08" filter="url(#filter34_f_359_4812)">
<ellipse cx="142.698" cy="103.317" rx="2.5792" ry="2.5792" fill="white"/>
</g>
<g filter="url(#filter35_f_359_4812)">
<rect x="48.2686" y="65.2871" width="78.3837" height="78.3837" transform="rotate(-15 48.2686 65.2871)" fill="white"/>
</g>
<rect x="35.6437" y="57.9981" width="99" height="99" rx="15.5" transform="rotate(-15 35.6437 57.9981)" fill="url(#paint0_linear_359_4812)"/>
<rect x="35.6437" y="57.9981" width="99" height="99" rx="15.5" transform="rotate(-15 35.6437 57.9981)" stroke="url(#paint1_linear_359_4812)"/>
<path d="M84.1987 77.9325C83.1087 77.9573 82.2351 78.7445 81.7539 79.723L78.8885 85.5499L78.9021 85.6008C80.8385 84.4415 83.0833 83.2728 85.585 82.2077C87.0712 81.5749 88.648 80.9786 90.3047 80.4426C89.1658 79.2557 86.7895 77.8734 84.1987 77.9325Z" fill="#F8FAFC"/>
<path d="M92.5253 79.7752C92.5408 77.9373 94.1344 73.9451 97.6608 72.7417C97.8336 72.6827 97.8519 72.4347 97.6828 72.3657C91.3302 69.772 85.9263 73.5495 84.2652 75.9914C84.1688 76.1331 84.3059 76.3064 84.4736 76.2708C88.1628 75.4892 91.5854 78.1786 92.5253 79.7752Z" fill="#F8FAFC"/>
<path d="M107.144 77.9054L101.828 74.3444C100.922 73.7376 99.7713 73.4926 98.8148 74.0162C96.5634 75.2486 95.2011 77.6003 94.7939 79.198C96.3867 78.8297 98.0317 78.5269 99.7236 78.3061C102.109 77.9947 104.587 77.846 107.144 77.9054Z" fill="#F8FAFC"/>
<path fill-rule="evenodd" clipRule="evenodd" d="M124.483 95.9537C124.102 95.5478 123.511 95.4173 122.995 95.6251L116.027 98.4276C115.68 98.5672 115.357 98.1811 115.556 97.8643L119.735 91.2075C119.792 91.1166 119.797 91.0128 119.728 90.9301C119.122 90.1974 115.814 86.8396 113.824 84.8386C112.178 84.6249 110.557 84.5028 108.965 84.4613C106.384 84.3939 103.881 84.5381 101.476 84.8462C98.9588 85.1688 96.5498 85.6709 94.273 86.2978C91.7913 86.9811 89.4668 87.8126 87.3303 88.7213C84.8283 89.7855 82.5843 90.9555 80.6483 92.1175C79.1483 93.0177 77.8332 93.913 76.7261 94.7505L74.783 102.865C74.7425 103.035 74.8203 103.21 74.973 103.294L81.6557 106.954C81.9814 107.132 81.8919 107.623 81.5241 107.674L74.1817 108.709C73.6178 108.788 73.1643 109.213 73.0478 109.77L71.5465 116.956C71.3406 117.942 72.2461 118.798 73.2184 118.537L128.94 103.607C129.927 103.342 130.274 102.122 129.576 101.377L124.483 95.9537ZM83.7328 92.4445C81.7755 92.9689 82.0287 95.0322 82.295 96.0264L82.9693 98.5429L82.978 98.5631C83.2508 99.2025 83.8875 100.694 85.8056 100.18C87.7442 99.6609 87.796 97.9155 87.6295 97.2942L86.9552 94.7777C86.6267 93.8002 85.8764 91.8701 83.7328 92.4445ZM106.288 86.4008C104.331 86.9253 104.584 88.9885 104.85 89.9827L105.152 91.1082C105.4 92.0344 105.587 93.0497 106.279 93.7133C106.712 94.1289 107.363 94.404 108.361 94.1367C110.299 93.6173 110.351 91.8719 110.185 91.2505L109.51 88.734C109.182 87.7565 108.432 85.8264 106.288 86.4008ZM93.3308 98.4396C93.287 98.2764 93.3168 98.1022 93.4122 97.9628L95.9967 94.1867C96.158 93.951 96.4671 93.8682 96.7247 93.9917L100.851 95.9696C101.003 96.0426 101.116 96.1786 101.16 96.3418L102.647 101.89C102.69 102.051 102.661 102.222 102.569 102.361L100.006 106.215C99.8444 106.457 99.5277 106.542 99.2666 106.413L95.1195 104.357C94.9705 104.283 94.8605 104.149 94.8174 103.988L93.3308 98.4396Z" fill="#F8FAFC"/>
<path d="M82.9693 98.5429L82.295 96.0264C82.0287 95.0322 81.7755 92.9689 83.7328 92.4445C85.8764 91.8701 86.6267 93.8002 86.9552 94.7777L87.6295 97.2942C87.796 97.9155 87.7442 99.6609 85.8056 100.18C83.8875 100.694 83.2508 99.2025 82.978 98.5631M82.9693 98.5429L82.978 98.5631M82.9693 98.5429C82.9722 98.5495 82.9751 98.5562 82.978 98.5631M92.5252 79.7752C92.5408 77.9373 94.1344 73.9451 97.6608 72.7417C97.8336 72.6827 97.8519 72.4347 97.6828 72.3657C91.3302 69.772 85.9263 73.5495 84.2652 75.9914C84.1688 76.1331 84.3059 76.3064 84.4736 76.2708C88.1628 75.4892 91.5854 78.1786 92.5252 79.7752ZM92.5252 79.7752C91.7704 79.9848 91.0299 80.2079 90.3047 80.4426M92.5252 79.7752C93.2689 79.5688 94.0253 79.3758 94.7939 79.198M92.5252 79.7752L94.273 86.2978M90.3047 80.4426C89.1658 79.2557 86.7895 77.8734 84.1987 77.9325C83.1087 77.9573 82.2351 78.7445 81.7539 79.723L78.8885 85.5499L78.9021 85.6008M90.3047 80.4426C88.648 80.9786 87.0712 81.5749 85.585 82.2077M94.7939 79.198C95.2011 77.6003 96.5634 75.2486 98.8148 74.0162C99.7713 73.4926 100.922 73.7376 101.828 74.3444L107.144 77.9054M94.7939 79.198C96.3867 78.8297 98.0317 78.5269 99.7236 78.3061M94.273 86.2978C96.5498 85.6709 98.9588 85.1688 101.476 84.8462M94.273 86.2978C91.7913 86.9811 89.4668 87.8126 87.3303 88.7213M99.7236 78.3061L101.476 84.8462M99.7236 78.3061C102.109 77.9947 104.587 77.846 107.144 77.9054M101.476 84.8462C103.881 84.5381 106.384 84.3939 108.965 84.4613M85.5567 82.1021L85.585 82.2077M87.3303 88.7213C84.8283 89.7855 82.5843 90.9555 80.6483 92.1175M87.3303 88.7213L85.585 82.2077M80.6483 92.1175C79.1483 93.0177 77.8332 93.913 76.7261 94.7505M80.6483 92.1175L78.9021 85.6008M108.965 84.4613L107.222 77.9578L107.144 77.9054M108.965 84.4613C110.557 84.5028 112.178 84.6249 113.824 84.8386M76.7261 94.7505C76.2521 95.109 75.8164 95.4569 75.4205 95.79C75.2012 95.9745 74.8613 95.8716 74.7872 95.5948L73.2622 89.9034C73.2243 89.7619 73.2692 89.6113 73.3799 89.5154C74.7238 88.3515 76.5937 86.9828 78.9021 85.6008M76.7261 94.7505L74.783 102.865C74.7425 103.035 74.8203 103.21 74.973 103.294L81.6557 106.954C81.9814 107.132 81.8919 107.623 81.5241 107.674L74.1817 108.709C73.6178 108.788 73.1643 109.213 73.0478 109.77L71.5465 116.956C71.3406 117.942 72.2461 118.798 73.2184 118.537L128.94 103.607C129.927 103.342 130.274 102.122 129.576 101.377L124.483 95.9537C124.102 95.5478 123.511 95.4173 122.995 95.6251L116.027 98.4276C115.68 98.5672 115.357 98.1811 115.556 97.8643L119.735 91.2075C119.792 91.1166 119.797 91.0128 119.728 90.9301C119.122 90.1974 115.814 86.8396 113.824 84.8386M113.824 84.8386C114.367 84.9091 114.913 84.9897 115.462 85.0806C115.738 85.1265 115.973 84.8742 115.904 84.6024L114.457 78.8756C114.42 78.7286 114.3 78.6168 114.151 78.5909C111.76 78.1761 109.421 77.9583 107.144 77.9054M78.9021 85.6008C80.8385 84.4415 83.0833 83.2728 85.585 82.2077M104.85 89.9827C104.584 88.9885 104.331 86.9253 106.288 86.4008C108.432 85.8264 109.182 87.7565 109.51 88.734L110.185 91.2505C110.351 91.8719 110.299 93.6173 108.361 94.1367C107.363 94.404 106.712 94.1289 106.279 93.7133C105.587 93.0497 105.4 92.0344 105.152 91.1082L104.85 89.9827ZM95.9967 94.1867L93.4122 97.9628C93.3168 98.1022 93.287 98.2764 93.3308 98.4396L94.8174 103.988C94.8605 104.149 94.9705 104.283 95.1195 104.357L99.2666 106.413C99.5277 106.542 99.8444 106.457 100.006 106.215L102.569 102.361C102.661 102.222 102.69 102.051 102.647 101.89L101.16 96.3418C101.116 96.1786 101.003 96.0426 100.851 95.9696L96.7247 93.9917C96.4671 93.8682 96.158 93.951 95.9967 94.1867Z" stroke="#F8FAFC" stroke-width="0.77193"/>
<path d="M71.5804 111.188C71.7501 111.284 71.9522 111.088 71.876 110.909C70.1257 106.794 72.7136 101.215 74.5365 98.4648C74.6364 98.314 74.4952 98.1162 74.3204 98.1631L73.0419 98.5057C72.9985 98.5173 72.9614 98.5424 72.9355 98.5791C71.2121 101.022 68.7435 106.025 70.0394 110.261C70.0538 110.307 70.0858 110.347 70.1284 110.371L71.5804 111.188Z" fill="#F8FAFC" stroke="#F8FAFC" stroke-width="0.385965"/>
<path d="M126.658 96.4303C126.559 96.5979 126.286 96.5297 126.262 96.3363C125.721 91.8977 120.69 88.3599 117.736 86.8896C117.574 86.809 117.598 86.5671 117.773 86.5202L119.051 86.1777C119.094 86.1661 119.139 86.1693 119.18 86.1881C121.894 87.4423 126.533 90.5405 127.529 94.8564C127.54 94.9041 127.532 94.9542 127.507 94.9963L126.658 96.4303Z" fill="#F8FAFC" stroke="#F8FAFC" stroke-width="0.385965"/>
<path d="M94.4035 113.577L92.9628 115.083C92.7004 115.357 92.8428 115.813 93.2147 115.889L95.177 116.291C95.3971 116.336 95.6247 116.329 95.8418 116.271L107.901 113.04C108.118 112.982 108.319 112.874 108.487 112.725L109.986 111.396C110.27 111.144 110.165 110.678 109.801 110.571L107.8 109.988C107.546 109.914 107.276 109.911 107.02 109.979L101.047 111.58L95.0747 113.18C94.8188 113.249 94.5867 113.386 94.4035 113.577Z" fill="#F8FAFC" stroke="#121926" stroke-width="0.192982"/>
<path d="M62.1466 54.5198L51.5214 57.3668C45.1198 59.0821 41.3208 65.6622 43.0361 72.0638L45.8831 82.6889" stroke="url(#paint2_linear_359_4812)" strokeLinecap="round"/>
<defs>
<filter id="filter0_f_359_4812" x="31.7953" y="13.0466" width="25.7918" height="25.7916" filterUnits="userSpaceOnUse" color-interpolation-filters="sRGB">
<feFlood flood-opacity="0" result="BackgroundImageFix"/>
<feBlend mode="normal" in="SourceGraphic" in2="BackgroundImageFix" result="shape"/>
<feGaussianBlur stdDeviation="5.15834" result="effect1_foregroundBlur_359_4812"/>
</filter>
<filter id="filter1_f_359_4812" x="47.2618" y="54.3124" width="15.4751" height="15.4749" filterUnits="userSpaceOnUse" color-interpolation-filters="sRGB">
<feFlood flood-opacity="0" result="BackgroundImageFix"/>
<feBlend mode="normal" in="SourceGraphic" in2="BackgroundImageFix" result="shape"/>
<feGaussianBlur stdDeviation="2.57917" result="effect1_foregroundBlur_359_4812"/>
</filter>
<filter id="filter2_f_359_4812" x="47.2668" y="126.529" width="25.7918" height="25.7916" filterUnits="userSpaceOnUse" color-interpolation-filters="sRGB">
<feFlood flood-opacity="0" result="BackgroundImageFix"/>
<feBlend mode="normal" in="SourceGraphic" in2="BackgroundImageFix" result="shape"/>
<feGaussianBlur stdDeviation="5.15834" result="effect1_foregroundBlur_359_4812"/>
</filter>
<filter id="filter3_f_359_4812" x="11.1617" y="100.737" width="15.4751" height="15.4749" filterUnits="userSpaceOnUse" color-interpolation-filters="sRGB">
<feFlood flood-opacity="0" result="BackgroundImageFix"/>
<feBlend mode="normal" in="SourceGraphic" in2="BackgroundImageFix" result="shape"/>
<feGaussianBlur stdDeviation="2.57917" result="effect1_foregroundBlur_359_4812"/>
</filter>
<filter id="filter4_f_359_4812" x="109.169" y="23.3612" width="15.4751" height="15.4749" filterUnits="userSpaceOnUse" color-interpolation-filters="sRGB">
<feFlood flood-opacity="0" result="BackgroundImageFix"/>
<feBlend mode="normal" in="SourceGraphic" in2="BackgroundImageFix" result="shape"/>
<feGaussianBlur stdDeviation="2.57917" result="effect1_foregroundBlur_359_4812"/>
</filter>
<filter id="filter5_f_359_4812" x="31.7938" y="13.0458" width="15.4751" height="15.4749" filterUnits="userSpaceOnUse" color-interpolation-filters="sRGB">
<feFlood flood-opacity="0" result="BackgroundImageFix"/>
<feBlend mode="normal" in="SourceGraphic" in2="BackgroundImageFix" result="shape"/>
<feGaussianBlur stdDeviation="2.57917" result="effect1_foregroundBlur_359_4812"/>
</filter>
<filter id="filter6_f_359_4812" x="83.3805" y="54.3122" width="25.7918" height="25.7916" filterUnits="userSpaceOnUse" color-interpolation-filters="sRGB">
<feFlood flood-opacity="0" result="BackgroundImageFix"/>
<feBlend mode="normal" in="SourceGraphic" in2="BackgroundImageFix" result="shape"/>
<feGaussianBlur stdDeviation="5.15834" result="effect1_foregroundBlur_359_4812"/>
</filter>
<filter id="filter7_f_359_4812" x="36.9536" y="90.4198" width="15.4751" height="15.4749" filterUnits="userSpaceOnUse" color-interpolation-filters="sRGB">
<feFlood flood-opacity="0" result="BackgroundImageFix"/>
<feBlend mode="normal" in="SourceGraphic" in2="BackgroundImageFix" result="shape"/>
<feGaussianBlur stdDeviation="2.57917" result="effect1_foregroundBlur_359_4812"/>
</filter>
<filter id="filter8_f_359_4812" x="26.6355" y="18.2029" width="25.7918" height="25.7916" filterUnits="userSpaceOnUse" color-interpolation-filters="sRGB">
<feFlood flood-opacity="0" result="BackgroundImageFix"/>
<feBlend mode="normal" in="SourceGraphic" in2="BackgroundImageFix" result="shape"/>
<feGaussianBlur stdDeviation="5.15834" result="effect1_foregroundBlur_359_4812"/>
</filter>
<filter id="filter9_f_359_4812" x="119.491" y="49.1542" width="15.4751" height="15.4749" filterUnits="userSpaceOnUse" color-interpolation-filters="sRGB">
<feFlood flood-opacity="0" result="BackgroundImageFix"/>
<feBlend mode="normal" in="SourceGraphic" in2="BackgroundImageFix" result="shape"/>
<feGaussianBlur stdDeviation="2.57917" result="effect1_foregroundBlur_359_4812"/>
</filter>
<filter id="filter10_f_359_4812" x="165.916" y="105.895" width="25.7918" height="25.7916" filterUnits="userSpaceOnUse" color-interpolation-filters="sRGB">
<feFlood flood-opacity="0" result="BackgroundImageFix"/>
<feBlend mode="normal" in="SourceGraphic" in2="BackgroundImageFix" result="shape"/>
<feGaussianBlur stdDeviation="5.15834" result="effect1_foregroundBlur_359_4812"/>
</filter>
<filter id="filter11_f_359_4812" x="114.332" y="116.213" width="25.7918" height="25.7916" filterUnits="userSpaceOnUse" color-interpolation-filters="sRGB">
<feFlood flood-opacity="0" result="BackgroundImageFix"/>
<feBlend mode="normal" in="SourceGraphic" in2="BackgroundImageFix" result="shape"/>
<feGaussianBlur stdDeviation="5.15834" result="effect1_foregroundBlur_359_4812"/>
</filter>
<filter id="filter12_f_359_4812" x="134.964" y="147.162" width="25.7918" height="25.7916" filterUnits="userSpaceOnUse" color-interpolation-filters="sRGB">
<feFlood flood-opacity="0" result="BackgroundImageFix"/>
<feBlend mode="normal" in="SourceGraphic" in2="BackgroundImageFix" result="shape"/>
<feGaussianBlur stdDeviation="5.15834" result="effect1_foregroundBlur_359_4812"/>
</filter>
<filter id="filter13_f_359_4812" x="0.841784" y="136.846" width="15.4751" height="15.4749" filterUnits="userSpaceOnUse" color-interpolation-filters="sRGB">
<feFlood flood-opacity="0" result="BackgroundImageFix"/>
<feBlend mode="normal" in="SourceGraphic" in2="BackgroundImageFix" result="shape"/>
<feGaussianBlur stdDeviation="2.57917" result="effect1_foregroundBlur_359_4812"/>
</filter>
<filter id="filter14_f_359_4812" x="73.0552" y="121.371" width="15.4751" height="15.4749" filterUnits="userSpaceOnUse" color-interpolation-filters="sRGB">
<feFlood flood-opacity="0" result="BackgroundImageFix"/>
<feBlend mode="normal" in="SourceGraphic" in2="BackgroundImageFix" result="shape"/>
<feGaussianBlur stdDeviation="2.57917" result="effect1_foregroundBlur_359_4812"/>
</filter>
<filter id="filter15_f_359_4812" x="21.4718" y="157.478" width="15.4751" height="15.4749" filterUnits="userSpaceOnUse" color-interpolation-filters="sRGB">
<feFlood flood-opacity="0" result="BackgroundImageFix"/>
<feBlend mode="normal" in="SourceGraphic" in2="BackgroundImageFix" result="shape"/>
<feGaussianBlur stdDeviation="2.57917" result="effect1_foregroundBlur_359_4812"/>
</filter>
<filter id="filter16_f_359_4812" x="104.009" y="131.687" width="15.4751" height="15.4749" filterUnits="userSpaceOnUse" color-interpolation-filters="sRGB">
<feFlood flood-opacity="0" result="BackgroundImageFix"/>
<feBlend mode="normal" in="SourceGraphic" in2="BackgroundImageFix" result="shape"/>
<feGaussianBlur stdDeviation="2.57917" result="effect1_foregroundBlur_359_4812"/>
</filter>
<filter id="filter17_f_359_4812" x="93.6887" y="136.846" width="25.7918" height="25.7916" filterUnits="userSpaceOnUse" color-interpolation-filters="sRGB">
<feFlood flood-opacity="0" result="BackgroundImageFix"/>
<feBlend mode="normal" in="SourceGraphic" in2="BackgroundImageFix" result="shape"/>
<feGaussianBlur stdDeviation="5.15834" result="effect1_foregroundBlur_359_4812"/>
</filter>
<filter id="filter18_f_359_4812" x="160.754" y="126.529" width="25.7918" height="25.7916" filterUnits="userSpaceOnUse" color-interpolation-filters="sRGB">
<feFlood flood-opacity="0" result="BackgroundImageFix"/>
<feBlend mode="normal" in="SourceGraphic" in2="BackgroundImageFix" result="shape"/>
<feGaussianBlur stdDeviation="5.15834" result="effect1_foregroundBlur_359_4812"/>
</filter>
<filter id="filter19_f_359_4812" x="73.0552" y="38.8368" width="15.4751" height="15.4749" filterUnits="userSpaceOnUse" color-interpolation-filters="sRGB">
<feFlood flood-opacity="0" result="BackgroundImageFix"/>
<feBlend mode="normal" in="SourceGraphic" in2="BackgroundImageFix" result="shape"/>
<feGaussianBlur stdDeviation="2.57917" result="effect1_foregroundBlur_359_4812"/>
</filter>
<filter id="filter20_f_359_4812" x="52.4252" y="162.637" width="15.4751" height="15.4749" filterUnits="userSpaceOnUse" color-interpolation-filters="sRGB">
<feFlood flood-opacity="0" result="BackgroundImageFix"/>
<feBlend mode="normal" in="SourceGraphic" in2="BackgroundImageFix" result="shape"/>
<feGaussianBlur stdDeviation="2.57917" result="effect1_foregroundBlur_359_4812"/>
</filter>
<filter id="filter21_f_359_4812" x="26.6337" y="131.687" width="15.4751" height="15.4749" filterUnits="userSpaceOnUse" color-interpolation-filters="sRGB">
<feFlood flood-opacity="0" result="BackgroundImageFix"/>
<feBlend mode="normal" in="SourceGraphic" in2="BackgroundImageFix" result="shape"/>
<feGaussianBlur stdDeviation="2.57917" result="effect1_foregroundBlur_359_4812"/>
</filter>
<filter id="filter22_f_359_4812" x="0.841784" y="43.996" width="15.4751" height="15.4749" filterUnits="userSpaceOnUse" color-interpolation-filters="sRGB">
<feFlood flood-opacity="0" result="BackgroundImageFix"/>
<feBlend mode="normal" in="SourceGraphic" in2="BackgroundImageFix" result="shape"/>
<feGaussianBlur stdDeviation="2.57917" result="effect1_foregroundBlur_359_4812"/>
</filter>
<filter id="filter23_f_359_4812" x="83.3805" y="95.5788" width="25.7918" height="25.7916" filterUnits="userSpaceOnUse" color-interpolation-filters="sRGB">
<feFlood flood-opacity="0" result="BackgroundImageFix"/>
<feBlend mode="normal" in="SourceGraphic" in2="BackgroundImageFix" result="shape"/>
<feGaussianBlur stdDeviation="5.15834" result="effect1_foregroundBlur_359_4812"/>
</filter>
<filter id="filter24_f_359_4812" x="129.802" y="90.4216" width="25.7918" height="25.7916" filterUnits="userSpaceOnUse" color-interpolation-filters="sRGB">
<feFlood flood-opacity="0" result="BackgroundImageFix"/>
<feBlend mode="normal" in="SourceGraphic" in2="BackgroundImageFix" result="shape"/>
<feGaussianBlur stdDeviation="5.15834" result="effect1_foregroundBlur_359_4812"/>
</filter>
<filter id="filter25_f_359_4812" x="129.802" y="116.213" width="25.7918" height="25.7916" filterUnits="userSpaceOnUse" color-interpolation-filters="sRGB">
<feFlood flood-opacity="0" result="BackgroundImageFix"/>
<feBlend mode="normal" in="SourceGraphic" in2="BackgroundImageFix" result="shape"/>
<feGaussianBlur stdDeviation="5.15834" result="effect1_foregroundBlur_359_4812"/>
</filter>
<filter id="filter26_f_359_4812" x="119.491" y="100.737" width="15.4751" height="15.4749" filterUnits="userSpaceOnUse" color-interpolation-filters="sRGB">
<feFlood flood-opacity="0" result="BackgroundImageFix"/>
<feBlend mode="normal" in="SourceGraphic" in2="BackgroundImageFix" result="shape"/>
<feGaussianBlur stdDeviation="2.57917" result="effect1_foregroundBlur_359_4812"/>
</filter>
<filter id="filter27_f_359_4812" x="104.009" y="116.213" width="15.4751" height="15.4749" filterUnits="userSpaceOnUse" color-interpolation-filters="sRGB">
<feFlood flood-opacity="0" result="BackgroundImageFix"/>
<feBlend mode="normal" in="SourceGraphic" in2="BackgroundImageFix" result="shape"/>
<feGaussianBlur stdDeviation="2.57917" result="effect1_foregroundBlur_359_4812"/>
</filter>
<filter id="filter28_f_359_4812" x="52.4252" y="69.788" width="15.4751" height="15.4749" filterUnits="userSpaceOnUse" color-interpolation-filters="sRGB">
<feFlood flood-opacity="0" result="BackgroundImageFix"/>
<feBlend mode="normal" in="SourceGraphic" in2="BackgroundImageFix" result="shape"/>
<feGaussianBlur stdDeviation="2.57917" result="effect1_foregroundBlur_359_4812"/>
</filter>
<filter id="filter29_f_359_4812" x="42.1138" y="167.795" width="15.4751" height="15.4749" filterUnits="userSpaceOnUse" color-interpolation-filters="sRGB">
<feFlood flood-opacity="0" result="BackgroundImageFix"/>
<feBlend mode="normal" in="SourceGraphic" in2="BackgroundImageFix" result="shape"/>
<feGaussianBlur stdDeviation="2.57917" result="effect1_foregroundBlur_359_4812"/>
</filter>
<filter id="filter30_f_359_4812" x="171.062" y="69.7878" width="25.7918" height="25.7916" filterUnits="userSpaceOnUse" color-interpolation-filters="sRGB">
<feFlood flood-opacity="0" result="BackgroundImageFix"/>
<feBlend mode="normal" in="SourceGraphic" in2="BackgroundImageFix" result="shape"/>
<feGaussianBlur stdDeviation="5.15834" result="effect1_foregroundBlur_359_4812"/>
</filter>
<filter id="filter31_f_359_4812" x="160.754" y="59.4704" width="25.7918" height="25.7916" filterUnits="userSpaceOnUse" color-interpolation-filters="sRGB">
<feFlood flood-opacity="0" result="BackgroundImageFix"/>
<feBlend mode="normal" in="SourceGraphic" in2="BackgroundImageFix" result="shape"/>
<feGaussianBlur stdDeviation="5.15834" result="effect1_foregroundBlur_359_4812"/>
</filter>
<filter id="filter32_f_359_4812" x="176.221" y="131.687" width="15.4751" height="15.4749" filterUnits="userSpaceOnUse" color-interpolation-filters="sRGB">
<feFlood flood-opacity="0" result="BackgroundImageFix"/>
<feBlend mode="normal" in="SourceGraphic" in2="BackgroundImageFix" result="shape"/>
<feGaussianBlur stdDeviation="2.57917" result="effect1_foregroundBlur_359_4812"/>
</filter>
<filter id="filter33_f_359_4812" x="98.8503" y="33.6784" width="25.7918" height="25.7916" filterUnits="userSpaceOnUse" color-interpolation-filters="sRGB">
<feFlood flood-opacity="0" result="BackgroundImageFix"/>
<feBlend mode="normal" in="SourceGraphic" in2="BackgroundImageFix" result="shape"/>
<feGaussianBlur stdDeviation="5.15834" result="effect1_foregroundBlur_359_4812"/>
</filter>
<filter id="filter34_f_359_4812" x="129.802" y="90.4216" width="25.7918" height="25.7916" filterUnits="userSpaceOnUse" color-interpolation-filters="sRGB">
<feFlood flood-opacity="0" result="BackgroundImageFix"/>
<feBlend mode="normal" in="SourceGraphic" in2="BackgroundImageFix" result="shape"/>
<feGaussianBlur stdDeviation="5.15834" result="effect1_foregroundBlur_359_4812"/>
</filter>
<filter id="filter35_f_359_4812" x="3.26855" y="0" width="186" height="186" filterUnits="userSpaceOnUse" color-interpolation-filters="sRGB">
<feFlood flood-opacity="0" result="BackgroundImageFix"/>
<feBlend mode="normal" in="SourceGraphic" in2="BackgroundImageFix" result="shape"/>
<feGaussianBlur stdDeviation="22.5" result="effect1_foregroundBlur_359_4812"/>
</filter>
<linearGradient id="paint0_linear_359_4812" x1="85.0314" y1="57.6445" x2="85.0314" y2="157.645" gradientUnits="userSpaceOnUse">
<stop stop-color="#53389E"/>
<stop offset="1" stop-color="#2D2055"/>
</linearGradient>
<linearGradient id="paint1_linear_359_4812" x1="85.0314" y1="57.6445" x2="85.0314" y2="157.645" gradientUnits="userSpaceOnUse">
<stop stop-color="#2D2055"/>
<stop offset="1" stop-color="#42307D"/>
</linearGradient>
<linearGradient id="paint2_linear_359_4812" x1="34.3098" y1="58.124" x2="62.7961" y2="73.6742" gradientUnits="userSpaceOnUse">
<stop stop-color="white"/>
<stop offset="0.517259" stop-color="white" stop-opacity="0.01"/>
<stop offset="1" stop-color="white" stop-opacity="0"/>
</linearGradient>
</defs>
</svg>
