<svg width="25" height="21" viewBox="0 0 25 21" fill="none" xmlns="http://www.w3.org/2000/svg">
<g clip-path="url(#clip0_678_8295)">
<path d="M16.5 16.7057C20.9183 16.7057 24.5 13.124 24.5 8.70569C24.5 4.28741 20.9183 0.705688 16.5 0.705688C12.0817 0.705688 8.5 4.28741 8.5 8.70569C8.5 13.124 12.0817 16.7057 16.5 16.7057Z" fill="#D80027"/>
<path d="M20.6737 7.31437H17.8911V4.53174H15.1085V7.31437H12.3259V10.097H15.1085V12.8796H17.8911V10.097H20.6737V7.31437Z" fill="#F0F0F0"/>
</g>
<rect x="8.75" y="0.955688" width="15.5" height="15.5" rx="7.75" stroke="white" stroke-width="0.5"/>
<g clip-path="url(#clip1_678_8295)">
<path d="M8.5 19.7057C12.9183 19.7057 16.5 16.124 16.5 11.7057C16.5 7.28741 12.9183 3.70569 8.5 3.70569C4.08172 3.70569 0.5 7.28741 0.5 11.7057C0.5 16.124 4.08172 19.7057 8.5 19.7057Z" fill="#F0F0F0"/>
<path d="M8.15186 11.7056H16.4997C16.4997 10.9836 16.4034 10.2841 16.2241 9.61865H8.15186V11.7056Z" fill="#D80027"/>
<path d="M8.15186 7.5313H15.3255C14.8358 6.73218 14.2096 6.02584 13.4795 5.44434H8.15186V7.5313Z" fill="#D80027"/>
<path d="M8.49965 19.7057C10.3824 19.7057 12.113 19.0549 13.4795 17.9666H3.51978C4.88634 19.0549 6.61687 19.7057 8.49965 19.7057Z" fill="#D80027"/>
<path d="M1.67398 15.879H15.3256C15.7188 15.2374 16.0237 14.5362 16.2242 13.792H0.775391C0.975922 14.5362 1.28083 15.2374 1.67398 15.879Z" fill="#D80027"/>
<path d="M4.20575 4.955H4.93478L4.25666 5.44766L4.51569 6.24481L3.83759 5.75216L3.1595 6.24481L3.38325 5.55616C2.78619 6.0535 2.26287 6.63619 1.83162 7.28544H2.06522L1.63356 7.59903C1.56631 7.71122 1.50181 7.82519 1.44 7.94084L1.64612 8.57525L1.26156 8.29584C1.16597 8.49838 1.07853 8.70547 0.999938 8.91688L1.22703 9.61588H2.06522L1.38709 10.1085L1.64612 10.9057L0.968031 10.413L0.561844 10.7082C0.521187 11.035 0.5 11.3678 0.5 11.7057H8.5C8.5 7.28744 8.5 6.76656 8.5 3.70569C6.91963 3.70569 5.44641 4.16413 4.20575 4.955ZM4.51569 10.9057L3.83759 10.413L3.1595 10.9057L3.41853 10.1085L2.74041 9.61588H3.57859L3.83759 8.81872L4.09659 9.61588H4.93478L4.25666 10.1085L4.51569 10.9057ZM4.25666 7.77809L4.51569 8.57525L3.83759 8.08259L3.1595 8.57525L3.41853 7.77809L2.74041 7.28544H3.57859L3.83759 6.48828L4.09659 7.28544H4.93478L4.25666 7.77809ZM7.38525 10.9057L6.70716 10.413L6.02906 10.9057L6.28809 10.1085L5.60997 9.61588H6.44816L6.70716 8.81872L6.96616 9.61588H7.80434L7.12622 10.1085L7.38525 10.9057ZM7.12622 7.77809L7.38525 8.57525L6.70716 8.08259L6.02906 8.57525L6.28809 7.77809L5.60997 7.28544H6.44816L6.70716 6.48828L6.96616 7.28544H7.80434L7.12622 7.77809ZM7.12622 5.44766L7.38525 6.24481L6.70716 5.75216L6.02906 6.24481L6.28809 5.44766L5.60997 4.955H6.44816L6.70716 4.15784L6.96616 4.955H7.80434L7.12622 5.44766Z" fill="#0052B4"/>
</g>
<rect x="0.75" y="3.95569" width="15.5" height="15.5" rx="7.75" stroke="white" stroke-width="0.5"/>
<defs>
<clipPath id="clip0_678_8295">
<rect x="8.5" y="0.705688" width="16" height="16" rx="8" fill="white"/>
</clipPath>
<clipPath id="clip1_678_8295">
<rect x="0.5" y="3.70569" width="16" height="16" rx="8" fill="white"/>
</clipPath>
</defs>
</svg>
